<svg width="835" height="432" viewBox="0 0 835 432" fill="none" xmlns="http://www.w3.org/2000/svg">
<path d="M0 20C0 8.95431 8.9543 0 20 0H208.719V432H20C8.9543 432 0 423.046 0 412V20Z" fill="#E6E8FC"/>
<path d="M39.6129 333.404C39.6129 334.569 39.4236 335.646 39.045 336.636C38.6518 337.612 38.1057 338.464 37.4068 339.192C36.6932 339.906 35.8632 340.466 34.9167 340.874C33.9702 341.282 32.929 341.485 31.7932 341.485C30.6574 341.485 29.6162 341.282 28.6697 340.874C27.7232 340.466 26.9004 339.898 26.2015 339.17C25.4879 338.442 24.9419 337.59 24.5633 336.615C24.1701 335.624 23.9735 334.547 23.9735 333.382C23.9735 332.202 24.1774 331.117 24.5851 330.127C24.9783 329.123 25.568 328.271 26.3544 327.572L27.7305 328.991C27.1189 329.574 26.6674 330.229 26.3762 330.957C26.0704 331.685 25.9175 332.464 25.9175 333.294C25.9175 334.154 26.0631 334.955 26.3544 335.697C26.6456 336.425 27.0533 337.059 27.5776 337.597C28.1018 338.136 28.7279 338.559 29.456 338.864C30.1696 339.156 30.9486 339.301 31.7932 339.301C32.6378 339.301 33.4241 339.156 34.1522 338.864C34.8657 338.559 35.4846 338.136 36.0088 337.597C36.5331 337.059 36.9408 336.425 37.232 335.697C37.5233 334.955 37.6689 334.154 37.6689 333.294C37.6689 332.464 37.5233 331.685 37.232 330.957C36.9262 330.229 36.4603 329.574 35.8341 328.991L37.2102 327.572C37.9965 328.271 38.5936 329.123 39.0013 330.127C39.409 331.117 39.6129 332.21 39.6129 333.404Z" fill="#292D32"/>
<path d="M31.3784 351.969V344.084H33.2568V351.969H31.3784ZM39.4383 351.751V353.935H24.1484V343.145H26.0488V351.751H39.4383Z" fill="#292D32"/>
<path d="M39.6129 363.274C39.6129 364.512 39.4309 365.582 39.0668 366.485C38.7028 367.387 38.1858 368.086 37.516 368.582C36.8316 369.077 36.0307 369.324 35.1133 369.324C34.2105 369.324 33.446 369.091 32.8198 368.625C32.1791 368.145 31.6985 367.453 31.3782 366.55C31.0433 365.647 30.8758 364.555 30.8758 363.274C30.8758 361.992 31.0433 360.9 31.3782 359.997C31.6985 359.08 32.1791 358.381 32.8198 357.9C33.4605 357.42 34.225 357.18 35.1133 357.18C36.0307 357.18 36.8316 357.427 37.516 357.922C38.1858 358.417 38.7028 359.124 39.0668 360.041C39.4309 360.958 39.6129 362.036 39.6129 363.274ZM37.8436 363.274C37.8436 362.051 37.5961 361.097 37.101 360.412C36.5913 359.713 35.9069 359.364 35.0478 359.364C34.2032 359.364 33.5406 359.713 33.0601 360.412C32.565 361.097 32.3174 362.051 32.3174 363.274C32.3174 364.482 32.565 365.429 33.0601 366.113C33.5406 366.798 34.2032 367.14 35.0478 367.14C35.9069 367.14 36.5913 366.798 37.101 366.113C37.5961 365.429 37.8436 364.482 37.8436 363.274ZM32.0553 363.274C32.0553 364.439 31.9024 365.429 31.5966 366.244C31.2763 367.06 30.8248 367.686 30.2424 368.123C29.6453 368.56 28.9391 368.778 28.1236 368.778C27.2645 368.778 26.5291 368.552 25.9175 368.101C25.2914 367.635 24.8108 366.987 24.4759 366.157C24.141 365.327 23.9735 364.366 23.9735 363.274C23.9735 362.167 24.141 361.199 24.4759 360.369C24.8108 359.539 25.2914 358.891 25.9175 358.425C26.5291 357.959 27.2645 357.726 28.1236 357.726C28.9391 357.726 29.6453 357.944 30.2424 358.381C30.8248 358.818 31.2763 359.451 31.5966 360.281C31.9024 361.111 32.0553 362.109 32.0553 363.274ZM30.6574 363.274C30.6574 362.211 30.4389 361.381 30.0021 360.784C29.5652 360.172 28.9682 359.866 28.211 359.866C27.4392 359.866 26.8349 360.179 26.3981 360.806C25.9612 361.432 25.7428 362.254 25.7428 363.274C25.7428 364.293 25.9612 365.109 26.3981 365.72C26.8349 366.317 27.4392 366.616 28.211 366.616C28.9682 366.616 29.5652 366.324 30.0021 365.742C30.4389 365.145 30.6574 364.322 30.6574 363.274Z" fill="#292D32"/>
<path d="M30.7449 380.488V372.624H32.6016V380.488H30.7449ZM37.538 380.291V371.379H39.4383V382.475H24.1484V371.685H26.0488V380.291H37.538Z" fill="#292D32"/>
<path d="M39.6129 390.78C39.6129 392.134 39.3144 393.292 38.7173 394.253C38.1203 395.214 37.2612 395.949 36.1399 396.459C35.0041 396.954 33.6207 397.202 31.9898 397.202C30.2569 397.202 28.7935 396.896 27.5994 396.284C26.4053 395.673 25.5025 394.821 24.8909 393.729C24.2793 392.636 23.9735 391.384 23.9735 389.972C23.9735 389.244 24.0463 388.552 24.1919 387.897C24.3376 387.227 24.5633 386.652 24.8691 386.171L26.5728 387.001C26.2961 387.394 26.1068 387.846 26.0049 388.355C25.9029 388.85 25.852 389.375 25.852 389.928C25.852 391.486 26.3398 392.724 27.3154 393.641C28.2765 394.559 29.7109 395.017 31.6185 395.017C31.9243 395.017 32.2883 395.003 32.7106 394.974C33.1329 394.944 33.5479 394.872 33.9556 394.755L33.213 395.498C32.5431 395.279 31.9825 394.937 31.5311 394.471C31.0651 393.991 30.7229 393.423 30.5045 392.767C30.2715 392.098 30.155 391.377 30.155 390.605C30.155 389.586 30.3443 388.683 30.7229 387.897C31.1015 387.11 31.6403 386.491 32.3393 386.04C33.0237 385.589 33.8391 385.363 34.7856 385.363C35.7613 385.363 36.6132 385.603 37.3412 386.084C38.0693 386.564 38.63 387.212 39.0231 388.028C39.4163 388.843 39.6129 389.76 39.6129 390.78ZM37.8436 390.867C37.8436 390.197 37.7198 389.615 37.4723 389.12C37.2247 388.61 36.8825 388.21 36.4457 387.918C35.9943 387.627 35.4701 387.482 34.873 387.482C33.9702 387.482 33.2567 387.795 32.7324 388.421C32.1936 389.047 31.9243 389.899 31.9243 390.976C31.9243 391.675 32.0553 392.287 32.3174 392.811C32.5795 393.335 32.9363 393.75 33.3877 394.056C33.8246 394.347 34.3269 394.493 34.8949 394.493C35.4191 394.493 35.9069 394.355 36.3583 394.078C36.7952 393.801 37.1519 393.394 37.4286 392.855C37.7053 392.316 37.8436 391.653 37.8436 390.867Z" fill="#292D32"/>
<path d="M30.7449 408.303V400.439H32.6016V408.303H30.7449ZM37.538 408.106V399.194H39.4383V410.291H24.1484V399.5H26.0488V408.106H37.538Z" fill="#292D32"/>
<rect x="208.719" width="208.719" height="432" fill="#1E30FA"/>
<path d="M253.011 351.129L237.721 344.204V342.042L253.011 335.096V337.389L238.945 343.571V342.697L253.011 348.879V351.129ZM249.189 348.18L247.441 347.59V338.984L249.189 338.351V348.18Z" fill="white"/>
<path d="M244.951 360.009V352.123H246.83V360.009H244.951ZM253.011 359.79V361.974H237.721V351.184H239.622V359.79H253.011Z" fill="white"/>
<path d="M253.186 371.541C253.186 372.735 252.88 373.806 252.269 374.752C251.657 375.684 250.769 376.427 249.604 376.98C248.439 377.519 247.026 377.788 245.366 377.788C243.706 377.788 242.294 377.519 241.129 376.98C239.964 376.427 239.076 375.684 238.464 374.752C237.852 373.806 237.547 372.735 237.547 371.541C237.547 370.362 237.852 369.299 238.464 368.352C239.076 367.406 239.964 366.663 241.129 366.124C242.294 365.586 243.706 365.316 245.366 365.316C247.026 365.316 248.439 365.586 249.604 366.124C250.769 366.663 251.657 367.406 252.269 368.352C252.88 369.299 253.186 370.362 253.186 371.541ZM251.242 371.541C251.242 370.74 251.024 370.041 250.587 369.444C250.15 368.833 249.495 368.36 248.621 368.025C247.747 367.675 246.662 367.5 245.366 367.5C244.07 367.5 242.985 367.675 242.112 368.025C241.238 368.36 240.583 368.833 240.146 369.444C239.709 370.041 239.491 370.74 239.491 371.541C239.491 372.342 239.709 373.048 240.146 373.66C240.583 374.272 241.238 374.752 242.112 375.102C242.985 375.437 244.07 375.604 245.366 375.604C246.662 375.604 247.747 375.437 248.621 375.102C249.495 374.752 250.15 374.272 250.587 373.66C251.024 373.048 251.242 372.342 251.242 371.541Z" fill="white"/>
<path d="M253.186 385.614C253.186 386.691 253.019 387.74 252.684 388.759C252.349 389.764 251.897 390.587 251.329 391.227L249.604 390.223C250.084 389.713 250.478 389.05 250.783 388.235C251.089 387.42 251.242 386.546 251.242 385.614C251.242 384.478 251.002 383.597 250.521 382.971C250.026 382.33 249.364 382.01 248.534 382.01C247.733 382.01 247.092 382.316 246.611 382.927C246.116 383.524 245.869 384.478 245.869 385.789V387.012H244.34L238.748 382.468L239.622 382.163V390.528H237.721V380.437H239.207L244.777 384.959L244.1 386.094V385.374C244.1 383.524 244.515 382.141 245.345 381.223C246.175 380.292 247.23 379.826 248.512 379.826C249.371 379.826 250.157 380.037 250.871 380.459C251.584 380.881 252.152 381.522 252.574 382.381C252.982 383.226 253.186 384.303 253.186 385.614Z" fill="white"/>
<path d="M244.318 401.432V393.569H246.175V401.432H244.318ZM251.111 401.236V392.324H253.011V403.42H237.721V392.63H239.622V401.236H251.111Z" fill="white"/>
<path d="M253.011 410.172H238.595L239.622 409.233V413.623H237.721V408.01H253.011V410.172Z" fill="white"/>
<rect x="417.438" width="208.719" height="432" fill="#FFF9EC"/>
<path d="M463.725 337.258C463.725 338.422 463.536 339.5 463.157 340.49C462.764 341.466 462.218 342.318 461.519 343.046C460.806 343.759 459.976 344.32 459.029 344.728C458.083 345.135 457.041 345.339 455.906 345.339C454.77 345.339 453.729 345.135 452.782 344.728C451.836 344.32 451.013 343.752 450.314 343.024C449.6 342.296 449.054 341.444 448.676 340.468C448.283 339.478 448.086 338.401 448.086 337.236C448.086 336.056 448.29 334.971 448.698 333.981C449.091 332.976 449.68 332.125 450.467 331.426L451.843 332.845C451.231 333.428 450.78 334.083 450.489 334.811C450.183 335.539 450.03 336.318 450.03 337.148C450.03 338.007 450.176 338.808 450.467 339.551C450.758 340.279 451.166 340.913 451.69 341.451C452.214 341.99 452.84 342.412 453.568 342.718C454.282 343.009 455.061 343.155 455.906 343.155C456.75 343.155 457.537 343.009 458.265 342.718C458.978 342.412 459.597 341.99 460.121 341.451C460.645 340.913 461.053 340.279 461.344 339.551C461.636 338.808 461.781 338.007 461.781 337.148C461.781 336.318 461.636 335.539 461.344 334.811C461.039 334.083 460.573 333.428 459.947 332.845L461.323 331.426C462.109 332.125 462.706 332.976 463.114 333.981C463.521 334.971 463.725 336.063 463.725 337.258Z" fill="#292D32"/>
<path d="M454.857 356.718V348.855H456.714V356.718H454.857ZM461.65 356.521V347.61H463.551V358.706H448.261V347.915H450.161V356.521H461.65Z" fill="#292D32"/>
<path d="M448.086 368.474C448.086 367.09 448.384 365.925 448.981 364.979C449.579 364.018 450.445 363.29 451.581 362.795C452.702 362.3 454.078 362.052 455.709 362.052C457.442 362.052 458.905 362.358 460.099 362.969C461.293 363.581 462.196 364.426 462.808 365.503C463.42 366.581 463.725 367.84 463.725 369.282C463.725 369.995 463.653 370.687 463.507 371.357C463.361 372.012 463.136 372.587 462.83 373.083L461.126 372.253C461.388 371.845 461.577 371.393 461.694 370.898C461.796 370.389 461.847 369.857 461.847 369.304C461.847 367.76 461.366 366.53 460.405 365.612C459.43 364.695 457.988 364.236 456.08 364.236C455.775 364.236 455.411 364.251 454.988 364.28C454.566 364.309 454.151 364.375 453.743 364.477L454.486 363.756C455.156 363.96 455.724 364.302 456.19 364.782C456.641 365.248 456.983 365.816 457.216 366.486C457.435 367.141 457.544 367.862 457.544 368.648C457.544 369.653 457.355 370.549 456.976 371.335C456.597 372.121 456.066 372.74 455.381 373.192C454.682 373.643 453.86 373.869 452.913 373.869C451.923 373.869 451.071 373.636 450.358 373.17C449.629 372.689 449.069 372.041 448.676 371.226C448.283 370.396 448.086 369.479 448.086 368.474ZM449.855 368.386C449.855 369.042 449.979 369.624 450.227 370.134C450.474 370.643 450.816 371.044 451.253 371.335C451.69 371.612 452.214 371.75 452.826 371.75C453.729 371.75 454.449 371.437 454.988 370.811C455.512 370.185 455.775 369.34 455.775 368.277C455.775 367.578 455.644 366.967 455.381 366.442C455.119 365.904 454.763 365.489 454.311 365.197C453.86 364.892 453.357 364.739 452.804 364.739C452.265 364.739 451.777 364.877 451.34 365.154C450.904 365.43 450.547 365.838 450.27 366.377C449.994 366.916 449.855 367.585 449.855 368.386Z" fill="#292D32"/>
<path d="M455.491 384.235V376.35H457.369V384.235H455.491ZM463.551 384.017V386.201H448.261V375.411H450.161V384.017H463.551Z" fill="#292D32"/>
<path d="M455.491 398.1V390.215H457.369V398.1H455.491ZM463.551 397.882V400.066H448.261V389.276H450.161V397.882H463.551Z" fill="#292D32"/>
<path d="M455.491 411.965V404.08H457.369V411.965H455.491ZM463.551 411.747V413.931H448.261V403.141H450.161V411.747H463.551Z" fill="#292D32"/>
<path d="M626.157 0H814.877C825.922 0 834.877 8.95431 834.877 20V412C834.877 423.046 825.922 432 814.877 432H626.157V0Z" fill="#CC9931"/>
<path d="M670.45 338.066H656.034L657.061 337.127V341.517H655.16V335.904H670.45V338.066Z" fill="#292D32"/>
<path d="M670.625 348.469C670.625 349.547 670.458 350.595 670.123 351.615C669.788 352.62 669.336 353.442 668.768 354.083L667.043 353.078C667.523 352.569 667.917 351.906 668.222 351.091C668.528 350.275 668.681 349.401 668.681 348.469C668.681 347.334 668.441 346.453 667.96 345.826C667.465 345.186 666.803 344.865 665.973 344.865C665.172 344.865 664.531 345.171 664.05 345.783C663.555 346.38 663.308 347.334 663.308 348.644V349.867H661.779L656.187 345.324L657.061 345.018V353.384H655.16V343.293H656.646L662.216 347.814L661.538 348.95V348.229C661.538 346.38 661.953 344.996 662.784 344.079C663.614 343.147 664.669 342.681 665.951 342.681C666.81 342.681 667.596 342.892 668.31 343.315C669.023 343.737 669.591 344.378 670.013 345.237C670.421 346.081 670.625 347.159 670.625 348.469Z" fill="#292D32"/>
<path d="M654.985 361.453C654.985 360.07 655.284 358.905 655.881 357.958C656.478 356.997 657.344 356.269 658.48 355.774C659.601 355.279 660.978 355.031 662.608 355.031C664.341 355.031 665.805 355.337 666.999 355.949C668.193 356.56 669.096 357.405 669.707 358.482C670.319 359.56 670.625 360.82 670.625 362.261C670.625 362.975 670.552 363.666 670.406 364.336C670.261 364.992 670.035 365.567 669.729 366.062L668.025 365.232C668.288 364.824 668.477 364.373 668.593 363.878C668.695 363.368 668.746 362.836 668.746 362.283C668.746 360.739 668.266 359.509 667.305 358.592C666.329 357.674 664.887 357.216 662.98 357.216C662.674 357.216 662.31 357.23 661.888 357.259C661.465 357.288 661.05 357.354 660.643 357.456L661.385 356.735C662.055 356.939 662.623 357.281 663.089 357.762C663.54 358.228 663.883 358.795 664.116 359.465C664.334 360.121 664.443 360.841 664.443 361.628C664.443 362.633 664.254 363.528 663.875 364.314C663.497 365.101 662.965 365.72 662.281 366.171C661.582 366.622 660.759 366.848 659.813 366.848C658.822 366.848 657.971 366.615 657.257 366.149C656.529 365.669 655.968 365.021 655.575 364.205C655.182 363.375 654.985 362.458 654.985 361.453ZM656.755 361.366C656.755 362.021 656.878 362.603 657.126 363.113C657.373 363.623 657.716 364.023 658.153 364.314C658.589 364.591 659.114 364.729 659.725 364.729C660.628 364.729 661.349 364.416 661.888 363.79C662.412 363.164 662.674 362.319 662.674 361.256C662.674 360.557 662.543 359.946 662.281 359.422C662.019 358.883 661.662 358.468 661.211 358.177C660.759 357.871 660.257 357.718 659.703 357.718C659.165 357.718 658.677 357.856 658.24 358.133C657.803 358.41 657.446 358.817 657.17 359.356C656.893 359.895 656.755 360.565 656.755 361.366Z" fill="#292D32"/>
<path d="M654.985 374.934C654.985 373.551 655.284 372.386 655.881 371.439C656.478 370.478 657.344 369.75 658.48 369.255C659.601 368.76 660.978 368.512 662.608 368.512C664.341 368.512 665.805 368.818 666.999 369.43C668.193 370.041 669.096 370.886 669.707 371.963C670.319 373.041 670.625 374.301 670.625 375.742C670.625 376.456 670.552 377.147 670.406 377.817C670.261 378.472 670.035 379.048 669.729 379.543L668.025 378.713C668.288 378.305 668.477 377.854 668.593 377.358C668.695 376.849 668.746 376.317 668.746 375.764C668.746 374.22 668.266 372.99 667.305 372.073C666.329 371.155 664.887 370.696 662.98 370.696C662.674 370.696 662.31 370.711 661.888 370.74C661.465 370.769 661.05 370.835 660.643 370.937L661.385 370.216C662.055 370.42 662.623 370.762 663.089 371.243C663.54 371.709 663.883 372.276 664.116 372.946C664.334 373.602 664.443 374.322 664.443 375.109C664.443 376.113 664.254 377.009 663.875 377.795C663.497 378.582 662.965 379.201 662.281 379.652C661.582 380.103 660.759 380.329 659.813 380.329C658.822 380.329 657.971 380.096 657.257 379.63C656.529 379.15 655.968 378.502 655.575 377.686C655.182 376.856 654.985 375.939 654.985 374.934ZM656.755 374.847C656.755 375.502 656.878 376.084 657.126 376.594C657.373 377.104 657.716 377.504 658.153 377.795C658.589 378.072 659.114 378.21 659.725 378.21C660.628 378.21 661.349 377.897 661.888 377.271C662.412 376.645 662.674 375.8 662.674 374.737C662.674 374.038 662.543 373.427 662.281 372.903C662.019 372.364 661.662 371.949 661.211 371.658C660.759 371.352 660.257 371.199 659.703 371.199C659.165 371.199 658.677 371.337 658.24 371.614C657.803 371.891 657.446 372.298 657.17 372.837C656.893 373.376 656.755 374.046 656.755 374.847Z" fill="#292D32"/>
<path d="M670.625 387.382C670.625 388.547 670.435 389.624 670.057 390.615C669.664 391.59 669.118 392.442 668.419 393.17C667.705 393.884 666.875 394.444 665.929 394.852C664.982 395.26 663.941 395.464 662.805 395.464C661.669 395.464 660.628 395.26 659.682 394.852C658.735 394.444 657.912 393.877 657.213 393.148C656.5 392.42 655.954 391.568 655.575 390.593C655.182 389.603 654.985 388.525 654.985 387.36C654.985 386.181 655.189 385.096 655.597 384.106C655.99 383.101 656.58 382.249 657.366 381.55L658.742 382.97C658.131 383.552 657.679 384.207 657.388 384.936C657.082 385.664 656.929 386.443 656.929 387.273C656.929 388.132 657.075 388.933 657.366 389.675C657.657 390.404 658.065 391.037 658.589 391.576C659.114 392.115 659.74 392.537 660.468 392.843C661.181 393.134 661.96 393.279 662.805 393.279C663.65 393.279 664.436 393.134 665.164 392.843C665.878 392.537 666.496 392.115 667.021 391.576C667.545 391.037 667.953 390.404 668.244 389.675C668.535 388.933 668.681 388.132 668.681 387.273C668.681 386.443 668.535 385.664 668.244 384.936C667.938 384.207 667.472 383.552 666.846 382.97L668.222 381.55C669.008 382.249 669.605 383.101 670.013 384.106C670.421 385.096 670.625 386.188 670.625 387.382Z" fill="#292D32"/>
<path d="M670.625 402.847C670.625 404.012 670.435 405.09 670.057 406.08C669.664 407.056 669.118 407.907 668.419 408.635C667.705 409.349 666.875 409.91 665.929 410.317C664.982 410.725 663.941 410.929 662.805 410.929C661.669 410.929 660.628 410.725 659.682 410.317C658.735 409.91 657.912 409.342 657.213 408.614C656.5 407.886 655.954 407.034 655.575 406.058C655.182 405.068 654.985 403.99 654.985 402.825C654.985 401.646 655.189 400.561 655.597 399.571C655.99 398.566 656.58 397.714 657.366 397.015L658.742 398.435C658.131 399.017 657.679 399.673 657.388 400.401C657.082 401.129 656.929 401.908 656.929 402.738C656.929 403.597 657.075 404.398 657.366 405.141C657.657 405.869 658.065 406.502 658.589 407.041C659.114 407.58 659.74 408.002 660.468 408.308C661.181 408.599 661.96 408.745 662.805 408.745C663.65 408.745 664.436 408.599 665.164 408.308C665.878 408.002 666.496 407.58 667.021 407.041C667.545 406.502 667.953 405.869 668.244 405.141C668.535 404.398 668.681 403.597 668.681 402.738C668.681 401.908 668.535 401.129 668.244 400.401C667.938 399.673 667.472 399.017 666.846 398.435L668.222 397.015C669.008 397.714 669.605 398.566 670.013 399.571C670.421 400.561 670.625 401.653 670.625 402.847Z" fill="#292D32"/>
</svg>
