<svg width="27" height="27" viewBox="0 0 27 27" fill="none" xmlns="http://www.w3.org/2000/svg">
<path d="M13.4155 25.0594C7.53037 25.0594 1.18115 21.368 1.18115 13.268C1.18115 5.16797 7.53037 1.47656 13.4155 1.47656C16.6851 1.47656 19.7015 2.55234 21.9374 4.51406C24.3632 6.66563 25.6499 9.70312 25.6499 13.268C25.6499 16.8328 24.3632 19.8492 21.9374 22.0008C19.7015 23.9625 16.664 25.0594 13.4155 25.0594Z" fill="url(#paint0_radial_124_1346)"/>
<path d="M23.5172 6.25854C24.6415 8.07261 25.2279 10.2326 25.2279 12.6352C25.2279 16.2 23.9412 19.2164 21.5154 21.368C19.2795 23.3297 16.242 24.4266 12.9935 24.4266C9.184 24.4266 5.18885 22.8762 2.83057 19.5877C5.10025 23.3128 9.36963 25.0594 13.4154 25.0594C16.6638 25.0594 19.7013 23.9625 21.9373 22.0008C24.3631 19.8492 25.6498 16.8328 25.6498 13.268C25.6498 10.5807 24.9178 8.19284 23.5172 6.25854Z" fill="#EB8F00"/>
<path d="M13.5 19.788C11.0721 19.788 9.33815 18.5224 8.81714 17.7335C8.62097 17.4782 8.58089 17.1365 8.71167 16.8433C8.81081 16.6556 9.00698 16.5396 9.22003 16.5459C9.29808 16.5459 9.37612 16.5586 9.44995 16.5818C10.7641 16.9783 12.1289 17.1766 13.5 17.1682C14.871 17.1766 16.2379 16.9783 17.5499 16.5818C17.6238 16.5586 17.7018 16.5459 17.7799 16.5459C17.9929 16.5396 18.1891 16.6556 18.2882 16.8433C18.419 17.1365 18.3789 17.4782 18.1828 17.7335C17.6617 18.5266 15.9278 19.788 13.5 19.788Z" fill="#422B0D"/>
<path d="M26.1564 9.58075C26.1564 9.58075 25.2578 9.59974 25.2578 10.319C25.2578 12.0951 25.2789 15.9068 20.6172 15.9068C16.892 15.9068 15.1138 13.983 14.8143 11.8589C14.6919 10.975 14.3924 10.0132 13.4917 10.0132C12.591 10.0132 12.2999 10.9687 12.1776 11.8589C11.878 13.983 10.0998 15.9068 6.37467 15.9068C1.72139 15.9068 1.73404 12.0951 1.73404 10.319C1.73404 9.59974 0.835449 9.58075 0.835449 9.58075V7.82153C2.28037 7.63169 3.73584 7.5431 5.19131 7.55575C7.82381 7.55575 8.87217 7.55575 10.9668 7.76669C12.205 7.88903 13.498 7.9038 13.498 7.9038C13.498 7.9038 14.7847 7.88903 16.0293 7.76669C18.1239 7.55575 19.1722 7.55575 21.8047 7.55575C23.2602 7.5431 24.7136 7.6338 26.1564 7.82153V9.58075Z" fill="#422B0D"/>
<path d="M4.45512 10.9687C4.43403 11.3062 4.29903 11.6184 3.96786 11.6817C3.92989 11.688 3.89403 11.6923 3.85606 11.6923C3.55864 11.6901 3.3034 11.475 3.257 11.1797C3.12832 10.5975 3.26965 9.98788 3.6409 9.52171C3.98262 9.10827 4.49309 8.86991 5.02887 8.87202C5.34739 8.84249 5.63004 9.07663 5.65957 9.39514C5.65957 9.40147 5.66168 9.4078 5.66168 9.41624C5.66168 9.8128 5.34528 9.98155 5.02887 10.0912C4.68293 10.2473 4.45934 10.5891 4.45512 10.9687Z" fill="#896024"/>
<path d="M17.8666 10.9687C17.8476 11.3062 17.7105 11.6184 17.3814 11.6817C17.3434 11.688 17.3055 11.6923 17.2675 11.6923C16.968 11.6923 16.7127 11.475 16.6642 11.1797C16.5356 10.5975 16.6769 9.98788 17.0481 9.52171C17.392 9.10827 17.9003 8.86991 18.4382 8.87202C18.7567 8.84249 19.0394 9.07663 19.0689 9.39514C19.0689 9.40147 19.071 9.4078 19.071 9.41624C19.071 9.8128 18.7546 9.98155 18.4382 10.0912C18.0944 10.2473 17.8708 10.5891 17.8666 10.9687Z" fill="#896024"/>
<defs>
<radialGradient id="paint0_radial_124_1346" cx="0" cy="0" r="1" gradientUnits="userSpaceOnUse" gradientTransform="translate(13.4155 13.2679) scale(12.0149)">
<stop offset="0.5" stop-color="#FDE030"/>
<stop offset="0.92" stop-color="#F7C02B"/>
<stop offset="1" stop-color="#F4A223"/>
</radialGradient>
</defs>
</svg>
