<svg width="22" height="23" viewBox="0 0 22 23" fill="none" xmlns="http://www.w3.org/2000/svg">
<path d="M6.11209 7.50047C6.01412 8.54547 5.94537 10.3948 6.5624 11.182C6.5624 11.182 6.27193 9.15047 8.87584 6.60156C9.92428 5.57547 10.1666 4.17984 9.80053 3.13312C9.59256 2.54015 9.21272 2.05031 8.88272 1.70828C8.69022 1.50719 8.83803 1.17547 9.11818 1.1875C10.8129 1.26312 13.5594 1.73406 14.7265 4.66281C15.2387 5.94844 15.2765 7.27703 15.0324 8.62797C14.8777 9.49078 14.3277 11.4089 15.5824 11.6444C16.4779 11.8128 16.911 11.1012 17.1052 10.5891C17.186 10.3759 17.4662 10.3227 17.6174 10.4928C19.1299 12.2133 19.2588 14.2397 18.946 15.9842C18.341 19.3564 14.9258 21.8108 11.533 21.8108C7.29459 21.8108 3.92068 19.3856 3.04584 14.9959C2.6935 13.2239 2.87225 9.71765 5.60506 7.24265C5.80787 7.05703 6.13959 7.22203 6.11209 7.50047Z" fill="url(#paint0_radial_124_2653)"/>
<path d="M13.0815 13.8066C11.5192 11.7956 12.2187 9.50109 12.602 8.58672C12.6536 8.4664 12.5161 8.35297 12.4078 8.42687C11.7357 8.88406 10.359 9.96 9.71793 11.4742C8.84996 13.5212 8.91184 14.5233 9.42574 15.747C9.73512 16.4844 9.3759 16.6408 9.19543 16.6683C9.02012 16.6958 8.85856 16.5789 8.72965 16.4569C8.35881 16.1008 8.09454 15.6485 7.96652 15.1506C7.93902 15.0441 7.7998 15.0148 7.73621 15.1025C7.25496 15.7677 7.00574 16.835 6.99371 17.5895C6.9559 19.9219 8.88262 21.8125 11.2132 21.8125C14.1506 21.8125 16.2904 18.5641 14.6026 15.8484C14.1128 15.0578 13.6521 14.5405 13.0815 13.8066Z" fill="url(#paint1_radial_124_2653)"/>
<defs>
<radialGradient id="paint0_radial_124_2653" cx="0" cy="0" r="1" gradientUnits="userSpaceOnUse" gradientTransform="translate(10.6936 21.8642) rotate(-179.751) scale(12.1323 19.9066)">
<stop offset="0.314" stop-color="#FF9800"/>
<stop offset="0.662" stop-color="#FF6D00"/>
<stop offset="0.972" stop-color="#F44336"/>
</radialGradient>
<radialGradient id="paint1_radial_124_2653" cx="0" cy="0" r="1" gradientUnits="userSpaceOnUse" gradientTransform="translate(11.3748 9.79128) rotate(90.5787) scale(12.6941 9.55324)">
<stop offset="0.214" stop-color="#FFF176"/>
<stop offset="0.328" stop-color="#FFF27D"/>
<stop offset="0.487" stop-color="#FFF48F"/>
<stop offset="0.672" stop-color="#FFF7AD"/>
<stop offset="0.793" stop-color="#FFF9C4"/>
<stop offset="0.822" stop-color="#FFF8BD" stop-opacity="0.804"/>
<stop offset="0.863" stop-color="#FFF6AB" stop-opacity="0.529"/>
<stop offset="0.91" stop-color="#FFF38D" stop-opacity="0.209"/>
<stop offset="0.941" stop-color="#FFF176" stop-opacity="0"/>
</radialGradient>
</defs>
</svg>
