<svg width="84" height="84" viewBox="0 0 84 84" fill="none" xmlns="http://www.w3.org/2000/svg">
<rect width="84" height="84" rx="40" fill="white"/>
<path fill-rule="evenodd" clip-rule="evenodd" d="M43.161 13.2171L26.5206 33.5913C21.572 39.6503 26.2767 48.3 34.5208 48.3C37.1115 48.3 38.5923 51.0159 37.0412 52.9226L29.1357 62.6409C25.4921 67.1201 28.9706 73.5 35.0563 73.5C37.3955 73.5 39.5967 72.4826 40.9912 70.7567L57.5199 50.3005C62.3968 44.2647 57.7083 35.7 49.5273 35.7C46.976 35.7 45.5178 33.0255 47.0453 31.1477L55.0019 21.3666C58.648 16.8843 55.1671 10.5 49.0772 10.5C46.7497 10.5 44.5581 11.5066 43.161 13.2171Z" fill="#18171C"/>
</svg>
