<svg width="48" height="48" viewBox="0 0 48 48" fill="none" xmlns="http://www.w3.org/2000/svg">
<rect width="48" height="48" fill="white"/>
<path fill-rule="evenodd" clip-rule="evenodd" d="M24.6634 7.55262L15.1546 19.195C12.3269 22.6573 15.0153 27.6 19.7262 27.6C21.2066 27.6 22.0527 29.1519 21.1664 30.2415L16.649 35.7948C14.5669 38.3543 16.5546 42 20.0322 42C21.3689 42 22.6267 41.4186 23.4235 40.4324L32.8685 28.7431C35.6553 25.2941 32.9762 20.4 28.3013 20.4C26.8434 20.4 26.0102 18.8717 26.883 17.7987L31.4296 12.2095C33.5131 9.64819 31.5241 6 28.0441 6C26.7141 6 25.4618 6.57518 24.6634 7.55262Z" fill="#18171C"/>
</svg>
