<svg width="337" height="58" viewBox="0 0 337 58" fill="none" xmlns="http://www.w3.org/2000/svg">
<path d="M326.148 44.4261C323.941 44.4261 322.033 43.9574 320.423 43.0199C318.823 42.0729 317.587 40.7566 316.716 39.071C315.845 37.3759 315.409 35.411 315.409 33.1761C315.409 30.9223 315.845 28.9526 316.716 27.267C317.587 25.5719 318.823 24.2557 320.423 23.3182C322.033 22.3712 323.941 21.8977 326.148 21.8977C328.354 21.8977 330.258 22.3712 331.858 23.3182C333.468 24.2557 334.708 25.5719 335.58 27.267C336.451 28.9526 336.886 30.9223 336.886 33.1761C336.886 35.411 336.451 37.3759 335.58 39.071C334.708 40.7566 333.468 42.0729 331.858 43.0199C330.258 43.9574 328.354 44.4261 326.148 44.4261ZM326.176 39.7386C327.18 39.7386 328.018 39.4545 328.69 38.8863C329.363 38.3087 329.869 37.5227 330.21 36.5284C330.561 35.5341 330.736 34.4024 330.736 33.1335C330.736 31.8646 330.561 30.7329 330.21 29.7386C329.869 28.7443 329.363 27.9583 328.69 27.3807C328.018 26.803 327.18 26.5142 326.176 26.5142C325.163 26.5142 324.311 26.803 323.619 27.3807C322.938 27.9583 322.421 28.7443 322.071 29.7386C321.73 30.7329 321.56 31.8646 321.56 33.1335C321.56 34.4024 321.73 35.5341 322.071 36.5284C322.421 37.5227 322.938 38.3087 323.619 38.8863C324.311 39.4545 325.163 39.7386 326.176 39.7386Z" fill="white"/>
<path d="M305.391 44V22.1819H311.442V44H305.391ZM308.431 19.3694C307.531 19.3694 306.76 19.0711 306.116 18.4745C305.481 17.8684 305.164 17.144 305.164 16.3012C305.164 15.4678 305.481 14.7529 306.116 14.1563C306.76 13.5502 307.531 13.2472 308.431 13.2472C309.331 13.2472 310.098 13.5502 310.732 14.1563C311.376 14.7529 311.698 15.4678 311.698 16.3012C311.698 17.144 311.376 17.8684 310.732 18.4745C310.098 19.0711 309.331 19.3694 308.431 19.3694Z" fill="white"/>
<path d="M288.002 44.3552C286.345 44.3552 284.844 43.9291 283.499 43.0768C282.164 42.2151 281.103 40.9508 280.317 39.2842C279.541 37.608 279.152 35.5531 279.152 33.1194C279.152 30.6194 279.555 28.5408 280.36 26.8836C281.165 25.2169 282.235 23.9717 283.57 23.1478C284.915 22.3145 286.387 21.8978 287.988 21.8978C289.209 21.8978 290.227 22.1062 291.042 22.5228C291.865 22.93 292.528 23.4414 293.03 24.0569C293.542 24.663 293.93 25.2596 294.195 25.8467H294.38V14.9092H300.417V44.0001H294.451V40.5058H294.195C293.911 41.1118 293.508 41.7132 292.988 42.3097C292.476 42.8969 291.809 43.3846 290.985 43.7728C290.17 44.1611 289.176 44.3552 288.002 44.3552ZM289.919 39.5399C290.895 39.5399 291.719 39.2747 292.391 38.7444C293.073 38.2046 293.594 37.4518 293.953 36.4859C294.323 35.52 294.507 34.3883 294.507 33.091C294.507 31.7936 294.328 30.6668 293.968 29.7103C293.608 28.7539 293.087 28.0152 292.405 27.4944C291.723 26.9736 290.895 26.7132 289.919 26.7132C288.925 26.7132 288.087 26.983 287.405 27.5228C286.723 28.0626 286.207 28.8107 285.857 29.7671C285.507 30.7236 285.331 31.8315 285.331 33.091C285.331 34.3599 285.507 35.4821 285.857 36.4575C286.217 37.4234 286.733 38.181 287.405 38.7302C288.087 39.27 288.925 39.5399 289.919 39.5399Z" fill="white"/>
<path d="M269.071 34.7103V22.1819H275.122V44.0001H269.312V40.037H269.085C268.592 41.3154 267.773 42.3429 266.627 43.1194C265.491 43.8959 264.104 44.2842 262.465 44.2842C261.007 44.2842 259.724 43.9527 258.616 43.2898C257.508 42.627 256.642 41.6847 256.017 40.4631C255.401 39.2415 255.089 37.7785 255.079 36.0739V22.1819H261.13V34.9944C261.14 36.2823 261.485 37.3003 262.167 38.0484C262.849 38.7965 263.763 39.1705 264.909 39.1705C265.638 39.1705 266.32 39.0048 266.954 38.6734C267.589 38.3325 268.1 37.8306 268.488 37.1677C268.886 36.5048 269.08 35.6857 269.071 34.7103Z" fill="white"/>
<path d="M251.137 22.1819V26.7273H237.998V22.1819H251.137ZM240.981 16.9546H247.032V37.2955C247.032 37.8542 247.117 38.2898 247.288 38.6023C247.458 38.9053 247.695 39.1184 247.998 39.2415C248.311 39.3646 248.67 39.4262 249.078 39.4262C249.362 39.4262 249.646 39.4025 249.93 39.3552C250.214 39.2983 250.432 39.2557 250.583 39.2273L251.535 43.7302C251.232 43.8249 250.806 43.9338 250.257 44.0569C249.707 44.1894 249.04 44.2699 248.254 44.2983C246.795 44.3552 245.517 44.161 244.419 43.716C243.329 43.2709 242.482 42.5796 241.876 41.6421C241.27 40.7046 240.972 39.5209 240.981 38.091V16.9546Z" fill="white"/>
<path d="M229.217 23.2756C229.103 22.1297 228.615 21.2396 227.754 20.6051C226.892 19.9706 225.722 19.6534 224.245 19.6534C223.241 19.6534 222.394 19.7954 221.703 20.0795C221.011 20.3542 220.481 20.7377 220.112 21.2301C219.752 21.7225 219.572 22.2812 219.572 22.9062C219.553 23.4271 219.662 23.8816 219.899 24.2699C220.145 24.6581 220.481 24.9943 220.907 25.2784C221.333 25.553 221.826 25.7945 222.384 26.0028C222.943 26.2017 223.54 26.3721 224.174 26.5142L226.788 27.1392C228.057 27.4233 229.222 27.8021 230.282 28.2756C231.343 28.749 232.261 29.3314 233.038 30.0227C233.814 30.714 234.416 31.5284 234.842 32.4659C235.277 33.4034 235.5 34.4782 235.509 35.6903C235.5 37.4706 235.045 39.0142 234.146 40.321C233.256 41.6184 231.968 42.6269 230.282 43.3466C228.606 44.0568 226.584 44.4119 224.217 44.4119C221.868 44.4119 219.823 44.0521 218.08 43.3324C216.347 42.6127 214.993 41.5473 214.018 40.1364C213.052 38.7159 212.545 36.9593 212.498 34.8665H218.45C218.516 35.8418 218.795 36.6562 219.288 37.3096C219.79 37.9536 220.457 38.4413 221.291 38.7727C222.133 39.0947 223.085 39.2557 224.146 39.2557C225.187 39.2557 226.092 39.1042 226.859 38.8011C227.635 38.4981 228.237 38.0767 228.663 37.5369C229.089 36.9971 229.302 36.3769 229.302 35.6761C229.302 35.0227 229.108 34.4735 228.72 34.0284C228.341 33.5833 227.782 33.2045 227.044 32.892C226.314 32.5795 225.419 32.2954 224.359 32.0398L221.191 31.2443C218.739 30.6477 216.802 29.715 215.382 28.446C213.961 27.1771 213.256 25.4678 213.265 23.3182C213.256 21.5568 213.724 20.018 214.671 18.7017C215.628 17.3854 216.939 16.3579 218.606 15.6193C220.273 14.8807 222.167 14.5114 224.288 14.5114C226.447 14.5114 228.331 14.8807 229.941 15.6193C231.561 16.3579 232.82 17.3854 233.72 18.7017C234.619 20.018 235.083 21.5426 235.112 23.2756H229.217Z" fill="white"/>
<path d="M185.154 31.3865V44.0001H179.103V14.9092H184.983V26.0313H185.239C185.731 24.7435 186.527 23.7349 187.625 23.0058C188.724 22.2671 190.102 21.8978 191.759 21.8978C193.274 21.8978 194.595 22.2293 195.722 22.8921C196.858 23.5455 197.739 24.4878 198.364 25.7188C198.998 26.9404 199.311 28.4035 199.301 30.108V44.0001H193.25V31.1876C193.26 29.8429 192.919 28.7965 192.228 28.0484C191.546 27.3003 190.589 26.9262 189.358 26.9262C188.534 26.9262 187.805 27.1014 187.171 27.4518C186.546 27.8022 186.053 28.3135 185.693 28.9859C185.343 29.6488 185.163 30.449 185.154 31.3865Z" fill="white"/>
<path d="M165.484 44.4261C163.249 44.4261 161.327 43.9526 159.717 43.0057C158.116 42.0492 156.885 40.7235 156.024 39.0284C155.171 37.3333 154.745 35.3826 154.745 33.1761C154.745 30.9413 155.176 28.981 156.038 27.2954C156.909 25.6004 158.145 24.2793 159.745 23.3324C161.345 22.3759 163.249 21.8977 165.455 21.8977C167.359 21.8977 169.025 22.2433 170.455 22.9346C171.885 23.6259 173.017 24.5966 173.85 25.8466C174.684 27.0966 175.143 28.5644 175.228 30.25H169.518C169.357 29.161 168.931 28.285 168.239 27.6221C167.558 26.9498 166.663 26.6136 165.555 26.6136C164.617 26.6136 163.798 26.8693 163.097 27.3807C162.406 27.8826 161.866 28.6165 161.478 29.5824C161.09 30.5483 160.896 31.7178 160.896 33.0909C160.896 34.4829 161.085 35.6666 161.464 36.642C161.852 37.6174 162.397 38.3608 163.097 38.8721C163.798 39.3835 164.617 39.6392 165.555 39.6392C166.246 39.6392 166.866 39.4971 167.416 39.213C167.974 38.929 168.434 38.517 168.793 37.9772C169.163 37.428 169.404 36.7699 169.518 36.0028H175.228C175.133 37.6695 174.679 39.1373 173.864 40.4062C173.06 41.6657 171.947 42.6505 170.526 43.3608C169.106 44.071 167.425 44.4261 165.484 44.4261Z" fill="white"/>
<path d="M141.663 44.4261C139.418 44.4261 137.487 43.9716 135.867 43.0625C134.257 42.1439 133.017 40.8466 132.146 39.1704C131.274 37.4848 130.839 35.4915 130.839 33.1903C130.839 30.946 131.274 28.9763 132.146 27.2812C133.017 25.5862 134.243 24.2651 135.825 23.3182C137.416 22.3712 139.281 21.8977 141.421 21.8977C142.861 21.8977 144.201 22.1297 145.441 22.5937C146.691 23.0483 147.78 23.7348 148.708 24.6534C149.646 25.5719 150.375 26.7273 150.896 28.1193C151.417 29.5019 151.677 31.1212 151.677 32.9772V34.6392H133.254V30.8892H145.981C145.981 30.018 145.792 29.2462 145.413 28.5738C145.034 27.9015 144.508 27.3759 143.836 26.9971C143.173 26.6089 142.401 26.4147 141.521 26.4147C140.602 26.4147 139.788 26.6278 139.078 27.054C138.377 27.4706 137.828 28.0341 137.43 28.7443C137.032 29.4451 136.828 30.2263 136.819 31.088V34.6534C136.819 35.7329 137.018 36.6657 137.416 37.4517C137.823 38.2377 138.396 38.8437 139.134 39.2699C139.873 39.696 140.749 39.9091 141.762 39.9091C142.435 39.9091 143.05 39.8144 143.609 39.625C144.167 39.4356 144.646 39.1515 145.043 38.7727C145.441 38.3939 145.744 37.9299 145.953 37.3807L151.549 37.75C151.265 39.0947 150.683 40.2689 149.802 41.2727C148.931 42.267 147.804 43.0435 146.421 43.6022C145.048 44.1515 143.462 44.4261 141.663 44.4261Z" fill="white"/>
<path d="M116.368 44.0001V22.1819H122.235V25.9887H122.462C122.86 24.6345 123.527 23.6118 124.465 22.9205C125.402 22.2198 126.482 21.8694 127.703 21.8694C128.006 21.8694 128.333 21.8883 128.684 21.9262C129.034 21.9641 129.342 22.0162 129.607 22.0825V27.4518C129.323 27.3665 128.93 27.2908 128.428 27.2245C127.926 27.1582 127.467 27.1251 127.05 27.1251C126.16 27.1251 125.364 27.3192 124.664 27.7075C123.972 28.0862 123.423 28.6165 123.016 29.2984C122.618 29.9802 122.419 30.7662 122.419 31.6563V44.0001H116.368Z" fill="white"/>
<path d="M99.3869 44.4119C97.9949 44.4119 96.7543 44.1704 95.6653 43.6875C94.5763 43.1951 93.7145 42.4706 93.0801 41.5142C92.4551 40.5483 92.1426 39.3456 92.1426 37.9062C92.1426 36.6941 92.3651 35.6761 92.8102 34.8522C93.2553 34.0284 93.8613 33.3655 94.6284 32.8636C95.3954 32.3617 96.2666 31.9829 97.242 31.7272C98.2269 31.4716 99.2591 31.2916 100.339 31.1875C101.608 31.0549 102.63 30.9318 103.407 30.8182C104.183 30.6951 104.747 30.5151 105.097 30.2784C105.448 30.0416 105.623 29.6913 105.623 29.2272V29.142C105.623 28.2424 105.339 27.5464 104.77 27.054C104.212 26.5615 103.416 26.3153 102.384 26.3153C101.295 26.3153 100.429 26.5568 99.7846 27.0397C99.1407 27.5132 98.7145 28.1098 98.5062 28.8295L92.9096 28.375C93.1937 27.0492 93.7524 25.9034 94.5858 24.9375C95.4191 23.9621 96.4939 23.214 97.8102 22.6932C99.1359 22.1629 100.67 21.8977 102.412 21.8977C103.625 21.8977 104.785 22.0397 105.893 22.3238C107.01 22.6079 108 23.0483 108.861 23.6449C109.733 24.2415 110.419 25.0085 110.921 25.946C111.423 26.874 111.674 27.9867 111.674 29.2841V44H105.935V40.9744H105.765C105.414 41.6562 104.946 42.2576 104.358 42.7784C103.771 43.2897 103.066 43.6922 102.242 43.9858C101.418 44.2699 100.466 44.4119 99.3869 44.4119ZM101.12 40.2358C102.01 40.2358 102.796 40.0606 103.478 39.7102C104.16 39.3504 104.695 38.8674 105.083 38.2613C105.471 37.6553 105.665 36.9687 105.665 36.2017V33.8863C105.476 34.0094 105.215 34.1231 104.884 34.2272C104.562 34.3219 104.198 34.4119 103.79 34.4971C103.383 34.5729 102.976 34.6439 102.569 34.7102C102.162 34.767 101.792 34.8191 101.461 34.8665C100.751 34.9706 100.13 35.1363 99.6 35.3636C99.0697 35.5909 98.6577 35.8987 98.3642 36.2869C98.0706 36.6657 97.9238 37.1392 97.9238 37.7074C97.9238 38.5312 98.2221 39.161 98.8187 39.5966C99.4248 40.0227 100.192 40.2358 101.12 40.2358Z" fill="white"/>
<path d="M68.4209 19.9802V14.9092H92.3129V19.9802H83.4067V44.0001H77.3271V19.9802H68.4209Z" fill="white"/>
<rect width="58" height="58" fill="white"/>
<path fill-rule="evenodd" clip-rule="evenodd" d="M29.802 9.12608L18.3122 23.194C14.8953 27.3776 18.1438 33.35 23.8361 33.35C25.6249 33.35 26.6474 35.2253 25.5764 36.5418L20.1178 43.2521C17.602 46.3448 20.0038 50.75 24.2059 50.75C25.8211 50.75 27.3409 50.0475 28.3037 48.8558L39.7164 34.7313C43.0838 30.5637 39.8465 24.65 34.1977 24.65C32.4362 24.65 31.4293 22.8033 32.484 21.5068L37.9778 14.7531C40.4954 11.6582 38.0919 7.25 33.8869 7.25C32.2799 7.25 30.7666 7.94501 29.802 9.12608Z" fill="black"/>
</svg>
