<svg width="128" height="45" viewBox="0 0 128 45" fill="none" xmlns="http://www.w3.org/2000/svg">
<path d="M116.208 42.3339C115.141 42.3339 114.224 42.2415 113.456 42.0565C112.688 41.8716 111.99 41.5444 111.365 41.075C110.07 40.1362 109.423 38.3865 109.423 35.826C109.423 33.5499 110.084 31.9212 111.407 30.9396C112.645 30.0292 114.245 29.574 116.208 29.574C117.047 29.574 117.766 29.6167 118.363 29.7021C118.961 29.7732 119.565 29.9368 120.177 30.1928C120.803 30.4489 121.301 30.7974 121.671 31.2384C122.055 31.6793 122.368 32.291 122.609 33.0734C122.851 33.8416 122.972 34.7591 122.972 35.826C122.972 37.9882 122.361 39.6169 121.137 40.7123C119.914 41.7934 118.271 42.3339 116.208 42.3339ZM115.461 38.1731C115.561 38.6852 115.661 38.991 115.76 39.0906C115.874 39.1902 116.016 39.24 116.187 39.24C116.372 39.24 116.514 39.1902 116.614 39.0906C116.727 38.991 116.827 38.6852 116.912 38.1731C117.012 37.661 117.062 37.0209 117.062 36.2527C117.062 35.4703 117.04 34.8729 116.998 34.4603C116.969 34.0336 116.927 33.7064 116.87 33.4788C116.827 33.2512 116.763 33.0734 116.678 32.9454C116.55 32.7605 116.393 32.668 116.208 32.668C116.038 32.668 115.895 32.7249 115.781 32.8387C115.668 32.9383 115.561 33.2512 115.461 33.7775C115.362 34.2896 115.312 35.0222 115.312 35.9753C115.312 36.9284 115.362 37.661 115.461 38.1731Z" fill="white"/>
<path d="M108.045 31.1103V41.6298C108.045 41.7862 107.632 41.9143 106.807 42.0139C105.996 42.0992 105.157 42.1419 104.289 42.1419C103.436 42.1419 102.881 42.1063 102.625 42.0352C102.383 41.9498 102.262 41.8147 102.262 41.6298V31.4944C102.262 31.1815 102.66 30.8756 103.457 30.5769C104.268 30.2639 105.15 30.1075 106.103 30.1075C107.397 30.1075 108.045 30.4418 108.045 31.1103ZM105.143 25.4985C106.082 25.4985 106.814 25.6408 107.34 25.9253C107.881 26.1956 108.151 26.6934 108.151 27.4189C108.151 28.6992 107.156 29.3393 105.164 29.3393C103.173 29.3393 102.177 28.6992 102.177 27.4189C102.177 26.1387 103.165 25.4985 105.143 25.4985Z" fill="white"/>
<path d="M92.0178 42.3339C91.4915 42.3339 91.0007 42.2557 90.5455 42.0992C90.0903 41.9427 89.7134 41.7507 89.4146 41.5231C89.1301 41.2955 88.8812 40.9896 88.6678 40.6056C88.4544 40.2215 88.2908 39.8588 88.177 39.5173C88.0632 39.1617 87.9779 38.7279 87.921 38.2158C87.8356 37.4618 87.793 36.6012 87.793 35.6339C87.793 33.6566 88.1557 32.1559 88.8812 31.1317C89.6067 30.0932 90.6024 29.574 91.8685 29.574C93.1629 29.574 94.1018 29.8799 94.685 30.4915C94.813 30.6338 94.9126 30.8045 94.9837 31.0036H95.1544L94.8984 29.5313V26.8641C94.8984 26.5512 95.2967 26.2454 96.0933 25.9466C96.8899 25.6479 97.7505 25.4985 98.6752 25.4985C99.6425 25.4985 100.261 25.6835 100.532 26.0533C100.631 26.1956 100.681 26.3378 100.681 26.4801V41.6298C100.681 41.7862 100.283 41.9143 99.486 42.0138C98.7036 42.0992 97.9426 42.1419 97.2029 42.1419C96.4774 42.1419 96.008 42.1205 95.7946 42.0779C95.5954 42.021 95.4674 41.9641 95.4105 41.9072C95.3678 41.8503 95.3394 41.7578 95.3251 41.6298L95.1544 40.4135H94.9837C94.8557 40.9114 94.5997 41.331 94.2156 41.6724C93.7319 42.1134 92.9993 42.3339 92.0178 42.3339ZM94.4076 39.2186C94.6352 39.2186 94.8059 39.0764 94.9197 38.7919V33.0947C94.9197 32.9525 94.8415 32.8458 94.685 32.7747C94.5428 32.6893 94.4147 32.6466 94.3009 32.6466C93.8173 32.6466 93.5755 33.7562 93.5755 35.9753C93.5755 37.156 93.6395 37.9953 93.7675 38.4931C93.9097 38.9768 94.1231 39.2186 94.4076 39.2186Z" fill="white"/>
<path d="M77.8338 42.3339C76.2406 42.3339 75.1239 41.9214 74.4838 41.0963C73.8579 40.2713 73.5449 38.8345 73.5449 36.7861V30.9823C73.5449 30.6978 73.9646 30.4275 74.8038 30.1715C75.6431 29.9012 76.5251 29.7661 77.4497 29.7661C78.6873 29.7661 79.3061 30.0861 79.3061 30.7262V36.146C79.3061 37.2271 79.3488 38.0166 79.4341 38.5145C79.5195 38.9981 79.7328 39.24 80.0742 39.24C80.5294 39.24 80.757 39.0479 80.757 38.6638V30.9823C80.757 30.6836 81.198 30.4062 82.08 30.1501C82.9619 29.8941 83.9221 29.7661 84.9605 29.7661C85.999 29.7661 86.5182 30.0434 86.5182 30.5982V41.5871C86.5182 41.7862 86.0701 41.9285 85.1739 42.0138C84.2777 42.0992 83.3958 42.1419 82.5281 42.1419C81.6603 42.1419 81.2194 42.0281 81.2051 41.8005L80.9917 40.4135H80.821C80.693 40.9256 80.437 41.3453 80.0529 41.6724C79.8537 41.8431 79.555 41.9996 79.1567 42.1419C78.7726 42.2699 78.3317 42.3339 77.8338 42.3339Z" fill="white"/>
<path d="M71.6379 41.9498C71.3818 42.1916 70.7986 42.3126 69.8882 42.3126C68.9778 42.3126 68.2239 42.2557 67.6264 42.1419C67.0289 42.0138 66.4599 41.772 65.9194 41.4164C64.881 40.7193 64.3617 39.2684 64.3617 37.0635V33.7348H63.2949C63.1384 33.7348 63.0033 33.5712 62.8895 33.2441C62.7757 32.9169 62.7188 32.4688 62.7188 31.8998C62.7188 31.3308 62.8041 30.8329 62.9748 30.4062C63.1597 29.9652 63.3944 29.7447 63.6789 29.7447H64.3617V27.1628C64.3617 26.7219 64.7885 26.3662 65.642 26.096C66.5097 25.8257 67.3561 25.6906 68.1812 25.6906C69.4757 25.6906 70.1229 26.0106 70.1229 26.6507V29.7447H71.7019C72.0717 29.7447 72.2567 30.2781 72.2567 31.345C72.2567 32.042 72.1713 32.6182 72.0006 33.0734C71.8441 33.5143 71.6379 33.7348 71.3818 33.7348H70.1229V37.6396C70.1229 38.0237 70.2865 38.3011 70.6137 38.4718C70.9408 38.6283 71.2253 38.7065 71.4672 38.7065C71.7232 38.7065 71.8797 38.8274 71.9366 39.0692C71.9935 39.3111 72.022 39.6738 72.022 40.1575C72.022 41.1105 71.8939 41.708 71.6379 41.9498Z" fill="white"/>
<path d="M60.2581 41.2457C59.8313 41.5587 59.2339 41.8218 58.4657 42.0352C57.7118 42.2344 56.7302 42.3339 55.5211 42.3339C54.3262 42.3339 53.1882 42.2344 52.1071 42.0352C51.026 41.8361 50.2507 41.6156 49.7813 41.3737C49.3119 41.1319 49.0771 40.8972 49.0771 40.6696C49.0771 39.873 49.1909 39.0479 49.4186 38.1944C49.6462 37.3267 49.9164 36.8928 50.2294 36.8928C50.2863 36.8928 50.8766 37.0849 52.0004 37.469C53.1242 37.853 53.9706 38.0451 54.5396 38.0451C55.1086 38.0451 55.4784 37.9882 55.6491 37.8744C55.8198 37.7463 55.9052 37.5685 55.9052 37.3409C55.9052 37.1133 55.7487 36.9142 55.4358 36.7435C55.1228 36.5585 54.7316 36.4021 54.2622 36.274C53.7928 36.1318 53.2807 35.9326 52.7259 35.6766C52.1853 35.4205 51.6803 35.136 51.2109 34.8231C50.7415 34.5101 50.3503 34.0692 50.0373 33.5002C49.7244 32.9169 49.5679 32.2555 49.5679 31.5158C49.5679 28.3578 51.4527 26.7788 55.2224 26.7788C56.6307 26.7788 57.8469 26.8713 58.8711 27.0562C59.8953 27.2269 60.6137 27.4261 61.0262 27.6537C61.453 27.867 61.6663 28.0804 61.6663 28.2938C61.6663 29.0335 61.4885 29.8301 61.1329 30.6836C60.7915 31.5371 60.4572 31.9638 60.13 31.9638C60.0731 31.9638 59.8882 31.8998 59.5753 31.7718C58.6364 31.3593 57.854 31.153 57.2281 31.153C56.6164 31.153 56.1968 31.2099 55.9692 31.3237C55.7558 31.4375 55.6491 31.6153 55.6491 31.8572C55.6491 32.0848 55.8056 32.2768 56.1186 32.4333C56.4315 32.5755 56.8156 32.7107 57.2708 32.8387C57.7402 32.9525 58.2452 33.1374 58.7858 33.3935C59.3405 33.6353 59.8526 33.9269 60.3221 34.2683C60.7915 34.5955 61.1827 35.0649 61.4956 35.6766C61.8086 36.2883 61.9651 36.9995 61.9651 37.8104C61.9651 38.6639 61.7446 39.4391 61.3036 40.1362C61.0333 40.5629 60.6848 40.9328 60.2581 41.2457Z" fill="white"/>
<path d="M121.426 19.2253V13.2934C121.426 12.2266 121.383 11.4513 121.298 10.9676C121.213 10.484 121.006 10.2422 120.679 10.2422C120.395 10.2422 120.252 10.4342 120.252 10.8183V19.2253C120.252 19.3818 119.84 19.5098 119.015 19.6094C118.19 19.6947 117.343 19.7374 116.476 19.7374C115.608 19.7374 115.06 19.7018 114.833 19.6307C114.605 19.5454 114.491 19.4102 114.491 19.2253V4.43833C114.491 4.1396 114.904 3.84087 115.729 3.54214C116.554 3.24342 117.422 3.09406 118.332 3.09406C119.285 3.09406 119.89 3.27187 120.146 3.6275C120.231 3.7413 120.274 3.86221 120.274 3.99023V7.12686L120.039 8.59916H120.188C120.388 8.30043 120.7 8.03727 121.127 7.80967C121.924 7.38292 122.792 7.16954 123.73 7.16954C125.082 7.16954 125.992 7.6034 126.462 8.47114C126.945 9.32464 127.187 10.7187 127.187 12.6533V19.2253C127.187 19.3818 126.767 19.5098 125.928 19.6094C125.103 19.6947 124.257 19.7374 123.389 19.7374C122.535 19.7374 121.995 19.7018 121.767 19.6307C121.54 19.5454 121.426 19.4102 121.426 19.2253Z" fill="white"/>
<path d="M105.512 19.3747C105.17 19.2182 104.801 18.9835 104.402 18.6705C104.018 18.3576 103.698 17.9877 103.442 17.561C102.845 16.5368 102.546 15.1996 102.546 13.5495C102.546 12.5253 102.709 11.6149 103.037 10.8183C103.364 10.0075 103.762 9.38156 104.232 8.94058C104.701 8.4996 105.242 8.13686 105.853 7.85236C106.835 7.39716 107.816 7.16956 108.798 7.16956C110.448 7.16956 111.593 7.29758 112.233 7.55363C112.888 7.80968 113.215 8.24355 113.215 8.85523C113.215 9.46691 113.101 10.1213 112.873 10.8183C112.66 11.5011 112.375 11.8425 112.02 11.8425C111.906 11.8425 111.557 11.7216 110.974 11.4798C110.405 11.2379 109.907 11.117 109.481 11.117C109.068 11.117 108.748 11.2877 108.52 11.6291C108.307 11.9563 108.2 12.6035 108.2 13.5708C108.2 14.5239 108.3 15.1783 108.499 15.5339C108.698 15.8753 109.004 16.046 109.417 16.046C109.843 16.046 110.37 15.9038 110.996 15.6193C111.622 15.3348 111.97 15.1925 112.041 15.1925C112.311 15.1925 112.567 15.5126 112.809 16.1527C113.065 16.7928 113.193 17.3618 113.193 17.8597C113.193 18.6279 112.795 19.1684 111.998 19.4814C111.202 19.7801 110.121 19.9295 108.755 19.9295C107.404 19.9295 106.323 19.7445 105.512 19.3747Z" fill="white"/>
<path d="M94.7226 14.9151C94.7226 15.8397 95.1636 16.3021 96.0456 16.3021C96.5577 16.3021 97.2262 16.1314 98.0513 15.79C98.8764 15.4343 99.3102 15.2565 99.3529 15.2565C99.6232 15.2565 99.9788 15.6619 100.42 16.4728C100.861 17.2836 101.081 17.881 101.081 18.2651C101.081 18.8199 100.512 19.2395 99.3742 19.524C98.2362 19.8085 97.1196 19.9508 96.0242 19.9508C94.9431 19.9508 94.0327 19.8654 93.293 19.6947C92.5675 19.524 91.9701 19.3107 91.5006 19.0546C91.0454 18.7843 90.64 18.4572 90.2844 18.0731C89.943 17.689 89.687 17.3263 89.5163 16.9849C89.3456 16.6292 89.2104 16.238 89.1108 15.8113C88.9686 15.1854 88.8975 14.5381 88.8975 13.8696C88.8975 11.2806 89.5732 9.49536 90.9245 8.51383C91.5931 8.01595 92.3399 7.66743 93.165 7.46828C93.99 7.26913 94.9645 7.16956 96.0882 7.16956C99.6872 7.16956 101.487 8.42136 101.487 10.925C101.487 13.5851 99.4667 14.9151 95.4268 14.9151H94.7226ZM94.68 11.7998V13.2081C95.0925 13.2081 95.4268 13.0445 95.6828 12.7173C95.9531 12.3902 96.0882 11.9919 96.0882 11.5224C96.0882 10.6689 95.8677 10.2422 95.4268 10.2422C94.9289 10.2422 94.68 10.7614 94.68 11.7998Z" fill="white"/>
<path d="M82.3696 12.9947V19.2253C82.3696 19.3818 81.9641 19.5098 81.1533 19.6094C80.3567 19.6947 79.5245 19.7374 78.6568 19.7374C77.8033 19.7374 77.2485 19.7018 76.9925 19.6307C76.7364 19.5454 76.6084 19.4102 76.6084 19.2253V8.70586C76.6084 8.43559 76.9996 8.14397 77.782 7.83102C78.5786 7.51807 79.4392 7.36159 80.3638 7.36159C81.3027 7.36159 81.829 7.61765 81.9428 8.12975L82.1562 9.11128H82.3055C82.5047 8.57073 82.9812 8.11552 83.7352 7.74567C84.4891 7.36159 85.243 7.16956 85.9969 7.16956C86.7509 7.16956 87.2772 7.29047 87.5759 7.5323C87.8889 7.77412 88.0454 8.08707 88.0454 8.47115C88.0454 8.841 88.0169 9.31754 87.96 9.90077C87.9031 10.484 87.7609 11.117 87.5333 11.7998C87.3199 12.4826 87.0354 12.824 86.6798 12.824C86.5375 12.824 86.0894 12.7173 85.3355 12.504C84.5816 12.2906 83.9556 12.1839 83.4578 12.1839C82.9741 12.1839 82.6683 12.255 82.5403 12.3973C82.4265 12.5395 82.3696 12.7387 82.3696 12.9947Z" fill="white"/>
<path d="M66.4938 19.9295C65.1994 19.9295 64.1823 19.6236 63.4426 19.0119C63.1438 18.7559 62.8807 18.3789 62.6531 17.881C62.4397 17.3832 62.333 16.7999 62.333 16.1314C62.333 15.4628 62.4895 14.8795 62.8024 14.3817C63.1296 13.8838 63.5208 13.4997 63.976 13.2294C64.4312 12.9592 64.9646 12.7387 65.5763 12.568C66.501 12.3261 67.518 12.2052 68.6276 12.2052H69.3317C69.3317 11.622 69.1326 11.2095 68.7343 10.9677C68.5636 10.8681 68.3004 10.8183 67.9448 10.8183C67.6034 10.8183 67.1838 10.9108 66.6859 11.0957C66.2022 11.2806 65.7968 11.4726 65.4696 11.6718C65.1425 11.8567 64.922 11.9492 64.8082 11.9492C64.5521 11.9492 64.2036 11.6149 63.7626 10.9463C63.3217 10.2635 63.1012 9.64472 63.1012 9.08994C63.1012 8.90501 63.3643 8.66319 63.8907 8.36446C64.417 8.06574 65.1567 7.79546 66.1098 7.55363C67.0771 7.29758 68.0159 7.16956 68.9263 7.16956C69.8367 7.16956 70.6191 7.24779 71.2735 7.40427C71.942 7.54652 72.4826 7.72433 72.8951 7.93771C73.3219 8.15109 73.6775 8.43559 73.962 8.79121C74.2607 9.14684 74.4812 9.46691 74.6235 9.75141C74.78 10.0359 74.8938 10.4058 74.9649 10.861C75.0645 11.3873 75.1142 12.0345 75.1142 12.8027V19.2253C75.1142 19.3818 74.7302 19.5098 73.962 19.6094C73.2081 19.6947 72.4542 19.7374 71.7002 19.7374C70.9605 19.7374 70.4769 19.7161 70.2493 19.6734C70.0359 19.6307 69.9079 19.5809 69.8652 19.524C69.8225 19.4671 69.7869 19.3676 69.7585 19.2253L69.5878 18.0091H69.4171C69.0615 19.2893 68.0871 19.9295 66.4938 19.9295ZM69.3531 16.3874V13.8909C68.9832 13.8909 68.6845 14.0474 68.4569 14.3603C68.2293 14.6733 68.1155 15.0289 68.1155 15.4272C68.1155 16.3661 68.3289 16.8355 68.7556 16.8355C68.9406 16.8355 69.0828 16.7928 69.1824 16.7075C69.2962 16.6079 69.3531 16.5012 69.3531 16.3874Z" fill="white"/>
<path d="M58.4659 19.2253C58.4659 19.3818 58.025 19.5098 57.143 19.6094C56.2753 19.6947 55.4004 19.7374 54.5185 19.7374C53.6508 19.7374 53.096 19.7019 52.8541 19.6307C52.6265 19.5454 52.5127 19.4102 52.5127 19.2253V10.0501H49.5468C49.3903 10.0501 49.2552 9.85099 49.1414 9.45268C49.0276 9.05438 48.9707 8.46404 48.9707 7.68166C48.9707 6.88506 49.0561 6.1738 49.2268 5.5479C49.3975 4.90777 49.6251 4.58771 49.9096 4.58771H61.4532C61.6666 4.58771 61.8088 4.78686 61.88 5.18516C61.9653 5.58346 62.008 6.15958 62.008 6.91351C62.008 7.66744 61.9297 8.37869 61.7733 9.04727C61.6168 9.71585 61.4034 10.0501 61.1331 10.0501H58.4659V19.2253Z" fill="white"/>
<rect width="44.809" height="44.809" rx="22.4045" fill="white"/>
<path fill-rule="evenodd" clip-rule="evenodd" d="M23.0239 7.05054L14.1472 17.919C11.5074 21.1511 14.0171 25.7652 18.4149 25.7652C19.7968 25.7652 20.5867 27.2139 19.7593 28.2311L15.5422 33.4152C13.5986 35.8046 15.4541 39.2079 18.7005 39.2079C19.9483 39.2079 21.1225 38.6651 21.8664 37.7445L30.6835 26.8323C33.285 23.6126 30.784 19.0438 26.4199 19.0438C25.059 19.0438 24.2811 17.6171 25.0959 16.6155L29.3403 11.3978C31.2853 9.0068 29.4284 5.60114 26.1798 5.60114C24.9383 5.60114 23.7691 6.13808 23.0239 7.05054Z" fill="#18171C"/>
</svg>
