<svg width="225" height="84" viewBox="0 0 225 84" fill="none" xmlns="http://www.w3.org/2000/svg">
<path d="M207.242 78.4261C205.035 78.4261 203.127 77.9574 201.517 77.0199C199.917 76.0729 198.681 74.7566 197.81 73.071C196.939 71.3759 196.503 69.411 196.503 67.1761C196.503 64.9223 196.939 62.9526 197.81 61.267C198.681 59.5719 199.917 58.2557 201.517 57.3182C203.127 56.3712 205.035 55.8977 207.242 55.8977C209.448 55.8977 211.351 56.3712 212.952 57.3182C214.562 58.2557 215.802 59.5719 216.673 61.267C217.545 62.9526 217.98 64.9223 217.98 67.1761C217.98 69.411 217.545 71.3759 216.673 73.071C215.802 74.7566 214.562 76.0729 212.952 77.0199C211.351 77.9574 209.448 78.4261 207.242 78.4261ZM207.27 73.7386C208.274 73.7386 209.112 73.4545 209.784 72.8863C210.457 72.3087 210.963 71.5227 211.304 70.5284C211.654 69.5341 211.83 68.4024 211.83 67.1335C211.83 65.8646 211.654 64.7329 211.304 63.7386C210.963 62.7443 210.457 61.9583 209.784 61.3807C209.112 60.803 208.274 60.5142 207.27 60.5142C206.257 60.5142 205.404 60.803 204.713 61.3807C204.031 61.9583 203.515 62.7443 203.165 63.7386C202.824 64.7329 202.654 65.8646 202.654 67.1335C202.654 68.4024 202.824 69.5341 203.165 70.5284C203.515 71.5227 204.031 72.3087 204.713 72.8863C205.404 73.4545 206.257 73.7386 207.27 73.7386Z" fill="white"/>
<path d="M186.485 77.9999V56.1817H192.536V77.9999H186.485ZM189.525 53.3692C188.625 53.3692 187.853 53.0709 187.21 52.4743C186.575 51.8683 186.258 51.1439 186.258 50.301C186.258 49.4677 186.575 48.7528 187.21 48.1562C187.853 47.5501 188.625 47.2471 189.525 47.2471C190.424 47.2471 191.192 47.5501 191.826 48.1562C192.47 48.7528 192.792 49.4677 192.792 50.301C192.792 51.1439 192.47 51.8683 191.826 52.4743C191.192 53.0709 190.424 53.3692 189.525 53.3692Z" fill="white"/>
<path d="M169.096 78.3551C167.438 78.3551 165.937 77.9289 164.593 77.0767C163.257 76.2149 162.197 74.9507 161.411 73.2841C160.634 71.6079 160.246 69.553 160.246 67.1193C160.246 64.6193 160.649 62.5407 161.453 60.8835C162.258 59.2168 163.328 57.9716 164.664 57.1477C166.008 56.3144 167.481 55.8977 169.081 55.8977C170.303 55.8977 171.321 56.106 172.135 56.5227C172.959 56.9299 173.622 57.4413 174.124 58.0568C174.635 58.6628 175.024 59.2594 175.289 59.8466H175.473V48.9091H181.51V78H175.544V74.5057H175.289C175.005 75.1117 174.602 75.713 174.081 76.3096C173.57 76.8968 172.902 77.3844 172.078 77.7727C171.264 78.161 170.27 78.3551 169.096 78.3551ZM171.013 73.5397C171.989 73.5397 172.812 73.2746 173.485 72.7443C174.167 72.2045 174.687 71.4517 175.047 70.4858C175.417 69.5199 175.601 68.3882 175.601 67.0909C175.601 65.7935 175.421 64.6666 175.061 63.7102C174.702 62.7538 174.181 62.0151 173.499 61.4943C172.817 60.9735 171.989 60.713 171.013 60.713C170.019 60.713 169.181 60.9829 168.499 61.5227C167.817 62.0625 167.301 62.8106 166.951 63.767C166.6 64.7235 166.425 65.8314 166.425 67.0909C166.425 68.3598 166.6 69.482 166.951 70.4574C167.31 71.4233 167.827 72.1808 168.499 72.7301C169.181 73.2699 170.019 73.5397 171.013 73.5397Z" fill="white"/>
<path d="M150.164 68.7102V56.1818H156.215V77.9999H150.406V74.0369H150.179C149.686 75.3153 148.867 76.3427 147.721 77.1193C146.585 77.8958 145.197 78.284 143.559 78.284C142.101 78.284 140.818 77.9526 139.71 77.2897C138.602 76.6268 137.735 75.6846 137.11 74.463C136.495 73.2414 136.182 71.7784 136.173 70.0738V56.1818H142.224V68.9943C142.233 70.2821 142.579 71.3001 143.261 72.0482C143.943 72.7963 144.857 73.1704 146.002 73.1704C146.732 73.1704 147.413 73.0047 148.048 72.6732C148.682 72.3323 149.194 71.8304 149.582 71.1676C149.98 70.5047 150.174 69.6856 150.164 68.7102Z" fill="white"/>
<path d="M132.231 56.1817V60.7272H119.092V56.1817H132.231ZM122.075 50.9545H128.126V71.2954C128.126 71.8541 128.211 72.2897 128.382 72.6022C128.552 72.9052 128.789 73.1183 129.092 73.2414C129.404 73.3645 129.764 73.4261 130.171 73.4261C130.455 73.4261 130.74 73.4024 131.024 73.355C131.308 73.2982 131.526 73.2556 131.677 73.2272L132.629 77.73C132.326 77.8247 131.9 77.9336 131.35 78.0567C130.801 78.1893 130.133 78.2698 129.347 78.2982C127.889 78.355 126.611 78.1609 125.512 77.7158C124.423 77.2708 123.576 76.5795 122.97 75.642C122.364 74.7045 122.065 73.5208 122.075 72.0908V50.9545Z" fill="white"/>
<path d="M110.311 57.2756C110.197 56.1297 109.709 55.2396 108.847 54.6051C107.986 53.9706 106.816 53.6534 105.339 53.6534C104.335 53.6534 103.488 53.7954 102.796 54.0795C102.105 54.3542 101.575 54.7377 101.205 55.2301C100.846 55.7225 100.666 56.2812 100.666 56.9062C100.647 57.4271 100.756 57.8816 100.992 58.2699C101.239 58.6581 101.575 58.9943 102.001 59.2784C102.427 59.553 102.919 59.7945 103.478 60.0028C104.037 60.2017 104.633 60.3721 105.268 60.5142L107.882 61.1392C109.151 61.4233 110.315 61.8021 111.376 62.2756C112.436 62.749 113.355 63.3314 114.132 64.0227C114.908 64.714 115.509 65.5284 115.936 66.4659C116.371 67.4034 116.594 68.4782 116.603 69.6903C116.594 71.4706 116.139 73.0142 115.24 74.321C114.349 75.6184 113.061 76.6269 111.376 77.3466C109.7 78.0568 107.678 78.4119 105.311 78.4119C102.962 78.4119 100.917 78.0521 99.1742 77.3324C97.4412 76.6127 96.0871 75.5473 95.1117 74.1363C94.1458 72.7159 93.6391 70.9593 93.5918 68.8665H99.5435C99.6098 69.8418 99.8891 70.6562 100.382 71.3097C100.883 71.9536 101.551 72.4413 102.384 72.7727C103.227 73.0947 104.179 73.2557 105.24 73.2557C106.281 73.2557 107.186 73.1042 107.953 72.8011C108.729 72.4981 109.33 72.0767 109.757 71.5369C110.183 70.9971 110.396 70.3769 110.396 69.6761C110.396 69.0227 110.202 68.4735 109.813 68.0284C109.435 67.5833 108.876 67.2045 108.137 66.892C107.408 66.5795 106.513 66.2954 105.453 66.0398L102.285 65.2443C99.8323 64.6477 97.8958 63.7149 96.4753 62.446C95.0549 61.1771 94.3494 59.4678 94.3588 57.3182C94.3494 55.5568 94.8181 54.018 95.7651 52.7017C96.7215 51.3854 98.0331 50.3579 99.6998 49.6193C101.366 48.8807 103.26 48.5114 105.382 48.5114C107.541 48.5114 109.425 48.8807 111.035 49.6193C112.654 50.3579 113.914 51.3854 114.813 52.7017C115.713 54.018 116.177 55.5426 116.205 57.2756H110.311Z" fill="white"/>
<path d="M210.154 23.3863V36H204.103V6.90906H209.983V18.0312H210.239C210.731 16.7433 211.527 15.7348 212.625 15.0056C213.724 14.267 215.102 13.8977 216.759 13.8977C218.274 13.8977 219.595 14.2291 220.722 14.892C221.858 15.5454 222.739 16.4877 223.364 17.7187C223.998 18.9403 224.311 20.4034 224.301 22.1079V36H218.25V23.1875C218.26 21.8428 217.919 20.7964 217.228 20.0483C216.546 19.3002 215.589 18.9261 214.358 18.9261C213.534 18.9261 212.805 19.1013 212.171 19.4517C211.546 19.8021 211.053 20.3134 210.693 20.9858C210.343 21.6486 210.163 22.4488 210.154 23.3863Z" fill="white"/>
<path d="M190.484 36.4261C188.249 36.4261 186.327 35.9526 184.717 35.0057C183.116 34.0492 181.885 32.7235 181.024 31.0284C180.171 29.3333 179.745 27.3826 179.745 25.1761C179.745 22.9413 180.176 20.981 181.038 19.2954C181.909 17.6004 183.145 16.2793 184.745 15.3324C186.345 14.3759 188.249 13.8977 190.455 13.8977C192.359 13.8977 194.025 14.2433 195.455 14.9346C196.885 15.6259 198.017 16.5966 198.85 17.8466C199.684 19.0966 200.143 20.5644 200.228 22.25H194.518C194.357 21.161 193.931 20.285 193.239 19.6221C192.558 18.9498 191.663 18.6136 190.555 18.6136C189.617 18.6136 188.798 18.8693 188.097 19.3807C187.406 19.8826 186.866 20.6165 186.478 21.5824C186.09 22.5483 185.896 23.7178 185.896 25.0909C185.896 26.4829 186.085 27.6666 186.464 28.642C186.852 29.6174 187.397 30.3608 188.097 30.8721C188.798 31.3835 189.617 31.6392 190.555 31.6392C191.246 31.6392 191.866 31.4971 192.416 31.213C192.974 30.929 193.434 30.517 193.793 29.9772C194.163 29.428 194.404 28.7699 194.518 28.0028H200.228C200.133 29.6695 199.679 31.1373 198.864 32.4062C198.06 33.6657 196.947 34.6505 195.526 35.3608C194.106 36.071 192.425 36.4261 190.484 36.4261Z" fill="white"/>
<path d="M166.663 36.4261C164.418 36.4261 162.487 35.9716 160.867 35.0625C159.257 34.1439 158.017 32.8466 157.146 31.1704C156.274 29.4848 155.839 27.4915 155.839 25.1903C155.839 22.946 156.274 20.9763 157.146 19.2812C158.017 17.5862 159.243 16.2651 160.825 15.3182C162.416 14.3712 164.281 13.8977 166.421 13.8977C167.861 13.8977 169.201 14.1297 170.441 14.5937C171.691 15.0483 172.78 15.7348 173.708 16.6534C174.646 17.5719 175.375 18.7273 175.896 20.1193C176.417 21.5019 176.677 23.1212 176.677 24.9772V26.6392H158.254V22.8892H170.981C170.981 22.018 170.792 21.2462 170.413 20.5738C170.034 19.9015 169.508 19.3759 168.836 18.9971C168.173 18.6089 167.401 18.4147 166.521 18.4147C165.602 18.4147 164.788 18.6278 164.078 19.054C163.377 19.4706 162.828 20.0341 162.43 20.7443C162.032 21.4451 161.828 22.2263 161.819 23.088V26.6534C161.819 27.7329 162.018 28.6657 162.416 29.4517C162.823 30.2377 163.396 30.8437 164.134 31.2699C164.873 31.696 165.749 31.9091 166.762 31.9091C167.435 31.9091 168.05 31.8144 168.609 31.625C169.167 31.4356 169.646 31.1515 170.043 30.7727C170.441 30.3939 170.744 29.9299 170.953 29.3807L176.549 29.75C176.265 31.0947 175.683 32.2689 174.802 33.2727C173.931 34.267 172.804 35.0435 171.421 35.6022C170.048 36.1515 168.462 36.4261 166.663 36.4261Z" fill="white"/>
<path d="M141.368 35.9999V14.1818H147.235V17.9886H147.462C147.86 16.6344 148.527 15.6117 149.465 14.9204C150.402 14.2196 151.482 13.8693 152.703 13.8693C153.006 13.8693 153.333 13.8882 153.684 13.9261C154.034 13.964 154.342 14.016 154.607 14.0823V19.4516C154.323 19.3664 153.93 19.2907 153.428 19.2244C152.926 19.1581 152.467 19.1249 152.05 19.1249C151.16 19.1249 150.364 19.3191 149.664 19.7073C148.972 20.0861 148.423 20.6164 148.016 21.2982C147.618 21.9801 147.419 22.766 147.419 23.6562V35.9999H141.368Z" fill="white"/>
<path d="M124.387 36.4119C122.995 36.4119 121.754 36.1704 120.665 35.6875C119.576 35.1951 118.715 34.4706 118.08 33.5142C117.455 32.5483 117.143 31.3456 117.143 29.9062C117.143 28.6941 117.365 27.6761 117.81 26.8522C118.255 26.0284 118.861 25.3655 119.628 24.8636C120.395 24.3617 121.267 23.9829 122.242 23.7272C123.227 23.4716 124.259 23.2916 125.339 23.1875C126.608 23.0549 127.63 22.9318 128.407 22.8182C129.183 22.6951 129.747 22.5151 130.097 22.2784C130.448 22.0416 130.623 21.6913 130.623 21.2272V21.142C130.623 20.2424 130.339 19.5464 129.77 19.054C129.212 18.5615 128.416 18.3153 127.384 18.3153C126.295 18.3153 125.429 18.5568 124.785 19.0397C124.141 19.5132 123.715 20.1098 123.506 20.8295L117.91 20.375C118.194 19.0492 118.752 17.9034 119.586 16.9375C120.419 15.9621 121.494 15.214 122.81 14.6932C124.136 14.1629 125.67 13.8977 127.412 13.8977C128.625 13.8977 129.785 14.0397 130.893 14.3238C132.01 14.6079 133 15.0483 133.861 15.6449C134.733 16.2415 135.419 17.0085 135.921 17.946C136.423 18.874 136.674 19.9867 136.674 21.2841V36H130.935V32.9744H130.765C130.414 33.6562 129.946 34.2576 129.358 34.7784C128.771 35.2897 128.066 35.6922 127.242 35.9858C126.418 36.2699 125.466 36.4119 124.387 36.4119ZM126.12 32.2358C127.01 32.2358 127.796 32.0606 128.478 31.7102C129.16 31.3504 129.695 30.8674 130.083 30.2613C130.471 29.6553 130.665 28.9687 130.665 28.2017V25.8863C130.476 26.0094 130.215 26.1231 129.884 26.2272C129.562 26.3219 129.198 26.4119 128.79 26.4971C128.383 26.5729 127.976 26.6439 127.569 26.7102C127.162 26.767 126.792 26.8191 126.461 26.8665C125.751 26.9706 125.13 27.1363 124.6 27.3636C124.07 27.5909 123.658 27.8987 123.364 28.2869C123.071 28.6657 122.924 29.1392 122.924 29.7074C122.924 30.5312 123.222 31.161 123.819 31.5966C124.425 32.0227 125.192 32.2358 126.12 32.2358Z" fill="white"/>
<path d="M93.4209 11.9801V6.90906H117.313V11.9801H108.407V36H102.327V11.9801H93.4209Z" fill="white"/>
<rect width="84" height="84" rx="40" fill="white"/>
<path fill-rule="evenodd" clip-rule="evenodd" d="M43.161 13.2171L26.5206 33.5913C21.572 39.6503 26.2767 48.3 34.5208 48.3C37.1115 48.3 38.5923 51.0159 37.0412 52.9226L29.1357 62.6409C25.4921 67.1201 28.9706 73.5 35.0563 73.5C37.3955 73.5 39.5967 72.4826 40.9912 70.7567L57.5199 50.3005C62.3968 44.2647 57.7083 35.7 49.5273 35.7C46.976 35.7 45.5178 33.0255 47.0453 31.1477L55.0019 21.3666C58.648 16.8843 55.1671 10.5 49.0772 10.5C46.7497 10.5 44.5581 11.5066 43.161 13.2171Z" fill="#18171C"/>
</svg>
