<svg width="146" height="48" viewBox="0 0 146 48" fill="none" xmlns="http://www.w3.org/2000/svg">
<path d="M145.241 35.6966L141.917 35.9012C141.86 35.6171 141.738 35.3614 141.551 35.1341C141.363 34.9012 141.116 34.7165 140.809 34.5801C140.508 34.4381 140.147 34.3671 139.727 34.3671C139.164 34.3671 138.69 34.4864 138.304 34.725C137.917 34.958 137.724 35.2705 137.724 35.6625C137.724 35.975 137.849 36.2392 138.099 36.4551C138.349 36.6711 138.778 36.8443 139.386 36.975L141.755 37.4523C143.028 37.7137 143.977 38.1341 144.602 38.7137C145.227 39.2932 145.539 40.0546 145.539 40.9978C145.539 41.8557 145.287 42.6086 144.781 43.2563C144.281 43.904 143.593 44.4097 142.718 44.7733C141.849 45.1313 140.846 45.3103 139.71 45.3103C137.977 45.3103 136.596 44.9495 135.568 44.2279C134.545 43.5006 133.946 42.512 133.77 41.262L137.341 41.0745C137.449 41.6029 137.71 42.0063 138.125 42.2847C138.539 42.5574 139.071 42.6938 139.718 42.6938C140.355 42.6938 140.866 42.5716 141.252 42.3273C141.645 42.0773 141.843 41.7563 141.849 41.3642C141.843 41.0347 141.704 40.7648 141.431 40.5546C141.159 40.3387 140.738 40.1739 140.17 40.0603L137.903 39.6086C136.625 39.3529 135.673 38.9097 135.048 38.279C134.429 37.6483 134.119 36.8443 134.119 35.8671C134.119 35.0262 134.346 34.3017 134.801 33.6938C135.261 33.0858 135.906 32.6171 136.735 32.2875C137.571 31.958 138.548 31.7932 139.667 31.7932C141.321 31.7932 142.622 32.1426 143.571 32.8415C144.525 33.5404 145.082 34.4921 145.241 35.6966Z" fill="white"/>
<path d="M125.545 45.3103C124.221 45.3103 123.076 45.029 122.111 44.4665C121.15 43.8983 120.409 43.1086 119.886 42.0972C119.363 41.0801 119.102 39.9012 119.102 38.5603C119.102 37.208 119.363 36.0262 119.886 35.0148C120.409 33.9978 121.15 33.208 122.111 32.6455C123.076 32.0773 124.221 31.7932 125.545 31.7932C126.869 31.7932 128.011 32.0773 128.971 32.6455C129.937 33.208 130.682 33.9978 131.204 35.0148C131.727 36.0262 131.988 37.208 131.988 38.5603C131.988 39.9012 131.727 41.0801 131.204 42.0972C130.682 43.1086 129.937 43.8983 128.971 44.4665C128.011 45.029 126.869 45.3103 125.545 45.3103ZM125.562 42.4978C126.165 42.4978 126.667 42.3273 127.071 41.9864C127.474 41.6398 127.778 41.1682 127.983 40.5716C128.193 39.975 128.298 39.2961 128.298 38.5347C128.298 37.7733 128.193 37.0943 127.983 36.4978C127.778 35.9012 127.474 35.4296 127.071 35.083C126.667 34.7364 126.165 34.5631 125.562 34.5631C124.954 34.5631 124.443 34.7364 124.028 35.083C123.619 35.4296 123.309 35.9012 123.099 36.4978C122.895 37.0943 122.792 37.7733 122.792 38.5347C122.792 39.2961 122.895 39.975 123.099 40.5716C123.309 41.1682 123.619 41.6398 124.028 41.9864C124.443 42.3273 124.954 42.4978 125.562 42.4978Z" fill="white"/>
<path d="M113.091 45.0546V31.9636H116.722V45.0546H113.091ZM114.915 30.2761C114.376 30.2761 113.912 30.0972 113.526 29.7392C113.145 29.3756 112.955 28.9409 112.955 28.4352C112.955 27.9352 113.145 27.5063 113.526 27.1483C113.912 26.7847 114.376 26.6028 114.915 26.6028C115.455 26.6028 115.915 26.7847 116.296 27.1483C116.682 27.5063 116.876 27.9352 116.876 28.4352C116.876 28.9409 116.682 29.3756 116.296 29.7392C115.915 30.0972 115.455 30.2761 114.915 30.2761Z" fill="white"/>
<path d="M102.657 45.2676C101.663 45.2676 100.762 45.0119 99.9556 44.5005C99.1545 43.9835 98.5181 43.225 98.0465 42.225C97.5806 41.2193 97.3477 39.9863 97.3477 38.5261C97.3477 37.0261 97.5891 35.779 98.0721 34.7846C98.555 33.7846 99.1971 33.0375 99.9982 32.5432C100.805 32.0432 101.689 31.7932 102.649 31.7932C103.382 31.7932 103.993 31.9182 104.481 32.1682C104.975 32.4125 105.373 32.7193 105.674 33.0886C105.981 33.4522 106.214 33.8102 106.373 34.1625H106.484V27.6H110.106V45.0545H106.527V42.9579H106.373C106.203 43.3216 105.961 43.6824 105.649 44.0403C105.342 44.3926 104.941 44.6852 104.447 44.9182C103.958 45.1511 103.362 45.2676 102.657 45.2676ZM103.808 42.3784C104.393 42.3784 104.887 42.2193 105.291 41.9011C105.7 41.5772 106.012 41.1255 106.228 40.546C106.45 39.9665 106.561 39.2875 106.561 38.5091C106.561 37.7307 106.453 37.0545 106.237 36.4807C106.021 35.9068 105.708 35.4636 105.299 35.1511C104.89 34.8386 104.393 34.6824 103.808 34.6824C103.211 34.6824 102.708 34.8443 102.299 35.1682C101.89 35.492 101.581 35.9409 101.37 36.5147C101.16 37.0886 101.055 37.7534 101.055 38.5091C101.055 39.2704 101.16 39.9437 101.37 40.529C101.586 41.1085 101.896 41.563 102.299 41.8926C102.708 42.2165 103.211 42.3784 103.808 42.3784Z" fill="white"/>
<path d="M91.2987 39.4807V31.9636H94.9294V45.0545H91.4436V42.6767H91.3072C91.0118 43.4437 90.5203 44.0602 89.8328 44.5261C89.151 44.992 88.3186 45.225 87.3356 45.225C86.4606 45.225 85.6907 45.0261 85.026 44.6284C84.3612 44.2307 83.8413 43.6653 83.4663 42.9324C83.097 42.1994 82.9095 41.3216 82.9038 40.2988V31.9636H86.5345V39.6511C86.5402 40.4238 86.7476 41.0346 87.1567 41.4835C87.5657 41.9324 88.114 42.1568 88.8015 42.1568C89.239 42.1568 89.6481 42.0574 90.0288 41.8585C90.4095 41.654 90.7163 41.3528 90.9493 40.9551C91.1879 40.5574 91.3044 40.0659 91.2987 39.4807Z" fill="white"/>
<path d="M80.5388 31.9636V34.6909H72.6553V31.9636H80.5388ZM74.445 28.8273H78.0757V41.0318C78.0757 41.367 78.1269 41.6284 78.2291 41.8159C78.3314 41.9977 78.4735 42.1256 78.6553 42.1994C78.8428 42.2733 79.0587 42.3102 79.303 42.3102C79.4735 42.3102 79.6439 42.296 79.8144 42.2676C79.9848 42.2335 80.1155 42.208 80.2064 42.1909L80.7774 44.8926C80.5956 44.9494 80.3399 45.0148 80.0104 45.0886C79.6808 45.1682 79.2803 45.2165 78.8087 45.2335C77.9337 45.2676 77.1666 45.1511 76.5075 44.8841C75.8541 44.617 75.3456 44.2023 74.982 43.6398C74.6183 43.0773 74.4394 42.367 74.445 41.5091V28.8273Z" fill="white"/>
<path d="M67.3862 32.6199C67.318 31.9324 67.0254 31.3983 66.5084 31.0176C65.9913 30.637 65.2896 30.4466 64.4033 30.4466C63.801 30.4466 63.2925 30.5318 62.8777 30.7023C62.4629 30.8671 62.1448 31.0972 61.9232 31.3926C61.7073 31.6881 61.5993 32.0233 61.5993 32.3983C61.5879 32.7108 61.6533 32.9835 61.7953 33.2165C61.943 33.4495 62.1448 33.6512 62.4004 33.8216C62.6561 33.9864 62.9516 34.1313 63.2868 34.2563C63.622 34.3756 63.98 34.4779 64.3607 34.5631L65.9288 34.9381C66.6902 35.1085 67.3891 35.3358 68.0254 35.6199C68.6618 35.904 69.2129 36.2534 69.6788 36.6682C70.1448 37.083 70.5055 37.5716 70.7612 38.1341C71.0226 38.6966 71.1561 39.3415 71.1618 40.0688C71.1561 41.137 70.8834 42.0631 70.3436 42.8472C69.8095 43.6256 69.0368 44.2307 68.0254 44.6625C67.0198 45.0887 65.8067 45.3017 64.3862 45.3017C62.9771 45.3017 61.7499 45.0858 60.7044 44.654C59.6646 44.2222 58.8521 43.583 58.2669 42.7364C57.6874 41.8841 57.3834 40.8301 57.355 39.5745H60.926C60.9658 40.1597 61.1334 40.6483 61.4288 41.0404C61.73 41.4267 62.1305 41.7193 62.6305 41.9182C63.1362 42.1114 63.7073 42.208 64.3436 42.208C64.9686 42.208 65.5112 42.1171 65.9715 41.9353C66.4374 41.7534 66.7982 41.5006 67.0538 41.1767C67.3095 40.8529 67.4374 40.4807 67.4374 40.0603C67.4374 39.6682 67.3209 39.3387 67.0879 39.0716C66.8607 38.8046 66.5254 38.5773 66.0823 38.3898C65.6448 38.2023 65.1078 38.0318 64.4715 37.8784L62.5709 37.4012C61.0993 37.0432 59.9374 36.4835 59.0851 35.7222C58.2328 34.9608 57.8095 33.9353 57.8152 32.6455C57.8095 31.5887 58.0908 30.6654 58.659 29.8756C59.2328 29.0858 60.0198 28.4693 61.0198 28.0262C62.0198 27.583 63.1561 27.3614 64.4288 27.3614C65.7243 27.3614 66.855 27.583 67.8209 28.0262C68.7925 28.4693 69.5482 29.0858 70.0879 29.8756C70.6277 30.6654 70.9061 31.5801 70.9232 32.6199H67.3862Z" fill="white"/>
<path d="M127.292 12.2864V19.8546H123.662V2.40002H127.19V9.07332H127.343C127.639 8.30059 128.116 7.69548 128.775 7.25798C129.434 6.8148 130.261 6.59321 131.255 6.59321C132.164 6.59321 132.957 6.79207 133.633 7.1898C134.315 7.58184 134.843 8.14718 135.218 8.88582C135.599 9.61878 135.787 10.4966 135.781 11.5193V19.8546H132.15V12.1671C132.156 11.3603 131.951 10.7324 131.537 10.2835C131.128 9.83468 130.554 9.61025 129.815 9.61025C129.321 9.61025 128.883 9.71537 128.503 9.92559C128.128 10.1358 127.832 10.4426 127.616 10.846C127.406 11.2438 127.298 11.7239 127.292 12.2864Z" fill="white"/>
<path d="M115.491 20.1102C114.15 20.1102 112.996 19.8262 112.03 19.258C111.07 18.6841 110.331 17.8887 109.814 16.8716C109.303 15.8546 109.047 14.6841 109.047 13.3602C109.047 12.0193 109.306 10.8432 109.823 9.83184C110.346 8.81479 111.087 8.02218 112.047 7.45399C113.008 6.88013 114.15 6.5932 115.474 6.5932C116.616 6.5932 117.616 6.80059 118.474 7.21536C119.331 7.63013 120.01 8.21252 120.51 8.96252C121.01 9.71252 121.286 10.5932 121.337 11.6046H117.911C117.814 10.9512 117.559 10.4256 117.144 10.0279C116.735 9.62445 116.198 9.42275 115.533 9.42275C114.971 9.42275 114.479 9.57616 114.059 9.88297C113.644 10.1841 113.32 10.6245 113.087 11.204C112.854 11.7835 112.738 12.4852 112.738 13.3091C112.738 14.1443 112.851 14.8546 113.079 15.4398C113.312 16.025 113.638 16.471 114.059 16.7779C114.479 17.0847 114.971 17.2381 115.533 17.2381C115.948 17.2381 116.32 17.1529 116.65 16.9824C116.985 16.812 117.26 16.5648 117.476 16.2409C117.698 15.9114 117.843 15.5165 117.911 15.0563H121.337C121.28 16.0563 121.008 16.937 120.519 17.6983C120.036 18.454 119.368 19.0449 118.516 19.471C117.664 19.8972 116.655 20.1102 115.491 20.1102Z" fill="white"/>
<path d="M101.198 20.1102C99.8513 20.1102 98.6922 19.8375 97.7207 19.2921C96.7547 18.7409 96.0104 17.9625 95.4877 16.9568C94.965 15.9455 94.7036 14.7495 94.7036 13.3688C94.7036 12.0222 94.965 10.8404 95.4877 9.82331C96.0104 8.80627 96.7462 8.01365 97.6951 7.44547C98.6496 6.87729 99.769 6.5932 101.053 6.5932C101.917 6.5932 102.721 6.7324 103.465 7.01081C104.215 7.28354 104.868 7.69547 105.425 8.24661C105.988 8.79775 106.425 9.49093 106.738 10.3262C107.05 11.1557 107.206 12.1273 107.206 13.2409V14.2381H96.1525V11.9881H103.789C103.789 11.4654 103.675 11.0023 103.448 10.5989C103.221 10.1955 102.905 9.88013 102.502 9.65286C102.104 9.4199 101.641 9.30343 101.113 9.30343C100.562 9.30343 100.073 9.43127 99.6468 9.68695C99.2263 9.93695 98.8968 10.275 98.6582 10.7012C98.4195 11.1216 98.2974 11.5904 98.2917 12.1074V14.2466C98.2917 14.8943 98.411 15.454 98.6496 15.9256C98.894 16.3972 99.2377 16.7608 99.6809 17.0165C100.124 17.2722 100.65 17.4 101.258 17.4C101.661 17.4 102.03 17.3432 102.366 17.2296C102.701 17.1159 102.988 16.9455 103.226 16.7182C103.465 16.4909 103.647 16.2125 103.772 15.883L107.13 16.1046C106.959 16.9114 106.61 17.6159 106.081 18.2182C105.559 18.8148 104.883 19.2807 104.053 19.6159C103.229 19.9455 102.277 20.1102 101.198 20.1102Z" fill="white"/>
<path d="M86.021 19.8545V6.76361H89.5409V9.0477H89.6772C89.9159 8.2352 90.3165 7.62157 90.879 7.20679C91.4415 6.78634 92.0892 6.57611 92.8221 6.57611C93.004 6.57611 93.2 6.58747 93.4102 6.6102C93.6204 6.63293 93.8051 6.66418 93.9642 6.70395V9.92554C93.7937 9.87441 93.5579 9.82895 93.2568 9.78918C92.9557 9.74941 92.6801 9.72952 92.4301 9.72952C91.896 9.72952 91.4187 9.846 90.9983 10.079C90.5835 10.3062 90.254 10.6244 90.0096 11.0335C89.771 11.4426 89.6517 11.9142 89.6517 12.4483V19.8545H86.021Z" fill="white"/>
<path d="M75.8319 20.1017C74.9967 20.1017 74.2524 19.9568 73.599 19.6671C72.9456 19.3716 72.4285 18.937 72.0479 18.3631C71.6729 17.7835 71.4854 17.0619 71.4854 16.1983C71.4854 15.471 71.6189 14.8602 71.8859 14.3659C72.153 13.8716 72.5166 13.4739 72.9768 13.1727C73.4371 12.8716 73.9598 12.6443 74.545 12.4909C75.1359 12.3375 75.7552 12.2296 76.403 12.1671C77.1643 12.0875 77.778 12.0137 78.2439 11.9455C78.7098 11.8716 79.0479 11.7637 79.2581 11.6216C79.4683 11.4796 79.5734 11.2693 79.5734 10.9909V10.9398C79.5734 10.4 79.403 9.9824 79.0621 9.68695C78.7268 9.39149 78.2496 9.24377 77.6302 9.24377C76.9768 9.24377 76.4569 9.38865 76.0706 9.67843C75.6842 9.96252 75.4285 10.3205 75.3035 10.7523L71.9456 10.4796C72.116 9.68411 72.4513 8.99661 72.9513 8.41706C73.4513 7.83184 74.0961 7.38297 74.8859 7.07047C75.6814 6.75229 76.6018 6.5932 77.6473 6.5932C78.3746 6.5932 79.0706 6.67843 79.7354 6.84888C80.4058 7.01934 80.9996 7.28354 81.5166 7.64149C82.0393 7.99945 82.4513 8.45968 82.7524 9.02218C83.0535 9.57899 83.2041 10.2466 83.2041 11.025V19.8546H79.7609V18.0392H79.6586C79.4484 18.4483 79.1672 18.8091 78.8149 19.1216C78.4626 19.4284 78.0393 19.6699 77.545 19.846C77.0507 20.0165 76.4797 20.1017 75.8319 20.1017ZM76.8717 17.596C77.4058 17.596 77.8774 17.4909 78.2865 17.2807C78.6956 17.0648 79.0166 16.775 79.2496 16.4114C79.4825 16.0477 79.599 15.6358 79.599 15.1756V13.7864C79.4854 13.8602 79.3291 13.9284 79.1302 13.9909C78.9371 14.0477 78.7183 14.1017 78.474 14.1529C78.2297 14.1983 77.9854 14.2409 77.741 14.2807C77.4967 14.3148 77.2751 14.346 77.0763 14.3744C76.6501 14.4369 76.278 14.5364 75.9598 14.6727C75.6416 14.8091 75.3944 14.9938 75.2183 15.2267C75.0422 15.454 74.9541 15.7381 74.9541 16.079C74.9541 16.5733 75.1331 16.9512 75.491 17.2125C75.8547 17.4682 76.3149 17.596 76.8717 17.596Z" fill="white"/>
<path d="M57.2524 5.44264V2.40002H71.5877V5.44264H66.2439V19.8546H62.5962V5.44264H57.2524Z" fill="white"/>
<rect width="48" height="48" rx="6" fill="white"/>
<path fill-rule="evenodd" clip-rule="evenodd" d="M24.6634 7.55262L15.1546 19.195C12.3269 22.6573 15.0153 27.6 19.7262 27.6C21.2066 27.6 22.0527 29.1519 21.1664 30.2415L16.649 35.7948C14.5669 38.3543 16.5546 42 20.0322 42C21.3689 42 22.6267 41.4186 23.4235 40.4324L32.8685 28.7431C35.6553 25.2941 32.9762 20.4 28.3013 20.4C26.8434 20.4 26.0102 18.8717 26.883 17.7987L31.4296 12.2095C33.5131 9.64819 31.5241 6 28.0441 6C26.7141 6 25.4618 6.57518 24.6634 7.55262Z" fill="#18171C"/>
</svg>
