<svg width="128" height="44" viewBox="0 0 128 44" fill="none" xmlns="http://www.w3.org/2000/svg">
<path d="M121.076 18.206C120.38 18.206 119.76 18.0853 119.215 17.8438C118.671 17.5976 118.24 17.2354 117.923 16.7572C117.61 16.2742 117.454 15.6729 117.454 14.9532C117.454 14.3471 117.565 13.8381 117.788 13.4262C118.01 13.0143 118.313 12.6828 118.697 12.4319C119.081 12.1809 119.516 11.9915 120.004 11.8637C120.496 11.7358 121.012 11.6459 121.552 11.5938C122.187 11.5275 122.698 11.466 123.086 11.4091C123.474 11.3476 123.756 11.2576 123.931 11.1393C124.107 11.0209 124.194 10.8457 124.194 10.6137V10.5711C124.194 10.1213 124.052 9.77325 123.768 9.52704C123.489 9.28083 123.091 9.15772 122.575 9.15772C122.03 9.15772 121.597 9.27846 121.275 9.51994C120.953 9.75668 120.74 10.055 120.636 10.4148L117.838 10.1875C117.98 9.52467 118.259 8.95175 118.676 8.4688C119.092 7.98111 119.63 7.60706 120.288 7.34664C120.951 7.08149 121.718 6.94891 122.589 6.94891C123.195 6.94891 123.775 7.01994 124.329 7.16198C124.888 7.30403 125.383 7.5242 125.813 7.82249C126.249 8.12079 126.592 8.50431 126.843 8.97306C127.094 9.43708 127.22 9.99342 127.22 10.6421V18H124.35V16.4873H124.265C124.09 16.8282 123.856 17.1288 123.562 17.3893C123.268 17.6449 122.916 17.8462 122.504 17.9929C122.092 18.135 121.616 18.206 121.076 18.206ZM121.943 16.1179C122.388 16.1179 122.781 16.0304 123.122 15.8552C123.463 15.6752 123.73 15.4338 123.924 15.1307C124.118 14.8277 124.215 14.4844 124.215 14.1009V12.9432C124.121 13.0048 123.991 13.0616 123.825 13.1137C123.664 13.161 123.482 13.206 123.278 13.2486C123.074 13.2865 122.871 13.322 122.667 13.3552C122.464 13.3836 122.279 13.4096 122.113 13.4333C121.758 13.4854 121.448 13.5682 121.183 13.6819C120.918 13.7955 120.712 13.9494 120.565 14.1435C120.418 14.3329 120.345 14.5697 120.345 14.8537C120.345 15.2657 120.494 15.5805 120.792 15.7983C121.095 16.0114 121.479 16.1179 121.943 16.1179Z" fill="white"/>
<path d="M109.271 18.1776C108.442 18.1776 107.692 17.9645 107.019 17.5384C106.352 17.1075 105.822 16.4754 105.429 15.6421C105.04 14.804 104.846 13.7766 104.846 12.5597C104.846 11.3097 105.047 10.2704 105.45 9.44181C105.852 8.60847 106.387 7.98584 107.055 7.57391C107.727 7.15724 108.464 6.94891 109.264 6.94891C109.875 6.94891 110.384 7.05308 110.791 7.26141C111.203 7.46501 111.534 7.72069 111.785 8.02845C112.041 8.33148 112.235 8.62978 112.367 8.92334H112.46V3.45459H115.478V18H112.495V16.2529H112.367C112.225 16.5559 112.024 16.8566 111.764 17.1549C111.508 17.4484 111.174 17.6923 110.762 17.8864C110.355 18.0805 109.858 18.1776 109.271 18.1776ZM110.23 15.7699C110.717 15.7699 111.129 15.6374 111.466 15.3722C111.806 15.1023 112.067 14.7259 112.247 14.2429C112.431 13.76 112.524 13.1942 112.524 12.5455C112.524 11.8968 112.434 11.3334 112.254 10.8552C112.074 10.3769 111.814 10.0076 111.473 9.7472C111.132 9.48679 110.717 9.35658 110.23 9.35658C109.733 9.35658 109.314 9.49152 108.973 9.76141C108.632 10.0313 108.374 10.4053 108.198 10.8836C108.023 11.3618 107.936 11.9158 107.936 12.5455C107.936 13.18 108.023 13.741 108.198 14.2287C108.378 14.7117 108.636 15.0905 108.973 15.3651C109.314 15.635 109.733 15.7699 110.23 15.7699Z" fill="white"/>
<path d="M99.8053 13.3551V7.09094H102.831V18H99.926V16.0185H99.8124C99.5662 16.6577 99.1566 17.1714 98.5837 17.5597C98.0155 17.948 97.3219 18.1421 96.5028 18.1421C95.7736 18.1421 95.132 17.9764 94.578 17.6449C94.0241 17.3135 93.5908 16.8424 93.2783 16.2316C92.9706 15.6208 92.8143 14.8892 92.8096 14.037V7.09094H95.8351V13.4972C95.8399 14.1411 96.0127 14.6501 96.3536 15.0242C96.6945 15.3982 97.1514 15.5853 97.7243 15.5853C98.0889 15.5853 98.4298 15.5024 98.7471 15.3367C99.0643 15.1662 99.32 14.9153 99.5141 14.5838C99.713 14.2524 99.81 13.8428 99.8053 13.3551Z" fill="white"/>
<path d="M74.5674 18V7.09096H77.4509V9.01567H77.5787C77.806 8.37647 78.1848 7.87221 78.7151 7.50289C79.2454 7.13357 79.8799 6.94891 80.6185 6.94891C81.3666 6.94891 82.0035 7.13594 82.529 7.50999C83.0546 7.87931 83.405 8.3812 83.5802 9.01567H83.6938C83.9163 8.39067 84.3188 7.89115 84.9012 7.51709C85.4883 7.13831 86.182 6.94891 86.9822 6.94891C88.0002 6.94891 88.8264 7.27325 89.4608 7.92192C90.1001 8.56586 90.4197 9.47969 90.4197 10.6634V18H87.4012V11.26C87.4012 10.6539 87.2402 10.1994 86.9182 9.89636C86.5963 9.59333 86.1938 9.44181 85.7108 9.44181C85.1616 9.44181 84.7331 9.617 84.4253 9.96738C84.1176 10.313 83.9637 10.7699 83.9637 11.3381V18H81.0305V11.1961C81.0305 10.661 80.8766 10.2349 80.5688 9.91766C80.2658 9.60043 79.8657 9.44181 79.3685 9.44181C79.0323 9.44181 78.7293 9.52704 78.4594 9.69749C78.1943 9.86321 77.9836 10.0976 77.8273 10.4006C77.6711 10.6989 77.593 11.0493 77.593 11.4518V18H74.5674Z" fill="white"/>
<path d="M66.3838 18V7.09094H69.317V8.99435H69.4307C69.6295 8.31727 69.9633 7.8059 70.4321 7.46026C70.9008 7.10988 71.4406 6.93469 72.0514 6.93469C72.2029 6.93469 72.3663 6.94416 72.5415 6.9631C72.7166 6.98204 72.8705 7.00808 73.0031 7.04123V9.72589C72.8611 9.68327 72.6646 9.64539 72.4136 9.61225C72.1627 9.57911 71.933 9.56253 71.7247 9.56253C71.2796 9.56253 70.8819 9.6596 70.5315 9.85373C70.1859 10.0431 69.9113 10.3083 69.7077 10.6492C69.5088 10.9901 69.4094 11.3831 69.4094 11.8282V18H66.3838Z" fill="white"/>
<path d="M59.4022 18.2131C58.28 18.2131 57.3141 17.9858 56.5044 17.5313C55.6995 17.072 55.0793 16.4233 54.6436 15.5853C54.208 14.7425 53.9902 13.7458 53.9902 12.5952C53.9902 11.4731 54.208 10.4882 54.6436 9.64067C55.0793 8.79314 55.6924 8.13262 56.4831 7.65914C57.2786 7.18566 58.2114 6.94891 59.2814 6.94891C60.0011 6.94891 60.6711 7.06492 61.2914 7.29692C61.9164 7.5242 62.4609 7.86747 62.9249 8.32675C63.3936 8.78603 63.7582 9.36369 64.0186 10.0597C64.2791 10.751 64.4093 11.5607 64.4093 12.4887V13.3197H55.1976V11.4447H61.5613C61.5613 11.009 61.4666 10.6232 61.2772 10.287C61.0878 9.95081 60.825 9.68802 60.4888 9.49863C60.1574 9.3045 59.7715 9.20744 59.3311 9.20744C58.8719 9.20744 58.4647 9.31397 58.1096 9.52704C57.7592 9.73537 57.4846 10.0171 57.2857 10.3722C57.0868 10.7226 56.985 11.1132 56.9803 11.5441V13.3268C56.9803 13.8665 57.0797 14.3329 57.2786 14.7259C57.4822 15.1189 57.7686 15.4219 58.138 15.635C58.5073 15.8481 58.9453 15.9546 59.4519 15.9546C59.7881 15.9546 60.0958 15.9072 60.3752 15.8125C60.6545 15.7179 60.8936 15.5758 61.0925 15.3864C61.2914 15.197 61.4429 14.965 61.5471 14.6904L64.3453 14.875C64.2033 15.5474 63.9121 16.1345 63.4718 16.6364C63.0362 17.1336 62.4727 17.5218 61.7814 17.8012C61.0949 18.0758 60.3018 18.2131 59.4022 18.2131Z" fill="white"/>
<path d="M41.2646 18V3.45459H47.0885C48.1586 3.45459 49.0511 3.61321 49.7661 3.93044C50.481 4.24768 51.0184 4.68802 51.3783 5.25146C51.7381 5.81018 51.9181 6.45412 51.9181 7.18328C51.9181 7.75147 51.8044 8.25099 51.5771 8.68186C51.3499 9.108 51.0374 9.45838 50.6396 9.733C50.2467 10.0029 49.7968 10.1946 49.2902 10.3083V10.4503C49.8442 10.474 50.3627 10.6303 50.8456 10.9191C51.3333 11.2079 51.7287 11.6127 52.0317 12.1336C52.3347 12.6497 52.4862 13.2652 52.4862 13.9802C52.4862 14.7519 52.2945 15.4409 51.911 16.0469C51.5322 16.6482 50.9711 17.1241 50.2277 17.4745C49.4843 17.8249 48.5682 18 47.4791 18H41.2646ZM44.3399 15.4858H46.847C47.704 15.4858 48.329 15.3225 48.722 14.9958C49.115 14.6643 49.3115 14.224 49.3115 13.6748C49.3115 13.2723 49.2145 12.9172 49.0203 12.6094C48.8262 12.3017 48.5492 12.0602 48.1894 11.885C47.8343 11.7098 47.4105 11.6222 46.9181 11.6222H44.3399V15.4858ZM44.3399 9.54124H46.6198C47.0412 9.54124 47.4152 9.46785 47.7419 9.32107C48.0734 9.16955 48.3338 8.95648 48.5232 8.68186C48.7173 8.40724 48.8144 8.07817 48.8144 7.69465C48.8144 7.16908 48.6273 6.74531 48.2533 6.42334C47.884 6.10137 47.3584 5.94038 46.6766 5.94038H44.3399V9.54124Z" fill="white"/>
<path d="M97.6213 38.2131C96.5181 38.2131 95.564 37.9787 94.7591 37.5099C93.9589 37.0364 93.341 36.3783 92.9054 35.5355C92.4698 34.688 92.252 33.7055 92.252 32.5881C92.252 31.4612 92.4698 30.4763 92.9054 29.6335C93.341 28.786 93.9589 28.1278 94.7591 27.6591C95.564 27.1856 96.5181 26.9489 97.6213 26.9489C98.7245 26.9489 99.6762 27.1856 100.476 27.6591C101.281 28.1278 101.902 28.786 102.337 29.6335C102.773 30.4763 102.991 31.4612 102.991 32.5881C102.991 33.7055 102.773 34.688 102.337 35.5355C101.902 36.3783 101.281 37.0364 100.476 37.5099C99.6762 37.9787 98.7245 38.2131 97.6213 38.2131ZM97.6355 35.8693C98.1374 35.8693 98.5564 35.7273 98.8926 35.4432C99.2288 35.1543 99.4821 34.7614 99.6525 34.2642C99.8277 33.767 99.9153 33.2012 99.9153 32.5667C99.9153 31.9323 99.8277 31.3665 99.6525 30.8693C99.4821 30.3721 99.2288 29.9792 98.8926 29.6903C98.5564 29.4015 98.1374 29.2571 97.6355 29.2571C97.1288 29.2571 96.7027 29.4015 96.3571 29.6903C96.0162 29.9792 95.7581 30.3721 95.5829 30.8693C95.4125 31.3665 95.3272 31.9323 95.3272 32.5667C95.3272 33.2012 95.4125 33.767 95.5829 34.2642C95.7581 34.7614 96.0162 35.1543 96.3571 35.4432C96.7027 35.7273 97.1288 35.8693 97.6355 35.8693Z" fill="white"/>
<path d="M87.243 38V27.0909H90.2686V38H87.243ZM88.7629 25.6847C88.3131 25.6847 87.9272 25.5355 87.6052 25.2372C87.288 24.9342 87.1294 24.572 87.1294 24.1506C87.1294 23.7339 87.288 23.3764 87.6052 23.0781C87.9272 22.7751 88.3131 22.6236 88.7629 22.6236C89.2127 22.6236 89.5963 22.7751 89.9135 23.0781C90.2355 23.3764 90.3964 23.7339 90.3964 24.1506C90.3964 24.572 90.2355 24.9342 89.9135 25.2372C89.5963 25.5355 89.2127 25.6847 88.7629 25.6847Z" fill="white"/>
<path d="M78.5483 38.1776C77.7197 38.1776 76.9692 37.9645 76.2968 37.5384C75.6292 37.1075 75.0989 36.4754 74.7059 35.6421C74.3177 34.804 74.1235 33.7766 74.1235 32.5597C74.1235 31.3097 74.3248 30.2704 74.7272 29.4418C75.1297 28.6085 75.6647 27.9858 76.3323 27.5739C77.0047 27.1572 77.741 26.9489 78.5411 26.9489C79.1519 26.9489 79.6609 27.0531 80.0681 27.2614C80.4801 27.465 80.8115 27.7207 81.0625 28.0285C81.3181 28.3315 81.5123 28.6298 81.6448 28.9233H81.7372V23.4546H84.7556V38H81.7727V36.2529H81.6448C81.5028 36.5559 81.3016 36.8566 81.0411 37.1549C80.7855 37.4484 80.4517 37.6923 80.0397 37.8864C79.6325 38.0805 79.1354 38.1776 78.5483 38.1776ZM79.5071 35.7699C79.9948 35.7699 80.4067 35.6374 80.7429 35.3722C81.0838 35.1023 81.3442 34.7259 81.5241 34.2429C81.7088 33.76 81.8011 33.1942 81.8011 32.5455C81.8011 31.8968 81.7111 31.3334 81.5312 30.8552C81.3513 30.3769 81.0909 30.0076 80.75 29.7472C80.409 29.4868 79.9948 29.3566 79.5071 29.3566C79.0099 29.3566 78.5909 29.4915 78.25 29.7614C77.909 30.0313 77.651 30.4053 77.4758 30.8836C77.3006 31.3618 77.213 31.9158 77.213 32.5455C77.213 33.18 77.3006 33.741 77.4758 34.2287C77.6557 34.7117 77.9138 35.0905 78.25 35.3651C78.5909 35.635 79.0099 35.7699 79.5071 35.7699Z" fill="white"/>
<path d="M69.0827 33.3551V27.0909H72.1082V38H69.2034V36.0185H69.0898C68.8435 36.6577 68.434 37.1714 67.8611 37.5597C67.2929 37.948 66.5992 38.1421 65.7801 38.1421C65.0509 38.1421 64.4094 37.9764 63.8554 37.6449C63.3014 37.3135 62.8682 36.8424 62.5557 36.2316C62.2479 35.6208 62.0916 34.8892 62.0869 34.037V27.0909H65.1125V33.4972C65.1172 34.1411 65.29 34.6501 65.6309 35.0242C65.9719 35.3982 66.4288 35.5853 67.0017 35.5853C67.3663 35.5853 67.7072 35.5024 68.0244 35.3367C68.3416 35.1662 68.5973 34.9153 68.7915 34.5838C68.9903 34.2524 69.0874 33.8428 69.0827 33.3551Z" fill="white"/>
<path d="M60.116 27.0909V29.3637H53.5464V27.0909H60.116ZM55.0379 24.4773H58.0634V34.6477C58.0634 34.9271 58.106 35.1449 58.1913 35.3012C58.2765 35.4527 58.3949 35.5592 58.5464 35.6208C58.7026 35.6823 58.8826 35.7131 59.0862 35.7131C59.2282 35.7131 59.3703 35.7013 59.5123 35.6776C59.6543 35.6492 59.7632 35.6279 59.839 35.6137L60.3149 37.8651C60.1633 37.9124 59.9503 37.9669 59.6756 38.0284C59.401 38.0947 59.0672 38.135 58.6742 38.1492C57.9451 38.1776 57.3059 38.0805 56.7566 37.858C56.2121 37.6354 55.7883 37.2898 55.4853 36.821C55.1823 36.3523 55.0331 35.7604 55.0379 35.0455V24.4773Z" fill="white"/>
<path d="M49.1553 27.6378C49.0985 27.0649 48.8546 26.6198 48.4237 26.3026C47.9929 25.9853 47.4081 25.8267 46.6695 25.8267C46.1676 25.8267 45.7438 25.8977 45.3982 26.0398C45.0525 26.1771 44.7874 26.3688 44.6027 26.6151C44.4228 26.8613 44.3328 27.1406 44.3328 27.4531C44.3234 27.7135 44.3778 27.9408 44.4962 28.1349C44.6193 28.3291 44.7874 28.4972 45.0004 28.6392C45.2135 28.7765 45.4597 28.8972 45.7391 29.0014C46.0184 29.1008 46.3167 29.1861 46.634 29.2571L47.9408 29.5696C48.5753 29.7116 49.1576 29.901 49.6879 30.1378C50.2182 30.3745 50.6775 30.6657 51.0658 31.0114C51.454 31.357 51.7547 31.7642 51.9678 32.2329C52.1856 32.7017 52.2968 33.2391 52.3016 33.8452C52.2968 34.7353 52.0696 35.5071 51.6198 36.1605C51.1747 36.8092 50.5307 37.3134 49.6879 37.6733C48.8499 38.0284 47.839 38.206 46.6553 38.206C45.481 38.206 44.4583 38.026 43.5871 37.6662C42.7206 37.3063 42.0435 36.7737 41.5558 36.0682C41.0729 35.358 40.8196 34.4796 40.7959 33.4332H43.7718C43.8049 33.9209 43.9446 34.3281 44.1908 34.6548C44.4417 34.9768 44.7755 35.2206 45.1922 35.3864C45.6136 35.5473 46.0895 35.6278 46.6198 35.6278C47.1406 35.6278 47.5928 35.5521 47.9763 35.4006C48.3646 35.249 48.6652 35.0383 48.8783 34.7685C49.0914 34.4986 49.1979 34.1884 49.1979 33.8381C49.1979 33.5114 49.1008 33.2367 48.9067 33.0142C48.7173 32.7917 48.4379 32.6023 48.0686 32.446C47.704 32.2898 47.2566 32.1477 46.7263 32.0199L45.1425 31.6222C43.9162 31.3239 42.9479 30.8575 42.2377 30.223C41.5274 29.5885 41.1747 28.7339 41.1794 27.6591C41.1747 26.7784 41.4091 26.009 41.8825 25.3508C42.3608 24.6927 43.0165 24.179 43.8499 23.8097C44.6832 23.4403 45.6302 23.2557 46.6908 23.2557C47.7703 23.2557 48.7126 23.4403 49.5175 23.8097C50.3272 24.179 50.9569 24.6927 51.4067 25.3508C51.8565 26.009 52.0885 26.7713 52.1027 27.6378H49.1553Z" fill="white"/>
<path d="M7.37823 43.5397L0.855469 5.85852L16.5682 3.13858C19.3894 2.65022 21.8196 2.64013 23.8588 3.10831C25.9104 3.57436 27.5387 4.44214 28.7439 5.71165C29.9613 6.97903 30.7335 8.5572 31.0605 10.4462C31.3089 11.8813 31.2303 13.2151 30.8246 14.4476C30.4168 15.6679 29.7492 16.7373 28.8217 17.6558C27.8942 18.5744 26.7629 19.3008 25.4278 19.8352L25.4915 20.2031C27.0252 20.0134 28.5008 20.1812 29.9183 20.7065C31.348 21.2297 32.5711 22.0918 33.5875 23.2929C34.6019 24.4817 35.2662 25.9838 35.5804 27.7992C35.9308 29.8231 35.7288 31.7215 34.9745 33.4944C34.218 35.2551 32.9443 36.7642 31.1532 38.0218C29.3601 39.2671 27.0713 40.1307 24.2869 40.6127L7.37823 43.5397ZM15.2149 34.6219L20.845 33.6473C22.8199 33.3055 24.2086 32.6797 25.0113 31.7702C25.8263 30.8584 26.118 29.7341 25.8866 28.3971C25.7189 27.4281 25.3476 26.6333 24.7727 26.0127C24.1957 25.3798 23.4572 24.9454 22.5573 24.7096C21.6553 24.4614 20.6216 24.4382 19.4564 24.6399L13.6607 25.6432L15.2149 34.6219ZM12.6447 19.7739L17.686 18.9013C18.6796 18.7293 19.5341 18.4108 20.2495 17.9458C20.9649 17.4809 21.4831 16.8985 21.8042 16.1986C22.1374 15.4966 22.2276 14.704 22.0748 13.8209C21.8561 12.5575 21.2364 11.6414 20.2157 11.0727C19.195 10.504 17.9242 10.3513 16.4032 10.6146L11.2147 11.5128L12.6447 19.7739Z" fill="white"/>
</svg>
