<svg width="1920" height="205" viewBox="0 0 1920 205" fill="none" xmlns="http://www.w3.org/2000/svg">
<path fill-rule="evenodd" clip-rule="evenodd" d="M1849.02 6.92593H1758.63V198.074H1849.02C1870.13 198.074 1888.7 194.16 1904.72 186.332C1920.74 178.504 1933.21 167.49 1942.13 153.291C1951.24 138.909 1955.79 121.979 1955.79 102.5C1955.79 82.839 1951.24 65.9087 1942.13 51.7092C1933.21 37.5096 1920.74 26.4958 1904.72 18.6679C1888.7 10.8399 1870.13 6.92593 1849.02 6.92593ZM1944.75 50.0431C1935.51 35.3301 1922.59 23.9421 1906.09 15.8799C1889.57 7.80977 1870.52 3.82288 1849.02 3.82288H1755.53V201.177H1849.02C1870.52 201.177 1889.57 197.19 1906.09 189.12C1922.59 181.057 1935.51 169.666 1944.76 154.95C1954.22 140.003 1958.89 122.479 1958.89 102.5C1958.89 82.3493 1954.22 64.819 1944.75 50.0431ZM1846.83 154.929H1812.7V50.0707H1846.83C1857.76 50.0707 1867.22 52.1643 1875.23 56.3513C1883.42 60.3563 1889.8 66.2728 1894.35 74.1008C1898.9 81.9287 1901.17 91.3951 1901.17 102.5C1901.17 113.423 1898.9 122.889 1894.35 130.899C1889.8 138.727 1883.42 144.734 1875.23 148.922C1867.22 152.927 1857.76 154.929 1846.83 154.929ZM1873.84 146.151C1866.34 149.895 1857.37 151.826 1846.83 151.826H1815.8V53.1738H1846.83C1857.36 53.1738 1866.31 55.1898 1873.79 59.1013L1873.83 59.1207L1873.87 59.1391C1881.51 62.8764 1887.42 68.3674 1891.66 75.6604C1895.88 82.9184 1898.07 91.8196 1898.07 102.5C1898.07 112.978 1895.89 121.892 1891.66 129.352C1887.41 136.645 1881.49 142.233 1873.84 146.151Z" fill="#3D3D3D"/>
<path fill-rule="evenodd" clip-rule="evenodd" d="M1555.16 178.686C1571 194.16 1593.02 201.897 1621.24 201.897C1649.46 201.897 1671.49 194.16 1687.32 178.686C1703.16 163.212 1711.08 141.276 1711.08 112.877V6.92593H1657.83V111.238C1657.83 127.622 1654.65 139.364 1648.28 146.464C1641.9 153.564 1633.08 157.114 1621.79 157.114C1610.5 157.114 1601.58 153.564 1595.03 146.464C1588.66 139.364 1585.47 127.622 1585.47 111.238V6.92593H1531.4V112.877C1531.4 141.276 1539.32 163.212 1555.16 178.686ZM1597.32 144.378C1591.73 138.133 1588.57 127.35 1588.57 111.238V3.82288H1528.3V112.877C1528.3 141.863 1536.4 164.695 1552.99 180.906C1569.56 197.09 1592.45 205 1621.24 205C1650.04 205 1672.93 197.09 1689.49 180.906C1706.09 164.695 1714.18 141.863 1714.18 112.877V3.82288H1654.73V111.238C1654.73 127.361 1651.57 138.149 1645.97 144.391C1640.29 150.714 1632.37 154.011 1621.79 154.011C1611.22 154.011 1603.19 150.721 1597.32 144.378Z" fill="#3D3D3D"/>
<path fill-rule="evenodd" clip-rule="evenodd" d="M1392.4 198.074H1446.47V49.7977H1504.91V6.92593H1333.69V49.7977H1392.4V198.074ZM1389.3 52.9007V201.177H1449.58V52.9007H1508.01V3.82288H1330.59V52.9007H1389.3Z" fill="#3D3D3D"/>
<path fill-rule="evenodd" clip-rule="evenodd" d="M1187.7 199.158L1187.67 199.152C1173.07 195.086 1161 189.87 1151.53 183.437L1149.39 181.978L1169.66 136.448L1172.7 138.387C1181 143.684 1190.58 148.128 1201.46 151.698C1212.46 155.066 1223.34 156.741 1234.11 156.741C1241.4 156.741 1247.08 156.117 1251.24 154.96C1255.53 153.581 1258.2 151.981 1259.67 150.375L1259.68 150.367C1261.36 148.548 1262.13 146.56 1262.13 144.279C1262.13 141.077 1260.77 138.559 1257.56 136.521C1253.92 134.201 1249.06 132.214 1242.89 130.628C1236.57 129.003 1229.52 127.375 1221.73 125.744L1221.72 125.741C1213.96 124.079 1206.12 121.957 1198.19 119.377L1198.17 119.37C1190.31 116.749 1183.07 113.369 1176.48 109.223L1176.45 109.206L1176.42 109.189C1169.67 104.749 1164.16 99.0444 1159.92 92.1031L1159.9 92.071C1155.53 84.7316 1153.45 75.6782 1153.45 65.0896C1153.45 53.0262 1156.72 42.0474 1163.26 32.2385L1163.28 32.2038C1170.04 22.3555 1180 14.5624 1192.97 8.73767C1206.05 2.86207 1222.17 0 1241.21 0C1254 0 1266.53 1.48262 1278.78 4.45003C1291.23 7.23967 1302.35 11.4374 1312.12 17.0724L1314.48 18.4336L1295.46 64.2644L1292.44 62.6317C1283.52 57.8187 1274.74 54.2748 1266.08 51.9779L1266.05 51.9703L1266.02 51.9622C1257.35 49.4844 1248.99 48.2587 1240.93 48.2587C1233.66 48.2587 1228.05 49.0631 1223.96 50.5329L1223.91 50.5517L1223.86 50.5687C1219.63 51.9208 1217 53.6574 1215.52 55.5379C1213.95 57.5333 1213.18 59.7691 1213.18 62.3589C1213.18 65.3718 1214.46 67.8045 1217.46 69.8345C1221.12 71.9813 1225.97 73.8721 1232.1 75.452C1238.63 76.9027 1245.7 78.4443 1253.32 80.0766C1253.32 80.0771 1253.32 80.0775 1253.33 80.078L1252.68 83.1121M1275.89 89.3927C1283.72 91.7593 1290.82 95.0361 1297.19 99.2232C1303.56 103.228 1308.66 108.599 1312.48 115.334C1316.48 121.888 1318.49 130.171 1318.49 140.183C1318.49 151.288 1315.3 161.574 1308.93 171.04C1302.74 180.325 1293.36 187.788 1280.8 193.432C1268.42 199.075 1252.77 201.897 1233.83 201.897C1218.18 201.897 1203.07 199.985 1188.51 196.163C1174.12 192.157 1162.38 187.06 1153.28 180.871L1171.03 141.003C1171.9 141.561 1172.79 142.11 1173.69 142.649C1181.61 147.385 1190.55 151.387 1200.52 154.656C1211.81 158.115 1223 159.844 1234.11 159.844C1241.57 159.844 1247.58 159.207 1252.13 157.933C1256.68 156.477 1259.96 154.656 1261.96 152.472C1264.15 150.105 1265.24 147.374 1265.24 144.279C1265.24 139.91 1263.24 136.452 1259.23 133.903C1255.23 131.354 1250.04 129.261 1243.67 127.622C1237.29 125.984 1230.19 124.345 1222.37 122.707C1214.72 121.069 1206.98 118.975 1199.16 116.426C1191.51 113.878 1184.5 110.601 1178.13 106.596C1171.76 102.409 1166.57 97.0386 1162.56 90.485C1158.56 83.7493 1156.56 75.2842 1156.56 65.0896C1156.56 53.6207 1159.65 43.2441 1165.84 33.9598C1172.21 24.6755 1181.68 17.2116 1194.24 11.5682C1206.8 5.92476 1222.46 3.10305 1241.21 3.10305C1253.77 3.10305 1266.06 4.55942 1278.07 7.47216C1290.27 10.2028 1301.1 14.2989 1310.57 19.7602L1293.91 59.9013C1292.99 59.4045 1292.07 58.9207 1291.15 58.4499C1282.99 54.2631 1274.89 51.1059 1266.88 48.9786C1257.96 46.4299 1249.31 45.1556 1240.93 45.1556C1233.47 45.1556 1227.46 45.9748 1222.91 47.6132C1218.36 49.0696 1215.08 51.0721 1213.08 53.6207C1211.08 56.1694 1210.08 59.0821 1210.08 62.3589C1210.08 66.546 1211.99 69.9138 1215.81 72.4625C1219.82 74.8291 1225.01 76.8316 1231.38 78.47M1282.09 196.257C1269.18 202.141 1253.05 205 1233.83 205C1217.92 205 1202.55 203.057 1187.72 199.164L1187.7 199.158M1282.09 196.257C1295.05 190.432 1304.93 182.632 1311.51 172.763L1282.09 196.257ZM1315.15 113.76C1311.09 106.622 1305.66 100.89 1298.87 96.6142C1292.25 92.2671 1284.89 88.8781 1276.83 86.4354" fill="#3D3D3D"/>
<path fill-rule="evenodd" clip-rule="evenodd" d="M973.142 6.92593V78.743H899.413V6.92593H845.346V198.074H899.413V123.526H973.142V198.074H1027.21V6.92593H973.142ZM970.039 126.629V201.177H1030.31V3.82288H970.039V75.6399H902.516V3.82288H842.243V201.177H902.516V126.629H970.039Z" fill="#3D3D3D"/>
<path fill-rule="evenodd" clip-rule="evenodd" d="M684.978 197.702L684.953 197.692C671.854 192.64 660.401 185.512 650.628 176.302L650.606 176.282C641.023 167.074 633.509 156.269 628.069 143.889L628.062 143.874C622.599 131.252 619.888 117.447 619.888 102.5C619.888 87.556 622.598 73.8372 628.067 61.3889C633.504 48.8307 641.018 37.9307 650.606 28.7184L650.628 28.6976C660.407 19.4826 671.868 12.4422 684.978 7.57127C698.284 2.51299 712.675 0 728.123 0C746.143 0 762.33 3.15863 776.622 9.55093C791.082 15.9368 803.138 25.1613 812.743 37.2143L814.559 39.4937L775.618 74.7262L773.545 72.2876C767.583 65.2733 761.069 59.9955 754.015 56.3826L753.987 56.3683C747.196 52.8029 739.508 50.9893 730.853 50.9893C723.367 50.9893 716.562 52.207 710.406 54.6013C704.259 56.9917 698.999 60.4756 694.588 65.0558C690.345 69.4677 686.914 74.8465 684.317 81.2406C681.927 87.5719 680.708 94.6462 680.708 102.5C680.708 110.354 681.927 117.428 684.317 123.759C686.909 130.142 690.338 135.615 694.587 140.215C698.992 144.609 704.252 148.006 710.406 150.399C716.562 152.793 723.367 154.011 730.853 154.011C739.508 154.011 747.196 152.197 753.987 148.632L754.015 148.617C761.069 145.005 767.583 139.727 773.545 132.712L775.618 130.274L814.576 165.521L812.728 167.804C803.127 179.664 791.084 188.876 776.648 195.438L776.631 195.445C762.336 201.84 746.146 205 728.123 205C712.684 205 698.302 202.581 685.003 197.711L684.978 197.702ZM681.428 124.892C678.879 118.156 677.605 110.692 677.605 102.5C677.605 94.3079 678.879 86.8441 681.428 80.1084C684.159 73.3727 687.799 67.6383 692.351 62.9051C697.084 57.9898 702.727 54.2579 709.281 51.7093C715.835 49.1606 723.025 47.8863 730.853 47.8863C739.956 47.8863 748.148 49.7978 755.43 53.6207C762.077 57.0257 768.22 61.8024 773.856 67.9511C774.548 68.7058 775.232 69.4811 775.909 70.277C775.909 70.2768 775.909 70.2773 775.909 70.277L810.316 39.1481C801.032 27.4972 789.381 18.5769 775.364 12.3874C761.528 6.19783 745.781 3.10305 728.123 3.10305C713.013 3.10305 698.995 5.56067 686.07 10.4759C673.327 15.2091 662.222 22.0358 652.756 30.956C643.471 39.8763 636.19 50.4349 630.91 62.632C625.631 74.647 622.991 87.9363 622.991 102.5C622.991 117.064 625.631 130.444 630.91 142.641C636.19 154.656 643.471 165.124 652.756 174.044C662.222 182.964 673.327 189.882 686.07 194.797C698.995 199.53 713.013 201.897 728.123 201.897C745.781 201.897 761.528 198.802 775.364 192.613C789.381 186.241 801.032 177.321 810.316 165.852L775.91 134.722C775.909 134.722 775.91 134.722 775.91 134.722C775.233 135.518 774.548 136.294 773.856 137.049C768.22 143.198 762.077 147.974 755.43 151.379C748.148 155.202 739.956 157.114 730.853 157.114C723.025 157.114 715.835 155.839 709.281 153.291C702.727 150.742 697.084 147.101 692.351 142.368C687.799 137.453 684.159 131.627 681.428 124.892Z" fill="#3D3D3D"/>
<path fill-rule="evenodd" clip-rule="evenodd" d="M491.952 80.9275H576.877V121.342H491.952V156.294H591.895V198.074H438.431V6.92593H588.346V48.7054H491.952V80.9275ZM495.055 51.8085H591.449V3.82288H435.328V201.177H594.999V153.191H495.055V124.445H579.98V77.8244H495.055V51.8085Z" fill="#3D3D3D"/>
<path fill-rule="evenodd" clip-rule="evenodd" d="M225.374 198.074H279.441V147.283H308.955L343.612 198.074H401.503L360.251 137.965C361.2 137.508 362.132 137.038 363.046 136.553C373.279 131.133 381.364 123.969 387.303 115.061C394.221 104.502 397.68 92.0323 397.68 77.6507C397.68 63.087 394.221 50.5259 387.303 39.9672C380.385 29.2265 370.555 21.0345 357.812 15.3911C345.251 9.74764 330.232 6.92593 312.756 6.92593H225.374V198.074ZM309.479 105.504C320.766 105.504 329.14 103.046 334.601 98.1308C340.244 93.2156 343.066 86.3889 343.066 77.6507C343.066 68.7304 340.244 61.8127 334.601 56.8975C329.14 51.9822 320.766 49.5246 309.479 49.5246H279.441V105.504H309.479ZM282.544 102.401H309.479C320.395 102.401 327.872 100.012 332.525 95.8243L332.544 95.8074L332.563 95.7909C337.414 91.5659 339.963 85.6577 339.963 77.6507C339.963 69.4388 337.399 63.4496 332.563 59.2374L332.544 59.2208L332.525 59.2039C327.872 55.0159 320.395 52.6277 309.479 52.6277H282.544V102.401ZM359.074 12.5565C346.023 6.69469 330.552 3.82288 312.756 3.82288H222.271V201.177H282.544V150.386H307.316L341.973 201.177H407.396L364.813 139.128C375.309 133.51 383.694 126.069 389.885 116.782L389.899 116.762C397.192 105.63 400.783 92.5498 400.783 77.6507C400.783 62.5831 397.199 49.4137 389.906 38.2779C382.632 26.9877 372.313 18.4204 359.074 12.5565Z" fill="#3D3D3D"/>
<path fill-rule="evenodd" clip-rule="evenodd" d="M-23.1549 198.074H32.0049L46.9091 160.937H127.967L142.871 198.074H199.123L114.472 6.92593H61.2233L-23.1549 198.074ZM62.9092 121.069H111.966L87.4378 59.9497L62.9092 121.069ZM87.4378 68.2812L67.4982 117.966H107.377L87.4378 68.2812ZM125.868 164.04L140.772 201.177H203.891L116.491 3.82288H59.2011L-27.9166 201.177H34.1032L49.0074 164.04H125.868Z" fill="#3D3D3D"/>
</svg>
