<svg width="629" height="629" viewBox="0 0 629 629" fill="none" xmlns="http://www.w3.org/2000/svg">
<path fill-rule="evenodd" clip-rule="evenodd" d="M589.666 561.972C573.254 418.684 665.951 129 523.441 51.5131C302.375 -68.6863 -19.9335 99.1984 2.17212 370.289C17.8025 561.972 608.226 724.011 589.666 561.972Z" fill="#1CBA6D"/>
<path d="M374.802 118.494C374.253 116.885 373.621 115.413 373.414 113.883C372.987 110.735 372.644 107.561 372.525 104.388C372.279 97.8034 372.199 90.12 372.058 83.5317C372.037 82.5273 371.839 81.5002 373.456 81.4434C375.077 81.3864 382.809 76.4527 382.809 80.1984C382.809 87.9732 383.893 99.8732 384.573 107.513C384.792 109.981 385.817 111.993 385.87 114.859C385.96 119.69 377.43 118.437 374.802 118.494Z" fill="white"/>
<path fill-rule="evenodd" clip-rule="evenodd" d="M266.996 48.2823C265.299 48.4287 263.604 48.6831 261.906 48.7046C251.376 48.8382 240.844 48.9089 230.314 49.0413C229.683 49.0492 226.866 49.0574 226.235 49.0658C223.473 49.1025 220.71 49.1441 217.948 49.1927C216.656 49.2154 217.55 49.2546 216.259 49.3051C211.666 49.4847 207.076 49.8076 202.485 50.0424C199.909 50.1741 197.33 50.2779 194.76 50.49C188.044 51.0442 155.107 52.7604 148.391 53.3176C146.807 53.4491 145.897 53.8433 146.028 55.7945C146.323 60.1903 146.436 141.099 146.472 145.505C146.482 146.799 146.841 147.084 148.042 146.982C152.09 146.639 182.371 145.28 186.424 144.993C190.622 144.695 194.819 144.366 199.02 144.122C204.755 143.79 210.493 143.539 216.228 143.22C217.052 143.174 217.86 142.906 218.683 142.8C222.234 142.347 225.782 141.863 229.341 141.491C232.8 141.129 236.268 140.831 239.739 140.61C247.243 140.131 254.747 139.622 262.258 139.308C269.001 139.025 275.755 138.99 282.503 138.839C288.813 138.697 295.122 138.536 301.432 138.403C308.913 138.245 316.394 138.089 323.875 137.965C333.918 137.8 343.963 137.691 354.006 137.512C358.998 137.422 363.989 137.237 368.981 137.08C373.24 136.945 377.498 136.735 381.759 136.654C391.216 136.472 400.674 136.339 410.133 136.206C421.348 136.048 432.564 135.981 443.778 135.74C451.64 135.571 471.519 135.191 479.376 134.844C479.76 134.828 480.432 134.227 480.439 133.888C480.516 130.155 480.485 49.9242 480.489 46.19C480.492 44.6076 479.576 43.7141 478.149 43.479C476.474 43.203 474.764 43.0774 473.064 43.0235C467.268 42.8398 449.449 42.5731 443.653 42.5956C422.626 42.6769 401.599 42.8396 380.573 43.0189C378.232 43.0389 375.89 43.0582 373.549 43.0793C365.187 43.155 356.824 43.255 348.466 43.4985C343.295 43.6493 338.141 44.3632 332.975 44.7578C326.716 45.2358 320.453 45.6493 314.191 46.0833C311.91 46.2414 309.626 46.3746 307.344 46.5253C300.717 46.9628 294.094 47.5187 287.46 47.8105C280.791 48.1039 274.111 48.1358 266.996 48.2823Z" fill="white"/>
<path fill-rule="evenodd" clip-rule="evenodd" d="M134.955 14.6717C132.046 14.3895 129.165 13.823 126.272 13.3761C126.075 13.3456 125.89 13.2411 125.699 13.1711C125.881 13.0947 126.057 12.9975 126.246 12.9488C126.383 12.9133 126.537 12.9448 126.684 12.9414C132.921 12.7954 139.16 12.6938 145.396 12.4908C152.892 12.2468 160.386 11.9258 167.881 11.6189C170.751 11.5013 173.617 11.3001 176.487 11.1912C181.039 11.0184 185.594 10.902 190.146 10.7414C193.821 10.6117 197.495 10.443 201.169 10.3071C209.25 10.0084 217.331 9.72877 225.412 9.42178C228.501 9.3044 231.587 9.09867 234.677 8.99492C239.888 8.81993 245.102 8.70877 250.313 8.54283C254.135 8.42115 257.955 8.24395 261.776 8.11107C266.328 7.95274 270.882 7.82783 275.435 7.66484C278.963 7.53851 282.49 7.34469 286.018 7.23658C291.669 7.06347 297.322 6.94875 302.973 6.78611C307.38 6.65927 311.786 6.49048 316.193 6.35238C321.112 6.19823 326.031 6.05767 330.951 5.9112C335.87 5.76473 340.789 5.61487 345.708 5.47272C350.92 5.32212 356.133 5.18098 361.345 5.03176C366.363 4.88812 371.38 4.73226 376.398 4.59487C382.049 4.44012 387.701 4.30076 393.352 4.15334C398.931 4.00783 404.509 3.85761 410.088 3.71496C415.959 3.56482 421.83 3.42262 427.701 3.27432C433.426 3.12971 439.153 3.03308 444.875 2.81864C449.243 2.65496 453.604 2.32332 457.971 2.11107C458.617 2.07965 459.277 2.39051 459.928 2.38147C468.949 2.25634 477.97 2.11681 486.99 1.95193C493.74 1.82853 500.49 1.65798 507.24 1.51857C514.649 1.36554 522.058 1.17374 529.468 1.09376C533.312 1.05931 535.84 2.79409 536.746 6.42154C537.197 8.22887 536.961 10.2167 536.974 12.1233C537.009 17.0239 537.065 21.9256 537.003 26.8254C536.964 29.8776 536.722 32.927 536.577 35.978C536.55 36.5585 536.543 37.1404 536.543 37.7217C536.541 44.1182 536.592 50.5152 536.53 56.9111C536.424 68.1288 536.258 79.3461 536.099 90.5633C535.967 99.8767 535.808 109.19 535.663 118.503C535.515 127.963 535.371 137.423 535.223 146.882C535.078 156.196 534.951 165.509 534.776 174.822C534.672 180.328 534.453 185.832 534.357 191.338C534.29 195.17 534.386 199.005 534.336 202.837C534.215 212.297 534.073 221.757 533.897 231.217C533.796 236.649 533.573 242.08 533.479 247.513C533.411 251.418 533.52 255.326 533.452 259.232C533.359 264.591 533.13 269.949 533.04 275.308C532.971 279.433 533.083 283.561 533.012 287.686C532.927 292.607 532.688 297.524 532.601 302.445C532.531 306.423 532.628 310.404 532.579 314.384C532.457 324.063 532.302 333.743 532.145 343.422C532.01 351.71 531.869 359.998 531.703 368.286C531.582 374.304 531.372 380.321 531.282 386.34C531.213 390.977 531.326 395.618 531.253 400.256C531.178 405.03 530.921 409.801 530.845 414.575C530.772 419.139 530.886 423.706 530.813 428.271C530.743 432.606 530.475 436.937 530.406 441.272C530.333 445.909 530.436 450.55 530.38 455.188C530.265 464.794 530.104 474.4 529.948 484.006C529.812 492.441 529.815 500.882 529.466 509.308C529.13 517.411 530.997 524.926 535.026 531.845C539.131 538.892 543.53 545.77 547.892 552.664C552.204 559.479 555.989 566.574 557.994 574.395C559.425 579.98 559.635 585.777 558.028 591.43C557.479 593.363 554.131 606.698 556.979 610.162C560.635 614.609 565.257 616.605 570.95 616.735C576.499 616.862 581.768 615.512 587.085 614.281C593.552 612.783 600.043 611.703 606.554 614.065C609.793 615.24 612.714 616.901 614.629 619.899C614.921 620.356 615.629 621.123 614.083 621.132C610.334 621.152 606.587 621.383 602.84 621.53C595.345 621.823 587.85 622.124 580.355 622.406C576.022 622.569 571.688 622.708 567.355 622.846C562.509 623.001 557.663 623.15 552.817 623.285C547.165 623.442 541.514 623.594 535.862 623.723C528.819 623.884 521.776 624.033 514.733 624.163C506.079 624.323 497.425 624.477 488.77 624.601C477.26 624.766 465.749 624.882 454.239 625.051C446.39 625.167 438.542 625.342 430.693 625.481C429.351 625.505 428.007 625.474 426.663 625.486C410.466 625.63 394.269 625.778 378.072 625.922C376.655 625.935 375.238 625.913 373.822 625.926C357.258 626.07 340.695 626.218 324.132 626.362C322.642 626.375 321.152 626.352 319.662 626.365C303.245 626.509 286.828 626.657 270.411 626.801C268.995 626.814 267.578 626.792 266.161 626.804C249.598 626.948 233.035 627.097 216.471 627.241C215.128 627.252 213.784 627.232 212.441 627.244C195.878 627.388 179.314 627.536 162.751 627.68C161.334 627.692 159.917 627.671 158.501 627.683C141.937 627.827 125.374 627.975 108.811 628.12C107.541 628.131 106.27 628.112 105 628.123C88.1439 628.267 71.2875 628.413 54.4312 628.569C54.1621 628.572 53.8942 628.707 53.6258 628.89C53.6258 629 53.4061 629 53.2962 629C52.704 628.853 52.2231 628.586 51.7392 628.58C48.444 628.543 45.1482 628.567 41.8527 628.55C41.5379 628.548 41.2238 628.396 40.9094 628.314C41.1757 628.25 41.4437 628.192 41.708 628.12C48.7558 626.217 55.7542 624.095 62.8697 622.493C66.9031 621.585 71.1216 621.443 75.2694 621.117C78.7871 620.841 82.3221 620.75 85.8515 620.675C87.1887 620.647 87.0779 620.348 86.7261 619.185C85.2462 614.29 83.5446 609.4 82.7604 604.377C82.1091 600.206 82.4638 595.844 82.6821 591.583C82.8386 588.528 83.2842 585.445 84.0036 582.473C84.8316 579.051 85.9236 575.665 87.2165 572.388C90.6282 563.742 96.6957 556.988 102.967 550.32C106.716 546.334 110.117 541.955 113.187 537.423C115.043 534.682 116.042 531.339 116.028 527.856C116.007 522.364 116.076 516.87 116.01 511.379C115.912 503.236 115.741 495.095 115.58 486.953C115.45 480.422 115.249 473.893 115.153 467.362C114.975 455.339 114.918 443.314 114.677 431.293C114.549 424.898 113.996 418.51 113.903 412.115C113.824 406.682 114.304 401.24 114.223 395.807C114.109 388.084 113.691 380.365 113.45 372.644C113.422 371.763 113.814 370.872 113.808 369.988C113.685 353.131 113.465 336.274 113.404 319.417C113.33 299.033 113.442 278.648 113.368 258.264C113.308 241.626 112.974 224.99 112.979 208.353C112.984 190.104 113.268 171.856 113.375 153.608C113.436 143.257 113.331 132.905 113.404 122.554C113.461 114.558 113.689 106.564 113.819 98.5682C113.859 96.1269 113.8 93.6842 113.83 91.2427C113.966 79.9517 114.142 68.6612 114.255 57.37C114.312 51.7063 114.208 46.0408 114.281 40.3775C114.35 35.091 114.559 29.8063 114.702 24.5207C114.72 23.8838 114.712 23.2462 114.716 22.6089C114.859 23.315 115.048 24.0153 115.136 24.7281C115.736 29.6101 116.332 34.4929 116.892 39.3796C117.095 41.1435 117.214 42.9176 117.337 44.6895C117.642 49.1079 117.923 53.528 118.22 57.947C118.657 64.4296 145.141 70.3787 145.199 69.6706C145.434 70.3494 145.684 71.0234 145.9 71.7079C147.862 77.9118 149.091 84.2488 149.917 90.7139C151.089 99.8896 151.184 109.082 151.183 118.298C151.172 238.111 151.182 357.924 151.12 477.738C151.119 479.673 151.714 480.442 153.464 480.948C159.207 482.609 165.114 483.21 170.971 482.59C182.05 481.418 201.913 477.522 210.636 470.278C217.603 464.49 222.564 457.41 225.512 448.985C226.665 445.691 226.928 442.05 227.318 438.536C227.674 435.324 227.993 432.043 227.726 428.842C227.273 423.408 226.402 418.006 225.602 412.605C224.95 408.211 224.019 403.856 223.437 399.454C222.589 393.035 221.763 386.603 221.266 380.15C220.849 374.739 220.453 369.255 220.868 363.866C221.717 352.857 223.436 341.951 226.474 331.289C229.722 319.892 234.248 309.016 239.878 298.615C244.066 290.877 248.865 283.499 254.634 276.833C259.106 271.666 263.753 266.644 268.467 261.696C270.475 259.588 272.893 257.878 275.053 255.908C283.265 248.42 289.278 239.189 295.483 230.104C300.326 223.014 295.1 215.727 300.419 209.007C307.423 200.157 316.017 193.142 327.183 190.056C331.29 188.922 335.515 188.195 339.709 187.403C348.614 185.724 357.64 185.826 366.621 186.143C375.953 186.472 384.822 188.825 392.791 193.975C399.358 198.219 404.124 204.171 408.185 210.66C412.931 218.244 417.417 225.997 421.829 233.783C427.501 243.794 433.007 253.9 438.544 263.987C441.522 269.412 444.456 274.861 447.34 280.337C453.322 291.697 476.147 336.439 481.618 347.429C481.822 347.839 482.074 348.227 482.303 348.625C482.513 348.126 482.879 347.636 482.909 347.127C483.24 341.465 483.523 335.8 483.811 330.135C484.109 324.252 484.403 318.368 484.689 312.483C484.989 306.307 485.286 300.13 485.567 293.953C485.871 287.264 486.167 280.574 486.445 273.884C486.752 266.536 487.037 259.187 487.326 251.838C487.479 247.944 487.627 244.05 487.765 240.156C487.919 235.823 488.058 231.489 488.206 227.156C488.351 222.895 488.51 218.635 488.643 214.375C488.801 209.309 488.94 204.243 489.084 199.177C489.233 193.965 489.388 188.753 489.522 183.541C489.679 177.376 489.825 171.212 489.961 165.048C490.117 158.005 490.274 150.962 490.399 143.918C490.563 134.678 490.676 125.437 490.85 116.197C490.955 110.618 491.214 105.041 491.263 99.4618C491.335 91.2349 491.229 83.0065 491.301 74.7796C491.347 69.4932 491.584 64.2086 491.707 58.9225C491.719 58.3916 491.531 57.856 491.435 57.3226C490.985 57.649 490.467 57.9127 490.094 58.3117C487.236 61.3676 483.625 62.4582 479.559 62.615C473.306 62.8561 467.405 61.0118 461.407 59.7349C455.663 58.5119 449.889 57.1432 444.001 57.8464C440.501 58.2644 437.032 59.3115 433.674 60.4459C428.258 62.2756 423.104 61.7207 417.974 59.5251C412.998 57.3951 408.068 55.1346 402.997 53.2565C398.432 51.566 393.59 51.5827 389.163 53.513C387.003 54.4553 384.834 56.4765 383.75 58.5694C381.214 63.4645 377.386 65.7417 372.129 66.6065C365.192 67.7475 359.077 65.4157 352.91 62.8842C347.903 60.8286 342.947 58.5136 337.758 57.0654C330.832 55.1324 324.467 57.2296 318.726 61.3607C315.117 63.9578 311.715 66.9457 307.83 69.0305C302.62 71.8265 295.024 72.2287 290.912 67.6146C290.193 66.8073 289.461 65.8394 289.199 64.8257C288.162 60.8124 285.563 59.9482 281.954 59.5313C276.758 58.9311 272.941 61.7263 269.172 64.7432C265.683 67.5359 262.43 70.6427 257.687 71.5161C253.923 72.2094 250.384 71.7163 247.046 70.2816C241.386 67.8488 235.833 65.152 230.324 62.3873C225.397 59.9144 220.132 58.6835 214.845 59.6928C211.439 60.3431 208.231 62.4617 205.152 64.288C201.416 66.5033 198.079 69.4181 194.266 71.468C187.707 74.9948 181.83 75.0741 173.429 73.6975C165.029 72.3209 144.763 59.1913 143.748 57.8464C143.607 57.6591 140.476 15.2071 134.955 14.6717Z" fill="white"/>
<path fill-rule="evenodd" clip-rule="evenodd" d="M262.217 460.872C260.409 447.641 259.912 435.5 260.726 424.448C261.539 413.396 264.048 397.135 268.25 375.666C260.213 396.844 255.437 413.105 253.921 424.448C252.405 435.79 253.284 449.285 256.559 464.933L262.217 460.872Z" fill="#1CBA6D"/>
<path fill-rule="evenodd" clip-rule="evenodd" d="M380.413 301.533C388.378 300.772 393.414 302.359 394.93 306.869C397.492 314.492 378.829 324.685 372.244 324.071C369.935 321.954 392.858 316.234 390.787 308.262C390.26 306.233 386.998 305.295 380.829 305.884C379.627 305.999 378.56 305.118 378.445 303.916C378.331 302.715 379.212 301.647 380.413 301.533Z" fill="#00160A"/>
<path fill-rule="evenodd" clip-rule="evenodd" d="M419.7 505.326C419.115 503.935 419.945 495.306 424.522 487.041C432.104 473.352 465.079 468.815 477.425 456.357C493.086 440.555 486.463 422.005 485.613 420.274C485.409 419.859 485.331 419.383 485.195 418.936C485.557 419.172 485.982 419.348 486.272 419.652C491.38 425.009 494.759 431.36 496.321 438.537C497.995 446.228 498.535 454.01 494.752 461.319C493.923 462.921 492.232 464.212 490.687 465.285C486.026 468.521 463.175 477.477 456.784 478.759C450.618 479.996 445.272 482.847 439.597 485.086C436.112 486.461 434.215 489.66 431.483 491.881C428.601 494.224 427.771 497.095 428.029 500.558C428.105 501.578 428 502.609 428.047 503.632C428.352 510.212 421.497 509.601 419.7 505.326Z" fill="#1CBA6D"/>
<path fill-rule="evenodd" clip-rule="evenodd" d="M288.149 322.382C291.288 322.382 292.457 319.935 290.792 316.918C289.164 313.9 285.975 311.454 283.638 311.454C281.301 311.454 280.05 313.9 280.877 316.918C281.739 319.935 285.009 322.382 288.149 322.382Z" fill="#FFB61D"/>
<path fill-rule="evenodd" clip-rule="evenodd" d="M349.346 336.587C352.485 336.587 353.654 334.141 351.989 331.123C350.361 328.106 347.172 325.659 344.835 325.659C342.497 325.659 341.247 328.106 342.073 331.123C342.936 334.141 346.206 336.587 349.346 336.587Z" fill="#FFB61D"/>
<path fill-rule="evenodd" clip-rule="evenodd" d="M533.839 0.000488752C537.683 -0.0334655 540.211 1.70132 541.117 5.32877C541.569 7.1361 541.332 9.1239 541.345 11.0305C541.38 15.9312 541.436 20.8328 541.374 25.7327C541.335 28.7848 541.093 31.8342 540.948 34.8852C540.921 35.4657 540.914 36.0477 540.914 36.6289C540.912 43.0254 540.963 49.4224 540.902 55.8183C540.795 67.036 540.629 78.2533 540.47 89.4705C540.338 98.784 540.179 108.097 540.034 117.41C539.886 126.87 539.742 136.33 539.594 145.79C539.449 155.103 539.322 164.417 539.147 173.729C539.044 179.235 538.825 184.739 538.728 190.245C538.662 194.077 538.757 197.912 538.707 201.745C538.586 211.205 538.444 220.665 538.268 230.124C538.167 235.557 537.944 240.987 537.85 246.42C537.782 250.325 537.892 254.234 537.823 258.139C537.73 263.499 537.501 268.856 537.411 274.215C537.342 278.34 537.454 282.469 537.383 286.594C537.298 291.514 537.059 296.432 536.972 301.352C536.902 305.33 537 309.312 536.95 313.291C536.829 322.971 536.673 332.65 536.516 342.329C536.382 350.617 536.241 358.906 536.074 367.193C535.953 373.211 535.743 379.228 535.654 385.247C535.584 389.885 535.697 394.525 535.624 399.163C535.549 403.937 535.292 408.708 535.216 413.482C535.143 418.046 535.257 422.614 535.184 427.178C535.114 431.513 534.846 435.844 534.777 440.179C534.704 444.816 534.807 449.457 534.751 454.095C534.637 463.702 534.475 473.308 534.319 482.914C534.183 491.348 534.186 499.789 533.837 508.215C533.501 516.319 535.368 523.834 539.398 530.752C543.502 537.799 547.901 544.677 552.263 551.571C556.576 558.386 560.36 565.481 562.365 573.302C563.796 578.887 564.006 584.684 562.399 590.337C561.85 592.27 558.503 605.605 561.351 609.069C565.006 613.516 569.628 615.512 575.321 615.642C580.87 615.769 586.139 614.419 591.457 613.188C597.923 611.691 604.414 610.61 610.925 612.972C614.164 614.147 617.085 615.808 619 618.806C619.292 619.263 620 620.03 618.454 620.039C614.705 620.059 610.958 620.291 607.211 620.437C599.716 620.73 592.221 621.031 584.726 621.313C580.393 621.476 576.059 621.615 571.726 621.753C566.88 621.908 562.034 622.058 557.188 622.192C551.536 622.349 545.885 622.501 540.233 622.631C533.19 622.792 526.147 622.94 519.104 623.07C510.45 623.23 501.796 623.385 493.141 623.508C481.631 623.673 470.121 623.789 458.611 623.958C450.762 624.074 442.913 624.249 435.065 624.388C433.722 624.412 432.378 624.381 431.035 624.393C414.837 624.537 398.64 624.686 382.443 624.829C381.026 624.842 379.61 624.82 378.193 624.833C361.63 624.977 345.066 625.125 328.503 625.269L324.033 625.272C307.616 625.416 291.199 625.564 274.782 625.708C273.366 625.721 271.949 625.699 270.533 625.712C253.969 625.855 237.406 626.004 220.842 626.148C219.499 626.16 218.155 626.139 216.812 626.151C200.249 626.295 183.685 626.443 167.122 626.587C165.705 626.599 164.289 626.578 162.872 626.59C146.309 626.734 129.745 626.882 113.182 627.027C111.912 627.038 110.641 627.019 109.371 627.03C92.5151 627.174 75.6587 627.32 58.8024 627.476C58.5333 627.479 58.2654 627.614 57.997 627.797C57.997 627.907 57.7773 627.907 57.6674 627.907C57.0753 627.761 56.5943 627.493 56.1104 627.487C52.8152 627.45 49.5194 627.474 46.2239 627.457C45.9091 627.455 45.595 627.303 45.2806 627.221C45.5469 627.157 45.8149 627.099 46.0792 627.027C53.127 625.124 60.1254 623.002 67.241 621.401C71.2744 620.492 75.4928 620.35 79.6407 620.024C83.1584 619.748 86.6933 619.657 90.2227 619.582C91.56 619.554 91.4491 619.255 91.0973 618.092C89.6174 613.197 87.9158 608.307 87.1316 603.285C86.4803 599.113 86.8349 594.751 87.0533 590.49C87.2098 587.435 87.6554 584.353 88.3748 581.38C89.2028 577.958 90.2948 574.572 91.5877 571.296C94.9994 562.649 101.067 555.895 107.339 549.227C111.087 545.241 114.488 540.862 117.558 536.33C119.415 533.59 120.413 530.247 120.4 526.764C120.378 521.271 120.447 515.778 120.381 510.286C120.283 502.143 120.112 494.002 119.951 485.861C119.822 479.33 119.62 472.8 119.524 466.269C119.346 454.246 119.289 442.221 119.048 430.2C118.92 423.805 118.367 417.417 118.274 411.023C118.195 405.589 118.675 400.148 118.594 394.714C118.48 386.991 118.063 379.273 117.821 371.551C117.794 370.67 118.185 369.779 118.179 368.895C118.057 352.038 117.836 335.182 117.775 318.325C117.701 297.94 117.813 277.555 117.74 257.171C117.68 240.534 117.345 223.897 117.35 207.26C117.355 189.012 117.639 170.764 117.746 152.515C117.807 142.164 117.702 131.812 117.775 121.461C117.832 113.465 118.06 105.471 118.191 97.4754C118.23 95.0342 118.171 92.5914 118.201 90.1499C118.338 78.8589 118.513 67.5684 118.626 56.2772C118.683 50.6135 118.579 44.9481 118.653 39.2848C118.721 33.9982 118.93 28.7136 119.074 23.4279C119.091 22.791 119.084 22.1534 119.088 21.5162C119.23 22.2222 119.42 22.9225 119.507 23.6354C120.108 28.5174 120.704 33.4001 121.264 38.2868C121.466 40.0507 121.586 41.8249 121.708 43.5967C122.013 48.0152 122.294 52.4352 122.592 56.8542C123.028 63.3368 123.499 69.8173 123.9 76.302C124.237 81.7439 124.537 87.1887 124.778 92.6356C125.111 100.202 125.39 107.771 125.661 115.341C125.837 120.259 126.056 125.178 126.09 130.098C126.271 155.89 126.405 181.681 126.541 207.473C126.572 213.357 126.597 219.241 126.534 225.124C126.43 234.951 126.256 244.777 126.105 254.603C125.963 263.916 125.837 273.23 125.657 282.543C125.568 287.097 125.356 291.649 125.236 296.203C125.185 298.131 125.238 300.061 125.226 301.991C125.082 323.534 124.868 345.078 124.817 366.622C124.793 376.814 125.057 387.007 125.238 397.199C125.324 402.046 125.509 406.891 125.67 411.737C125.799 415.632 125.936 419.526 126.112 423.419C126.384 429.45 126.668 435.482 126.993 441.51C127.247 446.225 127.543 450.937 127.871 455.647C128.281 461.545 128.709 467.443 129.199 473.335C129.385 475.566 129.67 477.801 130.115 479.992C130.266 480.735 130.907 481.576 131.565 481.985C135.718 484.57 140.026 483.18 143.47 480.608C147.461 477.627 149.188 473.247 149.361 468.376C149.635 460.653 149.812 452.923 149.815 445.195C149.847 369.591 149.887 293.987 149.816 218.383C149.769 169.156 149.541 119.929 149.403 70.7022C149.401 69.9943 149.512 69.286 149.57 68.5778C149.805 69.2567 150.055 69.9306 150.271 70.6152C152.233 76.819 153.462 83.1561 154.288 89.6211C155.46 98.7969 155.555 107.989 155.555 117.205L155.542 296.925C155.535 356.831 155.522 416.738 155.491 476.645C155.49 478.581 156.085 479.35 157.835 479.855C163.579 481.516 169.485 482.117 175.343 481.497C186.421 480.325 196.449 476.43 205.172 469.185C212.139 463.397 217.1 456.317 220.048 447.892C221.201 444.598 221.464 440.957 221.854 437.443C222.21 434.231 222.529 430.95 222.262 427.749C221.809 422.315 220.938 416.913 220.137 411.513C219.486 407.118 218.555 402.763 217.973 398.361C217.125 391.942 216.299 385.51 215.802 379.058C215.385 373.646 214.989 368.162 215.404 362.773C216.253 351.764 217.972 340.858 221.01 330.196C224.258 318.8 228.784 307.923 234.414 297.522C238.602 289.784 243.401 282.406 249.17 275.74C253.642 270.573 258.289 265.552 263.003 260.603C265.011 258.496 267.429 256.785 269.589 254.815C277.801 247.327 283.814 238.096 290.019 229.011C294.862 221.921 299.471 214.634 304.79 207.914C311.794 199.064 320.388 192.049 331.555 188.964C335.661 187.829 339.886 187.102 344.08 186.311C352.985 184.631 362.011 184.733 370.992 185.05C380.324 185.38 389.194 187.732 397.162 192.882C403.729 197.127 408.495 203.078 412.556 209.567C417.302 217.151 421.788 224.904 426.2 232.69C431.872 242.702 437.378 252.807 442.915 262.894C445.893 268.319 448.827 273.769 451.711 279.244C455.313 286.085 457.38 288.755 460.288 296.203C462.209 301.125 465.609 310.343 467.933 314.892C472.568 323.965 473.373 329.948 476.758 338.37C477.452 340.095 481.099 342.205 481.936 344.125C483.494 347.702 486.662 352.884 486.891 353.282C487.101 352.783 487.25 346.543 487.28 346.034C487.611 340.372 487.895 334.707 488.182 329.043C488.48 323.159 488.775 317.275 489.06 311.391C489.36 305.214 489.657 299.037 489.938 292.86C490.242 286.171 490.538 279.481 490.816 272.791C491.123 265.443 491.408 258.094 491.697 250.745C491.85 246.851 491.998 242.957 492.136 239.063C492.29 234.73 492.43 230.396 492.577 226.063C492.723 221.802 492.881 217.543 493.014 213.282C493.172 208.217 493.311 203.15 493.456 198.085C493.604 192.872 493.759 187.66 493.893 182.448C494.051 176.284 494.196 170.119 494.333 163.955C494.488 156.912 494.645 149.869 494.77 142.825C494.934 133.585 495.047 124.344 495.221 115.105C495.327 109.525 495.586 103.948 495.634 98.369C495.707 90.1421 495.601 81.9137 495.672 73.6868C495.718 68.4004 495.955 63.1158 496.078 57.8298C496.09 57.2988 495.902 56.7632 495.806 56.2298C495.356 56.5562 494.838 56.8199 494.465 57.2189C491.607 60.2749 487.996 61.3655 483.93 61.5222C477.677 61.7633 471.776 59.919 465.778 58.6421C460.034 57.4191 454.26 56.0504 448.372 56.7537C444.872 57.1716 441.403 58.2187 438.045 59.3532C432.629 61.1828 427.475 60.6279 422.346 58.4323C417.369 56.3023 412.439 54.0418 407.368 52.1637C402.803 50.4732 397.961 50.4899 393.535 52.4202C391.374 53.3625 389.205 55.3838 388.121 57.4767C385.585 62.3717 381.757 64.6489 376.5 65.5137C369.563 66.6547 363.448 64.3229 357.282 61.7914C352.274 59.7358 347.318 57.4208 342.129 55.9727C335.203 54.0397 328.838 56.1368 323.097 60.2679C319.488 62.865 316.087 65.8529 312.201 67.9378C306.991 70.7338 299.395 71.136 295.284 66.5218C294.564 65.7145 293.832 64.7466 293.57 63.733C292.533 59.7196 289.935 58.8554 286.326 58.4386C281.129 57.8383 277.312 60.6335 273.543 63.6505C270.054 66.4431 266.801 69.55 262.058 70.4233C258.294 71.1166 254.755 70.6236 251.417 69.1888C245.757 66.756 240.204 64.0592 234.695 61.2945C229.768 58.8217 224.503 57.5907 219.216 58.6C215.81 59.2503 212.602 61.3689 209.523 63.1952C205.788 65.4105 202.45 68.3253 198.638 70.3752C192.079 73.902 185.036 74.0498 177.801 72.6047C170.295 71.1057 164.114 67.4434 158.914 61.9794C157.758 60.765 156.815 59.3464 155.801 58.0016C155.66 57.8143 155.673 57.5101 155.615 57.2601C155.822 57.3663 156.062 57.4354 156.232 57.584C161.709 62.3674 167.972 65.3281 175.233 66.3752C185.724 67.8883 195.444 66.1332 204.185 60.0333C206.629 58.3279 208.632 56.0008 211.019 54.2013C214.783 51.3648 219.232 51.4991 223.583 52.0255C231.747 53.0132 238.834 57.2613 246.473 59.8462C253.081 62.0827 259.866 63.7936 266.857 61.0751C269.316 60.1189 271.374 58.7761 272.896 56.5249C275.567 52.5754 281.353 51.1549 285.749 51.629C292.837 52.3933 298.976 55.9174 305.704 57.6349C310.431 58.8416 315.168 59.6572 319.997 58.0059C322.605 57.114 324.425 55.3302 325.827 53.1116C328.096 49.5208 331.542 48.242 335.503 47.8865C341.112 47.3832 346.159 49.1545 351.106 51.589C355.855 53.9262 360.668 56.3195 365.964 57.0391C370.252 57.6217 374.497 56.7693 378.473 54.9748C384.705 52.1616 390.857 49.1606 397.143 46.476C403.182 43.8975 409.058 44.405 414.708 47.9527C417.815 49.9031 421.032 51.752 424.39 53.2058C428.412 54.9465 432.699 54.3924 436.788 53.2997C442.302 51.8262 447.656 49.6812 453.222 48.494C457.088 47.6692 461.099 47.9842 464.249 51.3403C467.187 54.472 471.069 55.2474 475.087 54.104C481.354 52.3199 487.526 50.2001 493.749 48.2563C496.817 47.2981 499.888 46.371 503.158 47.4318C507.564 48.8608 508.057 49.583 507.519 54.1623C507.215 56.7494 506.851 59.3329 506.659 61.9288C506.426 65.084 506.378 68.2525 506.193 71.4119C505.774 78.5547 505.328 85.6958 504.878 92.8367C504.6 97.2569 504.264 101.674 504.01 106.095C503.685 111.758 503.428 117.424 503.12 123.087C502.843 128.167 502.507 133.243 502.252 138.323C501.927 144.791 501.662 151.262 501.364 157.732C501.228 160.675 501.055 163.615 500.93 166.558C500.626 173.687 500.342 180.816 500.047 187.945C499.904 191.4 499.74 194.854 499.611 198.309C499.309 206.39 499.021 214.471 498.729 222.552C498.581 226.666 498.429 230.779 498.291 234.893C498.137 239.519 497.995 244.146 497.851 248.773C497.702 253.545 497.553 258.318 497.412 263.091C497.26 268.23 497.114 273.369 496.972 278.508C496.822 283.94 496.675 289.372 496.533 294.804C496.382 300.529 496.234 306.254 496.094 311.979C495.941 318.216 495.799 324.454 495.653 330.692C495.506 337.003 495.358 343.313 495.214 349.624C495.065 356.228 494.919 362.832 494.775 369.435L494.488 383.083C494.438 385.357 494.385 387.631 494.326 389.906C494.23 393.581 494.044 397.255 493.89 400.929C493.882 401.131 493.802 401.329 493.755 401.53C493.655 401.331 493.512 401.142 493.462 400.932C491.843 394.058 490.051 387.217 488.686 380.293C487.766 375.622 487.381 370.838 486.891 366.091C486.601 363.285 486.576 360.452 486.419 357.632C486.404 357.362 486.305 357.096 486.245 356.828C486.158 357.059 486.009 357.287 485.995 357.522C485.478 366.353 483.925 374.97 480.818 383.283C479.917 385.696 479.155 388.16 478.315 390.596C478.206 390.913 478.011 391.2 477.855 391.501C477.813 391.105 477.645 390.67 477.751 390.318C478.258 388.629 478.734 386.919 479.413 385.297C482.526 377.848 482.355 369.994 481.936 362.219C481.622 356.399 480.165 350.692 477.772 345.303C477.628 344.977 476.852 343.458 476.844 343.055C476.843 342.989 476.557 342.927 476.402 342.864C476.521 343.404 476.64 343.945 476.758 344.485C477.051 350.076 477.549 357.851 477.584 363.444C477.624 369.973 476.532 374.219 474.761 380.503C473.824 383.829 472.615 387.08 471.522 390.362C471.447 390.588 471.319 390.796 471.215 391.012C471.159 390.743 470.975 390.418 471.064 390.212C473.96 383.508 473.641 376.324 474.068 369.285C474.467 362.696 474.819 356.059 474.464 349.482C473.967 340.302 472.242 331.284 468.403 322.808C468.318 322.621 468.086 322.501 468.002 322.314C467.72 321.689 467.475 321.047 467.216 320.412C467.047 321.205 466.655 322.025 466.749 322.786C467.062 325.335 467.728 327.848 467.933 330.4C468.35 335.615 468.684 340.844 468.815 346.072C468.962 351.953 469.134 357.857 468.767 363.718C468.409 369.443 467.394 375.128 466.648 380.828C466.23 384.018 465.777 387.203 465.324 390.388C465.295 390.596 465.133 390.785 465.033 390.983C464.987 390.782 464.886 390.577 464.903 390.382C465.033 388.903 465.19 387.427 465.333 385.949C465.483 384.399 465.713 382.851 465.758 381.298C465.941 374.988 466.177 368.677 466.18 362.366C466.183 356.348 465.986 350.328 465.752 344.314C465.563 339.451 465.262 334.59 464.876 329.739C464.364 323.311 463.728 316.893 463.131 310.473C463.021 309.285 462.857 308.102 462.685 306.921C462.651 306.688 462.467 306.477 462.353 306.256C462.174 306.487 461.859 306.707 461.84 306.951C461.657 309.231 461.494 311.513 461.386 313.798C461.213 317.471 461.13 321.148 460.93 324.82C460.522 332.329 460.081 339.837 459.613 347.342C459.368 351.252 458.992 355.153 458.752 359.063C458.281 366.715 457.883 374.372 457.416 382.024C457.168 386.08 456.804 390.129 456.553 394.184C456.087 401.69 455.702 409.201 455.208 416.705C455.037 419.301 455.688 427.77 455.593 428.935C455.034 435.821 453.086 442.412 450.735 448.871C450.278 450.128 449.34 451.423 448.263 452.2C445.228 454.389 443.22 454.042 441.62 450.227C441.228 449.291 441.021 448.278 440.724 447.302C440.685 447.173 440.62 447.053 440.566 446.928C440.473 447.143 440.351 447.35 440.291 447.573C439.698 449.818 439.349 452.164 438.464 454.286C437.578 456.41 436.363 458.475 434.922 460.269C433.176 462.442 430 462.554 427.976 460.627C426.823 459.53 426.834 460.929 426.744 461.139C425.837 463.252 425.221 465.507 424.168 467.537C422.528 470.7 419.695 472.121 416.169 471.878C414.589 471.769 414.29 472.256 414.318 473.756C414.388 477.669 412.834 480.857 409.333 482.803C408.476 483.279 407.28 483.379 406.271 483.291C404.836 483.166 404.554 483.69 404.669 484.975C404.786 486.282 404.712 487.609 404.691 488.927C404.64 492.048 402.492 494.235 399.412 494.325C397.07 494.394 396.63 495.045 397.557 497.075C398.489 499.114 397.025 501.076 394.276 501.343C391.479 501.615 389.147 500.985 386.93 498.862C377.82 490.137 370.84 479.94 365.634 468.541C362.258 461.148 359.623 453.445 358.585 445.326C357.85 439.583 357.208 433.816 356.845 428.039C356.432 421.477 357.466 415.015 358.802 408.589C361.333 396.414 366.068 384.975 370.288 373.358C371.262 370.675 371.955 367.876 372.594 365.088C373.702 360.259 374.759 355.414 375.644 350.54C375.953 348.839 375.753 347.03 375.634 345.28C375.614 344.988 374.771 344.467 374.385 344.529C371.041 345.073 367.699 345.652 364.387 346.364C358.718 347.582 353.293 349.47 348.047 352.007C346.105 352.946 343.671 352.844 341.474 353.282C337.963 353.983 334.468 354.763 330.954 355.45C330.224 355.592 329.442 355.453 328.686 355.474C327.387 355.51 325.25 355.134 324.955 355.703C324.162 357.229 323.924 359.159 323.881 360.939C323.652 370.543 323.429 380.151 323.452 389.756C323.465 394.762 323.972 399.768 324.287 404.771C324.555 409.046 324.755 413.329 325.192 417.586C325.635 421.899 326.368 426.181 326.906 430.485C327.265 433.358 327.451 436.252 327.81 439.125C328.347 443.429 328.99 447.72 329.548 452.021C330.019 455.643 330.431 459.273 330.874 462.899C331.163 465.268 331.45 467.637 331.766 470.003C331.795 470.215 331.992 470.525 332.173 470.578C335.467 471.543 336.2 474.437 336.995 477.163C338.238 481.423 339.6 485.686 340.317 490.046C340.867 493.388 340.859 496.925 340.44 500.293C340.014 503.72 338.851 507.067 337.887 510.413C336.434 515.462 333.552 519.72 330.261 523.733C330.046 523.995 329.943 524.348 329.788 524.659C330.108 524.654 330.428 524.647 330.748 524.646C331.334 524.643 331.92 524.645 332.506 524.645H359.09C365.853 524.645 372.616 524.696 379.378 524.633C390.449 524.53 401.52 524.351 412.591 524.207C413.714 524.193 414.838 524.22 415.962 524.203C425.568 524.061 435.174 523.911 444.78 523.768C445.757 523.753 446.735 523.791 447.712 523.762C455.811 523.521 463.91 523.259 472.01 523.038C472.807 523.016 473.61 523.322 474.408 523.312C484.088 523.188 493.768 523.051 503.447 522.881C510.051 522.766 516.654 522.582 523.258 522.456C525.092 522.421 526.072 522.022 526.047 519.722C525.978 513.414 526.277 507.102 526.406 500.791C526.447 498.789 526.5 496.782 526.393 494.785C526.183 490.843 523.239 489.283 519.846 489.111C513.106 488.767 506.35 488.672 499.599 488.632C487.857 488.563 476.114 488.591 464.371 488.633C462.234 488.64 460.099 488.911 457.962 489.046C457.684 489.064 457.4 488.995 457.119 488.967C457.288 488.708 457.445 488.44 457.629 488.191C459.453 485.736 462.192 485.001 464.958 484.713C468.536 484.341 472.171 484.53 475.751 484.175C479.702 483.782 483.618 483.041 487.552 482.47C487.982 482.407 488.43 482.471 488.869 482.46C500.392 482.169 511.915 481.888 523.436 481.543C523.957 481.527 524.756 481.041 524.925 480.588C526.292 476.923 527.06 473.266 526.698 469.19C526.312 464.847 527.048 460.404 527.288 456.005C527.312 455.567 527.291 455.126 527.291 454.687C527.291 450.879 527.257 447.07 527.297 443.262C527.427 431.166 527.567 419.07 527.736 406.974C527.852 398.685 528.025 390.398 528.169 382.11C528.318 373.529 528.461 364.948 528.609 356.367C528.754 347.98 528.902 339.594 529.048 331.208L529.488 305.904C529.635 297.445 529.781 288.985 529.927 280.525C530.074 271.993 530.219 263.46 530.367 254.927C530.512 246.639 530.661 238.351 530.806 230.063C530.954 221.53 531.099 212.997 531.246 204.464C531.392 195.957 531.537 187.449 531.685 178.941C531.83 170.653 531.98 162.365 532.124 154.077C532.273 145.496 532.416 136.915 532.564 128.334L533.003 103.251C533.151 94.743 533.294 86.2352 533.443 77.7275C533.587 69.5127 533.74 61.298 533.881 53.0832C534.032 44.2826 534.159 35.4816 534.327 26.6814C534.446 20.4183 534.585 14.1551 534.785 7.89428C534.827 6.57895 534.614 6.05656 533.092 6.0965C524.367 6.32556 515.638 6.41049 506.911 6.58302C501.38 6.69238 495.851 6.87405 490.32 7.01415C484.303 7.16658 478.285 7.3036 472.267 7.45634C466.762 7.59609 461.257 7.7524 455.752 7.8931C449.807 8.04501 443.863 8.18376 437.918 8.33477C432.34 8.47647 426.762 8.63117 421.183 8.77194C415.166 8.92379 409.147 9.05328 403.13 9.21671C398.503 9.34238 393.878 9.53166 389.251 9.64584C382.355 9.816 375.458 9.93366 368.562 10.095C363.056 10.2238 357.551 10.3904 352.046 10.5292C345.955 10.6828 339.864 10.8176 333.773 10.9721C328.341 11.1098 322.91 11.2693 317.477 11.408C311.46 11.5616 305.442 11.6891 299.424 11.8534C294.871 11.9778 290.319 12.17 285.765 12.2819C278.796 12.4532 271.825 12.5708 264.856 12.7312C259.204 12.8613 253.553 13.0238 247.901 13.1665C241.956 13.3166 236.012 13.456 230.067 13.6079C224.562 13.7486 219.057 13.9057 213.552 14.0445C207.461 14.1981 201.371 14.3908 195.279 14.4749C182.158 14.656 169.035 14.923 155.915 14.8564C150.383 14.8283 144.848 14.1143 139.327 13.5789C136.418 13.2968 133.536 12.7302 130.643 12.2833C130.446 12.2529 130.261 12.1484 130.07 12.0783C130.252 12.0019 130.428 11.9047 130.617 11.856C130.755 11.8205 130.908 11.852 131.055 11.8486C137.292 11.7027 143.531 11.601 149.767 11.3981C157.263 11.1541 164.758 10.833 172.252 10.5261C175.122 10.4086 177.988 10.2073 180.859 10.0984C185.411 9.92566 189.965 9.80926 194.517 9.64859C198.192 9.51889 201.866 9.35023 205.54 9.21438C213.621 8.91562 221.702 8.636 229.783 8.32901C232.872 8.21163 235.959 8.0059 239.048 7.90215C244.26 7.72717 249.473 7.616 254.684 7.45006C258.506 7.32837 262.326 7.15118 266.147 7.01829C270.7 6.85997 275.253 6.73505 279.806 6.57206C283.334 6.44574 286.861 6.25191 290.39 6.14381C296.04 5.9707 301.693 5.85598 307.344 5.69333C311.751 5.56649 316.157 5.39771 320.564 5.25961C325.483 5.10546 330.402 4.9649 335.322 4.81843C340.241 4.67196 345.16 4.5221 350.079 4.37995C355.292 4.22934 360.504 4.08821 365.716 3.93899C370.734 3.79535 375.751 3.63949 380.769 3.5021C386.42 3.34735 392.072 3.20799 397.724 3.06057C403.302 2.91506 408.88 2.76484 414.459 2.62219C420.33 2.47205 426.201 2.32985 432.073 2.18155C437.797 2.03694 443.524 1.94031 449.246 1.72587C453.614 1.56219 457.976 1.23055 462.342 1.0183C462.989 0.986883 463.648 1.29773 464.3 1.2887C473.32 1.16356 482.341 1.02404 491.361 0.859158C498.111 0.735759 504.861 0.56521 511.611 0.42579C519.02 0.272762 526.429 0.0809702 533.839 0.000488752ZM391.647 575.213C387.078 575.33 382.516 575.756 377.952 576.058C373.68 576.341 369.406 576.614 365.137 576.942C359.825 577.352 354.517 577.812 349.208 578.254C343.971 578.69 338.737 579.165 333.498 579.563C327.239 580.039 320.982 580.639 314.713 580.846C305.187 581.16 295.652 581.188 286.121 581.325C283.998 581.355 281.861 581.477 279.753 581.301C273.692 580.795 267.642 580.15 261.587 579.574C258.342 579.266 255.09 579.025 251.848 578.684C246.596 578.131 241.362 577.298 236.097 576.999C230.963 576.706 225.798 576.879 220.649 576.953C216.608 577.01 212.565 577.154 208.531 577.391C202.119 577.768 195.713 578.244 189.306 578.696C183.264 579.122 177.222 579.568 171.181 580.012C167.275 580.299 163.369 580.598 159.463 580.89C153.568 581.33 147.673 581.768 141.777 582.208C137.871 582.5 133.966 582.801 130.06 583.085C123.945 583.531 117.831 583.987 111.715 584.398C106.859 584.725 101.998 584.969 97.1425 585.292C94.3973 585.475 93.5404 586.413 93.6089 589.222C93.6468 590.775 93.8912 592.322 94.0274 593.873C94.6168 600.586 95.1549 607.304 95.8155 614.01C96.0051 615.935 96.2078 618.093 98.2329 619.07C99.437 619.651 100.896 619.957 102.238 619.951C106.352 619.933 110.463 619.612 114.577 619.578C122.656 619.511 130.736 619.608 138.815 619.547C153.326 619.439 167.836 619.264 182.346 619.121C183.689 619.107 185.033 619.14 186.375 619.115C193.856 618.976 201.337 618.774 208.819 618.69C224.939 618.509 241.061 618.364 257.182 618.25C265.114 618.194 273.048 618.289 280.981 618.229C295.198 618.121 309.415 617.946 323.633 617.802C325.049 617.788 326.466 617.823 327.882 617.797C335.363 617.658 342.843 617.456 350.325 617.372C366.446 617.191 382.567 617.046 398.688 616.931C406.548 616.876 414.408 616.971 422.267 616.911C436.558 616.802 450.849 616.628 465.139 616.484C466.556 616.47 467.972 616.501 469.388 616.479C478.334 616.339 487.279 616.152 496.225 616.056C502.375 615.989 508.526 616.09 514.676 616.033C526.624 615.921 538.572 615.755 550.519 615.599C553.14 615.565 555.128 613.692 555.402 610.916C556.023 604.645 556.585 598.369 557.171 591.655C557.317 589.374 557.552 587.093 557.593 584.809C557.648 581.337 555.901 580.005 552.461 580.427C545.819 581.24 539.171 582.365 532.504 582.542C522.617 582.804 512.71 582.423 502.815 582.178C498.173 582.062 493.535 581.668 488.901 581.317C483.807 580.931 478.719 580.47 473.631 580.005C469.125 579.594 464.623 579.125 460.118 578.694L450.818 577.799C447.718 577.503 444.618 577.214 441.515 576.947C435.771 576.452 430.023 575.961 424.268 575.645C419.137 575.364 413.994 575.26 408.855 575.194C403.12 575.121 397.38 575.066 391.647 575.213ZM241.672 533.214C237.295 533.433 232.92 533.673 228.542 533.866C224.576 534.042 220.608 534.164 216.641 534.312C212.747 534.457 208.853 534.61 204.959 534.75C196.732 535.047 188.505 535.333 180.278 535.632C176.531 535.768 172.784 535.947 169.036 536.064C163.605 536.233 158.172 536.338 152.741 536.52C150.383 536.599 148.014 536.686 145.677 536.982C143.423 537.267 141.221 538.026 138.965 538.216C136.142 538.455 133.237 538.519 131.339 535.68C131.202 535.475 130.13 535.574 130.114 535.655C129.1 540.798 125.737 544.46 122.263 548.001C119.422 550.897 116.363 553.578 113.464 556.419C109.812 559.998 106.109 563.536 102.645 567.293C100.072 570.084 97.8375 573.189 95.4715 576.169C95.2366 576.465 95.1373 576.869 94.9751 577.222C95.3935 577.273 95.8135 577.379 96.2299 577.366C100.637 577.233 105.044 577.094 109.449 576.931C112.831 576.805 116.211 576.62 119.593 576.501C124.365 576.333 129.142 576.271 133.91 576.034C137.529 575.854 141.136 575.438 144.752 575.185C151.379 574.72 158.01 574.315 164.637 573.853C168.326 573.596 172.019 573.355 175.695 572.96C180.368 572.458 185.02 571.767 189.69 571.237C192.929 570.87 196.187 570.674 199.43 570.336C204.756 569.78 210.065 569.02 215.403 568.638C219.144 568.37 222.92 568.529 226.679 568.602C230.354 568.674 234.043 568.718 237.697 569.068C241.939 569.473 246.147 570.225 250.376 570.775C254.07 571.255 257.782 571.599 261.47 572.117C266.229 572.785 270.969 573.586 275.723 574.285C276.943 574.464 278.187 574.473 279.42 574.56C278.412 573.524 277.505 572.36 276.379 571.474C270.746 567.048 266.15 561.605 261.975 555.905C258.182 550.728 255.126 545.008 251.786 539.502C249.509 535.748 246.83 532.67 241.672 533.214ZM523.807 530.322C520.297 530.658 516.756 530.679 513.227 530.79C507.797 530.962 502.365 531.102 496.933 531.233C490.33 531.392 483.727 531.569 477.123 531.667C465.101 531.844 453.079 531.971 441.057 532.112C439.421 532.131 437.784 532.09 436.148 532.119C428.373 532.256 420.598 532.408 412.384 532.554H367.418C353.724 532.554 340.029 532.497 326.336 532.613C324.15 532.631 321.959 533.447 320.888 535.739C318.998 539.787 317.312 543.94 315.257 547.902C310.405 557.255 303.541 565.067 295.811 572.104C294.184 573.585 295.293 574.065 296.2 574.218C297.862 574.5 299.613 574.404 301.313 574.279C306.554 573.893 311.789 573.427 317.025 572.978C322.043 572.548 327.059 572.089 332.078 571.666C337.46 571.211 342.845 570.795 348.227 570.341C353.246 569.917 358.257 569.397 363.281 569.042C370.417 568.538 377.558 568.08 384.704 567.736C388.163 567.57 391.64 567.6 395.102 567.733C400.184 567.927 405.261 568.263 410.336 568.594C416.601 569.001 422.861 569.466 429.123 569.904C433.322 570.198 437.522 570.488 441.721 570.784C447.91 571.221 454.099 571.66 460.288 572.102C464.341 572.392 468.393 572.693 472.446 572.979C476.718 573.279 480.991 573.56 485.263 573.861C489.316 574.146 493.367 574.479 497.422 574.73C502.717 575.057 508.018 575.578 513.314 575.553C520.151 575.521 526.999 575.213 533.817 574.684C539.977 574.207 546.105 573.295 552.242 572.532C555.428 572.136 556.617 569.78 554.965 567.089C548.835 557.101 542.609 547.172 536.539 537.148C533.595 532.288 529.636 529.765 523.807 530.322ZM280.569 289.568C280.259 290.458 280.045 291.398 279.62 292.23C278.164 295.073 276.615 297.868 275.137 300.7C271.751 307.19 268.392 313.591 262.226 318.143C258.209 321.109 253.502 323.328 250.634 327.763C249.788 329.07 248.301 329.958 247.424 331.251C245.853 333.566 244.599 336.094 243.077 338.444C237.176 347.556 231.784 356.907 228.635 367.396C226.197 375.519 224.463 383.754 224.552 392.277C224.599 396.684 224.702 401.098 225.013 405.493C225.271 409.128 225.849 412.742 226.329 416.359C227.028 421.628 227.893 426.88 228.429 432.165C228.649 434.337 227.959 436.593 228.103 438.783C228.352 442.568 228.717 446.371 229.414 450.095C230.744 457.197 232.258 464.268 233.852 471.317C235.482 478.53 237.345 485.69 239.025 492.893C241.597 503.917 245.354 514.522 250.31 524.686C255.308 534.936 261.267 544.632 268.039 553.797C271.272 558.173 274.638 562.53 278.485 566.351C282.764 570.603 288.348 571.437 292.842 566.368C295.606 563.25 298.229 559.998 300.77 556.695C306.313 549.491 311.765 542.217 317.245 534.965C317.44 534.707 317.526 534.367 317.663 534.065C317.323 534.001 316.985 533.927 316.644 533.874C314.028 533.47 311.346 533.311 308.808 532.623C300.46 530.361 293.75 525.141 286.998 520.071C280.613 515.275 274.335 510.336 267.979 505.5C266.965 504.729 266.017 504.709 265.253 506.083C263.162 509.839 260.978 513.544 258.795 517.248C258.432 517.865 257.886 518.374 257.425 518.932C256.861 518.244 256.183 517.62 255.753 516.856C254.137 513.984 255.772 511.327 256.568 508.71C258.249 503.185 259.495 497.634 259.26 491.811C259.057 486.748 258.79 481.679 258.867 476.617C258.919 473.178 260.179 469.797 263.147 468.001C265.406 466.633 265.076 465.039 264.858 463.275C264.076 456.956 262.782 450.674 262.423 444.336C261.962 436.167 262.168 427.955 263.643 419.405C263.789 418.443 263.883 417.469 264.091 416.521C265.061 412.094 265.839 407.608 267.109 403.267C268.859 397.281 270.883 391.369 272.996 385.5C274.208 382.133 279.858 370.712 279.453 374.137C279.283 376.022 276.919 385.18 275.537 389.571C273.394 396.383 271.263 403.21 269.473 410.121C267.309 418.472 265.688 426.947 265.85 435.644C265.938 440.344 266.068 445.045 266.299 449.74C266.495 453.724 266.86 457.7 267.161 461.679C267.263 463.027 268.241 464.027 268.986 463.56C270.384 462.684 271.767 461.781 273.145 460.872C280.096 456.287 286.237 450.755 291.92 444.703C293.008 443.544 294.36 442.31 294.749 440.882C295.886 436.703 296.702 432.426 297.445 428.153C298.045 424.702 298.355 421.2 298.796 417.721C299.527 411.947 300.546 406.189 300.88 400.391C301.067 397.168 300.033 393.887 299.697 390.617C299.367 387.4 299.393 384.142 298.957 380.944C298.312 376.201 297.603 371.449 296.529 366.79C295.773 363.508 294.88 360.06 293.144 357.243C289.621 351.527 285.252 346.334 281.677 340.646C278.898 336.225 276.487 331.395 276.043 326.112C275.601 320.852 275.764 315.515 276.07 310.236C276.15 308.864 277.494 306.94 278.734 306.431C280.044 305.893 281.142 307.535 281.675 309.025C282.473 311.254 283.379 313.444 284.243 315.649C284.334 315.88 284.449 316.1 284.552 316.325C284.613 316.058 284.739 315.785 284.718 315.523C284.691 315.191 284.531 314.872 284.453 314.541C283.326 309.722 281.997 304.957 282.043 299.918C282.066 297.406 281.54 294.885 281.205 292.376C281.078 291.429 280.786 290.503 280.569 289.568ZM228.4 485.071C226.054 485.308 223.694 485.411 221.337 485.532C218.105 485.698 214.871 485.844 211.637 485.974C204.146 486.275 196.654 486.562 188.723 486.855C182.548 487.148 176.376 487.514 170.199 487.715C163.162 487.944 156.12 488.115 149.08 488.128C146.488 488.132 143.892 487.64 141.304 487.325C137.827 486.901 134.368 486.226 130.881 486.029C126.862 485.802 125.716 487.116 125.664 491.141C125.562 498.898 125.438 506.659 127.875 514.165C128.858 517.192 129.544 520.424 131.116 523.127C133.469 527.174 137.68 528.951 142.17 528.954C150.466 528.959 158.764 528.457 167.06 528.159C170.88 528.021 174.699 527.864 178.518 527.721C186.449 527.426 194.38 527.14 202.311 526.84C205.837 526.706 209.362 526.503 212.89 526.412C219.856 526.233 226.823 526.118 233.79 525.96L234.298 525.947C237.856 525.858 241.38 525.773 243.474 529.647C243.66 529.99 244.723 529.858 245.378 529.947C245.423 529.386 245.675 528.737 245.48 528.279C243.777 524.299 242.008 520.347 240.232 516.398C235.9 506.764 232.749 496.738 230.248 486.494C230.011 485.526 229.59 484.951 228.4 485.071ZM289.337 459.241C284.14 461.918 278.941 464.624 273.952 467.66C271.729 469.013 269.731 470.979 268.148 473.059C266.925 474.667 266.493 476.881 265.735 478.835C263.747 483.954 265.347 488.63 268.135 492.772C272.486 499.234 277.388 505.315 283.421 510.344C287.135 513.44 314.181 532.119 324.177 523.639C325.564 522.462 326.151 520.663 326.96 519.083C330.266 512.626 335.605 507.163 336.717 499.643C337.162 496.636 337.557 493.536 337.303 490.535C337.01 487.062 335.962 483.654 335.273 480.211C334.82 477.95 334.691 475.551 332.435 474.142C332.148 473.963 331.834 473.828 331.532 473.673C331.459 474.009 331.275 474.363 331.329 474.676C332.007 478.602 332.408 482.504 333.768 486.386C335.405 491.057 334.56 496.089 332.644 500.788C331.792 502.876 328.847 503.872 326.836 503.629C321.229 502.953 316.569 500.204 312.509 496.386C306.775 490.996 303.201 484.265 300.334 476.749C299.675 474.825 299.042 472.893 298.35 470.981C297.2 467.799 296.16 464.565 294.794 461.477C293.717 459.043 291.478 458.138 289.337 459.241ZM387.676 250.101C387.856 250.652 387.932 251.269 388.232 251.745C390.029 254.596 392.181 255.082 393.648 258.089C397.031 265.021 399.552 270.079 402.521 277.197C403.67 279.951 403.786 283.543 404.742 288.092C404.778 288.262 405.281 288.738 405.644 288.951C407.526 290.054 409.567 290.935 411.302 292.23C416.268 295.935 417.858 300.023 416.35 305.297C413.69 314.6 410.531 309.95 412.425 304.398C413.195 302.141 412.621 299.835 410.841 298.192C410.247 297.643 407.587 296.304 404.304 294.778C403.991 294.632 404.218 295.644 402.893 298.32C402.497 299.119 400.96 301.43 400.522 300.257C399.775 298.253 401.16 293.343 400.522 293.058L399.841 292.755C394.612 290.436 389.376 288.275 388.734 288.195C386.779 287.952 384.965 288.909 384.947 292.401C384.903 300.95 381.513 307.856 375.014 313.301C369.236 318.142 362.794 320.672 355.069 319.483C349.411 318.613 344.584 316.245 340.395 312.466C336.702 309.134 333.903 305.195 332.644 300.306C332.342 299.132 332.016 299.209 331.207 299.958C327.176 303.691 324.511 308.235 323.001 313.483C322.821 314.107 322.783 314.773 322.679 315.419C323.368 315.359 324.085 315.398 324.742 315.22C326.644 314.703 328.522 314.098 330.411 313.532C330.656 313.459 330.91 313.413 331.16 313.354C331.064 313.566 330.947 313.77 330.876 313.989C329.996 316.696 328.046 318.397 325.476 319.301C322.605 320.31 318.249 317.519 319.065 314.638C319.65 312.575 320.677 310.618 321.656 308.69C323.349 305.358 325.158 302.084 327.138 298.786C327.325 298.241 327.513 297.697 327.701 297.152C327.293 297.55 326.886 297.948 326.259 298.347C325.948 298.804 325.721 299.361 325.314 299.704C319.669 304.462 313.371 307.055 305.765 306.333C301.424 305.921 297.647 304.399 294.072 302.16C291.053 300.269 287.805 301.411 287.46 304.926C287.219 307.378 287.471 310 288.093 312.392C290.106 320.144 292.262 327.819 295.57 335.212C298.004 340.653 301.397 344.418 306.931 346.209C311.077 347.551 315.267 348.88 319.537 349.683C324.665 350.646 329.867 350.609 335.031 349.374C338.787 348.475 342.634 347.959 346.399 347.094C350.055 346.254 353.871 345.655 357.243 344.125C365.44 340.406 380.03 328.199 386.619 322.129C386.93 321.842 387.24 321.553 387.551 321.264C387.613 321.678 387.752 322.097 387.725 322.505C387.472 326.321 377.862 335.433 374.428 337.092C373.77 337.409 373.59 338.715 373.189 339.564C373.922 339.886 374.646 340.443 375.389 340.469C376.233 340.498 377.085 340.012 377.952 339.842C378.191 339.795 378.708 340.044 378.735 340.214C378.943 341.535 379.168 342.868 379.188 344.2C379.246 347.959 379.281 351.721 379.168 355.478C379.13 356.755 378.76 358.07 378.307 359.28C375.274 367.395 371.995 375.423 369.156 383.604C366.573 391.045 364.154 398.571 362.217 406.2C360.819 411.706 359.804 417.42 359.562 423.082C359.226 430.948 359.092 438.845 360.669 446.711C362.415 455.414 365.728 463.391 370.451 470.788C375.572 478.808 380.902 486.698 386.311 494.527C387.647 496.463 389.045 498.54 391.405 499.538C392.007 499.793 393.585 499.491 394.445 498.974C395.395 498.403 395.706 497.413 395.072 496.093C392.905 491.58 390.916 486.981 388.878 482.406C385.905 475.729 382.919 469.058 379.991 462.362C374.937 450.805 372.986 438.557 372.725 426.092C372.573 418.818 373.433 411.516 373.96 404.235C374.265 400.014 374.656 395.787 375.29 391.605C376.329 384.747 377.704 377.941 378.74 371.083C379.862 363.655 381.746 356.477 385.469 349.924C388.263 345.004 391.911 340.734 397.202 338.37C403.595 335.513 409.617 332.336 414.079 326.622C418.235 321.299 420.758 315.367 421.325 308.758C422.069 300.092 420.035 292.03 414.783 284.919C410.369 278.942 406.181 272.84 402.893 266.124C399.566 259.329 395.772 254.982 389.045 250.835C388.605 250.563 388.133 250.344 387.676 250.101ZM278.412 310.26C278.176 310.935 277.768 311.601 277.731 312.286C277.387 318.605 278.313 324.816 280.425 330.716C282.236 335.772 284.412 340.803 288.059 344.889C290.942 348.118 292.851 352.175 296.496 354.757C296.82 354.986 296.899 355.599 297.033 356.052C298.205 360.022 299.485 363.965 300.493 367.977L300.761 369.053C301.602 372.465 302.319 375.918 301.88 379.497C301.818 380.002 301.822 380.526 301.879 381.033C302.6 387.395 303.315 393.758 304.075 400.115C304.694 405.293 302.836 410.169 302.293 415.205C301.949 418.402 301.476 421.587 300.981 424.765C300.447 428.192 299.871 431.614 299.221 435.021C298.551 438.538 298.079 442.14 296.915 445.496C296.277 447.336 296.491 448.671 297.12 450.268C298.458 453.67 299.642 457.132 301.006 460.523C304.187 468.432 307.224 476.41 310.729 484.175C313.395 490.078 318.051 494.11 324.393 495.975C327.467 496.879 330.232 495.803 330.753 493.282C331.004 492.071 330.862 490.703 330.58 489.479C330.298 488.257 329.297 487.16 329.177 485.952C328.85 482.661 328.821 479.342 328.678 476.033C328.652 475.453 328.689 474.869 328.63 474.293C328.216 470.294 327.757 466.299 327.366 462.298C327.011 458.673 326.812 455.031 326.385 451.415C325.927 447.534 325.225 443.683 324.744 439.805C324.472 437.611 324.537 435.375 324.258 433.182C323.756 429.24 322.956 425.331 322.561 421.38C321.98 415.571 321.595 409.741 321.22 403.914C320.861 398.327 320.47 392.736 320.363 387.141C320.218 379.455 320.201 371.76 320.397 364.075C320.463 361.492 321.253 358.906 321.9 356.369C322.173 355.296 322.085 355.133 320.967 354.987C317.386 354.52 313.783 354.06 310.275 353.228C304.434 351.843 299.673 348.709 296.618 343.417C293.383 337.813 290.3 332.122 286.932 326.25C286.206 325.231 285.426 324.247 284.767 323.187C283.547 321.224 282.225 319.294 281.275 317.201C280.553 315.608 280.43 313.752 279.858 312.075C279.623 311.386 278.909 310.861 278.412 310.26ZM380.788 242.093C380.584 242.115 380.383 242.174 380.181 242.216C380.326 242.423 380.426 242.695 380.621 242.828C383.074 244.498 385.561 246.118 387.999 247.809C393.376 251.54 397.995 253.87 401.601 259.338C406.068 266.11 410.448 272.94 414.789 279.792C418.935 286.336 422.838 292.902 423.703 300.953C424.275 306.273 423.99 311.394 422.413 316.373C418.864 327.577 411.351 335.456 400.609 339.864C393.045 342.969 388.628 348.593 385.878 355.762C384.25 360.006 383.249 364.515 382.237 368.966C380.939 374.68 379.798 380.437 378.806 386.213C378.036 390.698 377.513 395.231 377.032 399.758C376.365 406.023 375.432 412.299 375.366 418.578C375.298 425.054 375.893 431.567 376.65 438.01C377.227 442.927 378.216 447.841 379.534 452.615C383.176 465.805 389.955 477.612 396.358 489.568C397.413 491.536 399.58 492.001 400.845 490.335C401.597 489.344 402.036 487.555 401.698 486.392C399.978 480.465 397.798 474.673 396.08 468.746C393.405 459.513 390.972 450.21 388.436 440.497C388.29 440.339 388.04 440.196 388.012 440.019C387.406 436.165 386.767 432.314 386.254 428.447C385.607 423.572 384.641 418.689 384.581 413.8C384.491 406.458 384.725 399.072 385.471 391.772C386.043 386.179 387.329 380.61 388.811 375.169C391.444 365.506 395.669 356.512 401.649 348.437C404.007 345.253 406.621 342.246 409.268 339.292C412.495 335.693 416.351 332.565 419.094 328.644C424.327 321.165 426.581 312.464 427.012 303.432C427.24 298.673 427.031 293.765 426.1 289.109C424.849 282.853 423.006 276.671 420.885 270.644C417.525 261.1 412.399 252.668 404.06 246.49C397.106 241.338 389.431 241.154 380.788 242.093ZM383.297 229.892C379.687 229.787 376.047 232.851 372.428 233.344C372.283 233.364 372.039 234.078 372.151 234.333C373.191 236.708 375.316 237.975 377.599 238.503C381.85 239.486 386.198 237.875 390.512 238.582C400.711 240.254 408.342 246.238 414.692 253.795C419.993 260.104 423.531 267.593 425.586 275.597C427.127 281.6 428.659 287.708 429.146 293.852C429.675 300.517 429.585 307.262 428.074 313.964C426.252 322.04 422.858 329.145 417.26 335.2C414.355 338.341 411.294 341.339 408.431 344.516C404.33 349.068 401.01 354.177 398.1 359.56C394.865 365.547 392.286 371.789 390.371 378.33C388.224 385.662 386.897 393.156 386.786 400.744C386.696 406.852 387.41 412.989 388.044 419.084C388.541 423.858 389.26 428.629 390.238 433.328C391.985 441.725 393.849 450.105 395.955 458.418C397.603 464.926 399.611 471.371 402.91 477.267C403.696 478.673 405.288 480.345 406.688 480.527C408.936 480.82 412.331 475.256 411.709 472.999C410.84 469.845 409.967 466.692 409.088 463.541C406.202 453.199 404.882 442.569 404.398 431.925C403.995 423.071 404.646 414.148 405.206 405.28C405.549 399.847 406.354 394.411 407.396 389.063C408.572 383.022 410.279 377.085 411.696 371.089C413.415 363.808 417.383 357.479 420.257 350.688C423.421 343.211 426.846 335.839 429.821 328.289C432.291 322.02 433.724 315.455 434.659 308.74C435.444 303.107 435.847 297.462 434.898 291.94C433.837 285.765 432.06 279.691 430.272 273.668C427.864 265.555 425.061 257.55 425.347 248.473C425.517 244.678 423.207 242.325 420.436 240.364C415.883 237.141 410.551 235.607 405.37 233.796C398.235 231.302 390.809 230.11 383.297 229.892ZM223.241 452.818C220.919 456.962 218.676 461.151 216.186 465.544C215.877 466.146 215.565 466.747 215.258 467.351C213.798 470.219 211.366 472.823 213.404 476.506C213.84 477.295 213.952 477.701 214.897 477.646C218.267 477.452 221.666 477.522 225.002 477.091C226.238 476.931 227.972 475.887 228.333 474.848C228.818 473.448 228.284 471.649 228.029 470.047C227.673 467.805 227.136 465.592 226.746 463.355C226.54 462.172 226.411 460.966 226.373 459.766C226.297 457.39 226.532 455.062 224.818 452.937C224.01 451.935 223.671 452.05 223.241 452.818ZM428.432 252.807C428.704 255.762 428.631 258.817 429.39 261.646C431.168 268.271 433.457 274.757 435.338 281.357C436.887 286.789 438.182 292.304 438.074 298.016C438.021 300.814 437.79 303.607 437.652 306.403C437.337 312.739 435.65 318.794 433.807 324.805C430.06 337.029 424.012 348.283 418.97 359.963C416.774 365.052 414.986 370.367 413.565 375.726C412.03 381.516 410.984 387.451 410.015 393.37C409.198 398.362 408.359 403.417 408.3 408.454C408.177 419.024 407.684 429.622 409.076 440.166C409.592 444.075 409.967 448.003 410.407 452.361C411.139 457.185 411.731 462.037 412.7 466.812C412.951 468.05 414.227 469.801 415.298 470.02C418.815 470.737 421.669 469.063 423.12 465.731C425.331 460.656 426.962 455.61 425.469 449.775C424.026 444.131 423.448 438.248 422.749 432.438C421.993 426.159 421.322 419.853 421.011 413.54C420.664 406.524 420.728 399.46 422.316 392.568C423.494 387.459 424.835 382.359 426.551 377.41C429.634 368.521 433.394 359.857 436.248 350.9C440.03 339.034 441.936 326.734 442.861 314.326C443.238 309.276 442.861 304.173 442.938 299.096C443.051 291.734 442.466 284.435 441.153 277.197C440.341 272.716 439.665 268.186 438.461 263.805C437.093 258.825 434.197 254.813 429.557 252.157C428.314 251.445 428.347 251.887 428.432 252.807ZM441.327 262.373C441.42 262.94 441.513 263.506 441.605 264.292C442.63 270.091 443.929 275.859 444.608 281.698C445.366 288.215 445.802 294.793 445.922 301.353C446.015 306.496 445.573 311.667 445.078 316.798C444.533 322.444 443.971 328.121 442.847 333.668C441.298 341.309 439.53 348.937 437.267 356.391C435.226 363.112 432.459 369.617 429.893 376.17C425.295 387.911 423.083 400.042 423.578 412.657C423.661 414.777 423.42 416.92 423.623 419.023C424.103 423.989 424.695 428.947 425.371 433.89C425.811 437.114 426.593 440.292 427.014 443.518C427.464 446.958 428.239 450.507 427.786 453.861C427.477 456.14 428.516 457.498 429.181 459.179C429.361 459.634 430.33 459.962 430.964 460.014C432.701 460.158 435.438 457.642 436.342 455.368C438.621 449.633 439.198 443.577 439.315 437.527C439.385 433.912 438.449 430.286 438.109 426.651C437.621 421.433 436.8 416.188 436.969 410.982C437.174 404.668 438.005 398.341 439.044 392.099C440 386.36 441.103 380.557 442.999 375.079C447.55 361.933 450.267 348.494 450.81 334.62C451.088 327.51 451.173 320.392 451.245 313.276C451.269 310.923 450.956 308.567 450.838 306.21C450.67 302.831 450.747 299.425 450.348 296.074C449.63 290.049 449.082 283.946 447.62 278.085C446.379 273.114 443.949 268.439 442.045 263.413C441.805 263.067 441.566 262.72 441.327 262.373ZM452.301 285.235C452.104 285.519 451.81 285.781 451.736 286.094C451.638 286.511 451.677 286.97 451.717 287.406C452.148 292.129 452.714 296.845 452.996 301.577C453.293 306.558 453.305 311.556 453.486 316.545C453.518 317.441 453.762 318.328 453.909 319.658C453.762 323.478 453.727 327.306 453.445 331.115C452.947 337.833 452.689 344.605 451.602 351.234C450.508 357.904 448.9 364.546 446.849 370.988C443.424 381.744 440.598 392.611 439.939 403.882C439.576 410.087 440.029 416.352 440.318 422.58C440.62 429.091 441.122 435.594 441.631 442.094C441.788 444.095 441.997 446.164 442.664 448.031C443.152 449.4 444.426 450.489 445.349 451.702C446.573 450.476 448.223 449.453 448.928 447.978C450.233 445.245 451.237 442.305 451.903 439.346C452.684 435.883 453.288 432.316 453.368 428.78C453.431 425.972 452.327 423.154 452.209 420.322C452.002 415.327 451.981 410.311 452.196 405.317C452.439 399.707 452.919 394.101 453.5 388.515C454.094 382.801 454.973 377.117 455.656 371.412L456.325 365.841C456.879 361.198 457.412 356.552 457.827 351.896C458.298 346.616 458.651 341.309 458.693 336.011C458.748 328.973 458.521 321.929 458.277 314.892C458.12 310.324 457.822 305.754 457.397 301.202C456.895 295.838 455.324 290.758 452.764 286C452.623 285.738 452.456 285.49 452.301 285.235ZM557.059 412.682C561.012 413.597 564.981 414.45 568.967 415.206C571.236 415.636 573.552 415.817 576.066 416.11C581.667 416.549 587.042 417.227 592.431 417.376C602.579 417.658 612.466 416.003 622.029 412.54C622.154 412.495 622.236 412.253 622.343 412.25C623.272 412.224 624.203 412.231 625.133 412.228C624.512 412.789 623.964 413.474 623.258 413.893C617.99 417.017 612.375 419.057 606.289 420.15C599.518 421.366 592.726 421.184 586.002 420.805C578.597 420.387 571.215 419.325 563.924 417.54C557.742 416.026 551.791 414.012 545.919 411.657C545.55 411.509 545.225 411.251 544.88 411.044C545.217 410.975 545.557 410.915 545.892 410.835C549.874 409.89 553.372 411.829 557.059 412.682ZM560.494 356.817C562.906 357.698 565.302 358.631 567.672 359.619C569.107 360.218 570.487 360.95 572.001 361.732C578.809 364.787 585.693 366.988 592.94 368.31C599.856 369.571 606.773 369.744 613.699 369.44C618.046 369.249 622.352 368.151 626.68 367.487C627.209 367.406 627.764 367.495 628.306 367.505C627.977 368.013 627.768 368.726 627.301 368.999C622.705 371.687 617.834 373.506 612.449 373.95C599.549 375.014 587.463 371.79 575.836 366.752C570.369 364.383 565.326 361.031 560.111 358.088C559.668 357.838 559.38 357.314 559.02 356.917C559.515 356.874 560.071 356.662 560.494 356.817ZM219.876 356.834C219.516 357.633 219.203 358.457 218.787 359.226C217.939 360.794 216.557 362.217 217.085 364.195C217.888 367.204 218.814 370.182 219.725 373.161C219.771 373.31 220.364 373.45 220.375 373.429C220.618 372.949 220.814 372.447 221.019 371.509C221.431 370.805 221.712 369.959 222.286 369.43C223.07 368.708 223.173 368.149 222.822 367.118C221.925 364.491 221.249 361.788 220.49 359.114C220.275 358.357 220.08 357.594 219.876 356.834ZM224.778 345.387C224.55 345.642 224.246 345.861 224.108 346.157C223.283 347.927 222.259 349.649 221.747 351.51C220.639 355.534 222.55 359.272 223.217 363.128C223.509 362.993 223.952 362.938 224.072 362.711C225.341 360.326 226.665 357.961 227.733 355.486C228.112 354.61 228.092 353.368 227.794 352.44C227.368 351.109 226.521 349.913 225.853 348.22C225.707 347.625 225.602 347.015 225.399 346.44C225.265 346.063 224.99 345.737 224.778 345.387ZM229.884 324.712C229.712 325.167 229.382 325.627 229.394 326.078C229.474 329.339 228.571 332.332 227.4 335.35C226.663 337.247 226.246 339.241 226.57 341.533C226.915 343.979 228.502 345.328 229.612 347.112C230.113 347.919 230.836 348.588 231.458 349.319C232.006 348.586 232.555 347.854 233.323 346.902C234.201 345.292 235.119 343.702 235.948 342.067C237.79 338.437 237.77 338.429 234.857 335.249C234.621 334.991 234.408 334.709 234.204 334.424C232.384 331.878 231.374 329.014 230.797 325.959C230.711 325.502 230.199 325.125 229.884 324.712ZM236.13 310.26C235.923 310.613 235.698 310.956 235.514 311.321C234.63 313.072 233.931 314.948 232.84 316.558C231.154 319.05 232.332 321.374 232.895 323.746C233.91 328.023 235.28 332.153 238.236 335.559C238.919 336.346 238.911 336.353 239.695 334.818C241.14 332.787 242.535 330.717 244.053 328.741C244.763 327.816 245.399 327.236 244.22 326.07C242.897 324.763 241.627 323.24 240.855 321.571C239.299 318.207 238.103 314.677 236.74 311.224C236.603 310.876 236.336 310.58 236.13 310.26ZM299.301 324.352C300.845 325.066 302.346 326.005 303.629 327.125C307.19 330.232 311.25 331.643 315.957 331.329C316.615 331.285 330.613 330.579 329.566 332.378C328.851 333.605 318.282 335.639 317.071 335.655C312.201 335.721 306.358 333.393 303.912 332.378C302.924 331.968 295.645 327.585 297.012 325.014C297.541 324.019 298.757 324.1 299.301 324.352ZM243.023 299.412C242.28 300.556 241.216 301.613 240.875 302.866C240.456 304.404 238.964 305.61 239.47 307.426C240.512 311.169 241.316 314.996 242.627 318.642C243.453 320.938 245.014 322.971 246.282 325.101C246.31 325.148 246.885 325.017 247.012 324.835C248.733 322.371 251.045 320.659 253.976 319.219C254.715 318.706 255.412 318.112 256.205 317.702C257.135 317.222 257.021 317.112 256.19 316.549C250.915 312.978 247.258 308.006 244.32 302.453C243.807 301.483 243.452 300.428 243.023 299.412ZM0.112538 256.704C0.267853 256.938 0.407823 257.184 0.580735 257.405C4.8753 262.876 9.1747 268.344 13.4686 273.816C13.8992 274.364 14.3001 274.936 14.8246 275.607C19.1284 280.057 23.1283 284.609 27.5662 288.684C32.9467 293.624 38.6757 298.188 44.2951 302.865C48.3409 306.232 52.3808 309.697 57.4001 311.517C60.5967 312.675 63.9461 313.791 67.2975 314.066C74.7653 314.679 82.2849 314.635 89.7669 315.115C92.0366 315.261 94.2619 316.216 96.4823 316.884C96.8113 316.983 97.7514 317.509 96.31 317.722C92.1296 318.339 87.9965 319.302 83.8067 319.82C81.2577 320.135 78.6375 319.91 76.05 319.872C69.3901 319.774 63.1007 318.069 56.9636 315.575C49.1452 312.397 42.144 307.937 35.8742 302.337C31.5673 298.49 27.0737 294.777 23.2473 290.484C16.415 282.819 9.90445 274.856 3.51703 266.812C1.46043 264.223 0.142677 261.015 0.00102119 257.533C-0.0101487 257.259 0.0731479 256.981 0.112538 256.704ZM249.454 288.187C247.511 290.637 245.02 292.942 245.677 296.463C246.149 298.989 247.043 301.443 247.834 303.902C249.548 309.23 253.944 312.229 258.052 315.45C258.272 315.622 259.027 315.447 259.281 315.187C262.721 311.667 266.117 308.103 269.523 304.55C270.176 303.87 271.096 303.281 269.139 303.122C267.822 303.015 266.556 302.332 265.256 301.944C263.626 301.458 261.984 301.009 259.908 300.544C258.373 299.156 256.97 297.573 255.274 296.423C252.389 294.466 250.603 291.924 249.999 288.51C249.974 288.367 249.475 288.16 249.454 288.187ZM355.738 273.314L354.236 273.815C350.397 275.099 346.59 276.466 343.51 279.326C339.975 282.609 338.164 286.829 337.055 291.366C336.83 292.283 336.674 293.194 336.591 294.094C336.669 293.758 336.771 293.431 336.88 293.132C337.176 292.322 337.919 291.657 338.527 290.984L338.773 290.715C339.969 289.434 341.253 288.456 343.18 289.712C345.303 291.095 344.366 292.817 343.773 294.501C343.572 295.069 343.27 295.601 342.904 296.26C341.915 297.896 340.562 298.785 338.875 298.27C337.96 297.991 336.939 297.066 336.594 296.186C336.567 296.116 336.544 296.045 336.525 295.971C336.595 299.06 337.594 301.986 339.714 304.575C341.568 306.84 343.83 308.817 346.11 310.677C351.63 315.179 357.827 315.97 364.103 312.702C372.099 308.539 376.079 300.995 379.648 292.854C379.872 291.027 380.378 289.182 380.259 287.378C380.025 283.837 377.743 281.332 375.177 279.195C369.55 274.507 363.579 270.682 355.738 273.314ZM257.701 271.991C257.192 272.584 256.647 273.151 256.187 273.78C255.956 274.097 255.851 274.517 255.738 274.904C254.705 278.424 253.463 281.902 252.737 285.484C252.282 287.732 252.869 290.066 254.415 292.415C256.165 293.66 257.911 294.91 259.665 296.149C263.202 298.647 267.378 299.449 271.451 300.49C271.783 300.575 272.581 299.973 272.706 299.554C273.844 295.754 274.884 291.924 275.92 288.094C275.941 288.018 275.583 287.745 275.382 287.718C271.795 287.243 268.246 287.038 265.21 284.431C261.89 281.581 259.851 278.075 258.375 274.106C258.117 273.413 257.924 272.697 257.701 271.991ZM299.142 256.581C294.891 257.291 292.096 260.4 289.653 263.763C286.664 267.878 284.977 272.532 284.812 277.545C284.676 281.703 285.861 285.704 287.79 289.459L288.097 290.056C289.268 292.337 290.458 294.513 292.989 295.734C299.257 298.76 305.828 299.769 312.661 298.729C314.705 298.418 317.098 297.938 318.554 296.654C324.132 291.733 327.219 285.396 328.017 277.694C327.943 276.028 327.969 274.35 327.779 272.697C327.211 267.763 324.619 264.008 320.791 260.992C317.426 258.341 313.489 256.821 309.375 256.276C306.027 255.832 302.488 256.023 299.142 256.581ZM309.788 225.189C307.51 232.055 305.245 238.925 303.016 245.807C303.512 245.707 304.038 245.511 304.45 245.651C306.928 246.491 309.31 247.497 311.246 249.393C312.336 250.46 313.668 251.278 315.001 252.318C315.284 252.559 315.563 252.785 315.835 253.005C315.999 253.047 316.163 253.093 316.326 253.139C321.313 254.551 325.616 257.188 328.678 261.549C332.772 267.379 333.768 274.183 334.827 280.97C334.881 281.316 334.922 281.663 334.969 282.01C335.322 281.855 335.733 281.769 336.017 281.531C336.577 281.063 337.071 280.516 337.582 279.991C341.577 275.894 346.059 272.383 351.22 269.949C356.706 267.363 362.352 266.723 368.29 269.085C372.749 270.859 376.329 273.708 379.811 276.789C381.33 278.132 388.469 281.536 401.229 286.999C399.143 278.187 396.994 271.855 394.78 268.004C391.992 263.154 388.849 259.448 384.93 255.824C378.084 249.493 370.924 243.675 362.975 238.761C354.613 233.59 345.577 230.158 336.166 227.635C329.552 225.862 322.85 224.422 316.195 222.8C313.288 222.092 310.491 223.069 309.788 225.189ZM266.353 263.662C262.858 266.031 260.07 270.073 261.657 275.049C263.416 280.565 269.637 285.332 275.54 285.544C276.1 285.564 276.959 284.86 277.213 284.286C277.924 282.682 278.428 280.981 278.921 279.291C279.015 278.969 278.693 278.186 278.55 278.183C274.805 278.1 272.411 275.703 269.794 273.081C268.105 270.315 266.949 267.397 267.122 264.071C267.129 263.939 266.473 263.581 266.353 263.662ZM83.0183 269.581C84.9598 270.548 86.8937 271.544 88.7517 272.66C92.6175 274.983 96.3535 277.535 100.302 279.702C102.408 280.857 104.854 281.384 107.126 282.247C107.627 282.438 108.045 282.849 108.501 283.158C108.031 283.387 107.479 283.525 107.104 283.861C104.373 286.306 101.804 284.045 99.254 283.517C93.9862 282.428 90.305 278.815 86.6687 274.948C85.0704 273.496 83.5577 272.179 82.1109 270.794C81.7638 270.461 81.6357 269.9 81.4068 269.444C81.9485 269.481 82.5696 269.358 83.0183 269.581ZM291.966 273.608C293.817 274.392 293.655 275.88 293.555 277.32C293.39 279.708 290.139 282.828 288.059 282.443C287.316 282.306 286.201 281.179 286.218 280.529C286.263 278.844 286.842 277.174 287.318 275.387C287.635 275.071 287.845 274.867 288.048 274.657C289.144 273.526 290.268 272.889 291.966 273.608ZM272.651 257.042C271.991 258.01 271.086 258.892 270.715 259.96C268.898 265.195 272.217 273.359 279.134 275.346C279.464 275.441 280.201 275.142 280.299 274.867C281.39 271.81 282.397 268.725 283.402 265.639C283.466 265.443 283.333 264.981 283.287 264.98C278.14 264.909 275.639 261.742 274.143 257.308C274.051 257.034 273.31 256.979 272.651 257.042ZM363.042 266.54C363.48 266.772 363.842 267.146 364.239 267.455C363.808 267.353 363.382 267.224 362.946 267.152C358.443 266.413 353.936 265.701 349.439 264.931C348.811 264.823 348.23 264.442 347.628 264.188C348.287 264.003 348.946 263.818 349.825 263.633C354.614 263.542 358.979 264.383 363.042 266.54ZM283.61 243.446C283.106 244.188 282.594 244.924 282.107 245.677C282.041 245.78 282.151 245.991 282.09 246.105C280.694 248.744 279.351 251.415 277.854 253.995C277.016 255.439 276.968 258.268 278.219 259.031C280.003 260.121 281.944 260.958 283.833 261.869C285.088 262.475 285.846 261.707 286.48 260.781C287.685 259.019 288.789 257.183 290.071 255.48C291.073 254.15 290.083 254.426 289.129 254.186C284.572 253.047 284.048 249.235 283.441 245.518C283.332 244.854 283.545 244.138 283.61 243.446ZM291.065 232.915C290.42 233.438 289.533 233.831 289.169 234.506C287.148 238.248 286.394 242.342 286.535 246.538C286.646 249.824 288.664 252.065 291.844 252.907C292.284 253.024 292.908 252.846 293.318 252.594C294.377 251.943 295.363 251.173 296.599 250.231C297.038 249.463 297.598 248.739 297.888 247.918C298.295 246.765 298.56 245.551 298.765 244.343C298.836 243.92 298.701 243.233 298.403 243.012C295.459 240.828 293.269 238.061 291.77 234.733C291.503 234.141 291.299 233.521 291.065 232.915ZM302.959 245.993L302.055 248.783C301.955 249.094 302.385 249.894 302.688 249.967C305.369 250.611 308.078 251.157 310.77 251.759C309.289 250.668 307.81 249.572 306.324 248.486C305.55 247.921 304.689 247.475 303.909 246.917C303.554 246.663 303.265 246.316 302.959 245.993ZM304.381 213.916C302.848 215.211 301.385 216.589 299.675 218.154C296.79 220.371 295.607 223.549 294.887 226.92C293.929 231.406 294.404 235.568 298.007 238.917C299.228 240.052 300.03 239.57 300.535 238.329C302.09 234.51 303.568 230.661 305.068 226.82C306.643 222.787 307.528 218.771 305.91 214.444C305.413 213.116 305.05 213.351 304.381 213.916ZM359.26 218.011C357.346 218.441 355.169 221.376 354.394 223.651C354.054 224.652 353.553 225.425 355.495 225.956C359.75 227.121 363.811 228.979 367.564 231.984C368.408 232.018 369.281 232.206 370.092 232.06C373.142 231.508 376.158 228.237 379.211 228.144C383.322 228.019 387.488 228.402 391.571 228.982C395.785 229.58 400.035 230.341 404.075 231.639C409.409 233.352 414.552 235.659 419.78 237.703C420.129 237.84 420.5 237.915 420.861 238.019C420.767 237.717 420.624 237.421 420.587 237.113C420.34 235.079 418.98 233.807 417.381 232.904C412.824 230.33 408.276 227.713 403.565 225.445C395.681 221.649 387.539 218.692 378.768 217.399C372.157 216.424 365.694 216.565 359.26 218.011ZM354.605 206.514C348.118 206.786 342.671 209.241 338.598 214.401C336.627 216.898 337.069 220.545 340.07 221.422C343.798 222.512 347.559 223.489 351.745 224.514C352.625 223.196 353.237 219.329 354.436 218.443C357.784 215.969 361.763 214.962 365.883 214.9C369.478 214.846 373.109 214.911 376.67 215.36C380.909 215.895 385.173 216.599 389.279 217.756C398.32 220.303 406.728 224.415 414.947 228.915C415.445 229.189 415.977 229.403 416.493 229.645C416.485 228.861 416.573 228.059 416.429 227.301C416.361 226.945 415.893 226.605 415.532 226.372C412.303 224.285 409.201 221.939 405.786 220.213C398.657 216.611 391.383 213.331 383.648 211.116C374.137 208.392 364.593 206.096 354.605 206.514ZM341.133 191.517C333.924 192.309 327.636 194.721 322.787 200.309C319.978 203.546 318.299 207.239 318.13 212.002C318.13 212.662 317.997 215.543 318.164 216.158C318.373 216.928 318.706 218.157 319.198 218.271C321.372 218.774 323.617 218.995 325.848 219.189C326.174 219.218 326.821 218.589 326.874 218.204C327.115 216.444 326.934 212.408 327.383 210.717C329.123 204.172 333.818 200.414 339.899 198.179C345.007 196.302 350.32 196.266 355.717 196.324C363.727 196.411 371.55 197.568 379.251 199.545C382.371 200.346 385.31 201.866 388.305 203.121C388.692 203.283 388.923 203.819 389.226 204.181C388.778 204.113 388.306 204.113 387.885 203.967C377.7 200.451 367.164 198.803 356.456 198.186C351.204 197.883 345.938 198.426 340.954 200.003C335.447 201.746 330.819 204.868 328.941 210.849C327.927 214.077 329.385 219.117 332.535 220.281C334.374 220.961 335.033 220.107 335.749 218.61C336.659 216.706 337.621 212.533 339.01 210.985C343.39 206.107 349.311 204.491 355.551 204.406C359.683 204.35 363.877 204.927 367.954 205.692C374.088 206.844 380.247 208.069 386.208 209.878C395.126 212.585 403.649 216.329 411.517 221.43C412.08 221.796 412.816 221.896 413.471 222.12C413.272 221.474 413.149 220.79 412.861 220.186C409.282 212.676 404.914 205.711 398.571 200.188C394.851 196.95 390.613 194.54 385.81 193.367C382.327 192.516 378.815 192.304 375.145 192.763C371.69 193.196 368.104 192.618 364.578 192.438C362.878 192.351 361.17 192.245 359.489 191.993C353.387 191.076 347.303 190.839 341.133 191.517ZM316.135 205.191C315.887 205.298 315.607 205.362 315.397 205.519C314.114 206.485 312.964 207.717 311.546 208.396C309.251 209.496 309.664 211.24 309.974 213.068C310.019 213.331 310.194 213.579 310.211 213.841C310.299 215.198 310.356 216.558 310.423 217.917C310.729 219.821 313.071 219.821 314.615 219.461C314.908 218.341 315.322 217.237 315.469 216.099C315.813 213.445 316.034 208.59 316.285 205.926C316.308 205.688 316.189 205.436 316.135 205.191ZM231.558 82.5303C231.965 83.0225 231.656 84.1516 231.568 84.9891C231.511 85.5216 231.116 86.0467 231.151 86.5562C231.551 92.4545 232.157 98.343 232.399 104.247C232.615 109.51 232.435 114.789 232.455 120.062C232.458 120.755 232.536 122.029 232.701 122.05C233.996 122.21 235.322 122.149 236.634 122.081C236.719 122.076 236.857 121.439 236.822 121.111C236.721 120.142 236.502 119.185 236.406 118.216C235.806 112.162 235.034 106.118 234.7 100.049C234.415 94.8657 234.543 89.6504 234.746 84.4594C234.777 83.6635 236.145 82.372 236.99 82.2908C238.11 82.1831 238.756 83.2965 238.633 84.6974C238.48 86.4414 238.465 88.2206 238.62 89.9643C239.143 95.878 239.759 120.4 239.964 121.856C239.984 122.001 240.693 122.13 241.082 122.13C251.846 122.145 262.612 122.229 273.374 122.102C278.162 122.045 282.943 121.535 287.729 121.27C291.035 121.087 294.361 121.135 297.649 120.792C306.82 119.836 316.004 119.479 325.224 119.433C329.877 119.409 334.521 118.563 339.178 118.203C345.655 117.702 352.134 117.159 358.623 116.907C366.537 116.6 374.463 116.549 382.384 116.458C383.593 116.444 384.148 116.374 384.084 114.882C383.834 109.016 383.766 103.142 383.597 97.2719C383.48 93.2311 383.328 89.1911 383.152 85.1525C383.101 83.988 383.442 83.4407 384.727 83.4407C386.058 83.4408 386.234 84.0898 386.26 85.2024C386.352 89.0971 386.094 93.0692 386.781 96.8647C387.809 102.541 387.383 108.204 387.56 113.874C387.627 116.041 388.645 116.844 390.699 116.437C391.655 116.247 392.626 116.01 393.591 116.009C413.655 115.984 433.718 115.954 453.782 116.01C460.458 116.029 478.063 116.261 484.738 116.444C486.51 116.493 488.282 116.687 490.047 116.879C491.914 117.081 493.375 119.007 493.391 121.305C493.419 125.258 493.399 129.213 493.399 133.167C493.399 133.533 493.38 133.9 493.402 134.265C493.469 135.348 493.982 137.096 493.543 137.379C492.461 138.078 490.954 138.308 489.602 138.367C481.378 138.727 462.224 139.073 453.996 139.257C443.441 139.493 432.882 139.587 422.325 139.715C408.913 139.877 395.499 139.987 382.087 140.17C376.655 140.244 371.224 140.439 365.794 140.601C361.46 140.73 357.128 140.91 352.795 141.032C346.925 141.198 341.054 141.344 335.183 141.472C327.775 141.634 320.367 141.762 312.958 141.918C306.429 142.054 299.899 142.208 293.37 142.355C286.84 142.501 280.308 142.585 273.781 142.813C267.895 143.018 262.012 143.344 256.132 143.686C252.295 143.91 248.457 144.172 244.635 144.574C239.962 145.067 235.312 145.773 230.641 146.293C227.257 146.67 223.861 146.998 220.461 147.167C213.19 147.529 205.908 147.682 198.641 148.102C194.346 148.351 168.219 149.015 163.926 149.346C162.542 149.453 161.094 149.209 159.731 148.889C159.177 148.759 158.439 148.051 158.354 147.517C157.938 144.875 157.675 142.206 157.431 139.541C157.228 137.337 156.975 135.12 157.029 132.915C157.07 131.248 157.528 129.652 157.154 127.893C157.043 127.376 158.943 125.92 160.053 125.749C163.554 125.207 188.984 125.152 192.512 124.758C196.967 124.26 201.404 123.609 205.851 123.038C206.282 122.982 206.726 123.037 207.164 123.019C213.925 122.729 220.686 122.394 227.45 122.181C228.614 122.144 228.503 121.615 228.498 120.857C228.477 117.928 228.432 114.997 228.506 112.07C228.578 109.201 228.782 106.334 228.929 103.247C228.36 98.9429 227.682 94.8695 227.263 90.7696C227.019 88.3834 227.051 85.9428 227.26 83.5531C227.318 82.8921 228.375 81.9917 229.121 81.8098C229.867 81.6283 231.093 81.9663 231.558 82.5303ZM454.581 119.092C433.554 119.173 412.527 119.336 391.501 119.515C380.798 119.606 370.092 119.683 359.394 119.995C354.223 120.145 349.069 120.859 343.903 121.254C337.644 121.732 331.381 122.145 325.119 122.579C322.838 122.738 320.554 122.871 318.272 123.021C311.645 123.459 305.022 124.015 298.388 124.307C291.719 124.6 285.039 124.632 277.924 124.778C276.227 124.925 274.532 125.179 272.834 125.201C258.91 125.377 244.984 125.444 231.062 125.689C225.176 125.792 219.296 126.238 213.413 126.538C210.837 126.67 208.258 126.774 205.688 126.986C198.972 127.54 170.406 128.164 163.691 128.721C162.106 128.852 161.196 129.247 161.327 131.198C161.623 135.594 161.735 140.006 161.771 144.412C161.781 145.706 162.14 145.991 163.341 145.89C167.389 145.546 193.299 145.28 197.352 144.993C201.55 144.695 205.747 144.366 209.949 144.122C215.683 143.79 221.421 143.539 227.156 143.22C227.98 143.174 228.788 142.906 229.611 142.8C233.162 142.347 236.71 141.863 240.269 141.491C243.728 141.129 247.196 140.831 250.667 140.609C258.171 140.13 265.675 139.622 273.186 139.308C279.929 139.025 286.683 138.99 293.431 138.839C299.741 138.697 306.05 138.536 312.36 138.403C319.841 138.245 327.322 138.088 334.803 137.965C344.846 137.8 354.891 137.691 364.934 137.511C369.926 137.422 374.917 137.237 379.909 137.079C384.168 136.945 388.426 136.735 392.687 136.654C402.144 136.472 411.602 136.339 421.061 136.206C432.276 136.048 443.492 135.98 454.706 135.74C462.568 135.571 481.354 135.191 489.211 134.844C489.595 134.827 490.268 134.227 490.275 133.888C490.351 130.155 490.321 126.42 490.324 122.686C490.327 121.104 489.411 120.21 487.985 119.975C486.309 119.699 484.599 119.574 482.899 119.52C477.104 119.336 460.377 119.069 454.581 119.092ZM393.737 80.1985C394.267 87.8505 394.821 95.5021 395.501 103.142C395.72 105.61 396.28 108.056 396.798 110.488C397.247 112.591 396.007 114.066 393.38 114.123C392.83 112.514 392.199 111.042 391.992 109.512C391.565 106.364 391.221 103.19 391.103 100.017C390.857 93.4323 390.777 86.8416 390.636 80.2534C390.614 79.249 390.416 78.2218 392.034 78.165C393.655 78.1081 393.653 78.9804 393.737 80.1985Z" fill="#00160A"/>
<path fill-rule="evenodd" clip-rule="evenodd" d="M315.551 515.764C306.865 537.527 271.542 511.01 267.115 495.404C265.455 489.552 276.828 477.562 282.519 482.305C292.649 490.747 291.921 504.133 307.494 507.487C309.815 507.986 314.799 507.913 317.053 508.56C318.212 508.893 317.712 511.295 315.551 515.764Z" fill="#1CBA6D"/>
<path fill-rule="evenodd" clip-rule="evenodd" d="M457.481 409.958C458.496 414.86 459.382 419.544 459.277 424.386C459.215 427.249 459.5 430.123 459.685 432.988C460.21 441.14 456.452 446.861 449.857 451.287C445.332 454.322 441.245 458.004 436.775 461.128C433.018 463.753 429.077 466.147 425.065 468.367C416.957 472.855 408.65 477.059 404.964 486.43C403.255 490.775 400.986 495.017 400.079 499.528C399.031 504.738 399.989 509.92 404.783 513.48C404.948 513.603 405.028 513.846 405.196 513.959C405.941 514.46 406.742 515.349 407.446 515.283C407.99 515.232 408.496 514.008 408.885 513.238C409.752 511.519 408.958 510.001 408.568 508.271C407.979 505.653 408.441 502.792 408.519 500.036C408.528 499.738 408.954 499.451 409.186 499.159C409.319 499.508 409.538 499.849 409.571 500.208C409.748 502.121 409.699 504.076 410.084 505.942C410.365 507.3 411.057 508.635 411.821 509.814C412.613 511.037 415.278 510.454 415.715 508.975C416.522 506.239 416.381 503.491 415.792 500.693C415.494 499.276 415.734 497.737 415.821 496.258C415.834 496.038 416.347 495.848 416.628 495.644C416.771 495.91 417.001 496.193 417.033 496.441C418.339 506.549 420.249 506.549 421.033 506.847C421.818 507.146 422.821 506.743 423.186 506.549C423.647 506.304 423.991 505.498 424.052 504.901C424.283 502.627 424.006 500.234 424.618 498.084C425.408 495.312 426.609 492.57 428.132 490.126C429.143 488.505 430.992 487.385 432.53 486.117C436.527 482.821 440.679 479.754 445.717 478.196C449.291 477.091 452.892 476.079 456.469 474.986C462.641 473.1 468.926 471.502 474.942 469.205C484.324 465.623 491.316 459.406 493.447 449.132C494.616 443.498 493.716 437.819 491.589 432.515C489.903 428.312 487.615 424.351 485.613 420.274C485.409 419.86 485.331 419.383 485.195 418.936C485.557 419.172 485.982 419.348 486.272 419.653C491.38 425.009 494.759 431.36 496.321 438.537C497.995 446.228 498.535 454.01 494.752 461.319C493.923 462.922 492.232 464.212 490.687 465.285C486.026 468.521 480.817 470.703 475.486 472.569C469.281 474.742 463.175 477.477 456.784 478.759C450.618 479.996 445.272 482.847 439.597 485.086C436.112 486.461 434.215 489.66 431.483 491.881C428.601 494.225 427.771 497.096 428.029 500.558C428.105 501.578 428 502.609 428.047 503.632C428.352 510.212 425.083 510.806 420.13 508.853C419.916 508.769 419.305 509.05 419.288 509.207C418.879 512.917 416.76 514.733 413.375 513.522C411.918 513.002 411.992 513.981 411.849 514.324C410.359 517.889 406.713 519.043 404.212 516.285C401.617 513.423 399.208 510.255 397.435 506.847C396.555 505.157 396.961 502.57 397.353 500.496C398.024 496.952 398.932 493.418 400.124 490.015C401.702 485.51 404.291 481.571 407.299 477.807C410.369 473.966 414.197 471.214 418.339 468.891C424.027 465.702 429.63 462.396 434.927 458.604C437.097 457.05 438.94 455.045 441.075 453.434C443.892 451.309 446.854 449.376 449.747 447.35C453.694 444.587 456.394 441.283 456.263 435.987C456.176 432.448 457.326 428.892 457.401 425.332C457.475 421.8 456.852 418.258 456.622 414.715C456.511 413.013 456.59 411.298 456.614 409.589C456.619 409.285 456.776 408.983 456.863 408.681C457.069 409.033 457.275 409.386 457.481 409.958Z" fill="#00160A"/>
<path fill-rule="evenodd" clip-rule="evenodd" d="M24.6588 171.796C24.8658 171.343 25.2527 170.906 25.2544 170.907C29.7722 174.87 32.6267 179.803 34.4278 185.547C35.2032 188.02 36.9131 190.279 38.5158 192.395C41.5389 196.387 44.8009 200.197 47.9153 204.121C48.0385 204.276 47.7714 205.003 47.5056 205.162C45.7194 206.235 42.5278 205.664 40.6055 203.724C38.9651 202.068 37.5233 200.204 36.0856 198.361C33.928 195.594 30.9066 194.502 27.6596 193.762C22.4961 192.584 18.651 189.412 15.446 185.408C10.0394 178.653 7.77736 170.658 6.6652 162.264C6.3961 160.233 5.97279 158.075 6.37602 156.133C7.20911 152.119 10.7958 149.925 15.2848 151.242C23.3407 153.606 31.3558 156.239 39.1248 159.405C44.1747 161.463 46.1892 166.226 47.1312 171.521C47.9267 175.993 46.9365 180.025 45.1702 183.998C44.5587 185.373 44.451 185.322 43.5494 184.033C41.7894 181.516 41.3432 178.55 41.8875 175.772C43.0834 169.667 40.3277 164.85 35.469 163.024C29.8294 160.903 24.2059 158.706 18.4599 156.912C12.7729 155.136 12.8516 155.52 13.9022 161.034C15.3267 168.51 18.0599 175.797 20.8257 182.935C22.3005 186.741 25.3491 189.6 29.6673 190.756C31.2028 191.167 30.9919 190.307 30.7731 189.687C29.7381 186.753 28.6371 183.839 27.4354 180.969C26.2199 178.067 24.5053 175.336 24.6588 171.796Z" fill="#FFB61D"/>
<path fill-rule="evenodd" clip-rule="evenodd" d="M470.554 403.038C464.927 401.3 459.642 402.081 454.368 404.164C453.13 404.652 451.397 404.372 450.066 403.925C449.452 403.719 451.379 400.425 452.923 399.837C454.758 399.14 456.643 398.373 458.566 398.149C464.426 397.465 469.857 399.028 475.016 401.764C477.284 402.968 479.678 403.935 481.933 405.16C482.899 405.684 483.699 406.552 484.482 407.352C484.7 407.575 484.748 408.373 484.601 408.463C484.239 408.685 483.646 408.833 483.275 408.686C480.954 407.766 478.658 406.778 476.373 405.771C474.457 404.926 472.566 404.024 470.554 403.038Z" fill="#00160A"/>
<path fill-rule="evenodd" clip-rule="evenodd" d="M296.986 90.8333C293.174 93.4728 289.565 96.1533 285.746 98.4916C281.578 101.044 277.244 103.332 272.908 105.594C272.287 105.917 270.775 105.725 270.514 105.28C270.059 104.503 269.892 103.436 271.353 102.745C273.929 101.525 276.383 100.011 278.782 98.4568C282.483 96.0583 286.082 93.5027 289.75 91.0513C291.744 89.7183 293.702 88.2764 295.856 87.2629C296.733 86.8496 298.763 87.0597 299.093 87.6467C300.079 89.4012 298.544 90.1736 296.986 90.8333Z" fill="#E7EAEE"/>
<path fill-rule="evenodd" clip-rule="evenodd" d="M324.229 366.346C325.511 365.21 326.668 364.165 327.864 363.168C328.213 362.877 328.674 362.72 329.084 362.501C329.26 362.88 329.538 363.245 329.595 363.642C329.972 366.263 330.02 369.045 332.453 370.786C333.487 371.526 334.696 372.297 335.906 372.461C340.405 373.07 345.724 372.607 348.797 367.787C350.042 365.834 349.659 363.846 349.857 361.837C349.909 361.306 350.27 360.454 350.635 360.367C352.115 360.015 351.594 361.275 351.552 361.884C351.385 364.305 352.003 366.695 350.362 369.092C348.379 371.988 345.765 373.836 342.602 374.229C339.503 374.614 336.234 374.839 333.08 373.54C330.256 372.377 328.901 370.332 328.288 367.544C328.207 367.173 328.054 366.818 327.935 366.456C327.647 366.644 327.36 366.834 327.07 367.02C324.01 368.973 321.101 371.325 317.202 371.238C316.644 371.226 316.101 370.522 315.551 370.138C316.05 369.936 316.554 369.744 317.048 369.53C319.407 368.509 321.763 367.481 324.229 366.346Z" fill="#00160A"/>
<path fill-rule="evenodd" clip-rule="evenodd" d="M417.385 92.1514C419.948 89.8812 422.348 87.6544 424.89 85.6047C425.571 85.0559 426.68 84.9088 427.608 84.8542C428.025 84.8297 428.838 85.4823 428.843 85.836C428.852 86.5099 428.598 87.4069 428.117 87.8236C426.979 88.8097 425.551 89.4598 424.407 90.4396C420.668 93.6402 417.047 96.9812 413.258 100.119C412.738 100.549 411.282 100.464 410.683 100.031C409.876 99.448 410.187 98.3772 410.977 97.6887C413.066 95.8679 415.174 94.0689 417.385 92.1514Z" fill="#E7EAEE"/>
<path fill-rule="evenodd" clip-rule="evenodd" d="M346.31 482.9C344.164 483.193 342.247 483.619 340.311 483.745C338.029 483.892 335.719 483.91 333.447 483.704C332.713 483.637 332.06 482.683 331.37 482.135C332.045 481.804 332.689 481.294 333.4 481.173C337.171 480.533 340.943 479.807 344.747 479.472C347.96 479.188 351.217 479.361 354.453 479.432C354.822 479.44 355.449 480.081 355.461 480.445C355.473 480.813 354.921 481.463 354.528 481.54C351.875 482.06 349.198 482.461 346.31 482.9Z" fill="#00160A"/>
<path fill-rule="evenodd" clip-rule="evenodd" d="M188.67 90.6146C189.559 89.9188 190.263 89.1142 191.14 88.8128C191.913 88.5472 193.508 88.6025 193.637 88.9393C193.978 89.8286 194.14 90.8246 192.903 91.7665C189.14 94.6343 185.599 97.7944 181.961 100.828C181.595 101.132 181.171 101.536 180.75 101.566C180.013 101.62 178.863 101.67 178.605 101.265C178.252 100.709 178.239 99.3509 178.653 98.9863C181.878 96.1444 185.24 93.4585 188.67 90.6146Z" fill="#E7EAEE"/>
<path fill-rule="evenodd" clip-rule="evenodd" d="M427.162 100.61C430.126 98.0119 433.142 95.6928 436.029 93.2233C437.078 92.3253 438.153 91.6423 439.151 92.7162C440.035 93.6679 439.496 94.823 438.488 95.6664C435.604 98.0801 432.795 100.588 429.828 102.894C429.255 103.339 428.1 103.036 427.213 103.078C427.196 102.329 427.179 101.579 427.162 100.61Z" fill="#E7EAEE"/>
<path fill-rule="evenodd" clip-rule="evenodd" d="M327.525 375.574C328.294 376.564 329.507 377.457 329.488 378.321C329.455 379.77 329.028 381.281 327.353 382.202C324.886 383.558 322.791 383.024 320.767 381.53C319.002 380.227 319.094 377.888 320.872 375.416C321.612 374.388 324.482 373.976 325.77 374.688C326.299 374.981 326.865 375.208 327.525 375.574ZM326.975 376.783C326.373 376.473 325.797 376.082 325.162 375.869C323.688 375.375 322.518 375.729 321.72 377.184C320.94 378.608 321.631 379.63 322.685 380.319C323.383 380.776 324.438 381.029 325.247 380.885C326.13 380.728 327.224 380.189 327.64 379.475C327.961 378.924 327.377 377.846 326.975 376.783Z" fill="#00160A"/>
<path fill-rule="evenodd" clip-rule="evenodd" d="M301.38 101.82C303.246 100.685 304.953 99.5526 306.793 98.7101C307.277 98.4887 308.777 99.1796 308.772 99.4291C308.75 100.414 308.624 101.795 307.974 102.289C306.313 103.553 304.415 104.579 302.475 105.361C301.757 105.651 300.125 105.262 299.843 104.708C299.254 103.55 299.844 102.379 301.38 101.82Z" fill="#E7EAEE"/>
</svg>
