<svg width="1920" height="115" viewBox="0 0 1920 115" fill="none" xmlns="http://www.w3.org/2000/svg">
<path fill-rule="evenodd" clip-rule="evenodd" d="M1791.75 137.748L1791.74 137.732C1784.1 130.389 1778.15 121.864 1773.89 112.171C1769.61 102.432 1767.49 91.7674 1767.49 80.2095C1767.49 68.6517 1769.61 57.9869 1773.89 48.2484C1778.15 38.5512 1784.11 30.0908 1791.75 22.8852C1799.55 15.5341 1808.65 9.88289 1819.05 5.92807C1829.47 1.96637 1840.81 0 1853.04 0C1865.41 0 1876.75 1.965 1887.03 5.93218C1897.43 9.8871 1906.47 15.5392 1914.12 22.8949C1921.76 30.094 1927.71 38.5448 1931.97 48.2303C1936.39 57.973 1938.59 68.6439 1938.59 80.2095C1938.59 91.7792 1936.39 102.52 1931.97 112.4C1927.71 122.091 1921.75 130.547 1914.11 137.749C1906.46 144.958 1897.42 150.535 1887.03 154.487C1876.75 158.454 1865.41 160.419 1853.04 160.419C1840.81 160.419 1829.47 158.453 1819.05 154.491C1808.66 150.54 1799.56 144.967 1791.77 137.764L1791.75 137.748ZM1886.16 152.221C1896.27 148.375 1905.04 142.962 1912.44 135.981C1919.85 129.001 1925.62 120.81 1929.75 111.408C1934.03 101.863 1936.16 91.4636 1936.16 80.2095C1936.16 68.9555 1934.03 58.6274 1929.75 49.2252C1925.62 39.8231 1919.85 31.6318 1912.44 24.6515C1905.04 17.5286 1896.27 12.0441 1886.16 8.19773C1876.19 4.3514 1865.15 2.42824 1853.04 2.42824C1841.07 2.42824 1830.03 4.3514 1819.92 8.19773C1809.8 12.0441 1800.97 17.5286 1793.42 24.6515C1786.01 31.6318 1780.24 39.8231 1776.11 49.2252C1771.98 58.6274 1769.92 68.9555 1769.92 80.2095C1769.92 91.4636 1771.98 101.792 1776.11 111.194C1780.24 120.596 1786.01 128.858 1793.42 135.981C1800.97 142.962 1809.8 148.375 1819.92 152.221C1830.03 156.068 1841.07 157.991 1853.04 157.991C1865.15 157.991 1876.19 156.068 1886.16 152.221ZM1867.93 117.71L1867.95 117.7C1872.63 115.828 1876.61 113.169 1879.92 109.724L1879.92 109.723C1883.39 106.127 1886.06 101.853 1887.95 96.8724L1887.96 96.8458L1887.97 96.8194C1889.97 91.8729 1891 86.3469 1891 80.2095C1891 73.9205 1889.97 68.4057 1887.98 63.6213L1887.96 63.5843L1887.95 63.5467C1886.07 58.573 1883.4 54.3846 1879.96 50.9422L1879.92 50.9092L1879.89 50.875C1876.58 47.2996 1872.61 44.5827 1867.95 42.7187L1867.93 42.7096C1863.4 40.8461 1858.45 39.9008 1853.04 39.9008C1847.63 39.9008 1842.6 40.8446 1837.92 42.7146C1833.4 44.5784 1829.41 47.3039 1825.94 50.9096C1822.62 54.3645 1819.93 58.5772 1817.9 63.5855C1816.04 68.3811 1815.08 73.9094 1815.08 80.2095C1815.08 86.3554 1816.03 91.8912 1817.9 96.8456C1819.93 101.841 1822.62 106.124 1825.94 109.724C1829.41 113.181 1833.4 115.838 1837.92 117.704C1842.6 119.574 1847.63 120.518 1853.04 120.518C1858.45 120.518 1863.4 119.573 1867.93 117.71ZM1824.19 111.408C1820.63 107.561 1817.78 103.003 1815.64 97.7317C1813.65 92.4608 1812.65 86.6201 1812.65 80.2095C1812.65 73.6565 1813.65 67.8158 1815.64 62.6874C1817.78 57.4165 1820.63 52.9291 1824.19 49.2252C1827.89 45.3789 1832.17 42.4585 1837.01 40.4641C1842 38.4698 1847.34 37.4726 1853.04 37.4726C1858.74 37.4726 1864.01 38.4698 1868.85 40.4641C1873.84 42.4585 1878.11 45.3789 1881.67 49.2252C1885.38 52.9291 1888.23 57.4165 1890.22 62.6874C1892.36 67.8158 1893.43 73.6565 1893.43 80.2095C1893.43 86.6201 1892.36 92.4608 1890.22 97.7317C1888.23 103.003 1885.38 107.561 1881.67 111.408C1878.11 115.111 1873.84 117.961 1868.85 119.955C1864.01 121.949 1858.74 122.947 1853.04 122.947C1847.34 122.947 1842 121.949 1837.01 119.955C1832.17 117.961 1827.89 115.111 1824.19 111.408Z" fill="#1CBA6D" fill-opacity="0.3"/>
<path fill-rule="evenodd" clip-rule="evenodd" d="M1696.65 5.41994V154.999H1738.96V5.41994H1696.65ZM1694.22 157.428V2.9917H1741.39V157.428H1694.22Z" fill="#1CBA6D" fill-opacity="0.3"/>
<path fill-rule="evenodd" clip-rule="evenodd" d="M1582.29 5.41994H1511.56V154.999H1582.29C1598.82 154.999 1613.35 151.937 1625.88 145.811C1638.42 139.685 1648.18 131.067 1655.16 119.955C1662.28 108.701 1665.84 95.4525 1665.84 80.2096C1665.84 64.8243 1662.28 51.5759 1655.16 40.4643C1648.18 29.3526 1638.42 20.734 1625.88 14.6084C1613.35 8.48276 1598.82 5.41994 1582.29 5.41994ZM1657.21 39.1605C1649.97 27.6471 1639.86 18.7356 1626.95 12.4267C1614.03 6.11157 1599.12 2.9917 1582.29 2.9917H1509.13V157.428H1582.29C1599.12 157.428 1614.03 154.308 1626.95 147.993C1639.86 141.683 1649.97 132.77 1657.21 121.254C1664.61 109.557 1668.27 95.8443 1668.27 80.2096C1668.27 64.4411 1664.62 50.7231 1657.21 39.1605ZM1580.58 121.237H1553.87V39.1821H1580.58C1589.13 39.1821 1596.54 40.8204 1602.81 44.0969C1609.22 47.2309 1614.2 51.8608 1617.76 57.9864C1621.33 64.112 1623.11 71.5198 1623.11 80.2096C1623.11 88.757 1621.33 96.1648 1617.76 102.433C1614.2 108.559 1609.22 113.26 1602.81 116.536C1596.54 119.67 1589.13 121.237 1580.58 121.237ZM1601.71 114.368C1595.85 117.298 1588.83 118.809 1580.58 118.809H1556.3V41.6104H1580.58C1588.82 41.6104 1595.83 43.188 1601.68 46.2489L1601.71 46.264L1601.74 46.2784C1607.72 49.2029 1612.35 53.4999 1615.66 59.2069C1618.97 64.8865 1620.68 71.852 1620.68 80.2096C1620.68 88.4094 1618.97 95.3849 1615.66 101.222C1612.34 106.93 1607.71 111.302 1601.71 114.368Z" fill="#1CBA6D" fill-opacity="0.3"/>
<path fill-rule="evenodd" clip-rule="evenodd" d="M1352.34 139.828C1364.73 151.937 1381.97 157.991 1404.05 157.991C1426.13 157.991 1443.37 151.937 1455.76 139.828C1468.16 127.719 1474.35 110.553 1474.35 88.3297V5.41994H1432.68V87.0476C1432.68 99.8687 1430.19 109.057 1425.21 114.613C1420.22 120.169 1413.31 122.947 1404.48 122.947C1395.65 122.947 1388.66 120.169 1383.54 114.613C1378.55 109.057 1376.06 99.8687 1376.06 87.0476V5.41994H1333.75V88.3297C1333.75 110.553 1339.94 127.719 1352.34 139.828ZM1385.33 112.98C1380.96 108.094 1378.49 99.6555 1378.49 87.0476V2.9917H1331.32V88.3297C1331.32 111.013 1337.66 128.879 1350.64 141.565C1363.6 154.229 1381.52 160.419 1404.05 160.419C1426.58 160.419 1444.5 154.229 1457.46 141.565C1470.44 128.879 1476.78 111.013 1476.78 88.3297V2.9917H1430.26V87.0476C1430.26 99.6646 1427.78 108.106 1423.4 112.991C1418.96 117.939 1412.76 120.518 1404.48 120.518C1396.21 120.518 1389.92 117.944 1385.33 112.98Z" fill="#1CBA6D" fill-opacity="0.3"/>
<path fill-rule="evenodd" clip-rule="evenodd" d="M1224.98 154.999H1267.29V38.9685H1313.02V5.41994H1179.04V38.9685H1224.98V154.999ZM1222.55 41.3967V157.428H1269.72V41.3967H1315.44V2.9917H1176.61V41.3967H1222.55Z" fill="#1CBA6D" fill-opacity="0.3"/>
<path fill-rule="evenodd" clip-rule="evenodd" d="M1064.79 155.848L1064.77 155.843C1053.34 152.661 1043.89 148.579 1036.49 143.545L1034.81 142.404L1050.67 106.775L1053.05 108.292C1059.55 112.438 1067.04 115.915 1075.56 118.709C1084.16 121.344 1092.68 122.655 1101.11 122.655C1106.81 122.655 1111.25 122.167 1114.51 121.261C1117.87 120.182 1119.96 118.93 1121.11 117.673L1121.12 117.667C1122.43 116.243 1123.04 114.688 1123.04 112.903C1123.04 110.397 1121.97 108.427 1119.46 106.832C1116.61 105.016 1112.81 103.461 1107.98 102.22C1103.04 100.949 1097.52 99.6751 1091.42 98.3989L1091.41 98.3966C1085.34 97.096 1079.2 95.4354 1073 93.4164L1072.99 93.4111C1066.83 91.3597 1061.17 88.715 1056.01 85.4706L1055.99 85.4576L1055.97 85.4441C1050.68 81.9693 1046.37 77.5054 1043.05 72.0736L1043.03 72.0485C1039.62 66.3052 1037.99 59.2206 1037.99 50.9347C1037.99 41.4947 1040.55 32.9035 1045.66 25.2277L1045.68 25.2005C1050.97 17.4939 1058.77 11.3956 1068.91 6.83751C1079.15 2.23966 1091.76 0 1106.66 0C1116.67 0 1126.47 1.1602 1136.06 3.48229C1145.8 5.66527 1154.51 8.95011 1162.15 13.3597L1164 14.4249L1149.11 50.2889L1146.75 49.0113C1139.77 45.245 1132.9 42.4718 1126.12 40.6743L1126.1 40.6684L1126.08 40.6621C1119.29 38.7231 1112.75 37.764 1106.45 37.764C1100.75 37.764 1096.36 38.3935 1093.17 39.5436L1093.13 39.5583L1093.08 39.5716C1089.78 40.6297 1087.72 41.9887 1086.56 43.4602C1085.33 45.0217 1084.73 46.7712 1084.73 48.7979C1084.73 51.1555 1085.73 53.0592 1088.08 54.6477C1090.94 56.3277 1094.74 57.8073 1099.53 59.0436C1104.64 60.1788 1110.18 61.3852 1116.14 62.6625C1116.14 62.6629 1116.14 62.6632 1116.14 62.6636L1115.64 65.0379M1133.8 69.9527C1139.92 71.8046 1145.48 74.3688 1150.47 77.6453C1155.45 80.7794 1159.44 84.9818 1162.43 90.2527C1165.57 95.3812 1167.13 101.863 1167.13 109.698C1167.13 118.388 1164.64 126.437 1159.65 133.844C1154.81 141.11 1147.47 146.95 1137.65 151.367C1127.96 155.783 1115.71 157.991 1100.89 157.991C1088.64 157.991 1076.82 156.495 1065.42 153.503C1054.17 150.369 1044.98 146.381 1037.85 141.537L1051.74 110.339C1052.43 110.776 1053.12 111.205 1053.83 111.627C1060.02 115.333 1067.02 118.465 1074.82 121.023C1083.65 123.73 1092.42 125.083 1101.11 125.083C1106.95 125.083 1111.65 124.585 1115.21 123.588C1118.77 122.448 1121.33 121.023 1122.9 119.314C1124.61 117.462 1125.47 115.325 1125.47 112.903C1125.47 109.484 1123.9 106.778 1120.76 104.783C1117.63 102.789 1113.57 101.151 1108.58 99.8685C1103.6 98.5864 1098.04 97.3043 1091.92 96.0222C1085.93 94.7401 1079.88 93.1018 1073.75 91.1075C1067.77 89.1131 1062.29 86.5489 1057.3 83.4148C1052.31 80.1383 1048.25 75.9358 1045.12 70.8074C1041.99 65.5365 1040.42 58.9123 1040.42 50.9347C1040.42 41.9599 1042.84 33.8399 1047.68 26.5746C1052.67 19.3093 1060.08 13.4686 1069.91 9.05247C1079.74 4.63632 1091.99 2.42824 1106.66 2.42824C1116.49 2.42824 1126.11 3.56789 1135.51 5.8472C1145.05 7.98405 1153.53 11.1893 1160.94 15.463L1147.9 46.8747C1147.18 46.4859 1146.46 46.1073 1145.74 45.7389C1139.35 42.4626 1133.02 39.992 1126.75 38.3273C1119.77 36.3329 1113 35.3357 1106.45 35.3357C1100.61 35.3357 1095.91 35.9768 1092.34 37.2589C1088.78 38.3985 1086.22 39.9655 1084.65 41.9599C1083.08 43.9543 1082.3 46.2336 1082.3 48.7979C1082.3 52.0744 1083.8 54.7098 1086.79 56.7042C1089.92 58.5561 1093.98 60.1232 1098.97 61.4053M1138.65 153.578C1128.55 158.182 1115.93 160.419 1100.89 160.419C1088.44 160.419 1076.41 158.899 1064.8 155.852L1064.79 155.848M1138.65 153.578C1148.79 149.019 1156.53 142.915 1161.67 135.192L1138.65 153.578ZM1164.53 89.0212C1161.35 83.4349 1157.1 78.9496 1151.78 75.6037C1146.6 72.202 1140.85 69.55 1134.54 67.6385" fill="#1CBA6D" fill-opacity="0.3"/>
<path fill-rule="evenodd" clip-rule="evenodd" d="M896.891 5.41994V61.6191H839.196V5.41994H796.886V154.999H839.196V96.6634H896.891V154.999H939.201V5.41994H896.891ZM894.463 99.0916V157.428H941.629V2.9917H894.463V59.1908H841.624V2.9917H794.458V157.428H841.624V99.0916H894.463Z" fill="#1CBA6D" fill-opacity="0.3"/>
<path fill-rule="evenodd" clip-rule="evenodd" d="M671.394 154.708L671.374 154.701C661.124 150.747 652.162 145.169 644.513 137.962L644.496 137.946C636.997 130.741 631.117 122.285 626.861 112.598L626.855 112.586C622.58 102.709 620.459 91.9058 620.459 80.2095C620.459 68.5154 622.579 57.78 626.859 48.0388C631.114 38.2116 636.993 29.682 644.496 22.4731L644.513 22.4568C652.166 15.2457 661.135 9.73645 671.394 5.92477C681.806 1.9665 693.068 0 705.156 0C719.257 0 731.924 2.47173 743.108 7.47391C754.423 12.4711 763.858 19.6896 771.374 29.1214L772.795 30.9051L742.322 58.4757L740.7 56.5674C736.035 51.0785 730.937 46.9484 725.417 44.1212L725.395 44.11C720.081 41.32 714.065 39.9008 707.293 39.9008C701.434 39.9008 696.109 40.8537 691.291 42.7273C686.482 44.5978 682.365 47.3241 678.913 50.9083C675.594 54.3607 672.908 58.5698 670.877 63.5734C669.006 68.5278 668.052 74.0637 668.052 80.2095C668.052 86.3554 669.006 91.8912 670.877 96.8456C672.905 101.84 675.588 106.123 678.913 109.723C682.36 113.161 686.476 115.819 691.291 117.692C696.109 119.565 701.434 120.518 707.293 120.518C714.065 120.518 720.081 119.099 725.395 116.309L725.417 116.298C730.937 113.471 736.035 109.341 740.7 103.852L742.322 101.943L772.808 129.526L771.362 131.312C763.849 140.593 754.425 147.801 743.128 152.936L743.115 152.942C731.929 157.946 719.26 160.419 705.156 160.419C693.075 160.419 681.82 158.526 671.413 154.715L671.394 154.708ZM668.616 97.7317C666.621 92.4608 665.624 86.6201 665.624 80.2095C665.624 73.799 666.621 67.9583 668.616 62.6874C670.752 57.4165 673.601 52.9291 677.163 49.2252C680.867 45.3789 685.283 42.4585 690.411 40.4641C695.54 38.4698 701.167 37.4726 707.293 37.4726C714.415 37.4726 720.826 38.9684 726.524 41.9599C731.726 44.6244 736.533 48.3624 740.944 53.1739C741.485 53.7645 742.02 54.3712 742.55 54.994C742.55 54.9938 742.55 54.9943 742.55 54.994L769.475 30.6346C762.21 21.5174 753.092 14.5371 742.123 9.69353C731.296 4.85 718.974 2.42824 705.156 2.42824C693.332 2.42824 682.363 4.3514 672.248 8.19773C662.276 11.9016 653.586 17.2437 646.179 24.2241C638.913 31.2045 633.215 39.4669 629.084 49.0115C624.953 58.4137 622.887 68.813 622.887 80.2095C622.887 91.6061 624.953 102.077 629.084 111.621C633.215 121.023 638.913 129.215 646.179 136.195C653.586 143.175 662.276 148.589 672.248 152.435C682.363 156.139 693.332 157.991 705.156 157.991C718.974 157.991 731.296 155.569 742.123 150.726C753.092 145.74 762.21 138.759 769.475 129.784L742.55 105.424C742.55 105.425 742.551 105.424 742.55 105.424C742.021 106.047 741.485 106.655 740.944 107.245C736.533 112.057 731.726 115.795 726.524 118.459C720.826 121.451 714.415 122.947 707.293 122.947C701.167 122.947 695.54 121.949 690.411 119.955C685.283 117.961 680.867 115.111 677.163 111.408C673.601 107.561 670.752 103.003 668.616 97.7317Z" fill="#1CBA6D" fill-opacity="0.3"/>
<path fill-rule="evenodd" clip-rule="evenodd" d="M520.345 63.3285H586.801V94.9539H520.345V122.306H598.553V154.999H478.463V5.41994H595.776V38.1137H520.345V63.3285ZM522.773 40.542H598.204V2.9917H476.034V157.428H600.982V119.877H522.773V97.3821H589.229V60.9003H522.773V40.542Z" fill="#1CBA6D" fill-opacity="0.3"/>
<path fill-rule="evenodd" clip-rule="evenodd" d="M311.738 154.999H354.048V115.254H377.144L404.264 154.999H449.565L417.285 107.962C418.027 107.605 418.756 107.237 419.472 106.858C427.479 102.616 433.806 97.0102 438.453 90.0391C443.867 81.7767 446.574 72.0184 446.574 60.7643C446.574 49.3678 443.867 39.5383 438.453 31.2758C433.04 22.8709 425.347 16.4603 415.375 12.0442C405.546 7.62802 393.793 5.41994 380.118 5.41994H311.738V154.999ZM377.553 82.5602C386.386 82.5602 392.939 80.637 397.212 76.7907C401.628 72.9444 403.837 67.6022 403.837 60.7643C403.837 53.784 401.628 48.3706 397.212 44.5243C392.939 40.6779 386.386 38.7548 377.553 38.7548H354.048V82.5602H377.553ZM356.476 80.132H377.553C386.096 80.132 391.947 78.263 395.588 74.9858L395.603 74.9726L395.617 74.9596C399.413 71.6534 401.408 67.03 401.408 60.7643C401.408 54.3382 399.402 49.6516 395.617 46.3554L395.603 46.3424L395.588 46.3292C391.947 43.0519 386.096 41.183 377.553 41.183H356.476V80.132ZM416.364 9.82602C406.15 5.23899 394.044 2.9917 380.118 2.9917H309.31V157.428H356.476V117.682H375.861L402.981 157.428H454.177L420.854 108.872C429.067 104.476 435.629 98.6532 440.474 91.3861L440.485 91.3699C446.192 82.6588 449.002 72.4234 449.002 60.7643C449.002 48.9735 446.197 38.668 440.49 29.9538C434.798 21.119 426.723 14.4147 416.364 9.82602Z" fill="#1CBA6D" fill-opacity="0.3"/>
<path fill-rule="evenodd" clip-rule="evenodd" d="M117.257 154.999H160.421L172.084 125.938H235.514L247.177 154.999H291.196L224.954 5.41994H183.285L117.257 154.999ZM184.605 94.7402H222.994L203.799 46.9128L184.605 94.7402ZM203.799 53.4324L188.196 92.312H219.403L203.799 53.4324ZM233.872 128.366L245.535 157.428H294.927L226.534 2.9917H181.703L113.531 157.428H162.063L173.726 128.366H233.872Z" fill="#1CBA6D" fill-opacity="0.3"/>
<path fill-rule="evenodd" clip-rule="evenodd" d="M30.3705 154.999H72.6801V38.9685H118.409V5.41994H-15.5718V38.9685H30.3705V154.999ZM27.9422 41.3967V157.428H75.1083V41.3967H120.837V2.9917H-18V41.3967H27.9422Z" fill="#1CBA6D" fill-opacity="0.3"/>
</svg>
