<svg width="131" height="43" viewBox="0 0 131 43" fill="none" xmlns="http://www.w3.org/2000/svg">
<rect width="43" height="43" rx="21.5" fill="white"/>
<path fill-rule="evenodd" clip-rule="evenodd" d="M22.0943 6.76589L13.5761 17.1955C11.0428 20.2972 13.4512 24.725 17.6714 24.725C18.9976 24.725 19.7556 26.1153 18.9616 27.0913L14.9147 32.0662C13.0496 34.3591 14.8302 37.625 17.9455 37.625C19.143 37.625 20.2698 37.1042 20.9836 36.2207L29.4447 25.7491C31.9412 22.6593 29.5412 18.275 25.3533 18.275C24.0473 18.275 23.3008 16.9059 24.0827 15.9447L28.1557 10.9377C30.0222 8.64317 28.2403 5.375 25.1229 5.375C23.9314 5.375 22.8095 5.89027 22.0943 6.76589Z" fill="#18171C"/>
<path d="M120.676 40.2757C119.318 40.2757 118.113 40.0129 117.062 39.4873C116.026 38.9471 115.208 38.2099 114.61 37.2755C114.011 36.3412 113.712 35.2681 113.712 34.0564C113.712 32.8446 114.011 31.7716 114.61 30.8372C115.208 29.9029 116.026 29.1729 117.062 28.6473C118.113 28.1217 119.318 27.8589 120.676 27.8589C122.033 27.8589 123.238 28.1217 124.289 28.6473C125.34 29.1729 126.158 29.9029 126.742 30.8372C127.34 31.7716 127.64 32.8446 127.64 34.0564C127.64 35.2681 127.34 36.3412 126.742 37.2755C126.158 38.2099 125.34 38.9471 124.289 39.4873C123.238 40.0129 122.033 40.2757 120.676 40.2757ZM120.676 36.4215C121.041 36.4215 121.369 36.3339 121.661 36.1587C121.953 35.9835 122.187 35.7207 122.362 35.3703C122.537 35.0053 122.625 34.5673 122.625 34.0564C122.625 33.5308 122.537 33.1001 122.362 32.7643C122.187 32.4139 121.953 32.1512 121.661 31.976C121.369 31.8008 121.041 31.7132 120.676 31.7132C120.311 31.7132 119.982 31.8008 119.69 31.976C119.398 32.1512 119.165 32.4139 118.989 32.7643C118.814 33.1001 118.727 33.5308 118.727 34.0564C118.727 34.5673 118.814 35.0053 118.989 35.3703C119.165 35.7207 119.398 35.9835 119.69 36.1587C119.982 36.3339 120.311 36.4215 120.676 36.4215Z" fill="white"/>
<path d="M107.204 40.0567V28.0779H112.153V40.0567H107.204ZM109.679 27.1143C108.773 27.1143 108.051 26.8735 107.511 26.3917C106.97 25.9099 106.7 25.3113 106.7 24.596C106.7 23.8806 106.97 23.282 107.511 22.8002C108.051 22.3185 108.773 22.0776 109.679 22.0776C110.584 22.0776 111.306 22.3039 111.847 22.7564C112.387 23.209 112.657 23.793 112.657 24.5084C112.657 25.2675 112.387 25.8953 111.847 26.3917C111.306 26.8735 110.584 27.1143 109.679 27.1143Z" fill="white"/>
<path d="M97.0193 40.2757C95.9827 40.2757 95.0191 40.0275 94.1286 39.5311C93.2526 39.0201 92.5519 38.3048 92.0263 37.385C91.5007 36.4506 91.2379 35.3411 91.2379 34.0564C91.2379 32.7716 91.5007 31.6694 92.0263 30.7496C92.5519 29.8152 93.2526 29.0999 94.1286 28.6035C95.0191 28.1071 95.9827 27.8589 97.0193 27.8589C98.0704 27.8589 98.9318 28.0852 99.6033 28.5378C100.275 28.9758 100.771 29.6547 101.092 30.5744C101.414 31.4796 101.574 32.6402 101.574 34.0564C101.574 35.4871 101.421 36.6623 101.114 37.5821C100.822 38.5019 100.341 39.1807 99.669 39.6187C99.0121 40.0567 98.1288 40.2757 97.0193 40.2757ZM98.2018 36.4214C98.5668 36.4214 98.8953 36.3339 99.1873 36.1587C99.4792 35.9835 99.7128 35.7207 99.888 35.3703C100.063 35.0053 100.151 34.5673 100.151 34.0564C100.151 33.5308 100.063 33.1001 99.888 32.7643C99.7128 32.4139 99.4792 32.1511 99.1873 31.9759C98.8953 31.8008 98.5668 31.7132 98.2018 31.7132C97.8368 31.7132 97.5083 31.8008 97.2163 31.9759C96.9244 32.1511 96.6908 32.4139 96.5156 32.7643C96.3404 33.1001 96.2528 33.5308 96.2528 34.0564C96.2528 34.5673 96.3404 35.0053 96.5156 35.3703C96.6908 35.7207 96.9244 35.9835 97.2163 36.1587C97.5083 36.3339 97.8368 36.4214 98.2018 36.4214ZM100.304 40.0567V38.4362L100.282 34.0564L100.063 29.6766V23.8076H105.012V40.0567H100.304Z" fill="white"/>
<path d="M81.4656 40.2756C80.5166 40.2756 79.6553 40.0858 78.8815 39.7063C78.1224 39.3121 77.5238 38.7062 77.0858 37.8886C76.6478 37.0565 76.4288 35.9907 76.4288 34.6914V28.0779H81.378V33.8373C81.378 34.6841 81.5167 35.2754 81.7941 35.6111C82.0715 35.9469 82.4511 36.1148 82.9328 36.1148C83.2248 36.1148 83.4949 36.0418 83.7431 35.8958C84.0059 35.7352 84.2176 35.4797 84.3782 35.1294C84.5388 34.7644 84.6191 34.2899 84.6191 33.7059V28.0779H89.5682V40.0566H84.86V36.5966L85.8016 37.5383C85.3782 38.4726 84.7724 39.1661 83.984 39.6187C83.2102 40.0566 82.3708 40.2756 81.4656 40.2756Z" fill="white"/>
<path d="M72.1813 40.2757C70.5316 40.2757 69.2468 39.8815 68.3271 39.0931C67.4073 38.2902 66.9474 37.0638 66.9474 35.4141V25.3843H71.8966V35.3703C71.8966 35.7353 71.9915 36.02 72.1813 36.2243C72.3857 36.4287 72.6339 36.5309 72.9258 36.5309C73.3492 36.5309 73.7215 36.4214 74.0427 36.2024L75.2252 39.6406C74.8457 39.8596 74.3858 40.0202 73.8456 40.1224C73.32 40.2246 72.7653 40.2757 72.1813 40.2757ZM65.305 32.3482V28.7349H74.3493V32.3482H65.305Z" fill="white"/>
<path d="M57.8763 40.407C56.5915 40.407 55.3506 40.261 54.1534 39.969C52.9563 39.6771 51.9708 39.2975 51.1971 38.8303L52.8614 35.0637C53.5914 35.487 54.4016 35.8301 55.2922 36.0929C56.1974 36.3411 57.0733 36.4652 57.9201 36.4652C58.4165 36.4652 58.8033 36.436 59.0807 36.3776C59.3727 36.3046 59.5844 36.2097 59.7158 36.0929C59.8472 35.9615 59.9129 35.8082 59.9129 35.633C59.9129 35.3557 59.7596 35.1367 59.453 34.9761C59.1464 34.8155 58.7376 34.6841 58.2267 34.5819C57.7303 34.4651 57.1828 34.3483 56.5842 34.2315C55.9857 34.1001 55.3798 33.9322 54.7666 33.7278C54.168 33.5234 53.6133 33.2534 53.1023 32.9176C52.6059 32.5818 52.2044 32.1438 51.8979 31.6036C51.5913 31.0489 51.438 30.3627 51.438 29.5451C51.438 28.5962 51.7008 27.7348 52.2263 26.961C52.7665 26.1727 53.5622 25.5449 54.6133 25.0777C55.6791 24.6105 57.0003 24.377 58.577 24.377C59.6136 24.377 60.6356 24.4865 61.6429 24.7054C62.6503 24.9244 63.5554 25.2602 64.3584 25.7128L62.8036 29.4575C62.0444 29.0779 61.3071 28.7933 60.5918 28.6035C59.891 28.4137 59.2048 28.3188 58.5332 28.3188C58.0369 28.3188 57.6427 28.3626 57.3507 28.4502C57.0587 28.5378 56.847 28.6546 56.7156 28.8006C56.5988 28.9465 56.5404 29.1071 56.5404 29.2823C56.5404 29.5451 56.6937 29.7568 57.0003 29.9174C57.3069 30.0634 57.7084 30.1875 58.2048 30.2897C58.7157 30.3919 59.2705 30.5014 59.8691 30.6182C60.4823 30.735 61.0881 30.8956 61.6867 31.0999C62.2853 31.3043 62.8328 31.5744 63.3291 31.9102C63.8401 32.246 64.2489 32.684 64.5555 33.2242C64.8621 33.7643 65.0154 34.4359 65.0154 35.2389C65.0154 36.1732 64.7453 37.0346 64.2051 37.8229C63.6795 38.5967 62.8912 39.2245 61.84 39.7063C60.7888 40.1734 59.4676 40.407 57.8763 40.407Z" fill="white"/>
<path d="M125.748 6.64427C126.668 6.64427 127.5 6.83406 128.244 7.21365C128.989 7.57863 129.573 8.1553 129.996 8.94367C130.434 9.73203 130.653 10.754 130.653 12.0095V18.842H125.704V12.8636C125.704 12.119 125.573 11.5934 125.31 11.2869C125.047 10.9657 124.69 10.8051 124.237 10.8051C123.901 10.8051 123.587 10.8854 123.295 11.046C123.018 11.192 122.792 11.4402 122.616 11.7905C122.456 12.1409 122.376 12.6154 122.376 13.214V18.842H117.426V2.59296H122.376V10.3671L121.193 9.35975C121.66 8.45459 122.288 7.77572 123.076 7.32314C123.879 6.87056 124.77 6.64427 125.748 6.64427Z" fill="white"/>
<path d="M110.392 19.061C109.019 19.061 107.8 18.7982 106.734 18.2727C105.669 17.7471 104.829 17.0171 104.216 16.0828C103.618 15.1338 103.318 14.0535 103.318 12.8417C103.318 11.63 103.618 10.5569 104.216 9.62255C104.829 8.68819 105.669 7.95823 106.734 7.43265C107.8 6.90708 109.019 6.64429 110.392 6.64429C111.852 6.64429 113.1 6.95817 114.136 7.58595C115.173 8.21372 115.888 9.08238 116.282 10.1919L112.45 12.0752C112.202 11.5205 111.895 11.119 111.53 10.8708C111.18 10.6226 110.793 10.4985 110.37 10.4985C110.005 10.4985 109.662 10.5861 109.34 10.7613C109.034 10.9365 108.786 11.1993 108.596 11.5497C108.421 11.8854 108.333 12.3161 108.333 12.8417C108.333 13.3673 108.421 13.8053 108.596 14.1556C108.786 14.506 109.034 14.7688 109.34 14.944C109.662 15.1192 110.005 15.2068 110.37 15.2068C110.793 15.2068 111.18 15.0827 111.53 14.8345C111.895 14.5863 112.202 14.1848 112.45 13.6301L116.282 15.5134C115.888 16.6229 115.173 17.4916 114.136 18.1194C113.1 18.7471 111.852 19.061 110.392 19.061Z" fill="white"/>
<path d="M96.2598 19.061C94.7999 19.061 93.5224 18.7909 92.4275 18.2508C91.3471 17.7106 90.5077 16.9733 89.9091 16.039C89.3105 15.09 89.0112 14.0243 89.0112 12.8417C89.0112 11.63 89.3032 10.5569 89.8872 9.62255C90.4858 8.68819 91.296 7.95823 92.318 7.43265C93.3545 6.90708 94.5152 6.64429 95.7999 6.64429C96.9825 6.64429 98.0701 6.87788 99.0629 7.34506C100.07 7.81223 100.873 8.5057 101.472 9.42546C102.085 10.3452 102.392 11.484 102.392 12.8417C102.392 13.0169 102.384 13.214 102.37 13.433C102.355 13.6374 102.34 13.8272 102.326 14.0024H93.1063V11.6154H99.6979L97.8365 12.2504C97.8365 11.7833 97.7489 11.3891 97.5737 11.0679C97.4131 10.7321 97.1869 10.4766 96.8949 10.3014C96.6029 10.1116 96.2525 10.0167 95.8437 10.0167C95.4349 10.0167 95.0773 10.1116 94.7707 10.3014C94.4787 10.4766 94.2524 10.7321 94.0918 11.0679C93.9312 11.3891 93.8509 11.7833 93.8509 12.2504V12.995C93.8509 13.506 93.9531 13.944 94.1575 14.3089C94.3619 14.6739 94.6539 14.9513 95.0335 15.1411C95.413 15.3163 95.8729 15.4039 96.4131 15.4039C96.9679 15.4039 97.4204 15.3309 97.7708 15.1849C98.1358 15.0389 98.5154 14.8199 98.9096 14.5279L101.494 17.1339C100.91 17.7617 100.187 18.2435 99.3257 18.5792C98.4789 18.9004 97.4569 19.061 96.2598 19.061Z" fill="white"/>
<path d="M79.7661 18.842V6.86328H84.4743V10.4766L83.7079 9.44736C84.0729 8.513 84.6568 7.81223 85.4598 7.34506C86.2628 6.87788 87.2263 6.64429 88.3505 6.64429V11.0241C88.1315 10.9949 87.9344 10.973 87.7592 10.9584C87.5986 10.9438 87.4307 10.9365 87.2555 10.9365C86.5109 10.9365 85.8978 11.1336 85.416 11.5278C84.9488 11.9073 84.7152 12.5716 84.7152 13.5206V18.842H79.7661Z" fill="white"/>
<path d="M73.0283 18.842V16.7178L72.6779 16.1485V12.119C72.6779 11.5351 72.4954 11.0898 72.1305 10.7832C71.7801 10.4766 71.2034 10.3233 70.4004 10.3233C69.8603 10.3233 69.3128 10.4109 68.758 10.5861C68.2032 10.7467 67.7288 10.973 67.3346 11.265L65.7579 8.00203C66.4586 7.56405 67.2981 7.22826 68.2762 6.99467C69.2544 6.76108 70.2106 6.64429 71.145 6.64429C73.2035 6.64429 74.7948 7.10417 75.919 8.02392C77.0577 8.94368 77.6271 10.4036 77.6271 12.4037V18.842H73.0283ZM69.634 19.061C68.6558 19.061 67.8383 18.8931 67.1813 18.5573C66.5243 18.2216 66.0279 17.7763 65.6922 17.2215C65.3564 16.6521 65.1885 16.0244 65.1885 15.3382C65.1885 14.5644 65.3856 13.9075 65.7797 13.3673C66.1739 12.8271 66.7725 12.4183 67.5755 12.1409C68.393 11.8636 69.4223 11.7249 70.6632 11.7249H73.1597V14.1118H71.4516C70.926 14.1118 70.5391 14.1994 70.2909 14.3746C70.0574 14.5352 69.9406 14.7834 69.9406 15.1192C69.9406 15.3966 70.0428 15.6302 70.2471 15.82C70.4661 15.9952 70.7581 16.0828 71.1231 16.0828C71.4589 16.0828 71.7655 15.9952 72.0429 15.82C72.3349 15.6302 72.5465 15.3382 72.6779 14.944L73.313 16.4112C73.1232 17.3018 72.7217 17.9661 72.1086 18.4041C71.4954 18.842 70.6705 19.061 69.634 19.061Z" fill="white"/>
<path d="M55.4893 18.842V7.52021H51V3.5127H65.1468V7.52021H60.6575V18.842H55.4893Z" fill="white"/>
</svg>
