<svg width="153" height="36" viewBox="0 0 153 36" fill="none" xmlns="http://www.w3.org/2000/svg">
<rect x="2.22363" y="1.57916" width="32" height="32" fill="#808082" stroke="#D9D9D9" stroke-width="3"/>
<g clip-path="url(#clip0_124_1845)">
<path d="M18.6305 17.7496C18.6305 18.9002 18.4296 19.8945 18.0275 20.7326C17.6254 21.5707 17.0738 22.217 16.3727 22.6715C15.6717 23.126 14.8709 23.3533 13.9706 23.3533C13.0702 23.3533 12.2694 23.126 11.5684 22.6715C10.8673 22.217 10.3157 21.5707 9.91367 20.7326C9.51159 19.8945 9.31055 18.9002 9.31055 17.7496C9.31055 16.5991 9.51159 15.6047 9.91367 14.7667C10.3157 13.9286 10.8673 13.2823 11.5684 12.8277C12.2694 12.3732 13.0702 12.1459 13.9706 12.1459C14.8709 12.1459 15.6717 12.3732 16.3727 12.8277C17.0738 13.2823 17.6254 13.9286 18.0275 14.7667C18.4296 15.6047 18.6305 16.5991 18.6305 17.7496ZM17.3934 17.7496C17.3934 16.805 17.2404 16.0078 16.9346 15.3579C16.6322 14.7081 16.2215 14.2162 15.7026 13.8824C15.1871 13.5486 14.6098 13.3817 13.9706 13.3817C13.3314 13.3817 12.7523 13.5486 12.2334 13.8824C11.7179 14.2162 11.3072 14.7081 11.0013 15.3579C10.6989 16.0078 10.5477 16.805 10.5477 17.7496C10.5477 18.6942 10.6989 19.4915 11.0013 20.1413C11.3072 20.7912 11.7179 21.283 12.2334 21.6168C12.7523 21.9506 13.3314 22.1175 13.9706 22.1175C14.6098 22.1175 15.1871 21.9506 15.7026 21.6168C16.2215 21.283 16.6322 20.7912 16.9346 20.1413C17.2404 19.4915 17.3934 18.6942 17.3934 17.7496ZM21.7493 20.2212L21.7286 18.6658H21.9761L25.4402 15.0223H26.9454L23.2545 18.8789H23.1514L21.7493 20.2212ZM20.6152 23.2042V12.2951H21.8318V23.2042H20.6152ZM25.6464 23.2042L22.5534 19.1559L23.4195 18.2823L27.1928 23.2042H25.6464Z" fill="#F6E5D6"/>
</g>
<path d="M133.878 25.9776V13.3676H137.211V15.5924H137.359C137.622 14.8536 138.059 14.2707 138.672 13.8438C139.285 13.4169 140.019 13.2035 140.873 13.2035C141.737 13.2035 142.473 13.4196 143.081 13.852C143.688 14.2789 144.093 14.8591 144.296 15.5924H144.427C144.684 14.87 145.15 14.2926 145.823 13.8602C146.502 13.4224 147.303 13.2035 148.228 13.2035C149.405 13.2035 150.36 13.5784 151.093 14.3282C151.832 15.0725 152.202 16.1288 152.202 17.4971V25.9776H148.713V18.1867C148.713 17.4861 148.527 16.9607 148.154 16.6104C147.782 16.2602 147.317 16.085 146.759 16.085C146.124 16.085 145.629 16.2875 145.273 16.6925C144.917 17.0921 144.739 17.6202 144.739 18.277V25.9776H141.349V18.1128C141.349 17.4943 141.171 17.0018 140.815 16.6351C140.465 16.2684 140.002 16.085 139.428 16.085C139.039 16.085 138.689 16.1835 138.377 16.3806C138.07 16.5721 137.827 16.843 137.646 17.1933C137.466 17.5381 137.375 17.9431 137.375 18.4083V25.9776H133.878Z" fill="#808082"/>
<path d="M125.808 26.2239C124.511 26.2239 123.394 25.9612 122.458 25.4357C121.528 24.9049 120.811 24.155 120.308 23.1863C119.804 22.2121 119.552 21.06 119.552 19.7301C119.552 18.433 119.804 17.2946 120.308 16.3149C120.811 15.3352 121.52 14.5717 122.434 14.0244C123.353 13.4771 124.431 13.2035 125.668 13.2035C126.5 13.2035 127.275 13.3375 127.992 13.6057C128.714 13.8684 129.344 14.2652 129.88 14.7961C130.422 15.327 130.843 15.9947 131.144 16.7993C131.445 17.5983 131.596 18.5342 131.596 19.6069V20.5675H120.948V18.4001H128.304C128.304 17.8966 128.194 17.4505 127.975 17.062C127.756 16.6734 127.453 16.3696 127.064 16.1507C126.681 15.9263 126.235 15.8141 125.726 15.8141C125.195 15.8141 124.724 15.9372 124.314 16.1835C123.909 16.4243 123.591 16.75 123.361 17.1605C123.132 17.5655 123.014 18.017 123.008 18.5151V20.5757C123.008 21.1996 123.123 21.7387 123.353 22.193C123.589 22.6472 123.92 22.9975 124.347 23.2438C124.774 23.4901 125.28 23.6132 125.865 23.6132C126.254 23.6132 126.61 23.5585 126.933 23.449C127.256 23.3396 127.532 23.1754 127.762 22.9564C127.992 22.7375 128.167 22.4693 128.287 22.1519L131.522 22.3654C131.358 23.1425 131.021 23.8212 130.512 24.4013C130.009 24.976 129.357 25.4248 128.558 25.7477C127.765 26.0651 126.848 26.2239 125.808 26.2239Z" fill="#808082"/>
<path d="M114.099 13.9998C114.033 13.3375 113.751 12.8231 113.253 12.4564C112.755 12.0897 112.079 11.9063 111.225 11.9063C110.645 11.9063 110.155 11.9884 109.756 12.1526C109.356 12.3113 109.05 12.533 108.836 12.8176C108.628 13.1022 108.524 13.4251 108.524 13.7863C108.513 14.0874 108.576 14.3501 108.713 14.5745C108.856 14.7989 109.05 14.9931 109.296 15.1573C109.542 15.3161 109.827 15.4556 110.15 15.576C110.473 15.691 110.818 15.7895 111.184 15.8716L112.695 16.2328C113.428 16.397 114.101 16.6159 114.714 16.8896C115.327 17.1632 115.858 17.4998 116.307 17.8993C116.756 18.2989 117.103 18.7696 117.35 19.3114C117.601 19.8532 117.73 20.4744 117.736 21.175C117.73 22.2039 117.467 23.096 116.947 23.8513C116.433 24.6011 115.689 25.184 114.714 25.5999C113.746 26.0104 112.577 26.2157 111.209 26.2157C109.852 26.2157 108.669 26.0077 107.662 25.5917C106.661 25.1758 105.878 24.5601 105.314 23.7446C104.756 22.9236 104.463 21.9084 104.436 20.6988H107.876C107.914 21.2625 108.076 21.7332 108.36 22.1109C108.65 22.483 109.036 22.7649 109.518 22.9564C110.005 23.1425 110.555 23.2356 111.168 23.2356C111.77 23.2356 112.293 23.148 112.736 22.9729C113.185 22.7977 113.532 22.5542 113.779 22.2422C114.025 21.9302 114.148 21.5718 114.148 21.1668C114.148 20.7891 114.036 20.4717 113.811 20.2144C113.592 19.9572 113.27 19.7383 112.843 19.5577C112.421 19.3771 111.904 19.2129 111.291 19.0651L109.46 18.6054C108.043 18.2606 106.924 17.7215 106.103 16.9881C105.282 16.2547 104.874 15.2668 104.879 14.0244C104.874 13.0064 105.145 12.1171 105.692 11.3563C106.245 10.5955 107.003 10.0017 107.966 9.57482C108.929 9.14792 110.024 8.93447 111.25 8.93447C112.498 8.93447 113.587 9.14792 114.517 9.57482C115.453 10.0017 116.181 10.5955 116.701 11.3563C117.221 12.1171 117.489 12.9982 117.506 13.9998H114.099Z" fill="#808082"/>
<path d="M89.7474 26.2157C88.9429 26.2157 88.2259 26.0761 87.5965 25.797C86.9671 25.5124 86.4691 25.0937 86.1024 24.5409C85.7412 23.9826 85.5605 23.2876 85.5605 22.4557C85.5605 21.7551 85.6892 21.1668 85.9464 20.6906C86.2036 20.2144 86.5539 19.8313 86.9972 19.5413C87.4405 19.2512 87.9441 19.0323 88.5078 18.8845C89.077 18.7367 89.6736 18.6327 90.2975 18.5725C91.0309 18.4959 91.622 18.4248 92.0708 18.3591C92.5195 18.2879 92.8452 18.1839 93.0477 18.0471C93.2502 17.9103 93.3515 17.7078 93.3515 17.4396V17.3903C93.3515 16.8704 93.1873 16.4681 92.8589 16.1835C92.536 15.8989 92.0762 15.7566 91.4797 15.7566C90.8503 15.7566 90.3495 15.8962 89.9773 16.1753C89.6051 16.449 89.3589 16.7938 89.2384 17.2097L86.0039 16.947C86.1681 16.1808 86.491 15.5186 86.9726 14.9603C87.4542 14.3966 88.0754 13.9642 88.8362 13.6632C89.6024 13.3567 90.489 13.2035 91.4961 13.2035C92.1966 13.2035 92.8671 13.2855 93.5074 13.4497C94.1533 13.6139 94.7252 13.8684 95.2232 14.2132C95.7268 14.558 96.1236 15.0014 96.4136 15.5432C96.7037 16.0795 96.8487 16.7226 96.8487 17.4724V25.9776H93.5321V24.2289H93.4335C93.231 24.623 92.9601 24.9705 92.6208 25.2715C92.2815 25.5671 91.8737 25.7997 91.3976 25.9694C90.9214 26.1336 90.3714 26.2157 89.7474 26.2157ZM90.749 23.802C91.2635 23.802 91.7177 23.7008 92.1118 23.4983C92.5059 23.2903 92.8151 23.0112 93.0395 22.6609C93.2639 22.3106 93.3761 21.9138 93.3761 21.4705V20.1323C93.2666 20.2035 93.1161 20.2692 92.9245 20.3294C92.7385 20.3841 92.5278 20.4361 92.2924 20.4854C92.0571 20.5291 91.8217 20.5702 91.5864 20.6085C91.351 20.6413 91.1376 20.6714 90.946 20.6988C90.5356 20.759 90.1771 20.8548 89.8706 20.9861C89.5641 21.1175 89.326 21.2954 89.1563 21.5198C88.9867 21.7387 88.9018 22.0123 88.9018 22.3407C88.9018 22.8169 89.0743 23.1808 89.4191 23.4326C89.7693 23.6789 90.2126 23.802 90.749 23.802Z" fill="#808082"/>
<path d="M77.6708 26.2239C76.3956 26.2239 75.2928 25.9529 74.3623 25.4111C73.4374 24.8638 72.7232 24.1031 72.2196 23.1288C71.7161 22.1492 71.4644 21.0135 71.4644 19.7219C71.4644 18.4193 71.7161 17.2809 72.2196 16.3067C72.7232 15.327 73.4374 14.5662 74.3623 14.0244C75.2928 13.4771 76.3956 13.2035 77.6708 13.2035C78.946 13.2035 80.0461 13.4771 80.9711 14.0244C81.9015 14.5662 82.6185 15.327 83.122 16.3067C83.6255 17.2809 83.8773 18.4193 83.8773 19.7219C83.8773 21.0135 83.6255 22.1492 83.122 23.1288C82.6185 24.1031 81.9015 24.8638 80.9711 25.4111C80.0461 25.9529 78.946 26.2239 77.6708 26.2239ZM77.6872 23.5147C78.2674 23.5147 78.7517 23.3505 79.1403 23.0221C79.5289 22.6883 79.8217 22.234 80.0187 21.6593C80.2213 21.0847 80.3225 20.4306 80.3225 19.6972C80.3225 18.9638 80.2213 18.3098 80.0187 17.7351C79.8217 17.1605 79.5289 16.7062 79.1403 16.3724C78.7517 16.0385 78.2674 15.8716 77.6872 15.8716C77.1016 15.8716 76.609 16.0385 76.2095 16.3724C75.8154 16.7062 75.5172 17.1605 75.3147 17.7351C75.1176 18.3098 75.0191 18.9638 75.0191 19.6972C75.0191 20.4306 75.1176 21.0847 75.3147 21.6593C75.5172 22.234 75.8154 22.6883 76.2095 23.0221C76.609 23.3505 77.1016 23.5147 77.6872 23.5147Z" fill="#808082"/>
<path d="M62.206 22.3489L62.2142 18.1538H62.7232L66.7623 13.3676H70.7768L65.3503 19.7055H64.5211L62.206 22.3489ZM59.0371 25.9776V9.16434H62.5344V25.9776H59.0371ZM66.9183 25.9776L63.2076 20.4854L65.5391 18.0143L71.0149 25.9776H66.9183Z" fill="#808082"/>
<path d="M56.4696 17.571C56.4696 19.4044 56.1221 20.9643 55.427 22.2504C54.7374 23.5366 53.796 24.519 52.6029 25.1977C51.4153 25.8709 50.0798 26.2074 48.5966 26.2074C47.1025 26.2074 45.7616 25.8681 44.5739 25.1895C43.3863 24.5108 42.4476 23.5284 41.758 22.2422C41.0684 20.956 40.7236 19.399 40.7236 17.571C40.7236 15.7375 41.0684 14.1777 41.758 12.8915C42.4476 11.6053 43.3863 10.6256 44.5739 9.95246C45.7616 9.2738 47.1025 8.93447 48.5966 8.93447C50.0798 8.93447 51.4153 9.2738 52.6029 9.95246C53.796 10.6256 54.7374 11.6053 55.427 12.8915C56.1221 14.1777 56.4696 15.7375 56.4696 17.571ZM52.8656 17.571C52.8656 16.3833 52.6877 15.3817 52.332 14.5662C51.9817 13.7508 51.4864 13.1323 50.8461 12.7109C50.2057 12.2895 49.4559 12.0787 48.5966 12.0787C47.7374 12.0787 46.9875 12.2895 46.3472 12.7109C45.7069 13.1323 45.2088 13.7508 44.8531 14.5662C44.5028 15.3817 44.3276 16.3833 44.3276 17.571C44.3276 18.7586 44.5028 19.7602 44.8531 20.5757C45.2088 21.3912 45.7069 22.0096 46.3472 22.431C46.9875 22.8525 47.7374 23.0632 48.5966 23.0632C49.4559 23.0632 50.2057 22.8525 50.8461 22.431C51.4864 22.0096 51.9817 21.3912 52.332 20.5757C52.6877 19.7602 52.8656 18.7586 52.8656 17.571Z" fill="#808082"/>
<defs>
<clipPath id="clip0_124_1845">
<rect width="18.75" height="11.875" fill="white" transform="translate(8.84863 11.9542)"/>
</clipPath>
</defs>
</svg>
