<svg width="82" height="40" viewBox="0 0 82 40" fill="none" xmlns="http://www.w3.org/2000/svg">
<path d="M71.9709 21.5122C71.9709 21.9595 71.943 22.4255 71.887 22.9101H61.068C61.1425 23.8792 61.4501 24.6247 61.9905 25.1466C62.5497 25.6498 63.2299 25.9014 64.0313 25.9014C65.2241 25.9014 66.0535 25.3982 66.5195 24.3917H71.6075C71.3466 25.4168 70.8713 26.3394 70.1817 27.1594C69.5108 27.9795 68.6628 28.6224 67.6377 29.0884C66.6126 29.5543 65.4664 29.7873 64.1991 29.7873C62.6708 29.7873 61.3103 29.4611 60.1175 28.8088C58.9247 28.1565 57.9928 27.2246 57.3219 26.0132C56.6509 24.8018 56.3154 23.3853 56.3154 21.7639C56.3154 20.1424 56.6416 18.7259 57.2939 17.5145C57.9648 16.3031 58.8967 15.3712 60.0895 14.7189C61.2823 14.0666 62.6522 13.7404 64.1991 13.7404C65.7087 13.7404 67.0506 14.0573 68.2248 14.6909C69.3989 15.3246 70.3122 16.2285 70.9645 17.4027C71.6354 18.5768 71.9709 19.9467 71.9709 21.5122ZM67.0786 20.2542C67.0786 19.4342 66.799 18.7819 66.2399 18.2973C65.6808 17.8127 64.9819 17.5704 64.1432 17.5704C63.3418 17.5704 62.6615 17.8034 62.1024 18.2693C61.5619 18.7353 61.2264 19.3969 61.0959 20.2542H67.0786Z" fill="#808082"/>
<path d="M43.0715 16.1726C43.5375 15.4457 44.1805 14.8587 45.0005 14.4114C45.8206 13.9641 46.7804 13.7404 47.88 13.7404C49.166 13.7404 50.3308 14.0666 51.3745 14.7189C52.4182 15.3712 53.2383 16.3031 53.8347 17.5145C54.4497 18.7259 54.7572 20.1331 54.7572 21.7359C54.7572 23.3387 54.4497 24.7552 53.8347 25.9852C53.2383 27.1967 52.4182 28.1379 51.3745 28.8088C50.3308 29.4611 49.166 29.7873 47.88 29.7873C46.799 29.7873 45.8392 29.5636 45.0005 29.1163C44.1805 28.669 43.5375 28.0913 43.0715 27.3831L43.0436 34.9992L38.291 37V13.9641H43.0715V16.1726ZM49.8929 21.7359C49.8929 20.5431 49.5574 19.6112 48.8864 18.9403C48.2341 18.2507 47.4234 17.9059 46.4542 17.9059C45.5037 17.9059 44.693 18.2507 44.022 18.9403C43.3697 19.6299 43.0436 20.5711 43.0436 21.7639C43.0436 22.9567 43.3697 23.8978 44.022 24.5874C44.693 25.277 45.5037 25.6218 46.4542 25.6218C47.4047 25.6218 48.2155 25.277 48.8864 24.5874C49.5574 23.8792 49.8929 22.9287 49.8929 21.7359Z" fill="#808082"/>
<path d="M36.563 13.9638L28.108 36.784L23.3485 33.8093L25.2128 29.0322L18.8667 13.9638H24.2063L27.8127 23.7205L31.3911 13.9638H36.563Z" fill="#808082"/>
<path d="M17.1768 9.9383V31.4296L12.6388 29.6447L12.3963 21.4842H4.9599V27.8599L0.178223 25.4802L0.179385 9.9383H4.9599V17.6263H12.3963V9.9383H17.1768Z" fill="#808082"/>
<circle opacity="0.3" cx="62.0137" cy="19.5792" r="19.5792" fill="#808082"/>
</svg>
