<svg width="123" height="33" viewBox="0 0 123 33" fill="none" xmlns="http://www.w3.org/2000/svg">
<g clip-path="url(#clip0_124_2671)">
<path d="M3.91504 16.5792C3.91504 9.41996 9.72554 3.60946 16.8847 3.60946C24.0439 3.60946 29.8544 9.41996 29.8544 16.5792C29.8544 23.7383 24.0439 29.5488 16.8847 29.5488C9.72554 29.5488 3.91504 23.7383 3.91504 16.5792ZM8.88474 20.7961C9.63223 20.7961 10.2484 20.18 10.2484 19.4325V13.7259C10.2484 12.9783 9.63223 12.3622 8.88474 12.3622C8.13725 12.3622 7.5211 12.9783 7.5211 13.7259V19.4325C7.5211 20.18 8.13725 20.7961 8.88474 20.7961ZM12.8847 22.7028C13.6322 22.7028 14.2484 22.0867 14.2484 21.3392V11.8192C14.2484 11.0717 13.6322 10.4555 12.8847 10.4555C12.1372 10.4555 11.5211 11.0717 11.5211 11.8192V21.3392C11.5211 22.0867 12.1372 22.7028 12.8847 22.7028ZM16.8847 24.6095C17.6322 24.6095 18.2484 23.9933 18.2484 23.2459V9.91247C18.2484 9.16498 17.6322 8.54884 16.8847 8.54884C16.1372 8.54884 15.5211 9.16498 15.5211 9.91247V23.2459C15.5211 23.9933 16.1372 24.6095 16.8847 24.6095ZM20.8847 22.7028C21.6322 22.7028 22.2484 22.0867 22.2484 21.3392V11.8192C22.2484 11.0717 21.6322 10.4555 20.8847 10.4555C20.1373 10.4555 19.5211 11.0717 19.5211 11.8192V21.3392C19.5211 22.0867 20.1373 22.7028 20.8847 22.7028ZM24.8847 20.7961C25.6322 20.7961 26.2484 20.18 26.2484 19.4325V13.7259C26.2484 12.9783 25.6322 12.3622 24.8847 12.3622C24.1373 12.3622 23.5211 12.9783 23.5211 13.7259V19.4325C23.5211 20.18 24.1373 20.7961 24.8847 20.7961Z" fill="#808082" stroke="#808082"/>
<path d="M116.49 19.1043C116.149 19.0888 115.901 19.0655 115.745 19.0344V19.4533C115.761 19.9188 115.776 20.2989 115.792 20.5937C115.823 20.8885 115.924 21.1755 116.094 21.4548C116.28 21.8117 116.544 22.0754 116.885 22.2461C117.227 22.4168 117.56 22.471 117.886 22.409C118.212 22.3469 118.484 22.1608 118.701 21.8504C118.933 21.5246 119.034 21.0437 119.003 20.4075C119.159 20.423 119.368 20.4308 119.632 20.4308C119.896 20.4153 120.168 20.3997 120.447 20.3843C120.741 20.3688 121.021 20.3688 121.285 20.3843C121.548 20.3843 121.765 20.4075 121.936 20.4541C121.905 20.8575 121.874 21.2531 121.842 21.641C121.812 22.0288 121.773 22.3935 121.727 22.7348C121.68 23.0606 121.618 23.3477 121.54 23.5959C121.478 23.8286 121.393 23.9915 121.285 24.0846C121.021 24.457 120.679 24.7208 120.26 24.8759C119.841 25.031 119.384 25.1241 118.887 25.1552C118.391 25.1862 117.879 25.1862 117.351 25.1552C116.839 25.1241 116.366 25.1086 115.932 25.1086C115.497 25.0466 115.093 24.9069 114.721 24.6897C114.302 24.3949 113.953 24.0148 113.674 23.5493C113.394 23.0684 113.17 22.5486 112.999 21.9901C112.829 21.416 112.712 20.8109 112.65 20.1748C112.588 19.5387 112.573 18.9026 112.603 18.2664C112.65 17.6924 112.696 17.1416 112.743 16.6141C112.805 16.071 112.929 15.5435 113.115 15.0315C113.317 14.5816 113.627 14.2015 114.046 13.8912C114.465 13.5653 114.938 13.3248 115.466 13.1697C115.994 12.999 116.552 12.9059 117.142 12.8904C117.731 12.8749 118.305 12.937 118.864 13.0766C119.578 13.2008 120.152 13.449 120.586 13.8213C121.021 14.1937 121.346 14.6437 121.564 15.1712C121.797 15.6987 121.936 16.2805 121.983 16.9166C122.029 17.5528 122.029 18.1966 121.983 18.8483C121.874 18.8793 121.664 18.9103 121.354 18.9413C121.059 18.9724 120.703 19.0034 120.284 19.0344C119.88 19.0655 119.446 19.0888 118.981 19.1043C118.515 19.1197 118.065 19.1275 117.63 19.1275C117.211 19.1275 116.831 19.1197 116.49 19.1043ZM119.213 16.0555C119.058 15.7763 118.84 15.5668 118.561 15.4272C118.437 15.3496 118.313 15.2953 118.189 15.2643C118.065 15.2177 117.917 15.1944 117.747 15.1944C117.375 15.1944 117.072 15.2332 116.839 15.3108C116.607 15.3884 116.42 15.497 116.28 15.6366C116.141 15.7763 116.032 15.9392 115.954 16.1253C115.893 16.3115 115.846 16.5055 115.815 16.7072C115.784 16.8779 115.769 17.0019 115.769 17.0795C115.784 17.1416 115.862 17.1881 116.002 17.2192C116.141 17.2347 116.358 17.2424 116.653 17.2424C116.963 17.2269 117.413 17.2192 118.003 17.2192C118.406 17.2192 118.709 17.2269 118.911 17.2424C119.112 17.2579 119.252 17.2657 119.329 17.2657C119.422 17.2502 119.469 17.2269 119.469 17.1959C119.469 17.1493 119.469 17.064 119.469 16.9399C119.469 16.6296 119.384 16.3348 119.213 16.0555Z" fill="#808082"/>
<path d="M111.089 13.2861C111.369 13.2706 111.539 13.2783 111.601 13.3093C111.601 13.8989 111.585 14.4419 111.555 14.9384C111.524 15.4194 111.539 15.9159 111.601 16.4279C110.81 17.2812 109.949 18.1423 109.018 19.0112C108.087 19.8645 107.226 20.7333 106.435 21.6177C107.21 21.5557 108.033 21.5479 108.902 21.5944C109.786 21.641 110.647 21.6022 111.485 21.4781C111.485 21.9746 111.492 22.5021 111.508 23.0606C111.524 23.6192 111.532 24.1699 111.532 24.713C110.817 24.7285 110.057 24.744 109.251 24.7595C108.46 24.775 107.652 24.7906 106.83 24.8061C106.008 24.8216 105.193 24.8371 104.387 24.8526C103.58 24.8526 102.804 24.8526 102.06 24.8526C102.075 24.4027 102.075 24.0381 102.06 23.7588C102.06 23.4795 102.052 23.239 102.036 23.0373C102.02 22.8357 102.005 22.6495 101.99 22.4788C101.99 22.3081 101.997 22.1064 102.013 21.8737C102.385 21.3928 102.796 20.9273 103.246 20.4773C103.696 20.0119 104.161 19.5619 104.643 19.1275C105.124 18.6776 105.597 18.2354 106.062 17.801C106.528 17.351 106.954 16.8933 107.342 16.4279C106.939 16.4434 106.505 16.4589 106.039 16.4744C105.574 16.4899 105.108 16.5132 104.643 16.5443C104.177 16.5753 103.727 16.6141 103.293 16.6606C102.874 16.7072 102.494 16.7537 102.153 16.8003C102.121 16.3813 102.106 16.0245 102.106 15.7297C102.106 15.4349 102.106 15.1712 102.106 14.9384C102.121 14.6902 102.137 14.4419 102.153 14.1937C102.168 13.9455 102.168 13.6507 102.153 13.3093C103.409 13.3093 104.588 13.3093 105.69 13.3093C106.807 13.2939 107.785 13.2861 108.622 13.2861C108.746 13.3171 108.956 13.3326 109.251 13.3326C109.561 13.3171 109.879 13.3093 110.205 13.3093C110.531 13.2939 110.825 13.2861 111.089 13.2861Z" fill="#808082"/>
<path d="M99.323 13.2163C99.7106 13.2317 100.153 13.255 100.65 13.2861C100.665 13.3792 100.673 13.4723 100.673 13.5653C100.688 13.6584 100.696 13.7515 100.696 13.8446V14.0773C100.65 15.753 100.658 17.4053 100.719 19.0344C100.781 20.648 100.758 22.2848 100.65 23.945C100.65 24.1467 100.642 24.3484 100.626 24.5501C100.626 24.7517 100.533 24.8681 100.347 24.8992H100.068C99.8197 24.8992 99.5637 24.8914 99.2997 24.8759C99.0517 24.8448 98.803 24.8293 98.555 24.8293C98.3841 24.8293 98.2139 24.8448 98.043 24.8759C97.8881 24.8914 97.7252 24.8992 97.5543 24.8992C97.4459 24.8681 97.3681 24.8061 97.3215 24.713C97.2903 24.6199 97.275 24.5113 97.275 24.3872C97.275 24.2165 97.2903 24.0768 97.3215 23.9683C97.3528 23.8597 97.3681 23.7277 97.3681 23.5726C96.9957 23.945 96.5223 24.263 95.9485 24.5268C95.3899 24.7906 94.8394 24.9224 94.2961 24.9224C93.691 24.9224 93.171 24.713 92.7368 24.2941C92.3179 23.8752 91.9688 23.3554 91.6895 22.7348C91.4103 22.1142 91.2008 21.4393 91.0612 20.7101C90.9368 19.9808 90.875 19.3059 90.875 18.6853C90.875 17.9096 90.9761 17.1959 91.1775 16.5443C91.379 15.8926 91.651 15.3341 91.9921 14.8686C92.3492 14.3877 92.7681 14.0153 93.2488 13.7515C93.7295 13.4723 94.2415 13.3248 94.7848 13.3093C95.0641 13.3093 95.3201 13.3171 95.5528 13.3326C95.8008 13.3326 96.0263 13.3714 96.2277 13.449C96.4292 13.511 96.6081 13.6197 96.763 13.7748C96.9179 13.9144 97.0503 14.1161 97.1586 14.3799C97.1434 14.1317 97.1506 13.9222 97.1819 13.7515C97.2285 13.5653 97.2517 13.3792 97.2517 13.193C97.2517 13.1775 97.2983 13.1697 97.3914 13.1697C97.4997 13.1542 97.6161 13.1542 97.7405 13.1697C97.8648 13.1697 97.9885 13.1697 98.1128 13.1697C98.2372 13.1697 98.3223 13.1697 98.3688 13.1697C98.6328 13.1852 98.9506 13.2008 99.323 13.2163ZM94.5288 16.8933C94.1717 17.1881 93.955 17.5295 93.8772 17.9173C93.8154 18.119 93.7761 18.3285 93.7608 18.5457C93.7455 18.7474 93.7375 18.9491 93.7375 19.1508C93.7375 19.849 93.9157 20.4463 94.2728 20.9428C94.6452 21.4237 95.1572 21.6643 95.8088 21.6643C96.1965 21.6643 96.4837 21.6022 96.6699 21.4781C96.8714 21.3384 97.011 21.1523 97.0888 20.9195C97.1819 20.6713 97.2285 20.3765 97.2285 20.0352C97.2437 19.6783 97.2517 19.2827 97.2517 18.8483C97.2517 18.3052 97.2437 17.8786 97.2285 17.5683C97.2285 17.2424 97.1899 16.9942 97.1121 16.8235C97.0503 16.6528 96.9339 16.5443 96.763 16.4977C96.6081 16.4512 96.3674 16.4279 96.0415 16.4279C95.4052 16.4279 94.9012 16.583 94.5288 16.8933Z" fill="#808082"/>
<path d="M85.8677 13.8213C85.8829 13.8679 85.8909 13.9455 85.8909 14.0541C85.9528 14.0231 86.0924 13.961 86.3098 13.8679C86.5426 13.7748 86.7673 13.6895 86.9848 13.6119C87.2793 13.5188 87.6131 13.449 87.9855 13.4024C88.3579 13.3404 88.7069 13.3016 89.0328 13.2861C89.3586 13.2706 89.6298 13.2706 89.8473 13.2861C90.08 13.2861 90.1964 13.2939 90.1964 13.3093C90.1964 13.8368 90.1884 14.3023 90.1731 14.7057C90.1731 15.1091 90.1731 15.4737 90.1731 15.7995C90.1731 16.1099 90.1731 16.3968 90.1731 16.6606C90.1731 16.9244 90.1804 17.1726 90.1964 17.4053L89.9869 17.3355C89.9091 17.3045 89.824 17.2813 89.7309 17.2657C89.6531 17.2347 89.5753 17.2037 89.4982 17.1726C89.312 17.1261 89.1178 17.0873 88.9164 17.0563C88.7302 17.0252 88.6291 17.0097 88.6138 17.0097C88.1949 16.9632 87.8066 16.9399 87.4502 16.9399C87.1084 16.9399 86.8058 16.9942 86.5426 17.1028C86.2938 17.2115 86.1004 17.3821 85.9608 17.6148C85.8211 17.8475 85.7586 18.1811 85.7746 18.6155C85.7898 19.1586 85.8051 19.6706 85.8211 20.1515C85.8364 20.6325 85.8444 21.1213 85.8444 21.6177C85.8444 22.0987 85.8444 22.5952 85.8444 23.1072C85.8597 23.6037 85.8677 24.1389 85.8677 24.713V24.8061C85.6037 24.8837 85.3629 24.9302 85.1462 24.9457C84.9288 24.9613 84.704 24.9613 84.4713 24.9457C84.2386 24.9457 83.9826 24.938 83.7033 24.9224C83.4393 24.9069 83.1215 24.9147 82.7491 24.9457C82.7491 23.0373 82.7259 21.129 82.6793 19.2206C82.648 17.3123 82.6633 15.3341 82.7258 13.2861C82.912 13.3016 83.0669 13.3171 83.1913 13.3326C83.3149 13.3326 83.4313 13.3326 83.5404 13.3326C83.6488 13.3326 83.7651 13.3326 83.8895 13.3326C84.0131 13.3171 84.1688 13.3016 84.3549 13.2861C84.4168 13.2861 84.5251 13.2783 84.6808 13.2628C84.8509 13.2473 85.0218 13.2317 85.1928 13.2163C85.3789 13.2008 85.5339 13.2008 85.6582 13.2163C85.7979 13.2163 85.8677 13.2317 85.8677 13.2628C85.8677 13.3869 85.8677 13.48 85.8677 13.5421C85.8677 13.6042 85.8677 13.6584 85.8677 13.705C85.8677 13.736 85.8677 13.7748 85.8677 13.8213Z" fill="#808082"/>
<path d="M75.5045 12.0061C75.287 12.0526 75.1161 12.1379 74.9925 12.2621C74.9612 12.2931 74.9299 12.3474 74.8994 12.425C74.8834 12.487 74.8681 12.5336 74.8529 12.5646C74.8216 12.6112 74.7903 12.8827 74.7598 13.3792C74.7438 13.8757 74.7285 14.4652 74.7132 15.1479C74.6972 15.8306 74.69 16.5443 74.69 17.289C74.69 18.0182 74.7132 18.6543 74.7598 19.1973C74.8063 19.6473 74.9227 20.0895 75.1089 20.5239C75.3103 20.9428 75.6361 21.2143 76.0863 21.3384C76.4274 21.3695 76.7452 21.3229 77.0405 21.1988C77.3503 21.0592 77.583 20.8342 77.7387 20.5239C77.9089 20.167 77.9787 19.7947 77.9481 19.4068C77.9321 19.0034 77.9634 18.6077 78.0412 18.2199C78.2579 18.2509 78.4987 18.2587 78.7627 18.2432C79.042 18.2277 79.3212 18.2199 79.6005 18.2199C79.8798 18.2199 80.151 18.2277 80.415 18.2432C80.6943 18.2587 80.9423 18.2975 81.1598 18.3595C81.423 19.1663 81.4929 19.9731 81.3692 20.7799C81.2449 21.5712 80.9736 22.2848 80.5547 22.921C80.1358 23.5571 79.5845 24.0846 78.9023 24.5035C78.2347 24.9069 77.4747 25.1164 76.6216 25.1319C76.063 25.2095 75.4885 25.2095 74.8994 25.1319C74.3096 25.0699 73.759 24.9224 73.2469 24.6897C72.7349 24.4415 72.3004 24.1001 71.9436 23.6657C71.6022 23.2313 71.4006 22.6883 71.3385 22.0366C71.3075 21.4781 71.2842 20.8963 71.2687 20.2912C71.2532 19.6861 71.2377 19.0112 71.2222 18.2664C71.2222 17.5062 71.2222 16.6528 71.2222 15.7064C71.2377 14.7445 71.2532 13.6352 71.2687 12.3784C71.2377 12.1147 71.2454 11.8509 71.292 11.5872C71.354 11.3079 71.4316 11.0519 71.5247 10.8192C71.6644 10.4157 71.835 10.0434 72.0367 9.70207C72.2539 9.36077 72.5099 9.05822 72.8047 8.79444C72.9753 8.67029 73.1615 8.56949 73.3633 8.49189C73.5649 8.3988 73.7743 8.3212 73.9918 8.25917C74.7052 8.02644 75.4114 7.93335 76.1096 7.97989C76.8078 8.02644 77.4594 8.18935 78.0645 8.46862C78.6849 8.7324 79.2434 9.0892 79.7401 9.53917C80.2361 9.98913 80.6318 10.5088 80.927 11.0984C81.2216 11.6725 81.3998 12.3008 81.4623 12.9835C81.5241 13.6662 81.431 14.3644 81.183 15.0781C80.6085 15.2022 80.0427 15.2488 79.4841 15.2177C78.9409 15.1712 78.3743 15.0936 77.7852 14.985C77.7387 14.6902 77.7074 14.3566 77.6921 13.9843C77.6921 13.6119 77.6529 13.2706 77.5758 12.9603C77.4979 12.6344 77.3503 12.3707 77.1336 12.169C76.9314 11.9673 76.6056 11.8742 76.1561 11.8897C75.954 11.9208 75.7372 11.9595 75.5045 12.0061Z" fill="#808082"/>
<path d="M66.5935 9.49262C66.6091 9.32193 66.6246 9.08149 66.6401 8.77116V8.51516C66.6401 8.49967 66.7409 8.48411 66.9426 8.46862C67.1599 8.43756 67.4159 8.42207 67.7106 8.42207C68.0209 8.40658 68.3468 8.40658 68.6881 8.42207C69.0295 8.42207 69.3242 8.44535 69.5724 8.49189V10.0279C69.5724 12.6189 69.6113 15.1789 69.6888 17.7079C69.7664 20.2368 69.7742 22.6184 69.7121 24.8526C69.2311 24.8526 68.7036 24.8604 68.1295 24.8759C67.5555 24.9069 67.0357 24.8914 66.5703 24.8293C66.5548 24.7983 66.547 24.744 66.547 24.6664C66.547 24.5113 66.5393 24.3872 66.5237 24.2941C66.5237 24.201 66.5237 24.0691 66.5237 23.8984C66.4927 23.8208 66.4539 23.7666 66.4073 23.7355C66.3764 23.689 66.3375 23.7123 66.291 23.8053C66.0582 24.2708 65.748 24.5733 65.3601 24.713C64.9722 24.8371 64.5611 24.8681 64.1266 24.8061C63.2423 24.744 62.5441 24.519 62.0321 24.1312C61.5201 23.7277 61.1322 23.2235 60.8684 22.6184C60.6202 21.9979 60.4495 21.3074 60.3564 20.5472C60.2789 19.7869 60.2324 19.0189 60.2168 18.2432C60.2168 17.7001 60.2479 17.1726 60.3099 16.6606C60.3875 16.1486 60.4961 15.6832 60.6357 15.2643C60.7909 14.8299 60.9848 14.4652 61.2175 14.1704C61.4658 13.8601 61.7606 13.6429 62.1019 13.5188C62.5208 13.3637 62.9785 13.2706 63.475 13.2395C63.987 13.193 64.468 13.193 64.9179 13.2395C65.3678 13.2706 65.748 13.3404 66.0582 13.449C66.3686 13.5576 66.5393 13.6817 66.5703 13.8213C66.5548 13.0921 66.547 12.5026 66.547 12.0526C66.547 11.6027 66.547 11.2459 66.547 10.9821C66.547 10.7028 66.547 10.4933 66.547 10.3537C66.5625 10.1986 66.5703 10.0589 66.5703 9.9348C66.5858 9.79516 66.5935 9.64775 66.5935 9.49262ZM63.7077 16.3115C63.3353 16.5908 63.1104 17.0019 63.0328 17.545C62.9553 17.7622 62.9087 17.9872 62.8932 18.2199C62.8777 18.4526 62.8699 18.6776 62.8699 18.8948C62.8699 19.2827 62.9164 19.6628 63.0095 20.0352C63.1026 20.392 63.2423 20.7179 63.4284 21.0126C63.6146 21.2919 63.8396 21.5168 64.1033 21.6875C64.3671 21.8582 64.6619 21.9435 64.9877 21.9435C65.3756 21.9435 65.6782 21.8582 65.8953 21.6875C66.1281 21.5168 66.2988 21.2841 66.4073 20.9893C66.5315 20.6946 66.6013 20.3455 66.6168 19.9421C66.6479 19.5232 66.6633 19.0655 66.6633 18.569C66.6633 17.9639 66.6479 17.4907 66.6168 17.1493C66.6013 16.7925 66.547 16.521 66.4539 16.3348C66.3608 16.1486 66.2135 16.0323 66.0117 15.9857C65.8255 15.9237 65.5695 15.8926 65.2437 15.8926C64.6076 15.8926 64.0956 16.0323 63.7077 16.3115Z" fill="#808082"/>
<path d="M50.1343 14.9617C50.2273 14.6669 50.2972 14.4342 50.3437 14.2635C50.4523 14.0308 50.623 13.8291 50.8557 13.6584C51.1039 13.4877 51.3832 13.3481 51.6935 13.2395C52.0193 13.1154 52.3607 13.0301 52.7175 12.9835C53.0899 12.937 53.4623 12.9137 53.8346 12.9137C54.1449 12.9448 54.4397 12.9525 54.719 12.937C55.0137 12.9059 55.3241 12.9059 55.6499 12.937C56.1464 12.968 56.6196 13.0688 57.0695 13.2395C57.5195 13.3947 57.9073 13.6274 58.2332 13.9377C58.4504 14.0773 58.621 14.3023 58.7452 14.6126C58.8693 14.9229 58.9624 15.2875 59.0244 15.7064C59.0865 16.1099 59.1253 16.5597 59.1408 17.0563C59.1563 17.5372 59.1719 18.0337 59.1873 18.5457C59.1719 18.9957 59.1486 19.5077 59.1175 20.0817C59.102 20.6557 59.0632 21.2066 59.0012 21.7341C58.9546 22.2616 58.8848 22.7348 58.7917 23.1537C58.7141 23.5726 58.5977 23.8597 58.4426 24.0148C58.1788 24.3872 57.8297 24.6509 57.3953 24.8061C56.9764 24.9612 56.5188 25.0543 56.0223 25.0853C55.5257 25.1319 55.0137 25.1319 54.4863 25.0853C53.9588 25.0543 53.4777 25.0388 53.0433 25.0388C52.2521 24.8992 51.5849 24.5579 51.0419 24.0148C50.623 23.6424 50.3359 23.177 50.1808 22.6184C50.0257 22.0599 49.9326 21.4781 49.9015 20.873C49.8705 20.2524 49.8628 19.6317 49.8783 19.0112C49.9093 18.3906 49.9015 17.8243 49.855 17.3123C49.855 17.033 49.8628 16.7615 49.8783 16.4977C49.8937 16.2184 49.9248 15.9314 49.9713 15.6366C49.9868 15.4659 50.0412 15.241 50.1343 14.9617ZM54.0441 16.4977C53.7183 16.5908 53.4545 16.7615 53.2528 17.0097C53.1597 17.0717 53.0899 17.2269 53.0433 17.4752C52.9813 17.9717 52.9503 18.4681 52.9503 18.9646C52.9503 19.4456 52.9348 19.9576 52.9037 20.5006C52.8882 20.8575 52.9813 21.1368 53.183 21.3384C53.3847 21.5246 53.6252 21.6565 53.9044 21.7341C54.1992 21.7961 54.5017 21.8117 54.8121 21.7806C55.1224 21.7341 55.3784 21.6565 55.5801 21.5479C55.8439 21.4237 56.0223 21.1677 56.1153 20.7799C56.1774 20.2834 56.2239 19.7869 56.255 19.2904C56.3015 18.7784 56.2783 18.2975 56.1852 17.8475C56.1076 17.3045 55.8826 16.9088 55.5103 16.6606C55.1379 16.4124 54.6492 16.3581 54.0441 16.4977Z" fill="#808082"/>
<path d="M48.5009 11.1915C48.8578 11.8121 49.0595 12.5646 49.106 13.449V13.4723C49.106 13.5808 49.106 13.6895 49.106 13.7981C49.106 13.8912 49.0983 13.9843 49.0828 14.0773C48.9897 14.8221 48.7414 15.5048 48.338 16.1253C47.9502 16.7459 47.4615 17.2735 46.8719 17.7079C46.2823 18.1423 45.6306 18.4604 44.9169 18.6621C44.2033 18.8483 43.474 18.8793 42.7293 18.7552C42.7448 18.9724 42.7526 19.1896 42.7526 19.4068C42.7526 19.6085 42.7526 19.911 42.7526 20.3144C42.7526 20.7023 42.7526 21.2299 42.7526 21.897C42.7681 22.5641 42.7913 23.464 42.8224 24.5966V24.6199C42.8069 24.6199 42.7913 24.6277 42.7759 24.6432C42.7759 24.6432 42.7681 24.6432 42.7526 24.6432C42.5353 24.7052 42.2561 24.7517 41.9148 24.7828C41.5889 24.7983 41.2399 24.8139 40.8675 24.8293C40.5106 24.8293 40.1538 24.8216 39.7969 24.8061C39.4401 24.7906 39.1298 24.7673 38.866 24.7363C38.8195 23.6037 38.7962 22.3779 38.7962 21.0592C38.7962 19.7248 38.7962 18.3595 38.7962 16.9632C38.7962 15.5668 38.7884 14.1627 38.7729 12.7508C38.7729 11.3389 38.7497 9.98913 38.7031 8.70135C39.3393 8.53066 40.0297 8.40658 40.7744 8.32898C41.5346 8.25138 42.2871 8.24367 43.0319 8.30571C43.7921 8.36775 44.5291 8.50738 45.2428 8.72462C45.9564 8.92629 46.5848 9.23662 47.1279 9.65553C47.6864 10.0589 48.1441 10.5709 48.5009 11.1915ZM45.4988 12.937C45.3902 12.7508 45.235 12.5957 45.0333 12.4715C44.6455 12.1612 44.1955 11.9673 43.6835 11.8897C43.1715 11.7966 42.6673 11.8121 42.1708 11.9363C42.1397 11.9363 42.1164 11.944 42.1009 11.9595C42.1164 12.2388 42.1164 12.5336 42.1009 12.8439C42.1009 13.1542 42.1009 13.4645 42.1009 13.7748C42.1164 14.0851 42.132 14.3877 42.1475 14.6824C42.1785 14.9617 42.2328 15.2177 42.3104 15.4504H42.3802C42.6284 15.4349 42.8922 15.4272 43.1715 15.4272C43.4508 15.4117 43.7223 15.3884 43.986 15.3573C44.2653 15.3263 44.5291 15.272 44.7773 15.1944C45.0411 15.1013 45.266 14.9617 45.4522 14.7755C45.5764 14.6048 45.6617 14.4109 45.7082 14.1937C45.7703 13.9765 45.778 13.7593 45.7315 13.5421C45.7004 13.3248 45.6229 13.1232 45.4988 12.937Z" fill="#808082"/>
</g>
<defs>
<clipPath id="clip0_124_2671">
<rect width="121.455" height="32" fill="white" transform="translate(0.723633 0.579165)"/>
</clipPath>
</defs>
</svg>
