<svg width="88" height="23" viewBox="0 0 88 23" fill="none" xmlns="http://www.w3.org/2000/svg">
<path d="M78.5464 10.2507C78.5464 7.75935 79.8602 5.48207 82.4878 3.41888L87.276 6.63044C85.1155 8.01238 84.0352 9.46245 84.0352 10.9806C84.0352 11.7787 84.4732 12.82 85.349 14.1046C86.2444 15.3892 86.6921 16.3916 86.6921 17.1118C86.6921 19.6616 84.9403 21.6274 81.4368 23.0094L80.1522 21.2868C81.6898 20.4499 82.4586 19.5253 82.4586 18.5132C82.4586 17.5595 81.8066 16.3527 80.5025 14.8929C80.0159 14.3479 79.5682 13.6569 79.1595 12.82C78.7508 11.983 78.5464 11.1266 78.5464 10.2507Z" fill="#808082"/>
<path d="M62.5849 4.58672C62.9547 4.58672 63.3148 4.64511 63.6651 4.76189C64.4242 5.69616 65.0374 7.38953 65.5045 9.84199H65.7381C66.4388 8.20702 67.2465 6.9224 68.1613 5.98812C69.0956 5.05385 70.0591 4.58672 71.0517 4.58672C71.4215 4.58672 71.7816 4.64511 72.132 4.76189C73.1246 5.96866 73.8059 8.0805 74.1757 11.0974C74.5455 14.1143 74.7304 17.0923 74.7304 20.0314L69.4751 20.2941C69.4751 15.7007 69.3292 11.6229 69.0372 8.06104C66.7015 8.99531 65.1541 12.9854 64.3951 20.0314L61.0083 20.2941C61.0083 15.7007 60.8623 11.6229 60.5704 8.06104C59.6945 8.41139 58.8381 9.34566 58.0011 10.8639C57.1836 12.3626 56.5803 14.708 56.191 17.9001L55.9282 20.0314L53.0378 20.2941L51.5488 5.81295L57.7968 4.84948L57.242 9.40405H57.4464C58.9451 6.1925 60.658 4.58672 62.5849 4.58672Z" fill="#808082"/>
<path d="M48.1887 14.4842C48.1887 16.6057 47.7216 18.1531 46.7873 19.1263C45.8725 20.0801 44.1694 20.5569 41.678 20.5569C39.1866 20.5569 37.2402 19.9925 35.8388 18.8636C35.5469 17.4622 35.4009 16.0607 35.4009 14.6593C35.4009 13.2579 35.5955 11.9441 35.9848 10.7179C36.3935 9.47219 36.8996 8.41141 37.503 7.53553C38.7681 5.74484 39.8971 4.6062 40.8897 4.1196C42.7583 5.07333 44.403 6.36769 45.8238 8.00266C47.4004 9.79335 48.1887 11.9538 48.1887 14.4842ZM44.802 13.6959C44.802 11.8468 44.4127 10.1534 43.6341 8.61578C42.0186 9.47219 40.6853 10.7763 39.6343 12.528C38.5832 14.2798 38.0577 16.051 38.0577 17.8417C38.6806 17.9585 39.5759 18.0169 40.7437 18.0169C41.9116 18.0169 43.1086 17.8125 44.3348 17.4038C44.6463 16.2165 44.802 14.9805 44.802 13.6959Z" fill="#808082"/>
<path d="M32.4792 14.4842C32.4792 16.6057 32.0121 18.1531 31.0778 19.1263C30.163 20.0801 28.4599 20.5569 25.9685 20.5569C23.4772 20.5569 21.5308 19.9925 20.1293 18.8636C19.8374 17.4622 19.6914 16.0607 19.6914 14.6593C19.6914 13.2579 19.886 11.9441 20.2753 10.7179C20.6841 9.47219 21.1901 8.41141 21.7935 7.53553C23.0587 5.74484 24.1876 4.6062 25.1802 4.1196C27.0488 5.07333 28.6935 6.36769 30.1144 8.00266C31.6909 9.79335 32.4792 11.9538 32.4792 14.4842ZM29.0925 13.6959C29.0925 11.8468 28.7032 10.1534 27.9247 8.61578C26.3092 9.47219 24.9759 10.7763 23.9248 12.528C22.8738 14.2798 22.3482 16.051 22.3482 17.8417C22.9711 17.9585 23.8664 18.0169 25.0343 18.0169C26.2021 18.0169 27.3991 17.8125 28.6254 17.4038C28.9368 16.2165 29.0925 14.9805 29.0925 13.6959Z" fill="#808082"/>
<path d="M6.81151 12.4405C6.46116 12.5572 6.17894 12.6156 5.96483 12.6156L5.17654 19.973L2.25694 20.265L0.592773 1.46277C1.62436 1.13188 2.98684 0.83019 4.68021 0.557694C6.39304 0.285198 8.02801 0.148951 9.58513 0.148951C12.0765 0.148951 14.0716 0.616085 15.5703 1.55036C15.9207 2.60141 16.0958 3.56488 16.0958 4.44076C16.0958 6.89322 14.6847 8.91747 11.8624 10.5135L16.7673 19.827L14.7236 20.9657L6.81151 12.4405ZM10.461 5.22905C10.461 3.84711 9.84789 2.78632 8.62167 2.04669C8.15453 2.04669 7.629 2.14401 7.04508 2.33865L6.1692 10.7471C7.51222 10.1437 8.56327 9.33595 9.32237 8.32382C10.0815 7.29223 10.461 6.26064 10.461 5.22905Z" fill="#808082"/>
</svg>
