<svg width="82" height="36" viewBox="0 0 82 36" fill="none" xmlns="http://www.w3.org/2000/svg">
<g clip-path="url(#clip0_124_1865)">
<path d="M11.7311 27.8358C10.5126 28.0496 9.27258 28.1138 7.98988 28.2845L4.07746 16.8344V28.7759C2.85892 28.904 1.74724 29.0749 0.592773 29.2458V7.37083H3.84244L8.28913 19.7825V7.37083H11.7311V27.8358ZM18.4655 15.3817C19.791 15.3817 21.822 15.3176 23.0405 15.3176V18.7355C21.5226 18.7355 19.7482 18.7355 18.4655 18.7996V23.8839C20.4751 23.7558 22.4847 23.5847 24.5156 23.5206V26.8102L15.0448 27.5581V7.37083H24.5156V10.7888H18.4655V15.3817ZM37.236 10.7889H33.6871V26.5115C32.5327 26.5115 31.3782 26.5115 30.2667 26.5541V10.7889H26.7179V7.37083H37.2362L37.236 10.7889ZM42.7944 15.1468H47.4765V18.5647H42.7944V26.3193H39.4377V7.37083H48.9944V10.7888H42.7944V15.1468ZM54.5528 23.3285C56.4983 23.3711 58.4651 23.5209 60.3679 23.6275V27.0028C57.3107 26.8104 54.2535 26.6184 51.1323 26.5541V7.37083H54.5528V23.3285ZM63.254 27.2378C64.3443 27.302 65.4987 27.3661 66.6104 27.494V7.37083H63.254V27.2378ZM81.5971 7.37083L77.2571 17.7743L81.5971 29.2458C80.3142 29.0749 79.0315 28.8399 77.7488 28.6263L75.2903 22.3032L72.7892 28.1138C71.549 27.8999 70.3518 27.8358 69.1121 27.6649L73.516 17.646L69.5395 7.37083H73.2165L75.4613 13.1173L77.8558 7.37083H81.5971V7.37083Z" fill="#808082"/>
</g>
<defs>
<clipPath id="clip0_124_1865">
<rect width="81" height="35" fill="white" transform="translate(0.592773 0.0791645)"/>
</clipPath>
</defs>
</svg>
