<svg width="104" height="36" viewBox="0 0 104 36" fill="none" xmlns="http://www.w3.org/2000/svg">
<g clip-path="url(#clip0_124_1867)">
<path d="M16.0963 2.32434C7.5635 2.32434 0.645996 9.1801 0.645996 17.6369C0.645996 26.0941 7.5635 32.9493 16.0963 32.9493C24.63 32.9493 31.5467 26.0941 31.5467 17.6369C31.5467 9.18065 24.63 2.32507 16.0961 2.32507L16.0963 2.32434ZM23.1817 24.4095C22.9049 24.8593 22.3109 25.0019 21.857 24.7258C18.2294 22.5298 13.6628 22.0324 8.2847 23.2502C7.76645 23.3672 7.24986 23.0454 7.13178 22.5316C7.01315 22.0178 7.33657 21.5058 7.85612 21.3887C13.7416 20.0561 18.7899 20.6299 22.8625 23.0966C23.3164 23.3727 23.4603 23.9597 23.1817 24.4095ZM25.0728 20.24C24.7241 20.8018 23.9824 20.9791 23.416 20.6336C19.263 18.1036 12.9324 17.3709 8.02013 18.8487C7.38307 19.0394 6.71021 18.6836 6.51686 18.0533C6.32498 17.4219 6.6842 16.7563 7.32015 16.5643C12.9312 14.8769 19.9069 15.6943 24.6761 18.5989C25.2425 18.9445 25.4215 19.6796 25.0728 20.2402V20.24ZM25.2351 15.8984C20.2556 12.967 12.0399 12.6975 7.28565 14.1276C6.52221 14.3571 5.71485 13.9299 5.48349 13.1733C5.25213 12.4163 5.68275 11.6166 6.44675 11.3866C11.9043 9.74457 20.9769 10.0618 26.71 13.4349C27.3982 13.8389 27.6232 14.7178 27.2155 15.3975C26.8096 16.0781 25.9203 16.3025 25.2359 15.8984H25.2351ZM42.6811 16.4601C40.0133 15.8296 39.5391 15.3871 39.5391 14.4573C39.5391 13.5788 40.3731 12.9877 41.6147 12.9877C42.8176 12.9877 44.0095 13.4366 45.2604 14.3607C45.2973 14.3887 45.3452 14.3999 45.3914 14.3925C45.4393 14.3856 45.4799 14.3602 45.5076 14.322L46.8101 12.5022C46.8636 12.4272 46.8489 12.3239 46.7769 12.2667C45.288 11.0831 43.6128 10.5076 41.6535 10.5076C38.7735 10.5076 36.7606 12.2208 36.7606 14.672C36.7606 17.3005 38.4967 18.2312 41.4966 18.9496C44.0482 19.5324 44.4799 20.0206 44.4799 20.8932C44.4799 21.8605 43.6091 22.4621 42.2069 22.4621C40.6498 22.4621 39.3786 21.941 37.958 20.7232C37.9229 20.6921 37.875 20.6793 37.8307 20.6811C37.7827 20.6848 37.7403 20.7067 37.7108 20.7414L36.2496 22.4639C36.1887 22.5371 36.1961 22.6431 36.2662 22.7053C37.9193 24.1681 39.9524 24.9398 42.1479 24.9398C45.2511 24.9398 47.2566 23.2593 47.2566 20.6573C47.2621 18.4618 45.9356 17.2458 42.6866 16.4625L42.6811 16.4601ZM54.2785 13.8526C52.9336 13.8526 51.8303 14.3777 50.9189 15.4538V14.2426C50.9189 14.147 50.8414 14.0691 50.7454 14.0691H48.3562C48.2603 14.0691 48.1828 14.147 48.1828 14.2426V27.7009C48.1828 27.796 48.2603 27.8746 48.3562 27.8746H50.7454C50.8414 27.8746 50.9189 27.796 50.9189 27.7009V23.4532C51.8303 24.4644 52.9336 24.9599 54.2785 24.9599C56.7785 24.9599 59.3098 23.0527 59.3098 19.4068C59.3135 15.7601 56.7822 13.8524 54.2804 13.8524L54.2785 13.8526ZM56.5312 19.4068C56.5312 21.2626 55.3782 22.559 53.7251 22.559C52.0923 22.559 50.8598 21.2041 50.8598 19.4068C50.8598 17.6093 52.0923 16.2547 53.7251 16.2547C55.3505 16.2546 56.5312 17.5799 56.5312 19.4066V19.4068ZM65.7948 13.8526C62.5754 13.8526 60.0533 16.3094 60.0533 19.4465C60.0533 22.5499 62.5587 24.98 65.7561 24.98C68.9866 24.98 71.516 22.5316 71.516 19.4068C71.516 16.2926 69.0032 13.8529 65.7948 13.8529V13.8526ZM65.7948 22.5773C64.0827 22.5773 62.7912 21.2132 62.7912 19.4059C62.7912 17.5903 64.0384 16.2728 65.7561 16.2728C67.4793 16.2728 68.7781 17.6364 68.7781 19.4455C68.7781 21.2607 67.5235 22.5773 65.7948 22.5773ZM78.3904 14.0691H75.7613V11.4056C75.7613 11.3102 75.6838 11.2323 75.5879 11.2323H73.1987C73.1027 11.2323 73.0234 11.3102 73.0234 11.4056V14.0691H71.8758C71.7799 14.0691 71.7024 14.147 71.7024 14.2426V16.2772C71.7024 16.3727 71.7799 16.4508 71.8758 16.4508H73.0234V21.7161C73.0234 23.8426 74.0916 24.9215 76.2004 24.9215C77.0565 24.9215 77.7668 24.7459 78.4365 24.3693C78.4919 24.34 78.5251 24.2815 78.5251 24.2193V22.2811C78.5251 22.2226 78.4937 22.1659 78.442 22.1348C78.3904 22.1019 78.3258 22.1 78.2723 22.1275C77.8129 22.356 77.3683 22.4621 76.8701 22.4621C76.1045 22.4621 75.7613 22.1165 75.7613 21.3449V16.4517H78.3904C78.4863 16.4517 78.5638 16.3738 78.5638 16.2781V14.2437C78.5675 14.1481 78.49 14.0702 78.3922 14.0702L78.3904 14.0691ZM87.5488 14.0795V13.7524C87.5488 12.79 87.9215 12.3609 88.7554 12.3609C89.2535 12.3609 89.6539 12.4589 90.1022 12.607C90.1576 12.6242 90.2148 12.6156 90.259 12.5828C90.3052 12.5501 90.331 12.4976 90.331 12.442V10.4471C90.331 10.3708 90.283 10.3034 90.2074 10.2809C89.7351 10.1414 89.1299 9.99819 88.2222 9.99819C86.0175 9.99819 84.8496 11.2295 84.8496 13.5578V14.0588H83.702C83.6061 14.0588 83.5268 14.1367 83.5268 14.2322V16.2772C83.5268 16.3727 83.6061 16.4508 83.702 16.4508H84.8496V24.5704C84.8496 24.6673 84.9289 24.7441 85.0249 24.7441H87.4123C87.51 24.7441 87.5875 24.6673 87.5875 24.5704V16.4513H89.8181L93.235 24.5704C92.8475 25.4225 92.4656 25.5926 91.9453 25.5926C91.5247 25.5926 91.08 25.4682 90.628 25.2214C90.5856 25.1994 90.5339 25.1958 90.4897 25.2086C90.4435 25.225 90.4048 25.2579 90.3863 25.3018L89.5764 27.0627C89.5377 27.1468 89.5709 27.2437 89.652 27.2876C90.497 27.7411 91.259 27.9349 92.2018 27.9349C93.9656 27.9349 94.9416 27.1194 95.7995 24.9288L99.9433 14.3165C99.9654 14.2631 99.958 14.2027 99.9248 14.1554C99.8934 14.1084 99.8399 14.0801 99.7827 14.0801H97.2957C97.2201 14.0801 97.1537 14.127 97.1297 14.1963L94.5818 21.407L91.7922 14.1916C91.7664 14.1245 91.7018 14.0801 91.6298 14.0801H87.5488V14.0795ZM82.239 14.0691H79.8497C79.7538 14.0691 79.6745 14.147 79.6745 14.2426V24.5704C79.6745 24.6673 79.7538 24.7441 79.8497 24.7441H82.239C82.3349 24.7441 82.4143 24.6673 82.4143 24.5704V14.2433C82.4143 14.1477 82.3368 14.0698 82.239 14.0698V14.0691ZM81.0582 9.36625C80.1117 9.36625 79.3442 10.1255 79.3442 11.0633C79.3442 12.0017 80.1117 12.7619 81.0582 12.7619C82.0047 12.7619 82.7703 12.0017 82.7703 11.0633C82.7703 10.1256 82.0028 9.36625 81.0582 9.36625ZM101.984 17.3899C101.039 17.3899 100.303 16.6375 100.303 15.7237C100.303 14.81 101.048 14.049 101.993 14.049C102.938 14.049 103.674 14.8012 103.674 15.7142C103.674 16.6279 102.928 17.3899 101.984 17.3899ZM101.993 14.2146C101.131 14.2146 100.48 14.893 100.48 15.7237C100.48 16.5541 101.128 17.2233 101.984 17.2233C102.845 17.2233 103.497 16.5455 103.497 15.7142C103.497 14.8839 102.849 14.2146 101.993 14.2146ZM102.366 15.8856L102.842 16.5453H102.439L102.011 15.94H101.644V16.5453H101.309V14.7965H102.094C102.506 14.7965 102.775 15.0044 102.775 15.3544C102.777 15.6411 102.609 15.8163 102.368 15.8856H102.366ZM102.082 15.0965H101.644V15.6497H102.082C102.299 15.6497 102.43 15.5438 102.43 15.3728C102.43 15.1929 102.299 15.0965 102.082 15.0965Z" fill="#808082"/>
</g>
<defs>
<clipPath id="clip0_124_1867">
<rect width="103" height="35" fill="white" transform="translate(0.592773 0.0791645)"/>
</clipPath>
</defs>
</svg>
