<svg width="684" height="458" viewBox="0 0 684 458" fill="none" xmlns="http://www.w3.org/2000/svg">
<path fill-rule="evenodd" clip-rule="evenodd" d="M425.883 451.074C312.169 483.684 -0.237236 399.689 0.000549316 207.269C0.594708 83.0421 112.878 51.934 228.665 115.642C262.737 129.23 289.637 125.019 318.843 111.518C348.05 98.0176 385.612 37.7466 456.407 25.3473C669.451 -11.9663 851.739 328.95 425.883 451.074Z" fill="#1CBA6D"/>
<path d="M163.095 293.696L162.725 294.384C161.12 297.448 161.989 288.984 165.57 284.743C168.713 281.023 172.051 277.407 175.695 274.189C179.039 271.235 182.776 268.664 186.577 266.307C190.685 263.761 194.971 261.449 199.356 259.416C204.221 257.161 209.192 255.046 214.287 253.393C221.492 251.056 228.816 249.046 236.172 247.23C238.101 246.754 238.316 246.064 238.378 244.593L238.396 244.073C238.528 239.532 238.883 234.975 239.519 230.477C240.375 224.424 243.021 219.152 247.634 215.044C251.628 211.487 255.948 208.392 260.762 205.966C269.322 201.652 278.312 198.501 287.662 196.638C296.434 194.89 305.335 193.759 314.209 192.57C316.905 192.209 319.698 192.498 322.443 192.603C324.229 192.671 324.996 192.052 325.36 190.212L325.803 187.982C326.25 185.752 326.723 183.526 327.332 181.34C330.155 171.209 332.379 161.002 331.592 150.386C331.091 143.632 330.689 136.86 329.864 130.142C329.292 125.483 328.242 120.881 327.316 116.266L327.043 114.881C326.836 113.813 326.37 113.777 325.591 114.411L325.483 114.502C322.698 116.894 318.864 115.779 317.851 112.168C317.241 109.994 316.94 107.57 318.659 105.726C319.486 104.838 320.871 104.023 322.034 103.977C326.666 103.794 331.328 103.669 335.944 104.007C342.158 104.462 348.348 105.296 354.533 106.093C360.318 106.838 366.099 107.649 371.85 108.622C375.153 109.182 378.388 110.141 381.663 110.883C384.49 111.523 387.32 112.165 390.175 112.651C390.545 112.714 391.369 111.915 391.48 111.405C392.203 108.071 392.821 104.713 393.504 101.37L394.031 98.8659C394.202 98.081 394.161 96.6622 395.733 97.0557C397.134 97.4062 397.483 98.1885 397.111 99.6695C396.317 102.827 395.672 106.022 394.993 109.209L394.581 111.119C394.104 113.292 394.849 114.143 397.676 114.668L397.923 114.713C399.36 114.96 400.796 115.235 402.216 115.57L403.277 115.833C404.302 116.1 404.712 115.943 404.899 114.908L404.925 114.754C405.349 111.908 405.929 109.085 406.472 106.258C406.816 104.467 407.249 102.693 407.561 100.897C407.805 99.495 406.53 98.4373 404.365 98.0753C402.76 97.8068 401.094 97.6776 399.577 97.1405C394.906 95.4858 389.982 95.185 385.178 95.0074C374.204 94.6014 367.206 94.7226 356.219 94.8075C352.447 94.8366 348.682 95.4617 344.906 95.6821C343.045 95.7907 338.359 94.802 339.208 93.2092C339.889 91.932 344.987 90.8823 345.858 89.7003C347.459 87.5257 349.267 85.4572 350.549 83.1053C351.971 80.5002 353.237 77.7134 353.971 74.852C355.313 69.6217 356.228 64.2812 357.293 58.9809C357.948 55.7246 358.802 52.4812 359.107 49.1894C359.444 45.5531 359.383 41.8623 359.217 38.208C359.167 37.1272 358.52 35.9198 357.014 35.5198C354.978 34.9787 354.718 33.5687 354.742 30.3846C354.752 29.0912 356.531 27.6895 358.15 27.5529C365.819 26.9061 353.462 27.3751 361.066 28.3396C367.109 29.106 389.115 30.158 395.134 31.0995C395.518 31.1596 395.876 31.3736 396.253 31.4937C397.826 31.995 403.435 32.9528 404.728 33.2767L404.865 33.3128C407.842 34.1452 410.905 34.6623 413.909 35.4074C419.167 36.7116 424.406 38.0902 429.652 39.4409C429.842 39.49 430.023 39.5767 430.211 39.6413C437.584 42.1852 445.002 44.6114 452.31 47.3314C455.123 48.3782 457.831 49.8851 460.302 51.5938C461.496 52.4194 462.053 54.1844 462.861 55.5456C464.848 58.889 467.064 62.1257 468.732 65.6227C471.442 71.3042 472.454 77.2696 471.235 83.6297L470.772 86.0276C469.725 91.3507 468.529 96.6227 466.267 101.567C464.388 105.674 462.287 109.738 459.776 113.48C457.906 116.265 454.861 117.649 451.245 116.016C446.708 113.967 442.11 112.049 437.504 110.156C430.582 107.309 423.642 104.504 416.682 101.749C415.441 101.258 414.12 100.941 412.803 100.671L412.239 100.558C411.415 100.395 410.73 100.302 410.496 101.741C409.742 106.394 408.714 111.005 407.659 115.603C407.385 116.797 407.856 117.154 408.78 117.382C409.76 117.624 410.786 117.724 411.731 118.058L422.021 121.692C444.683 129.737 488.146 145.555 495.148 152.23C505.214 161.826 514.339 223.449 489.767 253.393C474.786 271.649 473.894 264.555 473.147 264.711C510.378 245.905 439.222 190.308 443.528 191.045C451.252 192.367 454.675 197.86 456.643 204.333C459.099 212.41 461.047 220.67 462.697 228.955C464.421 237.614 469.045 265.514 469.863 270.748C470.465 274.602 470.562 278.532 471.046 282.408C471.684 287.514 472.744 292.58 473.14 297.701C473.579 303.363 473.833 309.067 473.699 314.742L473.658 316.16C473.531 319.754 472.404 329.507 467.057 344.586C462.028 358.753 442.627 383.401 437.897 391.769C437.593 392.308 434.445 394.316 433.637 392.807C433.103 391.81 206.068 433.145 163.095 293.696Z" fill="white"/>
<path fill-rule="evenodd" clip-rule="evenodd" d="M414.714 0.20612C412.885 -0.447662 410.872 0.505447 410.218 2.33495C410.141 2.55155 410.085 2.77522 410.051 3.00275L406.124 29.4822L406.114 29.5986C406.098 30.099 406.46 30.5429 406.967 30.6181C407.513 30.6991 411.12 2.21275 411.12 2.21275L411.149 2.06692C411.149 2.06692 412.741 0.756557 414.129 1.09328C415.333 1.38538 416.578 3.11505 416.328 4.35427C416.328 4.35427 411.226 29.5841 410.584 34.6518C410.427 34.618 410.27 34.5843 410.113 34.5507L410.112 34.5506C408.353 34.1733 406.595 33.7961 404.865 33.3125L404.728 33.2764C404.236 33.1531 403.119 32.938 401.837 32.6912L401.836 32.6911L401.836 32.691L401.836 32.691L401.835 32.6909L401.835 32.6908C399.749 32.2892 397.227 31.8038 396.253 31.4934C396.109 31.4475 395.967 31.3879 395.826 31.3284C395.599 31.2322 395.371 31.1363 395.134 31.0992C393.458 30.837 391.782 30.5661 390.106 30.2953L390.105 30.2952L390.105 30.2951L390.104 30.295L390.103 30.2949L390.103 30.2948L390.102 30.2947L390.102 30.2946C385.763 29.5933 381.424 28.892 377.066 28.3393C369.462 27.3748 361.819 26.9057 354.15 27.5526C352.53 27.6892 350.752 29.0909 350.742 30.3843C350.718 33.5684 350.978 34.9784 353.014 35.5195C354.52 35.9195 355.167 37.1269 355.217 38.2077C355.383 41.862 355.444 45.5528 355.107 49.1891C354.883 51.605 354.363 53.9949 353.844 56.3829L353.843 56.387C353.655 57.2514 353.467 58.1156 353.293 58.9806C353.017 60.3573 352.75 61.7366 352.483 63.116L352.482 63.1219C351.723 67.0515 350.964 70.9818 349.971 74.8517C349.237 77.7131 347.97 80.4999 346.549 83.1049C345.625 84.8005 344.427 86.3487 343.231 87.8956L343.229 87.8981C342.766 88.4961 342.304 89.0939 341.858 89.7C341.546 90.1228 341.206 90.5286 340.866 90.934C340.255 91.662 339.645 92.3885 339.208 93.2089C338.359 94.8017 339.045 95.7904 340.906 95.6818C342.435 95.5926 343.961 95.4371 345.487 95.2816L345.487 95.2816C347.731 95.053 349.974 94.8245 352.219 94.8072L354.339 94.7905C364.621 94.7089 374.91 94.6272 385.178 95.007C389.982 95.1847 394.906 95.4855 399.577 97.1402C400.705 97.5396 401.915 97.7134 403.122 97.8867C403.538 97.9465 403.954 98.0062 404.365 98.075C406.53 98.437 407.805 99.4947 407.561 100.896C407.381 101.93 407.162 102.956 406.942 103.983C406.78 104.74 406.618 105.498 406.472 106.258C406.436 106.446 406.4 106.633 406.364 106.821C406.295 107.178 406.225 107.535 406.156 107.892C405.711 110.174 405.267 112.456 404.925 114.753L404.899 114.907C404.712 115.942 404.302 116.099 403.277 115.833L402.216 115.57C400.796 115.235 399.36 114.96 397.923 114.712L397.676 114.668C394.849 114.143 394.104 113.292 394.581 111.119L394.993 109.208C395.116 108.631 395.238 108.053 395.36 107.475C395.91 104.865 396.461 102.255 397.111 99.6692C397.483 98.1882 397.134 97.4059 395.733 97.0554C394.384 96.7176 394.223 97.715 394.096 98.5007C394.075 98.6304 394.055 98.7544 394.031 98.8656L393.504 101.37C393.242 102.65 392.99 103.932 392.738 105.214C392.332 107.281 391.926 109.347 391.479 111.405C391.369 111.914 390.545 112.714 390.175 112.651C387.34 112.168 384.529 111.531 381.72 110.896L381.72 110.896L381.663 110.883C380.505 110.621 379.353 110.331 378.201 110.042C376.093 109.513 373.986 108.984 371.85 108.622C366.099 107.649 360.318 106.838 354.532 106.092C353.994 106.023 353.455 105.953 352.915 105.883C347.269 105.153 341.617 104.422 335.944 104.007C331.328 103.669 326.666 103.794 322.034 103.977C320.87 104.023 319.486 104.838 318.659 105.725C316.94 107.57 317.241 109.994 317.851 112.168C318.864 115.778 322.698 116.894 325.483 114.502L325.591 114.411C326.37 113.777 326.836 113.813 327.043 114.881L327.316 116.266C327.508 117.221 327.704 118.175 327.901 119.129C328.656 122.787 329.411 126.446 329.864 130.142C330.532 135.581 330.922 141.056 331.313 146.528L331.313 146.529L331.313 146.53L331.313 146.531L331.313 146.532L331.313 146.532L331.313 146.533L331.313 146.534L331.315 146.557C331.406 147.834 331.497 149.11 331.592 150.386C332.378 161.001 330.155 171.208 327.332 181.34C326.723 183.526 326.25 185.752 325.803 187.982L325.36 190.212C324.996 192.052 324.229 192.671 322.443 192.603C321.84 192.579 321.235 192.548 320.63 192.516L320.627 192.516C318.475 192.402 316.312 192.288 314.209 192.57C313.425 192.675 312.642 192.779 311.858 192.884L311.858 192.884C303.764 193.963 295.659 195.044 287.662 196.637C278.312 198.5 269.322 201.651 260.762 205.966C255.948 208.392 251.628 211.486 247.634 215.043C243.021 219.152 240.375 224.424 239.519 230.477C238.883 234.975 238.528 239.532 238.396 244.072L238.378 244.592C238.316 246.063 238.101 246.754 236.172 247.23C228.816 249.045 221.492 251.056 214.286 253.393C209.192 255.046 204.221 257.161 199.356 259.416C194.971 261.449 190.685 263.76 186.577 266.307C182.776 268.664 179.039 271.235 175.695 274.189C172.051 277.407 168.713 281.022 165.57 284.743C164.607 285.884 163.839 287.331 163.264 288.776C158.976 289.532 154.768 290.806 150.8 292.521C137.78 298.147 127.045 308.026 117.891 318.831C112.867 324.761 108.247 331.01 103.626 337.26C99.8275 342.398 96.0288 347.536 92.0053 352.498C83.0869 363.496 72.8394 373.784 60.2099 380.233C51.393 384.736 41.7046 387.224 32.1079 389.678C51.3289 391.746 70.2406 382.965 85.5905 371.257C94.3136 364.603 102.217 356.992 110.124 349.377L110.124 349.377C116.13 343.592 122.139 337.805 128.511 332.435C131.071 330.278 134.239 328.054 137.489 328.874C135.801 337.589 135.474 346.675 137.598 355.296C139.723 363.916 144.433 372.054 151.535 377.415C145.013 369.588 140.677 359.973 139.133 349.918C138.21 343.907 138.295 337.619 140.41 331.915C142.525 326.21 146.866 321.149 152.606 319.081C151.409 329.05 151.025 339.233 153.071 349.064C155.118 358.896 159.764 368.411 167.364 375.005C156.748 361.729 152.101 343.889 154.897 327.146C155.354 324.416 156.033 321.635 157.664 319.395C159.296 317.154 162.076 315.557 164.814 316.029C156.936 333.087 162.855 355.326 178.183 366.254C168.684 356.832 163.152 343.387 163.952 330.057C164.21 325.744 165.193 321.283 167.957 317.954C170.721 314.625 175.631 312.787 179.573 314.589C174.036 321.684 173.725 331.512 174.948 340.416C176.025 348.258 179.254 357.216 186.895 359.384C177.175 351.408 173.935 336.554 179.457 325.279C181.445 321.219 185.148 317.311 189.675 317.567C192.882 317.749 195.612 320.01 197.534 322.573C198.438 323.778 199.219 325.068 199.999 326.357C200.879 327.812 201.759 329.266 202.814 330.597C207.334 320.77 207.655 308.316 200.912 299.848C198.511 296.834 195.356 294.475 191.949 292.663C187.456 290.273 182.564 288.855 177.537 288.28C177.776 288.101 178.017 287.922 178.257 287.744C185.899 282.083 194.327 277.736 202.82 273.569C207.805 271.122 213.05 269.172 218.273 267.26C222.955 265.546 227.725 264.035 232.532 262.711C241.15 260.336 249.959 259.004 258.877 258.343C260.761 258.203 262.639 257.983 264.516 257.763L264.518 257.763L264.518 257.763L264.519 257.763L264.52 257.763L264.521 257.763L264.521 257.763L264.522 257.763L264.523 257.762C266.527 257.528 268.532 257.293 270.543 257.156C273.274 256.97 276.011 256.845 278.747 256.721C282.957 256.53 287.166 256.338 291.354 255.922C296.027 255.458 300.67 254.681 305.311 253.905C306.904 253.638 308.497 253.372 310.09 253.118C313.603 252.559 317.102 251.916 320.699 251.256L320.701 251.256L320.706 251.255L320.707 251.255L321.847 251.046C322.277 250.973 322.688 250.925 323.086 250.878C323.647 250.813 324.181 250.75 324.701 250.627C326.044 250.31 327.387 249.994 328.73 249.679L328.749 249.674L328.751 249.674C334.112 248.414 339.473 247.155 344.808 245.792C350.865 244.245 356.894 242.582 362.898 240.839C365.315 240.137 367.715 239.372 370.114 238.607L370.115 238.607C373.003 237.686 375.89 236.766 378.808 235.956C384.32 234.425 389.009 231.422 393.642 228.265C393.962 228.047 394.302 227.408 394.199 227.121C394.028 226.645 393.546 226.023 393.118 225.957C392.449 225.854 391.54 225.938 391.038 226.332C385.542 230.64 379.137 233.105 372.585 235.04C361.435 238.332 350.224 241.454 338.938 244.235C331.847 245.982 324.67 247.383 317.495 248.783L317.487 248.784C315.509 249.17 313.531 249.557 311.554 249.95C308.053 250.647 304.511 251.154 300.974 251.661L300.467 251.734C299.293 251.902 298.118 252.079 296.943 252.256L296.943 252.256C293.15 252.827 289.355 253.399 285.541 253.689C281.778 253.975 278.005 254.143 274.233 254.31C269.536 254.52 264.84 254.729 260.164 255.165C250.562 256.061 240.924 257.115 231.638 259.875C224.222 262.079 216.792 264.386 209.656 267.34C203.775 269.774 198.108 272.736 192.449 275.694L192.448 275.695L192.447 275.695L192.446 275.696L192.445 275.696L192.444 275.697L192.443 275.697L192.442 275.698C191.262 276.315 190.083 276.931 188.902 277.542C183.266 280.461 177.915 283.871 173.078 287.989C170.941 287.95 168.792 288.054 166.653 288.29C168.625 285.701 170.825 283.285 173.066 280.913L174.132 279.79C180.658 272.94 188.662 268.17 196.992 263.959L198.509 263.199C201.385 261.773 204.373 260.573 207.362 259.374L207.363 259.374C208.843 258.779 210.324 258.185 211.791 257.563L212.855 257.12C221.03 253.783 229.564 251.734 238.177 249.835C248.575 247.542 259.076 245.95 269.598 244.471L276.364 243.529C279.619 243.078 282.888 242.712 286.156 242.345L286.156 242.345C294.047 241.46 301.938 240.575 309.652 238.501C312.859 237.639 316.071 236.799 319.284 235.959C323.195 234.937 327.106 233.914 331.006 232.852C334.768 231.827 338.526 230.75 342.204 229.464C345.096 228.452 347.943 227.312 350.791 226.173C352.012 225.684 353.233 225.195 354.458 224.716C356.56 223.894 358.672 223.093 360.783 222.291L360.785 222.291L360.785 222.291C365.544 220.485 370.302 218.679 374.958 216.638C381.016 213.982 387.001 211.158 392.986 208.333L392.991 208.331C396.078 206.874 399.165 205.417 402.262 203.983C404.144 203.112 406.057 202.279 408.02 201.618C412.1 200.241 416.196 198.911 420.292 197.58C422.096 196.994 423.901 196.408 425.704 195.818L426.799 195.461C430.636 194.22 434.52 193.097 438.589 193.255C442.78 193.419 446.89 193.904 449.879 197.618C452.371 200.714 453.673 204.292 454.728 207.954L455.01 208.955C456.33 213.728 457.349 218.591 458.338 223.448L459.412 228.724C460.661 234.881 461.881 241.044 462.904 247.239C463.375 250.085 463.648 252.964 463.922 255.842V255.843V255.843V255.843V255.844V255.844V255.844L463.922 255.846C464.164 258.384 464.405 260.922 464.781 263.44C465.031 265.117 465.502 266.76 465.974 268.404C466.381 269.825 466.789 271.246 467.055 272.692C467.35 274.299 467.462 275.938 467.575 277.578C467.65 278.684 467.726 279.79 467.858 280.888C468.091 282.822 468.36 284.751 468.629 286.681L468.629 286.682L468.629 286.683L468.629 286.684L468.629 286.684L468.629 286.685L468.63 286.686L468.63 286.687C469.053 289.728 469.477 292.768 469.759 295.822L469.837 296.674V296.674V296.674V296.675V296.675V296.675V296.675V296.676C470.447 303.264 471.051 309.794 470.128 316.531C469.462 321.395 468.374 326.126 467.286 330.859C466.901 332.534 466.516 334.208 466.149 335.89C466.096 336.134 465.925 336.352 465.754 336.57L465.753 336.571L465.739 336.59L465.696 336.645L465.662 336.689C465.614 336.752 465.568 336.814 465.527 336.878C465.523 336.826 465.518 336.775 465.512 336.723C465.508 336.686 465.503 336.649 465.498 336.611L465.487 336.532L465.479 336.469C465.437 336.175 465.396 335.882 465.444 335.603C466.656 328.466 465.685 321.445 463.708 314.641C462.575 310.739 461.076 306.944 459.578 303.149L459.578 303.148L459.577 303.147C458.883 301.388 458.189 299.629 457.531 297.86C456.892 296.141 456.248 294.424 455.604 292.708C453.841 288.008 452.077 283.307 450.416 278.572C448.067 271.879 446.957 264.945 447.243 257.847L447.25 257.654C447.383 254.101 447.421 245.888 446.688 245.902C446.136 245.912 445.204 246.717 445.122 247.269C444.717 250.005 444.44 252.77 444.298 255.533C443.918 262.906 444.665 270.105 446.898 277.226L447.157 278.053C449.5 285.531 451.838 292.994 455.233 300.226C455.303 300.413 455.371 300.595 455.437 300.775L456.37 303.324C456.798 304.484 457.242 305.637 457.686 306.79L457.687 306.792C459.488 311.467 461.286 316.133 461.998 321.199C462.882 327.483 463.461 333.664 461.814 339.906C461.605 340.696 461.706 341.565 461.807 342.437L461.807 342.438C461.857 342.871 461.907 343.305 461.919 343.73L461.929 343.939C461.931 343.97 461.933 344.001 461.935 344.033L461.941 344.12C461.97 344.557 462 345.007 461.846 345.37C460.29 349.028 438.089 383.68 434.341 388.877L433.993 389.353C433.587 389.928 433.36 390.418 433.264 390.858C426.604 394.095 419.35 395.953 412.162 397.788C427.214 399.403 442.023 392.543 454.043 383.395C460.873 378.196 467.062 372.249 473.254 366.299C477.957 361.779 482.663 357.258 487.652 353.062C489.656 351.376 492.137 349.639 494.682 350.28C493.36 357.089 493.105 364.188 494.768 370.924C496.432 377.659 500.12 384.017 505.681 388.206C500.574 382.091 497.179 374.578 495.97 366.722C495.247 362.025 495.314 357.113 496.97 352.655C498.626 348.198 502.025 344.244 506.52 342.628C505.583 350.417 505.282 358.374 506.884 366.055C508.487 373.736 512.125 381.171 518.076 386.323C509.763 375.951 506.124 362.011 508.314 348.93C508.672 346.796 509.204 344.624 510.481 342.873C511.758 341.123 513.936 339.875 516.08 340.243C509.91 353.572 514.546 370.948 526.548 379.486C519.11 372.124 514.778 361.619 515.404 351.204C515.607 347.834 516.376 344.349 518.541 341.748C520.705 339.147 524.55 337.711 527.637 339.119C523.301 344.662 523.057 352.341 524.015 359.298C524.858 365.425 527.387 372.424 533.371 374.118C525.759 367.886 523.222 356.281 527.546 347.471C529.103 344.299 532.002 341.245 535.548 341.445C538.059 341.587 540.196 343.354 541.702 345.357C542.409 346.298 543.021 347.306 543.632 348.314C544.321 349.45 545.01 350.586 545.837 351.626C549.376 343.948 549.627 334.218 544.346 327.601C542.467 325.246 539.996 323.403 537.328 321.987C527.525 316.784 515.301 317.48 505.106 321.876C494.91 326.272 486.504 333.991 479.336 342.433C475.402 347.066 471.784 351.949 468.165 356.832L468.165 356.833L468.164 356.834L468.164 356.835L468.163 356.836C465.189 360.849 462.216 364.862 459.066 368.738C453.964 375.015 448.306 380.997 441.772 385.73C443.041 383.861 444.492 381.772 446.047 379.534L446.05 379.528L446.051 379.527C453.623 368.625 463.646 354.195 467.057 344.586C472.404 329.507 473.531 319.754 473.658 316.16L473.699 314.742C473.833 309.067 473.579 303.363 473.14 297.701C472.898 294.574 472.409 291.467 471.919 288.359L471.919 288.359L471.919 288.358L471.919 288.356L471.919 288.355L471.918 288.354L471.918 288.352L471.918 288.351L471.918 288.349C471.606 286.371 471.294 284.392 471.046 282.408C470.837 280.728 470.699 279.038 470.562 277.348V277.348C470.383 275.139 470.204 272.931 469.863 270.748C469.423 267.938 468.863 265.147 468.303 262.356C467.82 259.949 467.337 257.541 466.931 255.121C466.377 251.818 465.882 248.505 465.388 245.191L465.388 245.191L465.388 245.19L465.388 245.19L465.388 245.19L465.387 245.189L465.387 245.189L465.387 245.189C464.577 239.76 463.767 234.331 462.697 228.954C461.047 220.67 459.099 212.409 456.643 204.333C454.675 197.86 451.252 192.367 443.528 191.044C439.222 190.307 435.036 190.24 430.893 191.281C420.538 193.881 410.358 197.157 400.597 201.438C395.504 203.671 390.46 206.019 385.417 208.366C375.216 213.114 365.014 217.862 354.398 221.67C352.428 222.376 350.479 223.137 348.529 223.899C346.704 224.611 344.879 225.324 343.038 225.992C341.955 226.384 340.666 226.803 339.611 226.572C337.719 226.157 335.848 225.65 333.976 225.142L333.976 225.142C331.781 224.547 329.587 223.951 327.362 223.507C324.638 222.963 321.867 222.654 319.096 222.345L319.095 222.345L319.095 222.345L319.095 222.345C318.047 222.228 316.999 222.111 315.954 221.982C315.594 221.937 315.225 221.968 314.856 222C314.685 222.014 314.514 222.029 314.344 222.036C314.408 221.849 314.459 221.652 314.509 221.454C314.618 221.029 314.726 220.604 314.976 220.291C318.774 215.526 321.315 210.06 323.735 204.558L324.364 203.122C325.436 200.674 326.198 198.088 326.959 195.505C327.25 194.52 327.54 193.536 327.847 192.559C328.327 191.033 328.747 189.485 329.113 187.927C329.435 186.553 329.752 185.177 330.067 183.8L331.948 175.539C332.185 174.507 332.455 173.479 332.726 172.451L332.726 172.45C333.296 170.283 333.866 168.116 334.123 165.913C335.116 157.389 335.019 148.812 334.192 140.288C333.327 131.363 332.401 122.408 329.875 113.762L329.826 113.584C329.458 112.152 330.087 111.977 331.086 111.868L331.592 111.816C335.523 111.177 356.295 110.061 419.384 127.143C468.391 141.341 483.348 148.121 490.694 155.719C507.349 177.089 510.378 245.904 473.147 264.71C473.255 264.688 473.366 264.818 473.523 265.001C474.449 266.079 476.958 269.002 489.767 253.393C514.339 223.448 505.214 161.826 495.148 152.229C488.146 145.555 444.683 129.737 422.021 121.692L411.731 118.058C411.142 117.85 410.522 117.733 409.901 117.615C409.525 117.544 409.149 117.473 408.78 117.382C407.856 117.154 407.385 116.797 407.659 115.602C408.714 111.005 409.742 106.393 410.496 101.741C410.73 100.302 411.415 100.395 412.239 100.557L412.803 100.671C414.12 100.941 415.441 101.258 416.682 101.749C423.642 104.504 430.582 107.309 437.504 110.155C442.109 112.049 446.708 113.967 451.245 116.016C454.861 117.648 457.906 116.265 459.776 113.479C462.287 109.738 464.388 105.674 466.267 101.567C468.529 96.6224 469.725 91.3504 470.772 86.0273L471.235 83.6294C472.454 77.2693 471.442 71.3039 468.732 65.6224C467.554 63.1523 466.103 60.8121 464.651 58.4724L464.65 58.4694L464.648 58.4669C464.046 57.4961 463.444 56.5253 462.861 55.5453C462.626 55.1498 462.413 54.7202 462.198 54.2894L462.198 54.2888L462.198 54.2877C461.675 53.2366 461.148 52.1789 460.302 51.5935C457.831 49.8848 455.123 48.3778 452.31 47.3311C447.093 45.3893 441.82 43.5973 436.547 41.8052L436.547 41.8051C434.433 41.0869 432.32 40.3688 430.21 39.641C430.141 39.6169 430.072 39.5899 430.003 39.5628C429.887 39.5171 429.771 39.4714 429.652 39.4406C428.222 39.0725 426.793 38.7024 425.364 38.3322C421.549 37.3441 417.734 36.3559 413.909 35.4071C413.171 35.2239 412.428 35.0545 411.685 34.8908C411.701 34.8452 411.715 34.7979 411.724 34.749L417.64 5.38374L417.678 5.16965C418.005 3.02994 416.772 0.941299 414.714 0.20612ZM162.503 294.758C162.257 295.113 162.092 295.113 162.011 294.853C150.691 297.087 140.339 303.261 131.712 310.931C122.244 319.349 114.602 329.549 107.021 339.668L107.02 339.669L106.949 339.763C99.3443 349.914 91.6527 360.133 82.1079 368.524C82.4512 369.336 83.691 368.922 84.3949 368.384C92.5232 362.172 99.7611 354.951 107.004 347.725L107.004 347.725L107.005 347.724C111.844 342.896 116.686 338.066 121.797 333.533C134.557 322.216 149.868 312.465 166.957 311.278C172.259 310.91 177.585 311.38 182.857 312.052C186.036 312.457 189.243 312.945 192.203 314.163C196.778 316.046 200.583 319.696 202.631 324.163C203.829 321.057 204.506 317.658 203.855 314.397C203.289 311.556 201.748 308.987 199.912 306.734C193.285 298.603 182.731 294.353 172.115 294.004C171.993 294.237 171.878 294.476 171.771 294.722C171.603 295.11 171.097 295.351 170.591 295.592C170.357 295.704 170.124 295.815 169.923 295.941C169.841 295.625 169.711 295.288 169.581 294.952C169.456 294.63 169.332 294.309 169.249 294.005C167.981 294.047 166.718 294.145 165.465 294.299C164.471 294.422 163.484 294.575 162.503 294.758ZM321.383 114.139C323.384 114.867 324.983 112.645 325.712 110.643C326.44 108.642 325.121 106.188 323.12 105.459C321.119 104.731 319.365 106.243 318.636 108.244C317.908 110.246 319.381 113.41 321.383 114.139ZM343.925 91.8447C343.759 92.028 343.646 92.2592 343.533 92.4905C343.481 92.5967 343.429 92.7028 343.372 92.8043C343.479 92.8087 343.587 92.8178 343.695 92.8269C343.931 92.8468 344.168 92.8668 344.398 92.8375C344.768 92.7905 345.137 92.7249 345.505 92.6593L345.506 92.6591L345.506 92.6591C346.045 92.5631 346.584 92.4672 347.127 92.4297C358.337 91.6549 369.545 91.3351 380.788 91.8896C387.874 92.2391 394.894 92.9883 401.752 94.6749C408.196 96.2597 414.548 98.2637 420.855 100.345C424.352 101.499 427.761 102.934 431.164 104.367L431.169 104.369C431.853 104.658 432.538 104.946 433.222 105.231C436.904 106.768 440.548 108.398 444.174 110.061C445.706 110.763 447.196 111.559 448.685 112.354L448.685 112.354L448.687 112.355L448.688 112.356L448.722 112.374C448.952 112.496 449.181 112.619 449.41 112.741C449.52 112.799 449.629 112.857 449.738 112.915C452.663 114.465 456.001 113.984 457.589 111.386C459.588 108.117 461.452 104.734 463.026 101.244C465.786 95.1197 467.313 88.6072 468.391 81.9931C468.944 78.6027 468.973 75.1724 467.69 71.9747C466.177 68.205 464.418 64.5193 462.53 60.9211C461.591 59.1319 460.378 57.2986 458.826 56.0722C457.47 55.0009 455.718 54.3693 454.01 53.7894L453.226 53.524C443.957 50.3706 434.673 47.2593 425.365 44.2236C422.012 43.1302 418.608 42.1554 415.172 41.3657C409.843 40.1408 404.481 39.0424 399.105 38.0373C394.209 37.1218 389.293 36.2776 384.356 35.6275C378.304 34.8305 372.227 34.2125 366.15 33.6308C363.993 33.4243 361.815 33.4145 359.642 33.4047C359.307 33.4032 358.972 33.4016 358.637 33.3994L358.497 33.394C358.462 33.3918 358.426 33.3892 358.39 33.3862L358.303 33.3791C357.679 33.3269 356.899 33.2616 357.241 34.371L357.291 34.5192C359.345 40.1671 358.753 45.9684 357.989 51.6845C357.566 54.8495 356.897 57.9804 356.227 61.1125C355.905 62.6156 355.584 64.1191 355.29 65.6266L355.026 67.0226C353.943 72.9706 352.178 78.6946 349.582 84.1427C349.126 85.0984 348.537 85.9903 347.901 86.9521L347.901 86.9524L347.901 86.9526C347.468 87.607 347.014 88.2938 346.567 89.0551L344.796 90.9058C344.502 91.2161 344.212 91.5284 343.925 91.8447ZM323.054 197.614C323.736 195.877 323.241 195.148 321.383 195.161C320.881 195.164 320.379 195.164 319.876 195.164C317.691 195.165 315.5 195.166 313.344 195.429C310.934 195.723 308.538 196.125 306.142 196.528L306.141 196.528C304.118 196.868 302.095 197.208 300.064 197.482C290.711 198.747 281.539 200.725 272.714 204.136L271.376 204.659C263.144 207.914 255.315 211.77 248.89 218.224C245.377 221.753 243.424 225.95 242.539 230.512C241.988 233.36 241.854 236.284 241.72 239.213C241.635 241.081 241.549 242.952 241.355 244.805C241.206 246.223 241.759 246.108 242.459 245.962L242.46 245.962C242.527 245.948 242.595 245.934 242.664 245.92L242.753 245.904C245.08 245.502 247.406 245.091 249.732 244.68C254.55 243.828 259.367 242.977 264.197 242.202C267.432 241.683 270.686 241.278 273.941 240.89L277.848 240.425C277.931 240.415 278.012 240.408 278.088 240.4C278.656 240.345 278.996 240.312 278.657 239.556L278.599 239.433C276.588 235.355 277.162 231.122 278.297 227.022C279.303 223.387 280.694 219.839 282.159 216.355C283.366 213.487 285.026 210.71 287.834 209.201C291.76 207.091 295.801 205.12 299.965 203.544C305.592 201.414 311.578 200.836 317.527 200.262C317.843 200.231 318.159 200.201 318.474 200.17C318.975 200.121 319.52 200.533 320.066 200.944C320.319 201.134 320.572 201.325 320.82 201.47C320.637 201.615 320.458 201.767 320.278 201.918C319.842 202.285 319.405 202.652 318.921 202.94C318.708 203.067 318.418 203.061 318.124 203.054C317.967 203.05 317.809 203.047 317.661 203.064L316.149 203.242C308.09 204.22 300.152 205.695 292.884 209.602C291.094 210.564 289.155 211.693 287.987 213.266C286.061 215.859 284.563 218.808 283.165 221.74C282.662 222.796 282.374 223.951 282.085 225.109C281.932 225.723 281.778 226.337 281.592 226.939L281.422 227.456C280.389 230.411 280.228 233.417 280.709 236.463C281.093 238.897 282.519 240.122 284.323 239.816C285.787 239.567 287.253 239.329 288.72 239.091L288.722 239.091C290.71 238.769 292.698 238.447 294.681 238.096C296.19 237.829 297.701 237.572 299.212 237.315C303.467 236.593 307.723 235.87 311.926 234.919C317.477 233.662 322.989 232.232 328.501 230.802L328.501 230.802L328.502 230.801L328.502 230.801L328.503 230.801L328.503 230.801L328.504 230.801L328.504 230.801C330.646 230.245 332.787 229.69 334.93 229.144C335.115 229.097 335.283 228.983 335.451 228.869C335.529 228.815 335.608 228.762 335.688 228.716C335.63 228.637 335.576 228.543 335.523 228.448C335.407 228.243 335.29 228.038 335.128 227.991C334.318 227.754 333.487 227.582 332.658 227.41L332.394 227.356L332.178 227.311C331.265 227.119 330.355 226.91 329.444 226.701L329.442 226.701L329.442 226.701C327.344 226.219 325.245 225.738 323.12 225.468C318.117 224.831 313.084 224.376 308.051 224.031L306.091 223.901C299.559 223.49 293.041 223.378 286.684 225.653L285.985 225.922C285.165 226.222 284.153 226.433 283.776 225.221C283.37 223.913 284.626 223.271 285.703 222.798C285.917 222.704 286.146 222.641 286.375 222.581L286.604 222.522C293.338 220.747 300.139 220.349 307.029 221.243L307.795 221.347C309.219 221.552 310.697 221.452 311.618 219.868C312.758 217.906 313.916 215.953 315.094 213.968C316.467 211.652 317.867 209.292 319.297 206.818C319.668 205.913 320.041 205.01 320.414 204.107L320.416 204.103C321.308 201.945 322.2 199.787 323.054 197.614ZM414.301 37.6667C410.523 36.7821 406.727 35.9716 402.928 35.1768L400.078 34.5828C399.182 34.3964 398.287 34.2059 397.391 34.0154L397.389 34.015L397.387 34.0146L397.385 34.0141L397.383 34.0137L397.381 34.0133L397.379 34.0129C394.042 33.3035 390.704 32.5937 387.336 32.0866C382.274 31.3241 377.177 30.693 372.073 30.3324C368.43 30.0751 364.771 30.0404 361.114 30.0057L361.113 30.0057L361.113 30.0057L361.112 30.0057L361.112 30.0057L361.112 30.0057L361.111 30.0057L361.111 30.0057C359.819 29.9934 358.528 29.9812 357.237 29.9592C357.025 29.9555 356.81 30.0936 356.595 30.2316C356.495 30.2958 356.395 30.36 356.295 30.41C356.399 30.4638 356.501 30.5312 356.604 30.5987C356.826 30.7445 357.049 30.8904 357.276 30.8985C358.097 30.928 358.92 30.9272 359.742 30.9265C361.06 30.9253 362.377 30.9241 363.682 31.0468C369.695 31.6119 375.703 32.248 381.701 32.9622C385.581 33.4243 389.455 33.9784 393.302 34.6625C396.228 35.1829 399.141 35.7776 402.051 36.3883L406.414 37.3089C410.302 38.1267 414.19 38.9461 418.052 39.8714C421.099 40.6013 424.122 41.4386 427.127 42.3258C431.964 43.7537 436.798 45.1958 441.591 46.7586C443.77 47.4689 445.92 48.2673 448.069 49.0657C449.281 49.5156 450.492 49.9656 451.709 50.3998C451.87 50.4571 452.065 50.4175 452.26 50.378C452.35 50.3596 452.441 50.3413 452.528 50.3326C452.477 50.2652 452.431 50.1871 452.384 50.1091C452.284 49.9412 452.183 49.7732 452.038 49.7116C451.315 49.4052 450.595 49.0912 449.874 48.7772C447.797 47.872 445.719 46.9665 443.58 46.2397C441.974 45.6938 440.324 45.28 438.673 44.866C437.408 44.5489 436.143 44.2317 434.897 43.855C432.181 43.0336 429.487 42.1379 426.641 41.1917L426.641 41.1916L426.64 41.1913C425.637 40.8579 424.615 40.5181 423.567 40.1732C422.612 39.9125 421.659 39.6431 420.706 39.3736L420.706 39.3735C418.578 38.7719 416.451 38.1702 414.301 37.6667ZM429.441 250.563C428.338 252.766 427.222 254.994 426.091 257.276C425.886 257.685 425.682 258.059 425.488 258.417L425.487 258.417C425.196 258.952 424.925 259.45 424.702 259.968C423.81 262.032 422.931 264.102 422.051 266.171L422.049 266.177C421.008 268.626 419.967 271.076 418.906 273.516C417.473 276.813 416.01 280.098 414.481 283.351C412.205 288.192 409.885 293.013 407.533 297.817C405.527 301.915 403.475 305.99 401.396 310.051C399.095 314.544 396.774 319.028 394.398 323.481C391.441 329.025 388.473 334.564 385.41 340.05C383.36 343.722 381.249 347.36 379.139 350.998L379.138 351.001L379.136 351.003L379.135 351.006L379.133 351.008L379.132 351.01L379.131 351.013C378.173 352.664 377.215 354.315 376.263 355.969C375.423 357.43 374.586 358.892 373.749 360.354C371.917 363.553 370.086 366.753 368.219 369.932C367.966 370.362 367.715 370.792 367.464 371.224C367.307 371.493 367.151 371.762 366.994 372.032L366.99 372.039L366.99 372.04L366.989 372.041L366.989 372.041L366.988 372.042L366.988 372.043L366.987 372.043C365.272 374.997 363.554 377.953 361.605 380.745C360.376 382.504 358.962 384.132 357.547 385.761L357.546 385.762L357.545 385.763C356.636 386.809 355.727 387.856 354.866 388.939C354.494 389.406 354.346 390.738 354.543 390.846C354.6 390.877 354.658 390.91 354.716 390.944L354.807 390.999L354.808 390.999C355.415 391.363 356.091 391.767 356.891 390.801C357.698 389.825 358.588 388.911 359.478 387.999C360.769 386.674 362.058 385.351 363.084 383.846C365.6 380.158 367.867 376.297 370.131 372.44L370.14 372.425C370.611 371.622 371.083 370.82 371.556 370.019C373.054 367.485 374.515 364.929 375.976 362.373L375.978 362.369L375.98 362.365L375.983 362.361L375.985 362.357L375.987 362.353L375.99 362.349C377.19 360.25 378.39 358.15 379.61 356.063C380.576 354.411 381.57 352.776 382.564 351.141C383.573 349.481 384.582 347.821 385.562 346.144C387.706 342.474 389.824 338.786 391.863 335.055C392.694 333.535 393.471 331.985 394.249 330.435L394.25 330.433C394.918 329.1 395.587 327.767 396.29 326.453C397.171 324.805 398.078 323.171 398.985 321.538L398.988 321.533L398.989 321.531C400.183 319.382 401.377 317.232 402.51 315.051C403.489 313.167 404.402 311.25 405.315 309.332L405.316 309.329C406.072 307.744 406.827 306.158 407.619 304.59C408.58 302.69 409.572 300.804 410.563 298.918L410.564 298.916L410.565 298.915L410.566 298.913L410.567 298.911L410.568 298.909L410.569 298.907L410.57 298.905L410.57 298.904L410.571 298.902L410.572 298.901L410.573 298.9L410.573 298.898C411.958 296.264 413.343 293.629 414.646 290.954C416.638 286.863 418.487 282.701 420.335 278.54C420.542 278.073 420.75 277.605 420.958 277.138C421.861 275.107 422.735 273.063 423.61 271.02C424.512 268.91 425.414 266.801 426.348 264.706C428.356 260.202 430.386 255.705 432.516 251.257C433.646 248.897 434.835 246.565 436.024 244.232L436.025 244.231L436.025 244.23L436.026 244.228L436.027 244.227L436.027 244.226L436.028 244.224C436.88 242.553 437.732 240.881 438.563 239.199C439.535 237.23 440.486 235.25 441.438 233.27L441.438 233.268L441.439 233.267L441.439 233.267L441.439 233.266L441.44 233.265L441.44 233.264L441.441 233.264C443.214 229.572 444.988 225.881 446.897 222.26C447.298 221.498 447.681 220.722 448.063 219.944L448.064 219.943L448.064 219.942C449.49 217.044 450.924 214.131 453.415 211.874C453.913 211.424 454.012 210.357 453.98 209.589C453.968 209.295 453.031 208.762 452.59 208.83C452.001 208.921 451.305 209.369 450.967 209.873C449.946 211.401 448.968 212.958 447.989 214.515L447.989 214.515L447.989 214.515L447.989 214.516L447.989 214.516L447.988 214.516L447.988 214.516L447.987 214.518C447.319 215.582 446.65 216.646 445.968 217.701C441.858 224.054 438.701 230.889 435.689 237.804C434.834 239.768 433.874 241.687 432.915 243.606L432.915 243.607C432.707 244.023 432.499 244.438 432.292 244.855C431.349 246.753 430.4 248.649 429.441 250.563ZM414.976 233.108C414.071 237.426 413.142 241.625 412.129 245.804C411.743 247.4 411.26 248.974 410.777 250.547L410.773 250.56C410.672 250.891 410.57 251.222 410.469 251.553C410.413 251.741 410.356 251.928 410.299 252.115L410.191 252.476L410.095 252.793L409.933 253.335L409.932 253.336C409.31 255.41 408.687 257.485 407.979 259.529C404.452 269.702 400.883 279.859 397.312 290.016C396.618 291.993 395.895 293.96 395.173 295.927C394.841 296.83 394.509 297.733 394.18 298.637C393.623 300.167 393.085 301.704 392.546 303.24L392.545 303.241C391.322 306.731 390.098 310.22 388.667 313.623C387.02 317.537 385.161 321.363 383.303 325.189L383.303 325.191C382.65 326.534 381.998 327.876 381.355 329.223C379.74 332.606 378.09 335.974 376.414 339.328C375.419 341.317 374.412 343.3 373.404 345.283L373.401 345.288C371.885 348.27 370.369 351.253 368.899 354.258C368.201 355.685 367.562 357.141 366.923 358.596C366.169 360.314 365.415 362.031 364.565 363.699C362.945 366.878 361.168 369.977 359.392 373.074C359.204 373.403 359.015 373.731 358.828 374.059C356.939 377.357 355.023 380.641 353.017 383.868C352.083 385.371 350.964 386.772 349.812 388.119C349.543 388.433 349.105 388.603 348.667 388.773C348.467 388.851 348.266 388.928 348.082 389.02C348.046 388.795 347.978 388.554 347.91 388.314C347.762 387.79 347.614 387.267 347.792 386.903C348.833 384.773 350.053 382.727 351.274 380.69C352.027 379.432 352.805 378.189 353.582 376.946C354.914 374.817 356.245 372.689 357.454 370.493C359.981 365.9 362.334 361.209 364.666 356.512C365.432 354.968 366.134 353.393 366.836 351.818L366.837 351.817L366.837 351.815L366.838 351.814L366.839 351.813L366.839 351.812L366.84 351.811L366.84 351.81L366.84 351.809L366.841 351.808L366.841 351.807C367.494 350.342 368.147 348.876 368.852 347.436C369.922 345.251 371.036 343.089 372.15 340.926C373.006 339.266 373.861 337.606 374.696 335.935C374.999 335.329 375.304 334.724 375.608 334.118L375.608 334.118C377.019 331.314 378.43 328.509 379.689 325.638C382.727 318.709 385.671 311.738 388.561 304.747C389.257 303.062 389.863 301.341 390.47 299.619C390.931 298.31 391.392 297 391.893 295.707C392.302 294.651 392.763 293.616 393.223 292.581L393.224 292.58C393.691 291.531 394.158 290.481 394.571 289.411C395.797 286.23 396.962 283.023 398.069 279.798C398.399 278.836 398.669 277.853 398.938 276.869C399.185 275.969 399.432 275.068 399.726 274.184C400.11 273.028 400.535 271.885 400.961 270.743C401.349 269.7 401.738 268.656 402.095 267.602C402.344 266.867 402.594 266.132 402.844 265.397L402.85 265.381L402.855 265.365C404.031 261.913 405.207 258.46 406.254 254.969C407.651 250.309 409.047 245.633 410.091 240.887C410.819 237.579 411.423 234.245 412.026 230.911L412.027 230.911L412.027 230.91L412.027 230.91L412.027 230.909L412.027 230.906C412.584 227.835 413.14 224.763 413.793 221.712C414.772 217.137 415.495 212.613 414.753 207.922C414.698 207.57 415.187 207.132 415.676 206.694C415.903 206.491 416.129 206.288 416.302 206.094C416.465 206.309 416.661 206.519 416.857 206.728C417.281 207.183 417.706 207.637 417.8 208.152C418.493 211.939 418.184 215.74 417.495 219.504C417.182 221.21 416.86 222.914 416.536 224.625L416.536 224.628C416.006 227.427 415.474 230.242 414.976 233.108ZM546.327 338.52C546.834 341.069 546.306 343.728 545.373 346.156C543.779 342.663 540.814 339.809 537.251 338.337C534.946 337.384 532.448 337.003 529.972 336.686C525.866 336.161 521.717 335.793 517.588 336.081C504.278 337.009 492.352 344.633 482.414 353.482C478.433 357.027 474.662 360.804 470.892 364.58L470.892 364.58C465.251 370.23 459.613 375.876 453.283 380.734C452.734 381.154 451.769 381.478 451.501 380.843C458.936 374.281 464.926 366.291 470.85 358.354L470.905 358.281C476.81 350.368 482.762 342.392 490.136 335.81C497.534 329.207 506.559 324.023 516.425 322.805C526.291 321.587 537.012 324.837 543.256 332.528C544.686 334.29 545.885 336.299 546.327 338.52ZM318.613 353.563C317.892 365.546 322.878 377.632 331.439 386.103C317.625 376.279 312.29 356.287 319.39 340.953C316.923 340.528 314.417 341.964 312.947 343.978C311.477 345.992 310.864 348.492 310.453 350.946C307.932 365.997 312.121 382.035 321.689 393.969C314.839 388.042 310.651 379.488 308.807 370.65C306.963 361.812 307.309 352.658 308.388 343.696C303.214 345.556 299.303 350.105 297.396 355.233C295.49 360.361 295.414 366.014 296.245 371.418C297.637 380.456 301.545 389.1 307.422 396.135C301.022 391.316 296.777 384.001 294.862 376.251C292.948 368.502 293.242 360.335 294.763 352.5C291.834 351.763 288.979 353.762 286.672 355.701C280.93 360.528 275.514 365.73 270.101 370.93L270.101 370.93L270.101 370.931L270.1 370.931C263.03 377.722 255.963 384.51 248.175 390.458C249.319 390.26 250.473 390.243 251.606 390.531C252.752 390.822 253.717 391.399 254.664 391.966L254.806 392.051C271.02 401.732 292.046 406.824 312.796 406.092C318.32 405.898 323.923 405.282 328.886 403.465C330.147 403.003 332.22 402.737 332.463 403.768C332.5 403.924 332.291 404.106 331.87 404.304C344.085 401.804 355.842 398.056 366.68 393.167C369.354 391.962 372.46 390.637 375.417 391.388C376.563 391.679 377.528 392.256 378.475 392.823L378.617 392.908C392.967 401.476 411.087 406.449 429.448 406.973C429.458 406.97 429.467 406.969 429.476 406.967C429.49 406.964 429.504 406.962 429.518 406.96C429.547 406.956 429.576 406.953 429.607 406.952C437.041 406.642 444.438 405.873 451.705 404.667C452.039 404.557 452.369 404.442 452.698 404.322C453.543 404.012 454.752 403.791 455.531 403.989C468.733 401.502 481.445 397.565 493.095 392.31C495.769 391.105 498.875 389.78 501.832 390.531C502.978 390.822 503.943 391.399 504.89 391.966L505.032 392.051C521.246 401.732 542.272 406.824 563.022 406.092C568.546 405.898 574.149 405.282 579.112 403.465C580.373 403.003 582.446 402.737 582.689 403.768C583.063 405.358 557.87 409.633 543.012 407.657C533.477 406.388 526.697 404.955 520.011 403.542L520.01 403.542C516.278 402.753 512.575 401.97 508.437 401.225C505.681 400.729 502.888 400.271 500.053 400.237C496.315 400.191 492.639 400.882 489.015 401.568L468.599 405.432C460.509 406.963 452.254 408.501 443.976 408.999C434.998 410.17 425.619 409.721 416.597 408.514C409.201 407.524 401.95 406.045 394.698 404.566L394.698 404.566L394.696 404.565L394.694 404.565L394.692 404.565C390.479 403.705 386.265 402.846 382.022 402.082C379.266 401.586 376.473 401.128 373.638 401.094C369.9 401.048 366.224 401.739 362.6 402.425L342.184 406.288C329.871 408.619 317.175 410.967 304.598 409.633C303.9 409.559 303.137 409.446 302.698 409.035C302.444 408.797 302.414 408.434 302.569 408.165C299.088 408.195 295.733 408.049 292.786 407.657C283.251 406.388 276.471 404.955 269.785 403.542L269.784 403.542C266.052 402.753 262.349 401.97 258.211 401.225C255.455 400.729 252.662 400.271 249.827 400.237C246.089 400.191 242.413 400.882 238.789 401.568L221.087 404.918C216.709 406.247 212.227 407.102 207.694 407.354C203.07 408.108 198.414 408.718 193.75 408.999C184.772 410.17 175.393 409.721 166.371 408.514C158.975 407.524 151.724 406.045 144.472 404.566L144.472 404.566L144.47 404.565L144.468 404.565L144.466 404.565C140.253 403.705 136.039 402.846 131.796 402.082C129.04 401.586 126.247 401.128 123.412 401.094C119.674 401.048 115.998 401.739 112.374 402.425L91.958 406.288C79.6452 408.619 66.9485 410.967 54.3718 409.633C53.6736 409.559 52.9109 409.446 52.4719 409.035C52.033 408.623 52.2616 407.838 52.9657 407.809C75.3045 406.877 97.3114 401.802 116.454 393.167C119.128 391.962 122.233 390.637 125.191 391.388C126.337 391.679 127.302 392.256 128.249 392.823L128.391 392.908C142.741 401.476 160.861 406.449 179.222 406.973C179.231 406.971 179.239 406.969 179.248 406.967C179.257 406.965 179.266 406.964 179.275 406.962C179.291 406.96 179.307 406.958 179.323 406.956C179.342 406.954 179.361 406.953 179.381 406.952C186.815 406.642 194.212 405.873 201.479 404.667C201.813 404.557 202.143 404.442 202.471 404.322C203.316 404.012 204.526 403.791 205.305 403.989C211.323 402.855 217.238 401.421 222.998 399.697C223.709 399.368 224.415 399.025 225.115 398.669C236.497 392.871 245.733 383.623 253.771 373.736C257.397 369.276 260.82 364.658 264.243 360.04L264.243 360.04L264.244 360.039L264.244 360.039C268.409 354.42 272.573 348.802 277.101 343.471C285.35 333.758 295.026 324.878 306.76 319.821C318.495 314.763 332.563 313.962 343.846 319.948C346.917 321.577 349.761 323.698 351.924 326.407C358.002 334.02 357.713 345.215 353.639 354.048C352.688 352.852 351.895 351.545 351.102 350.238L351.102 350.238L351.101 350.237L351.101 350.237L351.101 350.236C350.398 349.077 349.694 347.918 348.88 346.836C347.148 344.531 344.687 342.499 341.797 342.336C337.717 342.105 334.379 345.618 332.587 349.268C327.611 359.404 330.531 372.756 339.292 379.926C332.405 377.977 329.494 369.925 328.524 362.875C327.421 354.871 327.702 346.037 332.692 339.659C329.139 338.039 324.714 339.691 322.223 342.684C319.732 345.676 318.846 349.686 318.613 353.563ZM353.106 347.755C354.179 344.961 354.787 341.903 354.203 338.969C353.695 336.414 352.314 334.103 350.668 332.076C343.483 323.227 331.144 319.488 319.788 320.889C308.433 322.291 298.045 328.255 289.531 335.852C281.044 343.425 274.193 352.601 267.397 361.705L267.333 361.79C260.516 370.922 253.621 380.115 245.065 387.664C245.372 388.395 246.484 388.022 247.115 387.538C254.401 381.949 260.89 375.453 267.382 368.953C271.721 364.609 276.062 360.263 280.643 356.185C292.082 346.004 305.807 337.231 321.126 336.164C325.879 335.833 330.654 336.256 335.379 336.86C338.229 337.224 341.104 337.663 343.758 338.759C347.859 340.453 351.27 343.736 353.106 347.755Z" fill="#00160A"/>
<path fill-rule="evenodd" clip-rule="evenodd" d="M361.363 278.808C359.724 282.801 357.175 285.906 354.028 288.453C349.308 292.273 343.946 293.731 338.022 291.773C334.346 290.559 330.727 289.29 327.775 286.455C324.156 282.98 322.887 278.806 323.098 274.025C323.179 272.176 323.163 270.157 323.898 268.535C325.658 264.648 327.543 260.781 331.318 258.244C335.824 255.214 340.604 253.169 346.133 253.318C353.405 253.515 358.789 256.904 362.243 263.223C364.081 266.587 363.525 270.237 362.748 273.8C362.394 275.426 361.875 277.016 361.363 278.808M326.382 273.029C326.59 275.461 326.233 278.123 327.111 280.282C329.593 286.379 335.078 288.781 341.077 289.571C347.518 290.42 352.208 286.928 355.971 282.037C358.287 279.026 359.414 275.49 360.063 271.839C360.69 268.31 360.417 264.863 357.971 261.893C355.998 259.497 353.594 257.803 350.544 257.195C348.356 256.758 346.019 255.931 343.934 256.307C335.623 257.808 328.075 261.987 326.382 273.029Z" fill="#FFB61D"/>
<path fill-rule="evenodd" clip-rule="evenodd" d="M434.16 314.996C434.511 307.503 437.602 301.563 443.26 297.05C446.77 294.251 450.848 295.511 453.151 299.707C456.055 305.001 456.36 310.507 453.968 315.932C452.114 320.137 449.236 323.607 444.846 325.67C441.578 327.206 437.432 325.688 436.079 322.571C435.075 320.257 434.731 317.656 434.16 314.996M437.578 311.394C437.518 311.945 437.435 312.495 437.401 313.048C437.219 316.013 437.308 318.913 438.91 321.585C439.906 323.246 442.353 324.02 443.892 322.963C447.764 320.306 450.81 316.945 451.957 312.293C452.836 308.726 452.84 305.108 450.988 301.745C449.623 299.267 447.084 298.291 445.179 299.536C444.318 300.099 443.593 300.88 442.835 301.592C440.093 304.17 438.849 307.568 437.578 311.394Z" fill="#FFB61D"/>
<path fill-rule="evenodd" clip-rule="evenodd" d="M339.199 262.418C341.464 260.499 346.232 260.417 348.762 262.018C356.988 267.225 353.697 277.86 347.943 281.694C342.325 285.438 334.86 281.622 333.061 276.753C332.145 274.275 332.511 271.971 333.485 269.52C334.668 266.544 336.37 264.16 339.199 262.418M338.494 274.488C338.189 273.781 337.619 273.065 337.641 272.368C337.677 271.253 338.138 270.157 338.356 269.04C338.472 268.443 338.455 267.821 338.498 267.21C338.067 267.73 337.452 268.186 337.24 268.784C336.729 270.223 336.365 271.72 336.018 273.211C335.231 276.598 338.781 280.726 342.329 280.395C346.495 280.006 348.924 277.495 350.217 273.607C351.535 269.647 350.342 266.222 346.739 264.214C345.499 263.524 343.242 263.898 342.809 265.069C342.006 267.241 341.48 269.514 340.746 271.714C340.348 272.909 341.103 274.999 338.494 274.488Z" fill="#FFB61D"/>
<path fill-rule="evenodd" clip-rule="evenodd" d="M444.537 318.036C440.19 317.261 438.348 314.033 439.775 309.986C440.556 307.77 441.216 305.511 443.217 303.965C444.919 302.649 446.646 302.578 448.584 303.366C450.258 304.045 450.799 305.437 450.929 306.963C451.33 311.665 449.199 316.695 445.391 317.937C445.168 318.01 444.907 317.966 444.537 318.036M446.814 312.649C447.197 311.596 447.664 310.565 447.932 309.484C448.097 308.82 447.956 308.08 447.952 307.374C447.623 307.836 447.3 308.302 446.964 308.758C446.71 309.101 446.505 309.58 446.16 309.733C445.7 309.939 445.015 310.091 444.633 309.885C444.306 309.708 444.131 308.99 444.147 308.52C444.159 308.144 444.612 307.803 444.774 307.407C444.914 307.065 444.92 306.667 444.986 306.294C444.639 306.49 444.08 306.611 443.982 306.893C443.505 308.262 443.154 309.676 442.751 311.072C442.327 312.544 442.168 314.268 443.619 314.952C445.014 315.612 445.874 314.051 446.814 312.649Z" fill="#FFB61D"/>
<path fill-rule="evenodd" clip-rule="evenodd" d="M636.955 91.4866C634.483 91.4155 634.234 91.1493 634.215 88.3148C634.16 88.064 634.082 87.846 634.012 87.6485V87.6484V87.6483C633.913 87.3705 633.829 87.133 633.842 86.901C633.932 85.3008 632.74 85.3076 631.902 85.6311C631.393 85.8277 630.974 86.8843 630.951 87.5696C630.932 88.1238 631.05 88.6809 631.169 89.2397L631.169 89.2402C631.273 89.7246 631.376 90.2102 631.391 90.6961C631.402 91.0814 630.89 91.6753 630.485 91.8308C630.073 91.9888 629.576 91.9445 629.092 91.9015C628.969 91.8906 628.847 91.8797 628.728 91.8723C627.633 91.8041 626.367 91.8933 626.427 93.1773C626.451 93.7034 627.972 94.6201 628.756 94.5642C631.04 94.4012 632.348 95.0713 632.916 97.4091C633.025 97.8583 633.596 98.1952 634.168 98.5322C634.43 98.6868 634.692 98.8414 634.909 99.0068C635.002 98.7742 635.134 98.5312 635.266 98.2882L635.266 98.2879C635.554 97.7576 635.841 97.2273 635.727 96.8055C635.179 94.7781 636.075 94.3257 637.823 94.2071C638.279 94.1762 638.718 93.891 639.157 93.6059C639.357 93.4759 639.557 93.346 639.759 93.2401C639.601 93.0843 639.446 92.9241 639.291 92.7638L639.29 92.7621L639.286 92.7584C638.899 92.357 638.511 91.9557 638.072 91.6238C637.872 91.4732 637.544 91.4795 637.231 91.4856C637.136 91.4874 637.043 91.4892 636.955 91.4866ZM132.301 91.4233C132.293 91.3718 132.282 91.3011 132.213 91.1858C130.094 90.2788 129.212 90.7239 129.163 92.68C129.135 93.8144 128.739 94.3441 127.598 94.7265C126.802 94.9933 125.711 95.9625 125.701 96.632C125.685 97.713 126.874 97.9726 127.934 97.8177C129.288 97.6196 129.571 98.3187 129.57 99.5235C129.568 100.785 129.626 102.106 130.013 103.284C130.141 103.671 130.658 103.929 131.175 104.188L131.175 104.188C131.41 104.305 131.644 104.422 131.842 104.551C131.929 104.385 132.022 104.222 132.115 104.059C132.334 103.678 132.552 103.297 132.682 102.887C132.774 102.598 132.751 102.272 132.728 101.946C132.718 101.801 132.708 101.655 132.708 101.513C132.708 97.8485 132.716 97.8454 135.901 96.7232L135.974 96.6975C136.352 96.5643 136.678 96.2825 137.003 96.0007C137.154 95.8704 137.304 95.7402 137.46 95.6247C137.296 95.4827 137.139 95.3216 136.982 95.1605C136.634 94.8035 136.286 94.4466 135.865 94.2974C134.716 93.8906 132.702 92.4608 132.315 91.4812C132.308 91.4641 132.305 91.4455 132.302 91.4234L132.302 91.4233L132.301 91.4233ZM571.876 162.852C572.892 162.852 573.33 166.36 573.519 167.872L573.519 167.874C573.553 168.141 573.578 168.345 573.598 168.457C573.652 168.763 574.619 168.775 575.587 168.786C576.553 168.798 577.52 168.809 577.581 169.114C577.64 169.412 576.678 169.929 575.772 170.417C575.007 170.829 574.283 171.219 574.245 171.437C574.214 171.614 574.188 171.869 574.159 172.167L574.158 172.169C574.025 173.513 573.804 175.739 572.587 175.739C572.38 175.739 572.154 175.179 571.866 174.462L571.866 174.462C571.356 173.193 570.649 171.437 569.502 171.437C569.172 171.437 564.277 171.262 564.209 170.865C564.142 170.474 568.793 169.006 569.502 168.799C570.13 168.615 570.537 166.91 570.903 165.372C571.219 164.05 571.505 162.852 571.876 162.852ZM76.5228 179.962C76.7486 180.992 76.9811 182.053 78.8522 181.77C79.2482 181.261 79.6215 180.749 79.6124 180.243C79.6033 179.736 79.5072 179.224 79.4112 178.712C79.1739 177.446 78.9367 176.181 80.0133 174.994C80.09 174.91 79.8388 174.407 79.634 174.208C78.3586 172.97 77.9345 171.503 77.9628 169.728C77.9702 169.264 76.8327 168.623 76.1156 168.395C75.8773 168.319 75.0994 169.223 74.9446 169.782C74.7448 170.505 74.6842 171.443 74.9868 172.091C75.5607 173.32 74.8535 173.529 74.1376 173.741C74.0326 173.772 73.9274 173.803 73.8261 173.838C73.5868 173.919 73.3269 173.957 73.0689 173.995C72.7014 174.049 72.3378 174.103 72.0431 174.279C71.338 174.701 70.1484 175.619 70.2499 175.851C70.6426 176.75 71.3886 177.296 72.6526 176.772C73.4833 176.427 74.6367 176.465 75.4951 176.763C75.6964 176.833 75.7515 177.223 75.8134 177.661C75.8701 178.061 75.9325 178.503 76.1176 178.777C76.3334 179.098 76.4275 179.527 76.5228 179.962Z" fill="#00160A"/>
<path d="M430.158 272.167L639.251 272.181Z" fill="#4A0DBF"/>
<path fill-rule="evenodd" clip-rule="evenodd" d="M412.008 24.291C412.008 24.291 412.338 10.5957 415.226 8.11196C416.823 6.73864 417.11 14.2698 422.848 15.8267C426.795 16.8976 431.327 14.6686 435.634 15.713C437.481 16.1609 441.874 19.6612 440.811 20.6573C439.682 21.7151 437.915 19.0114 431.25 19.8208C428.63 20.1389 424.405 23.8937 420.604 24.1294C415.248 24.4617 412.008 24.291 412.008 24.291Z" fill="#FFB61D"/>
</svg>
