<svg width="863" height="664" viewBox="0 0 863 664" fill="none" xmlns="http://www.w3.org/2000/svg">
<path fill-rule="evenodd" clip-rule="evenodd" d="M269 302.115C272.14 333.817 275.28 365.52 278.419 397.221C295.514 387.467 312.609 377.712 329.703 367.958V440.18V459.163C329.703 460.843 328.706 466.613 329.703 468.068C330.549 469.301 336.813 469.337 338.294 469.544C347.959 470.898 357.648 472.102 367.35 473.173C392.921 475.997 420.289 480.043 445.958 476.798C468.27 473.977 489.901 466.041 510.286 456.807C517.443 453.565 524.5 450.095 531.426 446.387C532.894 445.601 538.225 443.745 539.023 442.145C539.675 440.837 538.145 436.244 537.941 434.869C537.08 429.077 536.218 423.284 535.357 417.492L523.326 336.604L546.053 359.299C547.834 361.077 551.214 366.125 553.678 366.913C555.484 367.491 559.957 365.702 561.743 365.359C574.611 362.878 587.48 360.398 600.349 357.919C603.347 357.341 610.104 357.363 612.631 355.552C613.992 354.576 614.056 352.591 614.536 350.71C617.675 338.413 620.814 326.117 623.952 313.822C624.518 311.607 627.672 304.624 626.87 302.393C626.582 301.594 625.191 301.047 624.339 300.526C604.917 288.663 585.493 276.8 566.071 264.937C555.431 258.439 544.791 251.94 534.151 245.442C529.695 242.719 524.22 237.814 519.17 236.291C516.035 235.346 511.474 236.054 508.23 235.961C501.637 235.773 495.046 235.585 488.453 235.397C487.421 235.368 483.806 234.632 482.937 235.24C482.214 235.746 482.514 236.451 482.277 237.657C481.697 240.603 481.693 243.779 481.407 246.769C481.178 249.168 481.633 253.568 480.552 255.74C479.861 257.128 480.737 256.575 479.803 257.246C478.69 258.045 475.138 257.788 473.814 257.941C467.354 258.692 460.894 259.442 454.434 260.192C446.754 261.084 438.988 262.758 431.272 261.987C419.574 260.819 406.961 260.877 395.474 258.412C392.489 257.772 391.414 256.09 389.111 253.791C384.617 249.303 380.168 244.763 375.624 240.322C373.397 238.147 374.351 238.515 372.055 239.341C369.178 240.375 366.26 242.87 363.656 244.457C353.679 250.534 343.702 256.612 333.724 262.689L272.812 299.793C271.541 300.567 270.271 301.341 269 302.115Z" fill="#1CBA6D"/>
<path fill-rule="evenodd" clip-rule="evenodd" d="M851.615 306.056C839.058 353.727 813.804 405.706 762.926 420.901C750.556 424.595 738.523 427.384 725.675 425.977C724.452 425.843 723.429 426.015 722.266 426.037C720.182 426.076 721.982 426.825 719.644 426.104C717.822 425.541 716.117 424.134 714.218 423.512C709.169 421.86 703.787 421.541 698.656 420.206C686.049 416.926 673.056 412.877 660.84 408.354C655.088 406.225 649.801 403.259 644.391 400.406C638.891 397.507 633.062 395.706 627.5 393.047C623.104 390.945 615.574 388.205 612.484 384.263C609.189 380.058 613.747 371.107 615.051 366.637C619.482 351.427 624.759 336.44 628.09 320.927C639.59 334.255 655.552 342.509 672.076 347.832C681.042 350.721 690.265 352.809 699.59 354.116C708.057 355.302 717.191 356.738 725.678 355.054C732.085 353.782 740.127 350.837 744.703 345.947C746.336 344.201 748.295 341.001 747.38 338.465C746.219 335.246 742.834 336.761 741.003 334.359C739.408 332.266 739.658 327.372 739.149 324.824C738.25 320.314 737.014 315.928 735.506 311.587C732.579 303.158 728.931 294.71 728.057 285.741C727.297 277.959 729.069 270.601 732.951 263.849C734.785 260.657 739.392 251.973 743.888 252.334C748.825 252.73 742.167 273.538 741.95 277.782C741.087 294.609 743.344 312.538 751.978 327.286C755.284 332.933 760.065 339.508 767.123 340.208C774.6 340.948 780.631 335.066 784.189 329.114C792.873 314.593 788.495 294.667 784.097 279.448C778.703 260.775 764.623 247.905 755.72 231.135C769.012 232.471 776.13 240.915 782.951 251.628C790.462 263.422 796.308 277.582 799.191 291.305C800.647 298.239 799.642 305.201 799.651 312.203C799.654 314.529 799.653 323.11 803.446 322.772C807.499 322.411 808.889 312.733 809.485 309.78C810.851 303.008 812.33 296.235 813.516 289.43C815.616 277.389 816.549 265.056 819.064 253.099C819.489 251.078 820.335 245.47 823.361 246.984C825.694 248.15 825.319 256.824 825.405 258.84C825.614 263.808 825.909 268.776 825.949 273.749C826.009 281.12 824.539 288.75 825.26 296.076C825.731 300.863 828.3 306.152 831.485 299.697C834.643 293.294 835.287 285.31 837.048 278.424C838.898 271.196 840.809 263.86 844.734 257.44C845.823 255.659 846.994 252.831 849.414 253.669C851.173 254.279 852.471 258.447 853.015 259.918C855.468 266.567 855.052 273.959 854.897 280.919C854.708 289.448 853.792 297.787 851.615 306.056ZM606.765 318.427C606.094 318.21 603.244 317.94 602.537 317.878C601.708 317.806 602.649 316.279 600.643 316.713C601.031 317.673 601.718 318.313 602.707 318.634C599.692 319.654 597.468 317.135 595.406 316.811C593.434 316.501 593.35 316.811 591.403 318.894C589.294 316.322 589.689 317.926 587.955 317.927C587.324 317.928 587.297 318.881 586.27 318.767C585.373 318.667 585.279 317.307 584.749 317.147C581.871 316.276 578.91 320.658 575.647 316.857C574.856 320.812 565.796 315.858 562.31 316.553C558.656 317.28 560.232 318.59 557.279 316.351C554.465 314.218 555.25 315.635 551.977 317.381C552.053 317.34 550.129 318.639 550.308 318.66C548.042 318.395 548.171 316.053 545.302 316.177C542.265 316.309 540.968 318.69 538.188 315.76C537.584 317.954 537.459 317.009 536.035 317.562C535.251 317.748 534.566 317.542 533.978 316.945C533.8 317.548 533.409 317.918 532.803 318.054C531.252 318.193 528.34 318.409 526.931 317.662C524.817 316.541 526.516 316.11 525.05 314.849C524.393 318.326 522.953 317.587 519.915 317.912C517.598 318.16 517.087 317.449 514.874 317.103C512.694 316.763 509.877 317.609 507.75 317.969C506.873 318.119 505.697 318.731 504.803 318.516C503.998 318.322 503.653 317.697 503.172 317.533C502.588 317.337 502.712 316.825 501.703 316.578C501.007 316.409 499.761 317.061 499.066 317.174C494.108 317.979 489.347 317.987 484.618 316.037C486.947 320.13 479.174 317.92 477.788 316.225C476.056 318.939 473.96 317.023 470.469 317.235C467.106 317.439 462.05 318.469 460.687 314.282C460.42 315.132 458.512 317.603 457.753 317.98C455.549 319.072 455.286 317.456 453.237 316.798C450.448 315.902 451.03 317.603 449.3 317.948C446.381 318.533 444.803 316.477 442.223 315.384C442.114 317.083 442.058 318.128 440.589 319.186C439.288 314.449 434.645 319.574 435.442 313.243C433.675 314.393 431.19 315.276 430.687 317.603C433.641 316.79 431.002 318.721 430.878 318.785C430.488 318.989 429.169 317.138 428.863 316.877C428.779 317.75 428.696 318.624 428.613 319.497C427.436 318.909 426.331 317.855 425.376 317.327C424.515 316.852 425.748 315.862 424.294 315.794C423.528 315.757 422.728 317.417 421.924 317.559C420.694 317.774 421.285 316.01 420.77 316.069C419.986 316.159 418.708 317.306 418.115 317.284C416.171 317.212 417.487 316.307 416.003 315.892C413.352 315.15 413.522 316.884 411.616 317.509C407.255 318.941 407.693 312.353 403.257 316.747C402.195 317.798 401.512 319.422 400.058 319.331C397.047 319.142 398.104 315.573 398.716 313.825C399.349 314.137 387.715 320.113 387.807 319.879C387.88 318.446 389.71 317.341 388.075 316.068C386.738 318.937 385.331 318.987 382.247 319.521C380.748 319.781 380.453 320.128 378.849 319.504C377.827 319.109 377.141 317.479 376.125 317.389C376.262 317.401 374.397 318.821 374.113 318.948C372.43 319.707 371.365 318.847 369.73 319.159C368.335 319.425 367.786 320.61 366.399 320.286C364.548 319.853 365.635 317.642 363.088 318.259C362.217 318.47 361.694 320.148 360.322 320.494C358.183 321.036 355.562 320.026 353.302 320.553C351.508 320.972 350.177 321.149 348.608 321.236C347.341 321.307 347.862 320.321 345.529 321.485L344.54 318.991C343.372 320.042 342.204 321.091 341.036 322.142C340.815 321.2 340.674 320.247 340.615 319.281C338.873 321.026 336.679 321.324 334.338 321.481C331.803 321.65 329.914 322.203 327.447 322.667C326.667 322.813 324.658 323.047 324.017 322.774C324.111 322.814 322.817 322.276 323.207 322.378C323.039 322.036 322.883 321.688 322.739 321.334C322.521 320.35 321.813 320.307 320.617 321.204C319.998 321.109 318.798 320.297 318.181 320.497C316.59 321.013 316.806 322.247 315.221 322.066C314.192 321.948 313.667 320.428 312.596 320.325C310.957 320.167 309.536 322.002 308.059 322.402C312.55 321.183 302.235 322.129 305.442 322.213C303.339 322.158 301.156 322.054 299.213 322.996C298.139 322.262 299.443 320.786 298.358 320.179C297.374 319.628 297.298 321.083 297.183 321.115C297.804 320.939 297.494 322.177 296.873 322.397C294.937 323.083 293.389 321.339 293.289 319.609C291.644 322.084 291.183 321.089 288.765 321.242C286.38 321.393 284.323 322.643 281.937 322.62C277.218 322.575 274.016 320.935 272.441 316.722C277.469 317.334 282.53 314.101 287.447 314.863C289.063 315.113 290.072 316.327 291.488 316.111C293.232 315.846 294.45 313.943 296.686 313.738C301.62 313.287 306.483 313.726 311.45 312.97C317.383 312.066 323.574 311.531 329.564 311.971C334.193 312.312 337.941 310.542 342.635 310.201C348.704 309.759 354.823 309.681 360.903 309.362C367.149 309.034 373.871 308.037 380.1 308.357C382.045 308.456 383.719 308.647 385.649 308.531C386.465 308.481 387.238 307.927 388.094 308.01C389.21 308.118 389.689 309.26 390.846 309.22C392.812 309.153 394.914 307.533 397.251 307.489C401.094 307.416 404.92 307.425 408.773 307.206C412.165 307.013 415.799 306.221 419.176 306.264C421.558 306.294 422.146 308.323 423.534 308.533C426.03 308.909 438.656 301.724 439.747 308.172C446.32 303.674 455.135 307.483 462.452 306.638C471.851 305.552 481.423 306.52 490.886 306.133C500.515 305.74 510.421 306.104 520.012 307.012C523.985 307.388 527.823 307.741 531.807 307.513C533.583 307.411 535.636 306.958 537.412 307.367C537.842 307.467 541.136 309.765 540.727 309.831C542.526 308.216 541.309 307.98 544.474 307.897C546.914 307.833 549.221 308.36 551.647 308.503C556.002 308.761 560.389 308.158 564.734 308.291C568.362 308.402 571.909 308.937 575.556 308.963C579.487 308.992 584.129 309.103 586.974 312.272C586.673 311.277 586.374 310.282 586.073 309.287C590.461 309.63 594.797 311.196 599.233 310.464C598.111 311.539 596.972 312.417 596.543 313.993C598.935 313.69 600.555 312.02 603.073 312.007C605.189 311.994 605.629 313.055 607.862 311.684C608.137 313.364 608.412 315.044 608.687 316.723C611.78 315.995 609.75 313.689 609.976 311.61C612.49 312.365 614.619 311.498 613.628 315.114C612.864 317.902 609.383 319.276 606.765 318.427ZM602.419 349.483C601.34 352.513 592.011 350.782 589.805 350.461C586.955 350.048 583.694 349.394 581.07 349.069C580.755 348.649 580.377 348.293 579.938 348C579.607 348.46 579.19 348.786 578.685 348.978C577.48 349.242 577.475 350.486 575.892 350.211C575.818 352.052 577.097 351.006 578.077 351.674C575.608 353.329 576.737 351.424 575.352 351.454C575.009 350.967 574.531 350.776 573.918 350.881C573.137 351.083 572.418 351.417 571.76 351.883C571.142 352.535 570.614 352.568 570.174 351.985C569.752 351.561 569.238 351.299 568.63 351.199C566.198 351.595 565.518 352.674 562.779 352.498C558.866 352.246 554.632 353.277 550.781 352.734C548.394 352.398 544.405 348.647 543.321 352.303C541.671 349.593 539.042 347.749 537.462 344.979C544.823 344.554 552.181 344.047 559.548 343.781C565.998 343.549 573.054 344.275 579.081 343.971C584.728 343.686 590.707 343.062 596.472 342.547C602.583 342.001 604.605 343.341 602.419 349.483ZM410.393 349.93C413.066 350.67 415.611 348.993 418.203 349.523C419.06 349.698 420.834 351.258 421.224 351.289C421.938 351.346 424.036 349.814 424.936 349.609C430.629 348.313 437.526 348.451 443.218 349.247C446.234 349.668 446.697 348.288 449.33 347.618C452.066 346.92 455.956 347.457 458.837 347.265C465.616 346.811 472.392 347.134 479.125 346.638C486.037 346.129 492.915 345.854 499.83 345.498C504.541 345.256 515.861 342.569 519.765 346.066C522.985 348.949 518.837 353.955 515.617 355.098C513.208 355.95 512.055 354.153 510.267 354.325C508.231 354.519 508.941 356.925 507.124 354.694C505.998 356.913 498.92 355.967 496.892 356.113C492.472 356.433 488.733 357.32 485.724 353.197C485.928 354.385 486.132 355.575 486.336 356.764C482.347 354.632 478.065 355.314 474.602 356.058C472.887 356.426 467.623 358.968 465.765 357.872C464.487 357.118 466.74 355.828 464.583 355.184C463.453 354.846 461.502 356.723 460.121 356.629C456.299 356.366 457.383 353.796 453.629 357.067C452.357 355.967 451.934 354.097 452.102 352.494C449.375 354.82 449.603 358.697 444.727 357.987C442.91 357.723 442.576 355.869 441.629 355.528C439.611 354.799 439.382 356.109 437.634 357.146C436.974 357.537 436.169 358.166 435.392 358.245C433.796 358.404 433.543 357.671 433.324 357.695C432.262 357.812 430.924 358.352 429.664 357.966C428.533 357.62 428.202 355.624 426.21 356.09C424.303 356.538 424.287 357.833 424.633 359.772C422.752 359.577 421.615 358.53 420.208 357.395C418.788 360.708 415.798 357.964 414.144 360.759C411.99 358.187 410.608 358.895 407.935 356.383C408.067 357.431 408.198 358.479 408.328 359.528C406.243 359.126 405.315 357.655 403.535 359.601C401.808 356.384 396.572 360.968 393.882 357.86C392.683 361.796 384.751 360.855 381.401 360.923C378.432 360.984 376.234 360.741 373.333 361.43C370.77 362.039 367.217 362.671 364.806 362.392C363.231 362.21 361.509 361.921 359.546 362.135C356.717 362.441 354.273 363.906 351.342 363.213C346.929 362.17 344.224 356.373 349.139 353.827C352.503 352.084 358.563 352.73 362.265 352.408C368.4 351.875 375.276 350.758 381.419 351.265C386.211 351.662 390.579 350.519 395.468 350.036C399.149 349.672 405.182 349.018 407.583 352.666C408.504 351.601 408.409 349.381 410.393 349.93ZM343.231 399.866C342.572 396.585 370.621 394.778 373.405 394.564C379.25 394.113 385.111 393.792 390.97 393.643C395.786 393.521 400.281 394.44 405.098 393.701C409.597 393.011 415.027 391.596 418.943 394.781C419.519 390.425 436.403 392.547 439.615 392.559C453.598 392.609 466.978 392.642 480.503 391.776C488.233 391.281 496.441 390.615 504.172 391.002C507.659 391.177 510.467 392.106 513.934 391.299C516.196 390.773 518.633 389.679 520.797 391.226C523.328 393.038 524.41 399.188 522.666 401.755C521.396 403.625 520.271 403.418 518.242 403.094C515.123 402.598 512.805 401.876 509.624 403.144C510.139 402.938 507.493 403.529 507.712 403.512C504.109 403.781 499.167 406.298 496.062 403.397C497.306 403.615 499.114 401.394 497.546 401.211C496.368 401.075 495.621 402.337 494.702 402.76C491.558 404.206 489.949 403.754 488.072 400.72C484.286 403.997 483.878 403.09 482.216 399.055C480.936 400.04 480.661 402.371 479.654 403.136C479.504 403.25 480.124 404.666 479.397 404.608C478.722 404.553 478.501 403.447 477.982 403.36C477.651 403.304 477.478 402.334 477.161 402.275C476.817 402.211 476.464 402.83 476.074 402.812C475.034 402.763 472.059 404.977 473.126 401.87C471.549 403.875 470.871 402.597 470.302 400.772C468.482 402.156 466.663 403.539 464.842 404.922C463.996 402.569 462.539 403.21 460.707 404.031C461.259 402.398 460.913 400.852 459.528 401.988C458.725 402.646 458.187 404.734 457.366 405.621C454.043 402.256 452.835 403.179 448.244 403.617C446.492 403.783 444.314 404.107 442.749 403.048C441.372 402.118 440.594 398.704 438.24 401.462C438.765 400.849 437.943 405.561 437.798 406.309C436.76 405.61 435.878 404.749 435.152 403.729C433.798 406.41 430.242 404.004 427.329 404.552C422.742 405.415 418.011 406.868 413.959 403.454C413.673 404.556 410.354 405.96 410.349 406.003C410.546 404.051 411.777 404.737 409.262 404.367C408.8 404.299 408.275 405.131 407.838 405.222C406.339 405.532 404.588 405.238 403.077 405.195C396.792 405.014 391.039 406.407 384.833 406.912C382.741 407.081 380.259 407.415 378.295 406.627C376.272 405.813 376.327 404.89 374.28 405.414C374.928 405.248 373.001 407.273 373.105 407.196C372.83 407.397 371.682 406.409 371.274 406.483C371.154 406.915 371.036 407.346 370.917 407.778C370.423 407.717 369.93 407.656 369.437 407.595C368.087 407.777 366.87 406.411 365.602 406.365C365.835 406.373 362.18 407.734 362.347 407.816C359.795 406.544 360.528 406.913 357.291 407.688C354.231 408.42 351.185 408.249 348.046 408.706C338.915 410.032 344.355 405.456 343.231 399.866ZM335.167 445.517C333.45 443.082 338.018 442.24 339.478 442.025C341.877 441.671 345.061 442.375 346.66 441.994C349.095 441.414 351.446 440.032 354.187 439.657C357.647 439.184 361.134 439.107 364.608 438.811C365.765 438.711 367.198 438.313 368.324 438.38C370.001 438.481 370.697 439.368 372.051 439.374C374.356 439.386 377.202 437.93 379.565 437.663C382.591 437.319 385.648 437.159 388.689 437.008C395.096 436.69 401.437 436.822 407.841 436.815C410.762 436.81 418.54 433.78 419.996 437.178C422.021 434.603 427.215 434.954 430.11 434.879C435.21 434.748 440.257 434.256 445.353 434.019C449.716 433.816 454.591 434.75 458.876 434.096C461.237 433.736 462.02 432.979 464.697 433.321C466.687 433.573 469.72 432.522 471.428 432.987C471.339 432.963 473.559 434.338 472.866 434.382C473.629 434.332 473.584 434.866 474.425 434.628C475.529 434.317 475.022 432.928 477.311 432.435C480.881 431.665 485.642 432.556 489.351 432.358C492.949 432.167 496.542 432.084 500.144 432.101C501.802 432.108 503.853 431.712 505.466 432.036C506.256 432.194 507.936 433.225 508.606 433.122C510.504 432.825 511.471 431.507 514.037 431.589C516.946 431.681 519.564 431.641 522.457 431.419C525.257 431.205 525.707 430.805 527.095 433.135C528.471 435.447 528.85 438.457 526.318 440.028C527.963 439.92 529.986 442.122 528.048 443.342C526.85 444.096 524.448 442.395 523.014 442.517C521.247 442.669 519.86 443.603 517.938 443.661C515.916 443.723 513.863 444.232 511.87 444.271C509.793 444.311 508.223 443.383 506.253 443.778C504.52 444.127 504.337 445.547 502.25 444.3C501.213 443.679 501.038 441.381 499.623 441.36C497.727 441.331 498.483 443.78 497.393 444.915C497.1 441.412 494.396 447.208 493.321 442.956C492.33 444.368 488.661 446.343 486.883 445.209C485.263 444.175 485.801 441.835 485.126 440.15C484.002 443.179 480.988 446.322 481.261 440.807C479.796 442.609 475.839 442.325 476.831 445.479C475.638 445.456 475.356 443.753 474.352 443.624C473.485 443.513 472.797 444.179 472.664 444.169C473.139 444.209 471.245 444.839 471.215 444.845C472.498 444.585 467.516 444.141 468.364 444.148C467.208 444.139 465.793 445.085 464.441 445.082C463.21 445.079 461.985 444.594 460.769 444.456C457.618 444.096 458.274 444.788 456.295 445.778C455.562 446.144 455.378 446.765 454.337 446.688C453.569 446.63 453.282 445.628 453.195 445.619C452.115 445.511 452.913 445.148 451.236 445.316C451.043 445.647 450.852 445.977 450.659 446.308C450.054 447.083 449.268 447.276 448.304 446.89C445.822 447.422 437.592 449.729 438.398 445.457C437.137 446.073 435.876 446.69 434.615 447.307C434.074 443.862 427.222 448.429 425.692 448.66C423.728 448.954 423.547 448.201 421.691 447.8C421.356 447.728 420.685 448.832 419.901 448.673C417.864 448.264 417.501 448.061 417.152 445.849C415.7 448.563 414.493 447.35 411.859 447.796C411.276 447.895 410.904 449.042 410.067 448.844C409.464 448.702 409.448 447.6 409.032 447.457C408.658 447.329 408.714 446.459 408.163 446.336C407.531 446.193 405.376 447.96 404.758 448.233C403.364 448.847 401.074 449.864 399.713 449.559C398.03 449.183 398.779 447.936 396.401 448.076C392.65 448.296 391.085 451.489 388.751 446.458C387.698 448.473 387.832 449.02 386.14 449.685C384.89 450.176 381.724 449.663 380.078 449.602C373.049 449.343 366.138 451.738 359.167 451.111C356.103 450.835 353.519 450.222 350.427 450.723C347.178 451.251 344 452.026 340.704 452.338C339.028 452.496 335.526 452.978 334.703 450.835C333.98 448.949 336.679 447.663 335.167 445.517ZM348.953 522.855C339.835 528.955 332.284 537.284 323.912 544.337C315.519 551.408 308.858 559.268 301.31 567.099C294.331 574.337 287.919 581.185 279.482 586.655C274.143 590.117 269.38 594.377 263.896 597.642C259.788 600.086 253.565 603.302 255.569 595.825C257.623 588.162 261.415 580.417 264.708 573.26C269.39 563.088 274.107 553.009 279.172 543.029C281.076 539.28 282.141 535.547 285.16 532.56C288.445 529.31 290.745 525.066 294.342 521.994C309.474 509.075 332.278 519.056 348.953 522.855ZM377.554 527.235C373.418 529.403 368.789 529.94 364.406 531.374C360.671 532.595 357.198 534.767 353.181 534.929C356.838 532.182 359.979 528.452 364.102 526.368C368.739 524.023 372.948 525.73 377.554 527.235ZM559.086 545.302C543.873 540.169 529.709 532.606 514.892 526.519C512.334 525.467 492.33 518.879 492.736 515.744C506.754 513.176 521.191 508.769 535.243 513.574C548.026 517.945 558.423 528.43 568.319 537.205C570.901 539.495 586.869 549.922 585.44 553.243C584.45 555.545 576.757 554.917 574.94 554.445C572.592 553.835 571.241 552.41 569.4 550.845C566.322 548.229 562.917 546.595 559.086 545.302ZM531.002 459.544C533.313 457.417 534.696 454.192 536.903 452.229C539.739 449.707 544.315 450.936 547.415 452.246C556.717 456.176 564.668 462.785 573.913 466.886C584.159 471.432 593.028 477.506 602.269 483.766C610.716 489.487 619.849 494.224 628.471 499.685C637.257 505.251 647.092 508.868 655.998 514.236C665.062 519.699 674.091 525.185 682.801 531.205C698.333 541.941 714.505 552.965 725.996 568.229C731.902 576.075 737.431 584.974 741.764 593.784C745.704 601.792 749.977 612.91 744.872 621.241C739.969 629.242 731.612 635.544 724.539 641.514C721.86 643.774 719.312 646.52 715.84 647.501C711.617 648.691 706.689 648.363 702.346 648.714C679.123 650.597 657.488 648.82 634.603 644.667C612.536 640.663 590.377 638.42 568.141 635.637C555.597 634.067 543.055 632.238 530.681 629.623C525.391 628.505 520.009 627.216 514.833 625.693C510.313 624.363 506.512 621.435 501.864 620.274C482.139 615.349 459.571 613.466 440.043 605.181C457.324 597.999 475.688 593.661 493.399 587.693C512.04 581.413 530.246 576.143 549.894 574.358C560.004 573.439 569.052 570.858 578.778 568.156C588.046 565.58 597.722 564.791 607.242 563.637C611.475 563.123 623.557 563.892 624.96 558.358C627.049 550.119 615.178 549.168 610.118 549.906C602.939 550.952 597.019 552.744 591.525 546.855C585.915 540.841 580.464 534.683 574.752 528.745C564.162 517.735 553.246 505 538.276 500.06C520.013 494.034 498.835 499.754 480.612 503.181C461.365 506.801 442.149 510.266 423.262 515.528C415.441 517.706 405.354 522.506 397.237 521.735C389.237 520.974 380.176 519.665 372.445 517.358C368.947 516.315 366.072 514.38 362.942 512.577C358.872 510.231 354.412 508.728 350.093 506.904C341.359 503.218 332.844 499.822 323.421 498.373C315.485 497.153 307.058 496.429 299.368 499.211C291.823 501.94 285.138 507.497 279.874 513.433C274.156 519.883 269.43 527.11 264.744 534.316C262.494 537.774 259.748 540.792 257.417 544.173C255.461 547.012 254.319 550.167 252.249 552.927C247.616 559.101 244.47 566.998 241.663 574.181C238.543 582.158 235.078 591.646 235.823 600.324C236.104 603.604 236.398 607.949 237.667 610.99C239.281 614.859 241.582 614.76 244.899 616.219C250.598 618.726 252.196 625.655 259.561 624.304C266.469 623.037 272.46 617.345 277.5 612.807C284.069 606.895 290.356 600.66 296.642 594.449C303.092 588.074 309.448 581.003 314.579 573.503C316.599 570.551 318.174 567.216 320.561 564.528C323.601 561.103 327.014 560.691 331.143 559.328C367.241 547.401 403.514 535.896 440.74 528.021C449.658 526.134 458.649 523.7 467.41 521.189C476.702 518.525 481.514 521.341 489.183 526.41C505.204 537.003 524.141 544.464 541.981 551.376C547.599 553.552 556.542 553.69 560.933 557.982C534.904 561.949 510.099 569.584 484.993 577.187C472.615 580.934 460.095 584.184 447.67 587.768C435.24 591.354 423.284 596 411.025 600.042C398.825 604.065 385.931 605.706 373.613 609.417C361.038 613.205 348.516 615.811 335.608 618.113C322.575 620.439 309.633 623.122 296.555 625.204C290.567 626.157 284.58 627.146 278.659 628.457C272.865 629.741 267.267 632.814 261.444 633.526C235.439 636.708 209.944 643.797 184.04 647.804C164.699 650.797 131.05 654.97 118.508 635.565C105.896 616.051 121.369 593.287 135.175 579.334C143.755 570.662 153.396 563.03 163.511 556.24C174.337 548.974 184.753 541.128 195.581 533.872C220.085 517.452 246.656 504.06 272.982 490.866C285.618 484.533 297.827 477.741 310.119 470.791C316.22 467.341 319.596 472.907 324.419 476.69C328.212 479.667 335.177 487.002 340.484 483.611C340.688 484.832 340.893 486.053 341.097 487.276C342.651 486.566 344.207 485.858 345.761 485.149C346.805 487.888 346.683 489.589 349.6 491.027C351.391 491.911 355.214 492.974 356.922 491.418C357.27 492.5 357.618 493.58 357.967 494.661C359.46 494.547 359.748 490.276 360.03 489.276C362.588 493.013 366.127 496.136 370.624 497.192C370.646 496.948 369.893 493.878 369.925 493.859C371.348 492.988 373.143 496.718 373.897 497.517C376.398 500.164 377.89 499.753 380.653 497.617C380.854 497.835 381.789 500.275 381.925 500.231C382.523 500.041 383.658 497.879 383.783 497.682C383.61 500.526 389.101 501.099 391.04 500.488C390.605 499.655 390.17 498.822 389.736 497.989C396.49 497.087 399.142 504.263 405.625 503.899C410.418 503.628 406.574 502.581 409.287 500.528C411.656 498.734 412.078 502.657 412.311 502.533C412.763 502.059 413.113 501.516 413.362 500.901C414.239 504.261 421.221 507.275 420.499 501.75C423.246 502.849 425.196 504.673 428.236 505.058C431.931 505.526 435.877 504.742 439.563 504.436C447.505 503.775 454.992 502.155 462.151 498.516C466.396 496.359 470.914 494.401 474.904 491.799C478.243 489.62 484.578 483.008 489.024 485.855C487.885 482.497 493.245 485.609 493.416 481.283C494.277 481.932 495.138 482.58 495.999 483.23C496.515 482.098 496.371 480.314 497.063 479.327C498.012 477.972 498.476 478.77 499.285 478.008C500.191 477.155 500.982 474.871 502.068 474.221C503.187 473.551 504.504 474.35 505.708 473.765C507.542 472.874 515.429 464.177 514.094 471.629C517.486 470.477 514.871 469.423 515.294 467.163C516.145 462.634 518.216 465.893 520.279 466.288C523.657 466.936 523.589 464.143 525.473 462.114C527.192 460.26 530.426 459.43 529.312 456.211C530.584 456.897 530.854 458.24 531.002 459.544ZM327.385 362.815C324.724 365.779 322.731 364.512 319.773 364.077C319.456 363.016 318.915 362.87 318.151 363.636C317.274 364.14 316.332 364.472 315.322 364.63C312.896 365.228 310.376 364.974 308.003 365.88C308.071 365.085 308.906 363.672 308.371 362.865C305.875 364.591 304.328 365.689 301.263 365.722C298.78 365.748 294.421 363.851 292.359 366.119C292.295 365.236 292.231 364.354 292.169 363.471C291.159 363.974 290.28 364.647 289.533 365.491C289.391 364.183 289.313 363.194 288.448 362.137C286.808 365.511 285.01 365.591 281.823 364.301C282.27 364.482 278.633 362.35 278.772 362.941C277.622 358.096 295.773 358.496 297.679 358.305C302.438 357.824 307.196 357.545 311.962 357.106C316.482 356.691 319.856 355.986 322.984 359.757C321.59 354.31 334.779 354.58 327.385 362.815ZM119.271 278.34C119.771 286.575 121.604 295.328 118.402 303.254C115.828 309.625 110.693 316.82 105.161 320.978C93.8344 329.491 84.2337 319.074 82.6573 307.626C81.0139 295.685 84.2713 281.095 94.5531 273.732C100.697 269.334 106.646 269.638 113.719 271.085C115.38 271.425 118.077 271.294 119.027 272.945C119.25 273.331 119.05 278.332 119.271 278.34ZM269.708 388.06C267.751 389.047 265.704 389.626 263.979 390.969C263.38 391.436 263.176 392.499 262.54 392.892C261.383 393.608 259.729 393.133 258.523 393.724C256.527 394.699 255.096 396.095 252.724 396.993C249.201 398.329 246.112 400.16 242.782 401.896C237.234 404.789 231.279 407.272 225.479 409.627C222.551 410.816 214.454 413.133 214.734 417.419C214.079 417.596 213.41 416.164 212.042 416.278C210.165 416.434 207.685 418.605 205.736 419.139C202.09 420.137 199.268 420.225 199.268 424.873C198.108 424.084 197.813 422.155 196.269 421.9C194.531 421.612 193.8 423.486 192.41 424.07C190.773 424.757 188.737 424.098 187.116 424.829C186.407 425.579 185.619 426.234 184.752 426.792C183.87 426.893 182.992 426.867 182.119 426.71C178.677 427.44 175.51 428.735 172.06 429.407C168.698 430.064 166.395 430.302 167.809 434.278C164.212 434.982 163.334 431.165 159.276 432.561C154.302 434.271 149.653 435.504 144.461 436.548C141.813 437.08 139.046 438.267 136.379 438.546C134.476 438.745 132.7 438.064 130.826 438.276C128.568 438.529 126.753 439.575 124.416 439.614C122.199 439.653 119.872 439.255 117.695 438.864C118.003 439.741 118.388 440.582 118.85 441.387C117.345 441.072 116.65 439.262 115.374 438.994C114.035 438.713 112.835 440.095 111.72 439.789C111.245 439.658 111.561 438.194 110.712 437.914C109.937 437.661 109.611 437.96 108.843 437.84C108.587 437.8 105.376 437.626 104.864 437.897C103.97 438.371 104.875 439.259 104.697 439.391C101.677 441.626 101.64 440.42 100.294 438.085C98.3168 434.658 95.9328 436.821 92.3396 436.221C88.3353 435.553 85.1804 437.319 81.2388 437.068C76.9876 436.797 71.9916 433.616 68.2331 431.758C60.1168 427.747 52.2023 423.95 45.3861 417.875C32.0614 405.998 21.2211 391.392 14.8296 374.671C7.96226 356.707 6.66096 337.972 7.21224 318.914C7.54384 307.452 8.46123 295.997 10.2678 284.67C11.5115 276.878 11.772 263.031 20.5568 259.483C22.0673 277.727 17.3015 296.318 20.3068 314.444C21.2117 319.904 23.4189 327.178 27.5958 331.222C33.7801 337.207 35.2268 328.555 35.7864 323.775C36.8273 314.899 38.7614 306.072 40.1307 297.237C41.499 288.406 42.4655 279.477 44.3683 270.739C45.0618 267.553 50.6562 244.222 54.762 245.327C53.9314 262.3 51.7253 278.981 51.6384 296.016C51.6039 302.849 50.992 310.066 51.9784 316.854C52.4857 320.347 55.6668 330.597 61.1377 329.742C66.2006 328.951 60.6346 321.731 60.1617 318.947C58.9096 311.577 60.5059 302.408 61.6733 295.093C63.8826 281.249 68.8116 267.07 76.8684 255.502C84.0841 245.143 95.1943 235.281 108.579 237.108C114.297 237.889 118.759 239.309 121.632 244.531C123.887 248.629 132.768 253.286 127.621 258.416C122.936 263.088 115.358 259.349 110.15 258.235C103.773 256.872 96.9391 258.512 91.6063 262.249C82.4564 268.658 77.2418 280.118 75.5399 290.866C73.2459 305.357 79.3779 343.289 101.963 334.788C116.967 329.14 128.268 308.824 127.008 293.27C126.503 287.044 124.069 275.224 132.683 273.543C143.719 271.39 145.278 283.555 144.16 291.46C142.536 302.96 136.458 313.653 129.505 322.745C123.445 330.669 116.397 335.624 109.105 342.168C106.946 344.106 101.439 348.462 102.364 352.066C103.378 356.015 112.032 357.138 115.497 357.787C132.64 360.996 151.972 358.044 169.086 355.803C204.26 351.197 238.971 339.853 267.813 318.995C268.978 331.901 270.447 344.763 270.988 357.715C271.25 364.002 271.317 370.38 272.036 376.633C272.479 380.479 274.078 385.852 269.708 388.06ZM172.177 433.028C170.796 433.749 172.289 429.381 171.905 430.826C173.968 431.565 174.059 432.3 172.177 433.028ZM318.088 276.85C320.28 274.434 326.269 268.686 328.17 274.141C328.877 271.816 328.969 268.372 331.699 271.512C332.786 267.655 344.777 268.016 347.747 267.845C357.257 267.302 366.805 267.011 376.281 266.066C395.754 264.125 415.566 265.127 435.11 265.063C439.342 265.049 443.563 264.82 447.764 265.434C451.818 266.026 456.079 267.688 460.211 267.081C463.885 266.541 466.294 265.528 470.075 265.961C474.6 266.48 478.993 266.848 483.558 266.832C503.75 266.758 523.932 267.576 544.128 267.608C548.064 267.614 552.78 266.845 556.473 268.517C557.841 269.137 559.336 271.199 560.381 271.425C561.578 271.684 560.867 269.815 562.47 270.66C564.617 271.789 562.955 275.262 561.536 275.812C562.386 275.483 560.003 275.158 560.241 275.145C559.111 275.206 558.146 276.073 556.932 276.019C555.082 275.938 553.534 274.81 552.044 273.817C552.018 274.223 552.837 276.926 551.902 277.062C551.098 277.18 550.344 274.515 550.263 273.895C545.745 277.88 540.958 275.658 535.352 276.163C531.375 276.521 523.083 279.174 520.309 275.023C520.194 275.906 519.839 276.679 519.247 277.342C518.454 278.549 517.769 278.446 517.19 277.03C516.994 277.04 515.062 277.46 515.024 277.457C513.665 277.349 511.902 276.861 510.519 276.742C508.379 276.56 508.773 278.118 507.068 278.143C506.137 278.156 503.763 276.812 502.139 276.728C499.327 276.581 496.455 277.774 493.681 277.413C491.771 277.165 490.045 275.61 488.171 275.55C485.836 275.472 485.079 277.253 483.229 274.752C482.85 274.649 482.615 276.12 482.465 276.146C482.501 276.139 480.704 276.405 480.492 276.488C480.123 276.629 478.686 277.287 478.249 277.294C477.305 277.312 476.792 276.636 475.791 276.62C474.135 276.592 468.848 278.05 468.996 274.986C463.087 277.176 458.043 276.322 451.977 276.84C449.194 277.079 447.446 276.706 444.798 276.195C441.482 275.555 439.28 276.359 435.973 276.521C432.795 276.678 431.793 275.333 429.11 274.119C428.052 273.64 427.353 273.009 426.055 273.275C425.315 273.427 425.842 274.673 425.623 274.758C424.483 275.198 423.687 274.732 422.124 274.838C419.238 275.035 418.089 277.447 415.123 275.183C416.108 275.064 417.094 274.942 418.081 274.823C415.244 273.62 411.5 273.007 412.187 277.386C409.768 277.046 411.862 275.399 410.673 274.809C409.483 274.221 408.152 275.206 406.654 275.693C402.698 276.976 399.4 276.339 395.276 276.109C390.589 275.847 379.626 279.671 376.27 274.706C376.169 275.753 375.046 278.667 373.551 278.53C373.064 278.485 374.422 275.391 374.576 275.064C373.806 276.703 370.294 277.014 368.562 277.864C368.757 276.983 368.95 276.103 369.144 275.223C367.537 276.934 366.756 275.89 364.865 276.462C364.038 276.712 362.841 278.417 362.134 278.52C361.311 277.565 360.275 277.154 359.029 277.287C358.199 277.08 357.37 277.039 356.541 277.166C353.222 277.406 350.196 279.251 346.894 277.995C344.036 276.906 342.931 274.106 341.227 278.561C340.778 277.769 340.33 276.977 339.881 276.185C339.329 277.045 338.776 277.904 338.222 278.763C336.06 277.347 335.927 276.527 333.439 277.047C332.855 277.28 332.256 277.247 331.643 276.949C331.496 277.386 331.35 277.821 331.203 278.257C331.145 279.353 330.819 279.716 330.227 279.343C329.729 279.164 329.28 278.893 328.879 278.528C327.232 278.654 325.13 279.087 323.363 278.848C322.681 278.756 318.406 276.499 318.088 276.85ZM368.466 247.367C368.66 247.665 368.854 247.962 369.048 248.26C366.375 249.671 365.746 248.861 365.47 246.027C366.776 246.052 366.999 248.349 368.466 247.367ZM370.122 245.704C371.409 246.272 372.885 247.387 374.097 245.893C374.913 248.265 368.852 251.502 370.122 245.704ZM378.434 246.751C381.136 248.578 374.655 247.11 374.665 247.113C375.83 246.037 377.086 245.917 378.434 246.751ZM401.674 236.568C402.601 241.244 405.157 241.111 409.282 238.937C415.298 235.767 416.314 230.576 416.733 224.377C417.136 218.433 417.863 216.132 423.992 217.373C428.27 218.239 431.889 217.511 436.202 217.392C440.804 217.265 442.426 217.968 442.796 222.704C443.167 227.446 444.011 231.047 447.452 234.656C450.951 238.325 455.617 240.516 460.163 242.568C462.501 243.623 464.696 244.758 467.283 244.987C468.285 245.076 473.502 244.416 473.612 246.067C473.693 247.308 466.468 250.808 465.702 251.225C462.351 253.047 459.01 254.682 455.35 255.786C446.93 258.326 438.002 258.476 429.281 258.322C415.219 258.075 395.785 252.127 387.377 239.652C392.143 238.624 396.909 237.596 401.674 236.568ZM400.413 196.078C398.188 194.211 396.747 191.39 394.899 189.179C393.967 188.064 393.284 187.709 392.397 187.151C391.463 186.563 390.937 187.395 390.157 186.013C388.144 182.443 394.357 177.419 387.767 176.045C385.538 175.579 380.172 177.346 379.521 174.151C378.6 169.634 387.222 169.339 389.25 167.046C393.284 162.488 390.546 154.761 393.003 149.503C395.328 144.522 401.331 143.637 406.069 142.14C412.671 140.056 419.352 138.847 426.055 137.179C430.742 136.013 438.529 131.329 442.876 135.468C436.168 136.957 440.067 139.294 444.538 140.614C449.602 142.11 454.969 142.693 460.216 143.11C465.618 143.538 471.122 143.62 476.459 142.543C481.395 141.547 486.907 137.257 492.082 138.356C489.211 143.349 480.657 146.076 475.459 147.384C472.811 148.05 471.115 147.842 471.471 151.144C471.815 154.344 474.597 157.553 475.226 160.887C476.057 165.299 475.331 169.354 473.76 173.503C472.215 177.585 471.855 178.119 473.205 182.02C475.309 188.094 470.787 194.808 466.608 199.219C449.706 217.055 417.361 210.298 400.413 196.078ZM443.36 89.4798C443.428 89.662 443.37 89.5929 443.36 89.4798ZM448.624 134.491C447.923 135.015 443.887 136.113 444.056 134.535C444.281 132.422 447.919 133.185 448.624 134.491ZM457.823 91.7975C456.876 91.0916 454.223 91.3817 456.163 88.7058C456.794 89.883 457.309 90.8403 457.823 91.7975ZM394.166 74.8823C395.373 71.7456 396.71 68.8277 397.254 65.4889C397.59 63.4319 396.922 61.0828 399.798 60.7602C396.133 59.162 396.096 52.854 395.879 49.5843C395.582 45.0808 394.159 39.0514 396.139 34.86C398.17 30.5545 400.911 30.6257 401.738 35.7534C402.062 37.7611 400.823 38.4105 400.59 39.8086C400.129 42.5746 401.046 41.9682 402.83 39.861C403.567 42.0028 403.849 45.2212 406.847 45.085C406.647 44.5059 405.499 43.2281 405.883 42.5086C406.472 41.4037 409.351 43.092 409.716 43.3475C412.346 45.1866 412.916 46.8655 411.041 49.1853C413.637 49.4649 411.458 51.7376 413.134 52.3304C415.691 53.2342 413.976 48.9517 413.699 48.1987C415.255 48.8061 415.777 49.4995 416.763 50.729C417.341 51.5773 417.868 52.4581 418.343 53.3693C418.873 55.0325 419.963 55.4493 421.615 54.6198C424.927 55.6587 429.499 55.4964 432.467 57.3125C433.823 58.1419 434.313 59.9569 435.445 60.6461C436.72 61.4221 438.427 61.0702 439.796 61.5572C439.295 62.6946 439.701 63.3105 441.01 63.4068C442.028 63.5 443.014 63.7294 443.967 64.0938C444.679 63.5566 445.455 63.1324 446.292 62.8235C446.855 63.8153 447.65 64.0603 448.679 63.5608C451.733 64.1326 453.2 65.2878 455.141 67.0148C456.883 68.5649 455.465 68.6905 457.374 68.5533C458.141 68.4978 459.485 67.1971 461.239 67.4505C462.249 67.6474 463.222 67.9585 464.16 68.3837C465.173 69.2508 466.25 69.3598 467.388 68.7115C469.237 69.6153 469.419 71.2167 471.674 71.4356C474.167 71.6785 473.365 68.5701 475.077 72.9542C477.383 68.3062 478.228 75.7107 480.609 76.3087C483.075 76.9287 483.341 74.9294 485.452 77.1141C486.085 77.7687 486.05 78.8506 486.76 79.5449C487.924 80.6813 489.498 80.454 490.51 82.004C489.946 81.139 490.643 85.0695 490.631 84.9397C490.788 86.674 489.247 88.6168 492.405 88.4691C492.37 88.6514 490.853 90.8623 490.557 90.612C490.485 90.3595 490.423 90.104 490.375 89.8453C490.036 89.9909 489.886 92.0971 489.948 92.4689C490.216 92.5107 490.326 92.3118 490.277 91.8719C489.758 93.4963 490.54 94.5279 489.543 96.0695C488.905 97.0551 487.159 97.7955 486.231 98.404C483.992 99.8723 481.801 101.345 479.616 102.907C474.523 106.552 468.82 110.947 462.406 111.707C465.627 108.544 484.161 96.5743 474.865 93.1381C473.141 92.5013 470.002 91.8981 468.199 91.764C465.956 91.5975 463.637 92.8815 461.164 92.0803C458.178 91.1147 459.303 88.3089 457.48 87.3024C453.608 85.1669 454.522 90.1888 453.304 91.5043C452.023 90.1606 452.297 89.507 450.276 89.3855C448.224 89.262 447.736 91.1587 445.341 89.9773C442.042 88.3487 443.788 85.1052 439.108 85.0287C439.186 84.3165 439.865 82.3266 438.972 81.7715C437.768 83.3331 438.7 85.079 437.582 86.5819C437.023 87.3359 435.809 87.9371 434.923 88.1811C432.848 88.7509 432.553 89.8422 432.891 86.718C431.353 89.4882 426.638 88.3487 423.833 88.0701C419.273 87.6166 414.427 86.7536 410.055 85.2916C406.012 83.9384 403.853 81.6144 400.518 79.4999C399.258 78.6998 398.656 79.0056 396.849 78.5091C395.064 78.019 393.326 77.0691 394.166 74.8823ZM403.787 25.8332C404.476 25.4185 404.97 31.6071 404.136 32.7633C402.608 30.3471 399.9 26.803 403.787 25.8332ZM405.986 23.3647C408.2 21.3612 406.662 26.536 406.256 27.4042C405.436 26.8784 404.616 26.3527 403.796 25.8269C404.842 25.1849 405.103 24.1638 405.986 23.3647ZM489.506 15.0249C509.958 19.3168 530.224 27.3392 546.627 40.5417C561.569 52.5671 572.114 69.6289 578.027 87.7779C584.164 106.616 582.102 127.516 567.501 141.934C559.809 149.528 549.652 154.11 539.972 158.581C535.334 160.723 530.557 162.507 525.901 164.6C522.557 166.103 518.474 168.507 514.658 168.09C516.605 166.042 519.429 166 521.786 164.747C524.633 163.233 526.958 160.327 529.412 158.251C531.848 156.19 537.252 149.7 540.996 151.271C540.476 147.813 544.416 146.208 546.191 143.928C548.068 141.516 548.203 138.695 551.663 137.906C547.947 134.998 549.085 129.515 549.893 125.557C550.927 120.495 551.405 115.848 551.813 110.697C552.548 101.411 553.14 89.5814 548.009 81.4175C546.344 78.7668 544.224 76.3307 542.739 73.5773C540.948 70.2594 541.343 67.3384 541.343 63.7011C538.07 65.9005 537.38 61.4159 535.997 59.2301C534.959 57.59 533.596 56.6736 533.261 54.6104C533.018 53.1085 534.647 52.8551 533.754 51.281C532.659 52.1083 532.222 53.3903 531.667 54.58C530.656 54.1757 531.848 52.7681 531.269 52.3105C531.252 52.2979 529.301 51.4506 529.398 51.5732C528.143 49.9823 527.739 47.342 527.124 45.4484C524.825 46.6131 525.255 46.4759 522.69 44.5299C522.238 44.1875 519.981 42.6144 519.768 42.1002C518.776 39.6955 520.515 41.1199 520.029 39.6274C518.632 35.3408 510.794 36.1514 510.173 29.7282C506.351 32.1548 504.893 28.7165 502.634 26.271C500.318 23.7658 496.434 22.8023 496.642 18.8287C495.439 19.2403 494.236 19.6509 493.034 20.0604C493.659 16.3937 488.212 16.6273 486.239 14.7672C487.334 14.7809 488.423 14.8667 489.506 15.0249ZM492.621 242.124C494.516 240.429 493.941 242.685 495.161 242.427C496.204 242.206 496.41 241.417 497.41 241.176C501.531 240.18 507.692 241.431 512.025 241.216C517.044 240.968 525.648 242.01 528.04 247.883C529.481 251.419 527.282 250.216 524.859 249.953C522.981 249.75 521.311 250.13 519.452 250.111C518.533 250.253 517.618 250.239 516.705 250.068C516.26 249.775 515.997 249.362 515.916 248.83C513.33 248.439 510.583 249.969 507.719 250.045C503.896 250.147 500.499 249.414 497.595 246.833C496.44 248.554 495.653 249.407 493.577 249.6C493.523 249.605 491.494 248.788 491.181 248.707C490.765 248.599 489.714 249.471 488.913 249.222C490.334 246.958 490.541 243.983 492.621 242.124ZM753.686 262.561C754.361 260.214 754.925 257.836 755.54 255.474C764.975 266.215 773.232 280.593 776.948 294.369C779.361 303.32 783.117 319.54 771.611 324.157C762.238 327.918 757.012 314.437 754.64 307.797C749.405 293.139 749.405 277.475 753.686 262.561ZM331.549 94.2545C331.67 94.2304 325.441 97.8531 327.493 94.9196C328.317 93.7403 331.444 92.9108 332.831 92.9108L331.549 94.2545ZM325.557 95.7899C324.836 96.3963 324.108 96.9954 323.374 97.5861C322.669 96.4717 321.962 95.3574 321.257 94.243C322.648 93.6565 328.551 93.2166 325.557 95.7899ZM321.166 208.427C319.863 207.544 318.83 208.013 318.438 209.495C318.438 208.021 319.206 204.595 320.386 204.196C321.149 203.937 317.851 200.036 318.778 199.015C321.135 200.365 319.724 201.658 320.414 203.401C320.726 204.187 321.662 204.931 321.867 205.535C322.215 206.561 323.622 210.087 321.166 208.427ZM314.781 199.648C313.446 199.99 315.783 202.193 315.781 203.167C315.779 203.904 314.895 204.469 314.53 205.477C313.739 207.66 315.1 209.135 312.86 210.801C312.86 206.017 309.649 193.34 315.819 191.009C312.809 188.639 315.281 185.903 317.64 188.739C319.908 191.467 318.463 198.706 314.781 199.648ZM311.567 180.769C310.354 176.469 306.704 174.965 302.532 175.22C302.691 173.018 304.359 169.844 305.564 173.812C306.06 172.639 306.403 171.109 307.533 170.332C309.436 176.297 318.922 179.593 313.016 186.057C312.533 184.295 312.064 182.529 311.567 180.769ZM300.543 175.54C278.576 177.133 247.736 181.691 230.157 164.853C218.695 153.874 219.307 136.777 228.57 124.579C233.856 117.618 241.072 112.717 248.319 108.048C251.115 106.245 253.484 105.056 256.554 104.02C257.051 103.966 257.519 104.077 257.956 104.353C258.129 103.611 258.546 103.062 259.211 102.704C260.397 102.07 262.086 101.843 262.769 100.526C262.04 103 261.665 105.547 261.398 108.106C260.806 107.417 260.215 106.728 259.624 106.039C259.13 110.701 254.273 107.879 251.373 108.461C253.283 111.105 254.65 112.065 254.814 115.559C253.391 112.932 250.416 111.205 247.65 110.359C249.152 114.802 250.214 117.439 248.702 122.311C246.875 121.268 246.752 118.763 244.536 118.163C243.951 121.068 243.848 124.292 243.099 127.111C237.425 124.523 237.978 131.493 240.257 134.942C241.468 136.777 242.063 138.901 243.144 140.662C245.796 144.982 243.781 138.522 246.729 138.828C246.067 143.385 245.836 143.839 249.171 147.176C252.426 150.43 254.114 154.945 257.595 158.002C258.603 156.713 257.018 155.366 256.879 154.133C260.118 154.676 261.635 157.924 264.749 155.047C266.107 157.694 267.577 160.608 270.829 161.152C268.679 157.065 274.958 159.837 276.568 160.417C277.789 160.857 279.977 161.206 280.448 161.376C283.101 162.334 281.282 160.615 282.892 163.756C285.256 163.042 286.148 161.081 288.976 162.738C291.275 164.086 291.28 166.394 291.806 168.759C292.354 167.212 292.907 165.666 293.513 164.14C294.13 164.4 296.719 167.248 296.436 167.262C302.495 166.965 302.281 170.727 300.543 175.54ZM269.7 98.4208C270.917 97.5672 272.402 98.7035 273.768 98.3977C275.66 97.9757 276.734 96.3554 278.847 96.1816C278.259 98.0605 277.155 97.8845 276.222 99.3602C275.904 99.8629 276.07 101.069 275.787 101.358C273.419 103.784 272.601 101.805 270.184 99.9687C270.394 102.183 270.82 102.882 268.734 103.476C266.846 104.014 263.729 102.032 262.777 100.511C263.58 98.9046 268.244 99.4429 269.7 98.4208ZM284.773 94.9604C286.824 95.1563 284.353 101.208 281.414 95.3375C282.521 95.0966 283.641 94.9709 284.773 94.9604ZM295.32 93.7906C298.555 93.1308 309.345 90.0558 310.546 95.0913C310.761 94.9657 311.564 92.1232 311.937 92.4699C313.431 93.8597 313.598 95.7019 313.484 97.6321C311.678 93.8702 312.32 97.1745 311.096 96.9168C310.777 96.8487 310.288 97.4457 309.479 97.1996C308.418 96.876 307.658 94.619 306.988 93.8545C305.873 95.4464 304.491 97.496 302.258 97.3577C300.677 97.2603 298.13 93.1905 300.177 97.6458C298.975 97.2488 297.584 96.3502 296.245 96.5304C294.746 96.7325 293.967 98.2123 292.562 98.4511C289.447 98.979 288.977 95.9816 286.955 94.354C289.744 94.1917 292.566 94.3519 295.32 93.7906ZM314.891 93.7424C315.119 92.7097 317.95 92.2929 318.671 92.6207C320.43 93.4198 319.779 94.4745 319.456 96.2298C318.151 95.6119 316.845 94.995 315.54 94.3771C317.488 97.5148 313.958 97.9704 314.891 93.7424ZM862.83 277.538C862.599 270.019 862.38 262.369 860.474 255.048C859.14 249.925 855.862 240.738 849.663 239.849C840.315 238.507 835.138 256.984 832.518 263.326C831.994 255.859 832.453 247.911 829.632 240.824C827.374 235.144 821.669 229.765 816.755 236.143C812.383 241.82 811.543 250.199 810.392 257.029C808.901 265.879 808.005 274.797 806.916 283.7C802.646 275.448 801.9 266.002 798.525 257.426C795.34 249.333 790.329 241.604 785.501 234.406C781.56 228.526 776.763 222.998 770.588 219.404C765.212 216.276 755.812 212.892 750.688 218.087C746.413 222.422 747.083 228.223 747.305 233.693C747.405 236.13 747.787 237.8 745.644 239.027C744.592 239.631 742.946 239.319 741.789 239.641C739.925 240.162 738.495 241.044 736.919 242.216C725.863 250.433 720.767 265.241 719.19 278.443C717.193 295.171 723.714 309.511 729.326 324.816C730.22 327.256 733.06 332.431 732.668 335.154C732.238 338.137 728.493 338.215 725.966 338.277C718.334 338.465 710.356 337.896 702.763 337.185C684.683 335.494 666.617 326.79 650.429 319.019C647.476 317.6 643.297 316.789 640.886 314.556C638.62 312.457 638.022 309.093 636.066 306.685C631.265 300.777 628.206 295.736 621.136 292.166C613.937 288.532 606.59 285.173 599.566 281.193C590.88 276.268 582.854 270.03 574.53 264.516C559.06 254.271 543.695 243.04 527.294 234.328C519.673 230.279 511.156 229.624 503.244 226.309C495.538 223.081 486.08 223.077 478.039 225.115C474.122 226.109 471.457 228.463 467.854 230C463.633 231.801 460.189 229.813 456.474 227.663C450.798 224.379 445.172 219.027 453.255 215.484C455.996 214.281 459.432 213.826 461.827 211.935C464.38 209.921 466.43 206.206 468.506 203.683C473.121 198.074 475.878 191.617 482.633 188.13C490.103 184.273 498.958 183.223 506.923 180.702C515.553 177.972 524.003 174.725 532.472 171.537C547.731 165.794 563.594 159.593 574.559 146.949C584.016 136.042 588.138 121.962 587.756 107.662C586.976 78.4285 571.316 48.7601 548.848 30.4823C521.297 8.06964 486.247 0.59597 451.446 0.987667C435.113 1.172 415.621 3.30957 401.993 13.2329C390.222 21.8042 388.264 36.7955 390.015 50.3279C390.725 55.82 393.154 63.0675 389.281 67.9071C387.113 70.6145 383.222 71.2847 380.302 72.973C376.633 75.0938 373.397 77.1267 369.241 78.2484C351.588 83.0158 332.993 81.3558 314.943 81.0918C284.875 80.652 254.055 88.7928 231.625 109.98C213.511 127.088 208.079 159.349 230.171 176.027C248.02 189.501 276.016 188.019 297.062 185.669C303.588 184.939 308.076 183.879 308.091 191.864C308.107 200.586 306.663 209.702 308.888 218.264C312.393 231.75 325.351 232.071 336.807 229.167C342.852 227.635 348.696 225.331 354.436 222.918C362.856 219.379 370.574 214.175 378.889 210.642C384.526 208.248 388.747 215.991 393.747 210.623C394.671 209.631 394.842 208.153 396.235 207.645C398.419 206.85 402.082 209.638 403.998 210.519C406.866 211.84 409.757 212.811 410.903 215.991C411.975 218.965 411.505 223.695 410.478 226.629C408.247 233.007 402.239 231.747 396.754 231.32C387.187 230.576 377.685 228.997 368.122 228.334C359.542 227.739 351.507 230.303 344.107 234.534C328.563 243.421 315.846 257.556 302.369 269.18C295.432 275.162 288.727 281.624 281.184 286.833C277.904 289.099 274.352 291.181 271.502 293.996C268.673 296.788 268.362 299.327 267.395 303.043C265.672 309.659 257.116 312.893 251.768 316.383C244.205 321.319 236.187 324.802 227.708 327.831C209.753 334.244 191.656 338.723 172.884 342.033C163.693 343.655 154.579 344.72 145.299 345.595C137.299 346.349 128.793 348.813 120.803 346.845C123.104 343.112 127.182 340.871 130.358 337.985C134.452 334.266 137.934 329.859 141.033 325.293C147.064 316.401 151.295 306.86 152.266 296.075C153.142 286.368 152.138 274.757 146.281 266.557C144.258 263.724 140.255 262.953 138.445 260.402C136.644 257.866 137.331 253.499 136.345 250.542C133.836 243.02 126.389 233.699 119.835 229.33C112.725 224.589 102.324 222.847 94.1106 225.318C78.8946 229.895 69.548 246.156 62.5855 259.298C58.782 251.295 65.1514 239.421 57.7213 232.867C51.4543 227.338 46.4803 238.048 44.384 242.63C34.5448 264.139 32.3104 286.952 28.1878 309.966C26.5079 308.31 27.3688 304.06 27.5267 302.084C27.8207 298.407 27.7935 294.8 27.8008 291.107C27.8207 281.779 29.555 272.408 28.76 263.088C28.3008 257.7 26.5832 246.34 18.7555 248.13C12.1172 249.648 7.95912 258.983 5.87328 264.69C2.86481 272.922 2.17022 281.071 2.35747 289.767C2.56459 299.375 0.733984 308.826 0.290454 318.421C-0.5715 337.058 0.279994 355.533 5.62746 373.52C14.384 402.974 34.5176 427.446 61.3888 442.224C76.1937 450.367 92.6179 455.519 109.504 456.627C118.655 457.227 127.489 456.138 136.562 455.192C145.515 454.258 154.515 453.826 163.453 452.731C183.357 450.289 202.752 443.988 220.844 435.509C230.367 431.045 239.323 425.565 248.69 420.806C252.449 418.898 254.988 416.509 258.196 413.854C261.376 411.223 262.256 411.017 265.873 411.017C264.812 408.179 267.908 407.304 269.286 405.508C269.209 406.38 269.131 407.25 269.054 408.12C270.104 405.842 271.082 405.864 271.987 408.186C272.881 405.586 273.543 402.912 274.623 400.377C278.752 402.467 278.404 407.434 283.926 403.807C288.473 400.822 292.654 397.301 297.289 394.376C307.848 387.711 316.952 379.039 327.541 372.451C327.541 378.868 327.994 385.34 327.136 391.724C326.32 397.795 324.054 403.469 322.251 409.281C318.927 420.003 318.697 431.462 315.013 442.076C313.489 446.472 309.52 450.148 308.381 454.427C307.221 458.793 309.901 462.291 305.409 465.157C302.241 467.177 298.282 468.031 294.774 469.253C289.424 471.119 284.344 473.75 279.136 475.982C254.706 486.45 230.877 497.111 208.243 511.186C186.763 524.542 164.955 538.336 145.223 554.199C128.098 567.966 110.787 585.766 106.618 608.224C102.573 630.007 113.351 653.389 134.992 660.563C146.244 664.293 158.965 663.831 170.683 663.993C183.292 664.167 196.654 661.128 209.051 658.929C222.143 656.607 235.011 652.973 248.141 650.899C260.739 648.909 272.293 644.462 284.685 641.721C297.883 638.803 311.42 637.219 324.691 634.593C330.666 633.411 336.519 631.667 342.51 630.573C349.069 629.375 355.7 628.925 362.195 627.339C374.793 624.26 386.855 619.296 399.508 616.432C405.196 615.144 410.798 613.419 416.489 612.215C421.728 611.107 425.81 608.162 431.061 610.581C435.303 612.535 438.687 615.885 442.702 618.219C447.909 621.246 453.399 623.958 458.828 626.563C469.736 631.797 481.049 635.415 492.455 639.344C504.435 643.473 516.2 648.18 528.612 650.906C541.336 653.701 554.317 654.479 567.129 656.69C593.368 661.216 619.385 663.248 646.019 663.412C659.482 663.497 672.943 661.901 686.374 662.09C698.265 662.257 708.602 664.937 719.475 658.616C736.848 648.515 756.999 633.301 756.572 611.203C756.184 591.187 744.178 572.064 732.917 556.278C719.241 537.107 699.742 523.607 680.632 510.383C660.264 496.29 637.386 486.552 615.98 474.25C605.032 467.959 594.935 461.19 583.048 456.719C577.373 454.586 571.837 452.112 566.229 449.814C561.716 447.965 555.2 446.944 551.338 443.877C548.928 441.963 548.697 439.065 548.061 436.22C546.651 429.923 544.437 423.951 542.29 417.879C538.146 406.153 535.391 394.211 533.61 381.913C531.912 370.189 528.143 357.998 530.095 346.083C542.934 358.502 556.127 370.441 569.264 382.531C574.186 387.062 579.018 391.688 583.967 396.191C587.682 399.572 592.328 404.594 597.507 405.597C604.121 406.879 601.705 399.563 606.246 398.429C609.021 397.737 617.392 404.789 619.587 406.182C633.495 415.012 648.896 420.607 664.194 426.618C680.235 432.92 696.732 438.518 713.994 440.104C729.938 441.572 746.241 439.688 761.628 435.345C792.269 426.694 814.817 406.169 831.365 379.563C850.22 349.245 863.94 313.73 862.83 277.538Z" fill="black"/>
<path fill-rule="evenodd" clip-rule="evenodd" d="M394.521 211.445C394.516 211.454 394.469 211.554 394.469 211.554C394.527 211.514 394.544 211.478 394.521 211.445Z" fill="black"/>
<path fill-rule="evenodd" clip-rule="evenodd" d="M396 211.837C395.885 210.871 395.637 209.926 395.257 209C394.243 210.608 393.335 211.297 394.668 213C395.111 212.612 395.555 212.225 396 211.837Z" fill="black"/>
<path fill-rule="evenodd" clip-rule="evenodd" d="M466.658 441.679C467.792 440.471 465.808 440.016 465.054 440C465.129 441.295 464.487 444.4 466.259 445C465.834 443.828 465.967 442.721 466.658 441.679Z" fill="black"/>
<path fill-rule="evenodd" clip-rule="evenodd" d="M436.726 189.043C434.776 192.809 439.084 193.977 441.578 192.158C443.454 190.79 444.564 187.303 444.872 185.066C445.869 177.828 440.804 170.938 438.278 164.515C437.626 162.855 436.732 157.161 434.63 157.005C432.216 156.825 432.037 162.069 432.006 163.422C431.913 167.502 432.993 171.658 434.259 175.509C435.623 179.661 439.004 184.645 436.726 189.043Z" fill="black"/>
<path fill-rule="evenodd" clip-rule="evenodd" d="M446.001 173.94C453.496 180.614 459.492 169.498 458.968 162.923C458.839 161.294 457.738 155.287 454.648 157.473C453.096 158.571 454.419 162.14 453.679 163.707C450.095 171.303 446.642 159.52 444.228 158.595C441.291 157.468 440.996 161.327 441 163.39C441.007 167.485 442.956 171.228 446.001 173.94Z" fill="black"/>
<path fill-rule="evenodd" clip-rule="evenodd" d="M418.793 174.977C420.558 172.197 422.729 168.468 422.969 165.137C423.341 159.96 420.325 160.392 417.841 164.004C416.088 166.556 414.772 170.884 410.9 169.808C406.12 168.482 407.581 162.054 404.905 159C398.148 168.076 410.935 187.347 418.793 174.977Z" fill="black"/>
<path fill-rule="evenodd" clip-rule="evenodd" d="M428.92 202.752C431.715 203.356 439.002 203.134 436.477 198.854C433.293 193.464 422.705 201.408 428.92 202.752Z" fill="black"/>
<path fill-rule="evenodd" clip-rule="evenodd" d="M526.831 42C527.343 40.4765 526.64 40.1998 525.42 39C524.265 40.0662 525.744 41.1879 526.831 42Z" fill="black"/>
<path fill-rule="evenodd" clip-rule="evenodd" d="M578.961 317.949C580.805 318.242 581.399 317.267 580.74 315.023C577.831 314.835 577.239 315.81 578.961 317.949Z" fill="black"/>
<path fill-rule="evenodd" clip-rule="evenodd" d="M478.276 82.55C480.31 83.4799 479.531 85.3876 479.496 87C480.544 85.8615 482.66 83.7802 481.798 82.1449C480.471 79.6236 477.002 81.9683 478.276 82.55Z" fill="black"/>
<path fill-rule="evenodd" clip-rule="evenodd" d="M409 50.8147C408.69 50.2098 408.38 49.6049 408.07 49C406.807 50.0135 404.857 52.6938 406.864 54C407.687 53.0014 408.399 51.9396 409 50.8147Z" fill="black"/>
<path fill-rule="evenodd" clip-rule="evenodd" d="M433.402 68.6038C435.933 70.5883 434.719 64.4975 434.643 64C434.267 64.7145 432.124 67.6014 433.402 68.6038Z" fill="black"/>
<path fill-rule="evenodd" clip-rule="evenodd" d="M432 65.5107C431.807 65.0075 431.612 64.5043 431.419 64C430.393 64.9496 429.137 66.8889 430.831 68C431.296 67.2218 431.685 66.3924 432 65.5107Z" fill="black"/>
<path fill-rule="evenodd" clip-rule="evenodd" d="M448.071 86.4267C448.278 86.6175 448.484 86.8083 448.69 87C449.525 85.3164 448.576 84.0515 447 84C447.112 84.9453 447.469 85.7542 448.071 86.4267Z" fill="black"/>
<path fill-rule="evenodd" clip-rule="evenodd" d="M380.265 275.834C381.269 275.15 382.18 274.371 383 273.496C380.029 271.68 381.809 275.616 378.233 273.199C377.463 274.264 378.721 276.648 380.265 275.834Z" fill="black"/>
<path fill-rule="evenodd" clip-rule="evenodd" d="M505.102 441C506.232 439.266 506.436 439.316 504.893 438C503.606 440.143 503.739 439.592 505.102 441Z" fill="black"/>
<path fill-rule="evenodd" clip-rule="evenodd" d="M269 165.077C269.615 165.718 270.23 166.36 270.845 167C271.132 166.161 272.698 163.789 271.634 163C270.757 163.692 269.878 164.384 269 165.077Z" fill="black"/>
<path fill-rule="evenodd" clip-rule="evenodd" d="M290.874 171.422C289.892 171.258 287.543 170.542 287 171.455C288.437 172.632 291.678 171.557 290.874 171.422Z" fill="black"/>
</svg>
