<svg width="109" height="64" viewBox="0 0 109 64" fill="none" xmlns="http://www.w3.org/2000/svg">
<g opacity="0.65">
<path d="M26.0426 45.5733C19.6325 29.2995 25.7141 9.45213 42.7731 2.81757C59.2312 -3.59259 80.8014 6.43931 83.6379 24.7243C83.7181 25.2531 84.5353 25.1089 84.4632 24.58C81.8751 6.15887 60.1286 -4.22559 43.4863 1.63971C25.7141 7.90564 18.1821 28.971 25.5298 45.8217C25.682 46.1502 26.1788 45.9099 26.0426 45.5733Z" fill="#18171C"/>
<path d="M30.8267 53.3299C38.527 63.4659 54.7847 65.7255 66.2269 61.7913C77.5168 57.9051 84.5119 46.5672 85.3933 34.9407C85.4173 34.6362 84.9766 34.6042 84.9205 34.8927C82.8773 45.6056 77.8533 56.3987 67.0682 60.5734C55.2495 65.1486 39.793 62.6567 31.1793 53.0174C30.979 52.793 30.6425 53.0895 30.8267 53.3299Z" fill="#18171C"/>
<path d="M22.9448 35.6214C21.0698 36.9034 17.1195 40.2287 18.1211 42.8969C19.1067 45.5251 24.0025 45.3809 26.1899 45.469C26.5505 45.485 26.5826 44.9883 26.238 44.9242C24.0906 44.5155 17.8567 45.0203 18.666 41.2463C19.1067 39.179 21.6307 37.1438 23.105 35.8137C23.2332 35.7015 23.081 35.5253 22.9448 35.6214Z" fill="#18171C"/>
<path d="M25.3676 45.5084C34.9427 45.1718 44.6621 42.8161 53.7646 39.9636C62.9071 37.095 72.1938 33.4973 80.3267 28.3772C80.5671 28.225 80.3988 27.8484 80.1344 27.9686C71.1922 32.2233 62.4343 36.438 52.9233 39.3386C43.8449 42.103 34.6623 43.4571 25.3435 45.0436C25.0951 45.0837 25.0951 45.5164 25.3676 45.5084Z" fill="#18171C"/>
<path d="M81.1937 27.9054C83.0767 26.7196 84.8154 25.3814 86.4179 23.827C87.5077 22.7693 88.9099 21.5113 89.2224 19.9568C89.9756 16.1989 85.0958 16.2309 82.7241 16.0146C82.4436 15.9905 82.3235 16.4312 82.6119 16.5034C83.7016 16.7918 84.8074 16.7918 85.9051 17.0162C87.5637 17.3607 87.5317 17.3848 87.7721 19.2998C88.0365 21.3991 87.9804 21.2549 86.5702 22.7372C84.8715 24.5241 82.9484 26.0865 80.9613 27.5368C80.769 27.6891 80.9853 28.0416 81.1937 27.9054Z" fill="#18171C"/>
<path d="M22.9749 31.2722C18.0231 33.4276 13.2395 36.1359 8.93666 39.4131C6.00402 41.6486 1.38069 44.8056 0.258914 48.5716C-2.4013 57.4817 16.2122 55.3584 20.6352 54.6613C20.9156 54.6132 20.8355 54.2045 20.5551 54.2286C16.084 54.6052 11.6209 54.7334 7.16587 54.0924C4.68192 53.7398 0.723664 53.6036 0.667574 49.7655C0.627514 47.2655 3.55214 44.9098 5.21878 43.3553C10.5072 38.4115 16.733 34.9019 23.1672 31.6808C23.4316 31.5526 23.2393 31.152 22.9749 31.2722Z" fill="#18171C"/>
<path d="M22.6081 54.6351C35.0518 53.4092 47.5036 49.9557 59.2742 45.8292C71.0048 41.7106 82.9598 36.6466 93.3843 29.8037C93.6327 29.6435 93.3603 29.2348 93.1039 29.3711C82.1184 35.1162 71.3574 40.7731 59.6348 44.9397C47.4875 49.2586 35.148 51.7826 22.528 54.2024C22.2555 54.2585 22.3357 54.6592 22.6081 54.6351Z" fill="#18171C"/>
<path d="M95.5649 28.539C99.1306 26.7281 113.345 15.8308 106.19 11.2235C105.973 11.0873 105.685 11.3678 105.877 11.5681C110.997 16.7202 99.363 25.8547 95.4207 28.2345C95.2284 28.3387 95.3646 28.6431 95.5649 28.539Z" fill="#18171C"/>
<path d="M78.1074 11.428C86.9775 10.9793 95.1905 8.79985 104.085 10.6027C104.293 10.6427 104.357 10.3142 104.165 10.2421C96.4725 7.3175 85.8397 9.48094 78.0593 11.1395C77.875 11.1876 77.9311 11.436 78.1074 11.428Z" fill="#18171C"/>
<path d="M48.9886 36.1982C56.0719 34.6758 62.9788 31.9434 69.1326 28.1134C69.3089 28.0012 69.1807 27.7047 68.9883 27.8089C62.5221 31.3185 56.0559 33.9306 48.9165 35.7815C48.6601 35.8456 48.7242 36.2543 48.9886 36.1982Z" fill="#18171C"/>
<path d="M54.7946 36.0548C58.8971 34.5404 62.9756 32.8658 66.8137 30.7665C66.9899 30.6703 66.8617 30.3979 66.6774 30.486C62.6951 32.3209 58.7369 34.1638 54.6424 35.7423C54.434 35.8225 54.5863 36.135 54.7946 36.0548Z" fill="#18171C"/>
<path d="M69.0123 29.8343C73.6276 27.767 78.3951 24.586 81.7284 20.7639C81.8726 20.6037 81.6162 20.3873 81.456 20.5155C77.3935 23.9129 73.5154 26.9417 68.86 29.5218C68.6677 29.634 68.8119 29.9304 69.0123 29.8343Z" fill="#18171C"/>
<path d="M69.9352 28.1793C71.0089 27.5783 72.1147 27.0254 73.1003 26.2803C73.2525 26.1681 73.0922 25.9357 72.924 26.0078C71.8102 26.4806 70.7846 27.1617 69.7509 27.7866C69.5106 27.9309 69.6868 28.3155 69.9352 28.1793Z" fill="#18171C"/>
<path d="M74.4725 25.2205C77.1567 23.3375 79.857 21.118 81.6839 18.3616C81.7881 18.2094 81.5798 17.993 81.4355 18.1373C79.0958 20.509 76.9164 22.9289 74.2562 24.9641C74.0879 25.0923 74.3042 25.3407 74.4725 25.2205Z" fill="#18171C"/>
<path d="M74.2777 23.8677C75.752 22.6017 77.3546 21.3917 78.6767 19.9655C78.8209 19.8052 78.6366 19.5729 78.4523 19.7091C76.8658 20.8308 75.4555 22.2651 74.0133 23.5632C73.821 23.7314 74.0774 24.0359 74.2777 23.8677Z" fill="#18171C"/>
<path d="M69.8291 26.3756C70.5021 25.8948 71.1752 25.4141 71.8403 24.9173C71.9845 24.8131 71.8082 24.6128 71.664 24.709C70.9749 25.1737 70.3018 25.6545 69.6208 26.1272C69.4525 26.2474 69.6608 26.4958 69.8291 26.3756Z" fill="#18171C"/>
<path d="M24.2513 39.3804C30.2929 39.3323 36.3665 38.6032 42.1277 36.7122C42.2879 36.6642 42.1998 36.3916 42.0395 36.4317C36.1502 37.906 30.381 38.9237 24.2914 39.0038C24.051 39.0118 24.0109 39.3804 24.2513 39.3804Z" fill="#18171C"/>
<path d="M28.5421 40.5716C32.0676 40.163 35.6012 39.6822 39.0547 38.8649C39.231 38.8249 39.1829 38.5604 39.0066 38.5925C35.4971 39.1374 32.0035 39.7704 28.486 40.2271C28.2536 40.2511 28.3177 40.5957 28.5421 40.5716Z" fill="#18171C"/>
<path d="M43.1018 37.4336C44.1996 37.1772 45.3213 36.9609 46.371 36.5522C46.5473 36.4801 46.4511 36.2237 46.2749 36.2477C45.1771 36.392 44.1034 36.7525 43.0297 37.049C42.7893 37.1211 42.8534 37.4977 43.1018 37.4336Z" fill="#18171C"/>
<path d="M41.9038 38.3461C44.1634 38.2419 46.447 37.8653 48.5303 36.9679C48.6986 36.8958 48.5784 36.6554 48.4101 36.7115C46.2387 37.4006 44.1313 37.9294 41.8477 38.0416C41.6474 38.0496 41.7035 38.3541 41.9038 38.3461Z" fill="#18171C"/>
<path d="M54.0692 33.3249C58.9169 31.6743 63.6764 29.5189 67.851 26.5221C68.0113 26.41 67.835 26.1295 67.6667 26.2337C63.2117 28.8458 58.7806 31.2256 53.9169 32.9964C53.6926 33.0765 53.8528 33.397 54.0692 33.3249Z" fill="#18171C"/>
<path d="M64.7707 26.4731C66.3091 25.9202 67.7675 25.1831 69.0094 24.1014C69.1376 23.9892 68.9934 23.7328 68.8332 23.8369C67.479 24.7103 66.1088 25.5356 64.6105 26.1446C64.3941 26.2327 64.5544 26.5533 64.7707 26.4731Z" fill="#18171C"/>
<path d="M70.5293 24.1654C73.502 22.7632 76.5469 20.8241 78.542 18.1559C78.6542 18.0116 78.4379 17.8113 78.3016 17.9395C75.7937 20.2151 73.454 22.3305 70.3771 23.8529C70.1768 23.9491 70.321 24.2615 70.5293 24.1654Z" fill="#18171C"/>
<path d="M26.6933 38.1726C31.7974 37.748 37.0057 36.8906 41.8614 35.2159C42.0377 35.1599 41.9415 34.8634 41.7652 34.9115C36.7332 36.1534 31.8054 37.2832 26.6453 37.8762C26.4449 37.8922 26.501 38.1887 26.6933 38.1726Z" fill="#18171C"/>
<path d="M32.3142 36.2787C34.1891 35.9742 36.1122 35.5656 37.9391 35.0287C38.1234 34.9726 38.0833 34.7001 37.883 34.7241C36 34.9965 34.085 35.4213 32.2501 35.9261C32.0417 35.9822 32.0898 36.3107 32.3142 36.2787Z" fill="#18171C"/>
<path d="M25.8622 43.7393C30.1009 44.2281 34.3236 43.8755 38.362 42.4733C38.5142 42.4252 38.4341 42.1608 38.2739 42.2089C34.1874 43.3627 30.1329 43.8275 25.8942 43.3788C25.6619 43.3547 25.6298 43.7153 25.8622 43.7393Z" fill="#18171C"/>
<path d="M27.7929 42.8255C30.4772 42.9617 33.1454 42.8736 35.7976 42.4409C35.9658 42.4168 35.9178 42.1604 35.7495 42.1765C33.1133 42.489 30.4772 42.6412 27.8169 42.521C27.6246 42.521 27.6006 42.8175 27.7929 42.8255Z" fill="#18171C"/>
<path d="M50.3694 37.1208C51.2668 36.7121 52.1562 36.6079 53.0937 36.3676C53.254 36.3275 53.262 36.0791 53.0857 36.0711C52.1322 36.007 51.0825 36.4156 50.2332 36.8243C50.0329 36.9124 50.1771 37.2089 50.3694 37.1208Z" fill="#18171C"/>
<path d="M39.149 39.8066C40.2468 39.6223 41.3766 39.4861 42.4663 39.2136C42.6426 39.1656 42.6025 38.9092 42.4182 38.9332C41.3044 39.0534 40.1987 39.3098 39.101 39.5021C38.9007 39.5422 38.9487 39.8386 39.149 39.8066Z" fill="#18171C"/>
<path d="M39.7315 38.6495C40.2843 38.5453 40.8372 38.4572 41.3821 38.305C41.5664 38.2489 41.5263 37.9925 41.334 38.0085C40.7731 38.0646 40.2283 38.2008 39.6754 38.305C39.451 38.353 39.5151 38.6976 39.7315 38.6495Z" fill="#18171C"/>
<path d="M43.3986 36.1515C45.9546 35.5666 48.5828 34.9816 51.0747 34.1563C51.235 34.1003 51.1469 33.8358 50.9866 33.8679C48.4225 34.3486 45.8505 35.1099 43.3425 35.831C43.1422 35.8871 43.1902 36.1996 43.3986 36.1515Z" fill="#18171C"/>
<path d="M49.1712 33.7542C49.9164 33.4897 50.6696 33.2413 51.3987 32.9289C51.5429 32.8647 51.4708 32.6083 51.3106 32.6564C50.5334 32.8808 49.7721 33.1612 49.0189 33.4336C48.8026 33.5138 48.9548 33.8343 49.1712 33.7542Z" fill="#18171C"/>
<path d="M65.0817 34.4356C69.705 32.7449 74.3284 30.5654 78.4068 27.785C78.5511 27.6889 78.3908 27.4485 78.2466 27.5366C73.8636 29.9324 69.5528 32.208 64.9615 34.1711C64.7852 34.2513 64.9054 34.4997 65.0817 34.4356Z" fill="#18171C"/>
<path d="M72.1461 30.1475C73.8528 29.2821 75.6236 28.4809 77.2502 27.4793C77.4184 27.3751 77.3062 27.1187 77.1139 27.1988C75.3511 27.944 73.6765 28.9216 71.9858 29.811C71.7775 29.9231 71.9297 30.2517 72.1461 30.1475Z" fill="#18171C"/>
<path d="M40.2414 49.2911C51.5313 46.6869 62.717 42.8569 73.0053 37.5044C73.1896 37.4082 73.0614 37.1198 72.8611 37.2079C62.2603 42.1117 51.5473 46.1581 40.1773 48.9305C39.9529 48.9866 40.009 49.3391 40.2414 49.2911Z" fill="#18171C"/>
<path d="M55.6368 42.864C57.8163 42.5355 59.8595 41.8224 61.7185 40.6365C61.8948 40.5243 61.7746 40.2439 61.5743 40.34C59.6512 41.2935 57.6721 42.0387 55.5647 42.5034C55.3404 42.5595 55.4045 42.9041 55.6368 42.864Z" fill="#18171C"/>
<path d="M74.9587 37.3515C83.1076 33.8179 91.2565 30.0038 98.2917 24.4831C100.543 22.7123 108.219 17.6482 105.615 13.9544C105.455 13.73 105.086 13.9704 105.207 14.2188C107.61 18.794 94.2773 26.7426 91.6571 28.3612C86.2806 31.6865 80.5515 34.4028 74.8064 37.031C74.5981 37.1191 74.7503 37.4396 74.9587 37.3515Z" fill="#18171C"/>
<path d="M1.64262 49.6195C2.68427 53.666 8.96624 53.7861 12.2915 53.7861C18.8058 53.7861 25.6967 52.4881 32.0748 51.2381C32.2992 51.198 32.2351 50.8695 32.0107 50.8936C27.5477 51.3503 23.1327 52.1996 18.6856 52.7846C14.7114 53.3054 3.64581 54.8839 2.01122 49.5634C1.94712 49.3311 1.58653 49.3792 1.64262 49.6195Z" fill="#18171C"/>
<path d="M33.043 51.0532C34.4052 50.941 35.8475 50.5724 36.9613 49.7391C37.1135 49.6269 36.9532 49.3865 36.785 49.4586C35.527 50.0275 34.3651 50.5243 32.9789 50.6605C32.7305 50.6926 32.8027 51.0772 33.043 51.0532Z" fill="#18171C"/>
<path d="M2.53494 48.192C6.2288 43.721 10.3393 40.5399 15.1309 37.3509C15.2832 37.2467 15.1149 37.0063 14.9546 37.0864C9.9547 39.4181 5.49163 43.5767 2.23847 47.9917C2.09424 48.176 2.3827 48.3683 2.53494 48.192Z" fill="#18171C"/>
<path d="M4.63546 46.7358C3.36946 48.138 2.38388 50.3415 4.32296 51.6316C6.63062 53.162 10.2283 53.0899 12.7844 52.3767C12.9927 52.3206 12.9446 52.0081 12.7283 52.0482C10.7732 52.3767 8.85014 52.4649 6.91107 52.0402C6.11781 51.8639 5.03609 51.6716 4.39507 51.1107C2.78452 49.7005 4.17874 48.0739 4.93193 46.9441C5.06013 46.7438 4.78771 46.5755 4.63546 46.7358Z" fill="#18171C"/>
<path d="M18.5542 52.2956C27.5365 50.9014 36.6469 49.1546 45.2766 46.222C45.4689 46.1579 45.3648 45.8213 45.1644 45.8774C36.2944 48.137 27.5445 50.4607 18.4982 51.9751C18.2898 52.0152 18.3459 52.3277 18.5542 52.2956Z" fill="#18171C"/>
<path d="M46.2056 46.2005C48.1927 45.5835 50.1478 44.8703 52.0709 44.0771C52.2391 44.013 52.151 43.7165 51.9747 43.7726C49.9796 44.3736 48.0245 45.0546 46.0854 45.8239C45.8851 45.912 45.9973 46.2646 46.2056 46.2005Z" fill="#18171C"/>
<path d="M63.8045 40.0861C75.0303 36.2239 86.4644 31.4243 96.296 24.6616C96.4482 24.5575 96.28 24.301 96.1197 24.3892C85.4949 30.1423 75.0944 35.7191 63.6683 39.7816C63.4599 39.8617 63.6042 40.1582 63.8045 40.0861Z" fill="#18171C"/>
<path d="M81.9147 12.2889C82.4596 12.1848 83.0285 12.1126 83.5653 11.9444C83.7656 11.8803 83.7256 11.5998 83.5092 11.6159C82.9563 11.6639 82.3954 11.8001 81.8506 11.9043C81.6102 11.9604 81.6743 12.337 81.9147 12.2889Z" fill="#18171C"/>
<path d="M85.5284 11.8009C88.8537 11.1358 92.1469 10.9195 95.5043 10.5349C95.6886 10.5108 95.6725 10.2224 95.4882 10.2144C92.163 10.0621 88.6855 10.6871 85.4644 11.4483C85.248 11.5044 85.3041 11.849 85.5284 11.8009Z" fill="#18171C"/>
<path d="M84.7722 13.4893C85.4132 13.6736 86.0462 13.6576 86.6391 13.3451C86.7913 13.265 86.7273 12.9925 86.543 13.0486C86.0061 13.2089 85.4532 13.265 84.9084 13.1127C84.66 13.0406 84.5238 13.4172 84.7722 13.4893Z" fill="#18171C"/>
<path d="M88.7878 13.1607C90.0698 13.0726 91.3117 13.1848 92.5857 13.1928C92.7941 13.1928 92.8181 12.9123 92.6178 12.8723C91.3598 12.6239 89.9976 12.704 88.7236 12.8002C88.4912 12.8242 88.5554 13.1768 88.7878 13.1607Z" fill="#18171C"/>
<path d="M98.8094 13.7629C99.154 13.8991 99.4985 14.0433 99.8191 14.2356C100.66 14.7404 100.676 14.8125 100.717 15.9103C100.757 17.024 100.781 17 100.132 17.7131C99.803 18.0737 99.4585 18.4022 99.0899 18.7227C97.8399 19.7884 96.4137 20.4695 94.9553 21.1987C94.7951 21.2788 94.8672 21.5672 95.0595 21.5111C97.263 20.9102 99.9793 19.2035 101.149 17.1843C102.287 15.2212 100.66 14.0193 98.9216 13.4824C98.7293 13.4263 98.6252 13.6907 98.8094 13.7629Z" fill="#18171C"/>
<path d="M97.1226 12.3284C99.1578 12.1441 104.719 12.6649 103.725 15.9741C103.26 17.5446 101.658 18.6183 100.72 19.8924C100.6 20.0606 100.832 20.2689 100.985 20.1327C102.363 18.9709 104.847 16.7594 104.294 14.7161C103.573 12.0239 99.2459 11.7434 97.0665 12.0239C96.8662 12.0479 96.9222 12.3444 97.1226 12.3284Z" fill="#18171C"/>
<path d="M6.65617 45.0129C7.79397 44.3318 8.88371 43.4665 9.87729 42.5851C9.99748 42.4809 9.86927 42.2405 9.71703 42.3367C8.59525 43.0418 7.44944 43.835 6.47189 44.7325C6.33568 44.8527 6.47989 45.1171 6.65617 45.0129Z" fill="#18171C"/>
<path d="M9.31041 44.2253C7.14698 46.3246 2.42751 50.5794 8.32486 50.996C14.8632 51.4608 22.2189 50.7316 28.4848 48.9207C28.6771 48.8646 28.629 48.5602 28.4287 48.6082C24.7348 49.4976 20.9689 49.9944 17.1789 50.2749C14.9754 50.4351 12.7559 50.5233 10.5444 50.5473C9.97547 50.5553 8.88574 50.7556 8.36491 50.5473C4.39061 48.9368 8.52517 45.5314 9.51874 44.4737C9.65496 44.3214 9.46265 44.0731 9.31041 44.2253Z" fill="#18171C"/>
<path d="M33.6207 45.5957C39.438 44.7544 45.4073 43.6086 50.9762 41.6855C51.1364 41.6294 51.0483 41.373 50.8881 41.4051C45.103 42.7512 39.4138 44.2255 33.5646 45.2752C33.3562 45.3073 33.4124 45.6278 33.6207 45.5957Z" fill="#18171C"/>
<path d="M54.427 40.7339C54.9478 40.5577 55.5087 40.4215 55.9894 40.165C56.1497 40.0769 56.0856 39.8125 55.8853 39.8445C55.3324 39.9487 54.7956 40.2051 54.2667 40.4054C54.0504 40.4856 54.2106 40.8141 54.427 40.7339Z" fill="#18171C"/>
<path d="M58.0509 39.6776C62.2656 38.4356 66.3921 36.9212 70.3103 34.9181C70.4786 34.8299 70.3584 34.5815 70.1821 34.6536C66.1918 36.4405 62.1694 38.0831 57.9948 39.3811C57.8105 39.4292 57.8586 39.7257 58.0509 39.6776Z" fill="#18171C"/>
<path d="M18.5785 38.2499C16.9919 39.6521 15.1891 41.6713 15.9824 43.963C16.7516 46.1905 19.9807 46.2947 21.9198 46.2226C22.1201 46.2145 22.1682 45.9181 21.9518 45.902C20.173 45.7738 17.1121 45.8059 16.4231 43.8187C15.6699 41.6553 17.4567 39.9326 18.8189 38.5223C18.9711 38.3621 18.7547 38.0897 18.5785 38.2499Z" fill="#18171C"/>
<path d="M14.6272 44.0834C14.4028 45.1732 15.4926 46.5433 16.6704 46.2148C16.8307 46.1667 16.8547 45.9023 16.6544 45.9023C16.1576 45.8943 15.7329 45.7901 15.3724 45.4135C15.0358 45.061 14.8756 44.5962 14.9557 44.1155C14.9958 43.8991 14.6753 43.8751 14.6272 44.0834Z" fill="#18171C"/>
<path d="M19.9677 36.7914C20.9853 36.0943 22.0109 35.4213 22.9884 34.6681C23.1086 34.5719 22.9724 34.3636 22.8442 34.4437C21.7785 35.0927 20.7689 35.8139 19.7433 36.527C19.559 36.6552 19.7914 36.9116 19.9677 36.7914Z" fill="#18171C"/>
<path d="M18.813 34.9408C19.1976 34.6203 19.6062 34.3318 20.0469 34.0994C20.4476 33.8831 20.8882 33.7469 21.2889 33.5305C21.4411 33.4504 21.369 33.21 21.1927 33.2341C20.2392 33.3703 19.2937 34.0594 18.5966 34.6924C18.4363 34.8286 18.6447 35.077 18.813 34.9408Z" fill="#18171C"/>
<path d="M75.1304 32.1993C79.922 29.9236 84.6896 27.0871 88.5277 23.3853C88.6879 23.225 88.4796 22.9686 88.2953 23.1128C84.0486 26.4301 79.8499 29.523 74.9942 31.9108C74.8179 32.0069 74.9461 32.2874 75.1304 32.1993Z" fill="#18171C"/>
<path d="M90.1744 20.1667C91.0398 18.5321 89.894 15.7757 87.8027 15.96C87.6504 15.9761 87.6264 16.2244 87.7786 16.2645C89.4132 16.6892 90.7113 18.2917 89.8699 19.9984C89.7818 20.1827 90.0863 20.343 90.1744 20.1667Z" fill="#18171C"/>
<path d="M45.7111 50.622C52.1934 49.4762 58.5955 47.3849 64.4448 44.3561C64.6291 44.26 64.5009 43.9795 64.3086 44.0677C58.235 46.7359 52.1293 48.7951 45.647 50.2214C45.3826 50.2855 45.4547 50.6701 45.7111 50.622Z" fill="#18171C"/>
<path d="M48.5823 51.1403C54.6159 49.3455 60.6174 47.3022 66.3545 44.7221C66.5548 44.634 66.4106 44.3456 66.2102 44.4177C60.3209 46.6452 54.4716 48.8888 48.4781 50.8198C48.3099 50.8839 48.406 51.1884 48.5823 51.1403Z" fill="#18171C"/>
<path d="M64.8153 44.8682C68.5412 43.3378 72.3791 41.9195 75.9929 40.1327C76.2012 40.0285 76.049 39.7401 75.8406 39.8122C72.0426 41.1583 68.3488 42.9211 64.6549 44.5317C64.4305 44.6278 64.5909 44.9643 64.8153 44.8682Z" fill="#18171C"/>
<path d="M62.1872 47.0242C66.9467 45.4617 71.6261 43.5226 75.8969 40.8784C76.0732 40.7663 75.945 40.4778 75.7527 40.574C71.2736 42.8976 66.8025 45.037 62.0109 46.6636C61.7705 46.7437 61.9388 47.1043 62.1872 47.0242Z" fill="#18171C"/>
<path d="M59.014 49.6918C64.1582 47.6085 69.4145 45.6854 74.4465 43.3297C74.6548 43.2336 74.5026 42.9371 74.2942 43.0092C69.062 44.8681 63.9739 47.1998 58.8538 49.3472C58.6214 49.4434 58.7897 49.7879 59.014 49.6918Z" fill="#18171C"/>
<path d="M63.0965 49.6125C69.7631 47.2407 76.2213 44.2279 82.1107 40.2696C82.2629 40.1655 82.0946 39.9011 81.9344 39.9972C75.8287 43.627 69.6108 46.8 62.9122 49.2198C62.6558 49.316 62.8401 49.7006 63.0965 49.6125Z" fill="#18171C"/>
<path d="M74.8078 42.8165C78.3174 41.4383 81.867 39.7076 84.9359 37.5041C85.0961 37.3839 84.9198 37.1115 84.7436 37.2076C81.3942 39.0425 78.1251 40.8855 74.6556 42.488C74.4392 42.5842 74.5915 42.8966 74.8078 42.8165Z" fill="#18171C"/>
<path d="M74.1019 41.849C77.7798 40.4628 81.6018 38.8041 84.7428 36.4003C84.887 36.2881 84.7268 36.0398 84.5665 36.1279C81.049 38.059 77.7077 40.0621 73.9497 41.5124C73.7173 41.6006 73.8776 41.9291 74.1019 41.849Z" fill="#18171C"/>
<path d="M75.0687 40.551C77.8572 39.3331 80.6857 37.8748 83.1936 36.1521C83.3699 36.0319 83.1776 35.7434 82.9933 35.8396C80.285 37.2578 77.6168 38.7882 74.9165 40.2385C74.7242 40.3427 74.8604 40.6392 75.0687 40.551Z" fill="#18171C"/>
<path d="M34.6861 53.3232C39.638 52.8184 44.5418 51.4082 48.9247 49.0204C49.101 48.9242 48.9728 48.6518 48.7885 48.7399C44.1972 50.7992 39.6059 52.2415 34.622 52.9706C34.3897 52.9947 34.4538 53.3472 34.6861 53.3232Z" fill="#18171C"/>
<path d="M37.6844 53.6748C42.0353 52.4729 46.4263 51.3511 50.7211 49.9489C50.8894 49.8928 50.8012 49.6043 50.6249 49.6444C46.25 50.686 41.9392 52.0242 37.6203 53.2741C37.3639 53.3463 37.428 53.7469 37.6844 53.6748Z" fill="#18171C"/>
<path d="M37.7829 54.9318C42.9912 53.5055 48.1994 51.9831 53.2795 50.1241C53.4558 50.06 53.3596 49.7476 53.1753 49.8036C48.0071 51.318 42.879 53.0007 37.7188 54.5792C37.5105 54.6433 37.5586 54.9959 37.7829 54.9318Z" fill="#18171C"/>
<path d="M40.0627 55.344C46.8895 53.4771 53.7003 51.3377 60.2547 48.6614C60.447 48.5813 60.3108 48.3169 60.1185 48.381C53.4359 50.6806 46.7773 52.9723 39.9906 54.9594C39.7502 55.0315 39.8143 55.4161 40.0627 55.344Z" fill="#18171C"/>
<path d="M43.271 55.3104C49.2805 53.6518 55.2981 51.7768 60.9791 49.1967C61.1634 49.1166 61.0272 48.8442 60.8429 48.9163C55.0016 51.1038 49.2244 53.2992 43.2149 54.9979C43.0146 55.054 43.0707 55.3665 43.271 55.3104Z" fill="#18171C"/>
<path d="M44.528 56.3342C45.7299 56.0297 46.9398 55.7333 48.1257 55.3727C48.302 55.3166 48.2699 55.0362 48.0776 55.0762C46.8677 55.3326 45.6658 55.6451 44.4639 55.9576C44.2235 56.0217 44.2876 56.3983 44.528 56.3342Z" fill="#18171C"/>
<path d="M49.8095 54.9405C54.6732 53.2257 59.593 51.6072 64.3926 49.7162C64.5929 49.6361 64.4487 49.3636 64.2564 49.4197C59.3446 50.9982 54.5129 52.8652 49.6652 54.62C49.4409 54.7001 49.5931 55.0126 49.8095 54.9405Z" fill="#18171C"/>
<path d="M50.712 55.6372C57.1462 53.7622 63.4842 51.5427 69.5418 48.6581C69.7261 48.57 69.5899 48.2895 69.4056 48.3697C63.2358 50.9498 57.05 53.3616 50.6479 55.3006C50.4475 55.3648 50.5037 55.7013 50.712 55.6372Z" fill="#18171C"/>
<path d="M70.2136 47.4878C72.353 46.6465 74.5084 45.8292 76.6157 44.8997C76.8 44.8196 76.6638 44.5552 76.4795 44.6193C74.3161 45.3965 72.1847 46.2859 70.0533 47.1513C69.829 47.2394 69.9892 47.5759 70.2136 47.4878Z" fill="#18171C"/>
<path d="M77.8712 43.9124C79.9546 42.8226 82.078 41.6528 83.9449 40.2185C84.0811 40.1143 83.9289 39.866 83.7767 39.9541C81.7334 41.132 79.7702 42.43 77.7109 43.5838C77.5106 43.696 77.6629 44.0245 77.8712 43.9124Z" fill="#18171C"/>
<path d="M31.1154 53.4106C33.391 53.683 35.7627 53.6109 37.9662 52.9538C38.1666 52.8978 38.1265 52.6013 37.9101 52.6333C35.6425 52.9538 33.439 53.1702 31.1474 53.042C30.915 53.0179 30.875 53.3785 31.1154 53.4106Z" fill="#18171C"/>
<path d="M31.4534 54.372C33.8492 54.372 36.1969 54.0435 38.5206 53.4826C38.7049 53.4345 38.6648 53.154 38.4645 53.1861C36.1328 53.5387 33.7851 53.755 31.4294 53.9313C31.189 53.9553 31.205 54.372 31.4534 54.372Z" fill="#18171C"/>
<path d="M33.0222 55.1732C35.0013 54.9168 36.9965 54.6443 38.9596 54.2437C39.1679 54.2036 39.1118 53.8991 38.9035 53.9232C36.9164 54.1235 34.9212 54.444 32.9581 54.7886C32.7097 54.8366 32.7738 55.2052 33.0222 55.1732Z" fill="#18171C"/>
<path d="M33.5072 56.1035C35.8149 56.0474 38.1305 55.799 40.3661 55.19C40.5584 55.134 40.5183 54.8455 40.31 54.8775C38.0424 55.2702 35.7988 55.6147 33.4912 55.7349C33.2829 55.7349 33.2909 56.1035 33.5072 56.1035Z" fill="#18171C"/>
<path d="M35.6074 56.959C37.7869 56.8468 39.9663 56.4942 42.0737 55.9253C42.266 55.8773 42.2179 55.5808 42.0176 55.6209C39.8702 56.0535 37.7228 56.3821 35.5433 56.6144C35.319 56.6465 35.3911 56.975 35.6074 56.959Z" fill="#18171C"/>
<path d="M37.2726 57.7139C40.2373 57.7299 43.3221 57.1049 46.0705 56.0072C46.2387 55.9431 46.1507 55.6466 45.9743 55.6947C43.0658 56.52 40.2613 57.0248 37.2565 57.3693C37.0642 57.3934 37.0723 57.7139 37.2726 57.7139Z" fill="#18171C"/>
<path d="M39.3656 58.8817C42.146 58.5051 44.9825 57.8 47.5706 56.7023C47.7388 56.6302 47.6507 56.3337 47.4744 56.3898C44.7581 57.2071 42.0819 57.9443 39.2934 58.4891C39.045 58.5372 39.1091 58.9218 39.3656 58.8817Z" fill="#18171C"/>
<path d="M41.2044 60.0824C41.613 60.0103 42.0217 59.9462 42.4063 59.7859C42.5665 59.7218 42.5265 59.4414 42.3422 59.4414C41.9255 59.4494 41.5249 59.5455 41.1243 59.6417C40.8518 59.7058 40.9239 60.1385 41.2044 60.0824Z" fill="#18171C"/>
<path d="M45.0088 58.6945C47.3806 58.366 49.6642 57.6128 51.7956 56.5311C51.9558 56.4509 51.8436 56.2025 51.6754 56.2747C49.4879 57.1881 47.2684 57.8451 44.9527 58.3499C44.7284 58.398 44.7925 58.7265 45.0088 58.6945Z" fill="#18171C"/>
<path d="M48.1554 56.405C48.8284 56.3009 49.5095 56.2287 50.1746 56.0765C50.3669 56.0364 50.3108 55.764 50.1185 55.78C49.4374 55.8361 48.7643 55.9723 48.0913 56.0765C47.8829 56.1086 47.939 56.4371 48.1554 56.405Z" fill="#18171C"/>
<path d="M48.8393 55.4595C48.9995 55.4595 49.0316 55.2031 48.8633 55.2031C48.7031 55.2031 48.679 55.4595 48.8393 55.4595Z" fill="#18171C"/>
<path d="M52.9743 56.3013C54.4647 55.8045 55.955 55.3238 57.4213 54.7549C57.5736 54.6988 57.4935 54.4344 57.3332 54.4824C55.8108 54.9311 54.3204 55.468 52.8221 55.9888C52.6137 56.0609 52.766 56.3654 52.9743 56.3013Z" fill="#18171C"/>
<path d="M54.0088 56.8475C57.0777 56.4469 60.1546 55.245 62.7267 53.5303C62.8709 53.4341 62.7106 53.1937 62.5584 53.2739C59.778 54.8043 57.0377 55.8059 53.9448 56.519C53.7444 56.5751 53.8005 56.8796 54.0088 56.8475Z" fill="#18171C"/>
<path d="M70.695 48.5228C73.5555 47.8738 76.424 46.7681 78.892 45.1655C79.0522 45.0614 78.8759 44.805 78.7157 44.8931C76.0715 46.2633 73.5154 47.377 70.6389 48.1703C70.4145 48.2344 70.4706 48.5789 70.695 48.5228Z" fill="#18171C"/>
<path d="M79.3989 44.4533C79.6073 44.4533 79.6393 44.1328 79.431 44.1328C79.2226 44.1328 79.1906 44.4533 79.3989 44.4533Z" fill="#18171C"/>
<path d="M59.3444 62.2732C62.8539 61.52 66.3074 60.3582 69.2961 58.3229C69.4404 58.2268 69.2881 58.0024 69.1359 58.0746C65.9388 59.6851 62.8058 61.1434 59.2963 61.9687C59.096 62.0168 59.144 62.3133 59.3444 62.2732Z" fill="#18171C"/>
<path d="M61.3605 60.4456C63.3556 59.8366 65.3748 59.2197 67.3139 58.4505C67.4822 58.3863 67.394 58.0979 67.2178 58.146C65.2066 58.6908 63.2194 59.404 61.2563 60.1011C61.056 60.1732 61.1602 60.5097 61.3605 60.4456Z" fill="#18171C"/>
<path d="M68.8063 59.1394C71.0258 58.3141 73.1973 57.1122 74.8639 55.4055C75.0082 55.2613 74.8239 55.0369 74.6556 55.1651C72.7566 56.5994 70.8576 57.8975 68.6541 58.8189C68.4458 58.9071 68.598 59.2116 68.8063 59.1394Z" fill="#18171C"/>
<path d="M68.5848 57.4794C70.6601 56.7984 72.7915 55.933 74.5863 54.683C74.7306 54.5789 74.5783 54.3465 74.4181 54.4266C72.4229 55.3881 70.5159 56.3897 68.4326 57.1589C68.2082 57.2391 68.3685 57.5516 68.5848 57.4794Z" fill="#18171C"/>
<path d="M74.357 54.1381C75.3666 53.5772 76.4243 53.0564 77.3698 52.3913C77.53 52.2791 77.3537 52.0388 77.1935 52.1109C76.1598 52.5756 75.1823 53.2166 74.1967 53.7935C73.9884 53.9217 74.1407 54.2583 74.357 54.1381Z" fill="#18171C"/>
<path d="M75.9341 52.2971C76.1424 52.2971 76.1745 51.9766 75.9661 51.9766C75.7578 51.9766 75.7258 52.2971 75.9341 52.2971Z" fill="#18171C"/>
<path d="M53.7163 63.0958C55.7596 62.9916 57.8509 62.583 59.7018 61.6776C59.8781 61.5894 59.7499 61.349 59.5736 61.4131C57.6265 62.1263 55.7355 62.6551 53.6602 62.7833C53.4599 62.7913 53.516 63.1038 53.7163 63.0958Z" fill="#18171C"/>
<path d="M53.588 62.2016C55.0703 61.857 56.5687 61.5525 58.043 61.1439C58.2193 61.0958 58.1792 60.8234 57.995 60.8634C56.4966 61.1519 55.0222 61.5285 53.5399 61.8811C53.3236 61.9291 53.3796 62.2496 53.588 62.2016Z" fill="#18171C"/>
<path d="M58.898 61.0373C59.6753 60.885 60.4605 60.7488 61.2297 60.5565C61.406 60.5085 61.3659 60.244 61.1817 60.2761C60.3964 60.3963 59.6192 60.5806 58.8419 60.7328C58.6496 60.7729 58.7057 61.0774 58.898 61.0373Z" fill="#18171C"/>
<path d="M62.2529 58.8922C64.1359 58.4434 65.9387 57.7223 67.5893 56.6967C67.7336 56.6085 67.6214 56.3601 67.4692 56.4483C65.8105 57.4419 64.0878 58.179 62.2048 58.6357C62.0526 58.6758 62.0926 58.9322 62.2529 58.8922Z" fill="#18171C"/>
<path d="M58.0947 60.6516C58.9761 60.1468 59.9056 59.8263 60.8911 59.602C61.0835 59.5619 61.0354 59.2815 60.8351 59.2975C59.8014 59.4177 58.8319 59.8023 57.9505 60.3391C57.7662 60.4513 57.9024 60.7638 58.0947 60.6516Z" fill="#18171C"/>
<path d="M67.7912 56.277C68.921 55.7642 70.0668 55.2834 71.1725 54.7225C71.3488 54.6344 71.2207 54.378 71.0444 54.4501C69.8986 54.9148 68.7767 55.4517 67.6469 55.9725C67.4466 56.0687 67.5908 56.3651 67.7912 56.277Z" fill="#18171C"/>
<path d="M59.6174 53.9149C62.1494 53.0015 64.7134 52.1842 67.2695 51.3268C67.4137 51.2787 67.3336 51.0223 67.1894 51.0704C64.5772 51.7915 62.0213 52.697 59.4811 53.6264C59.2808 53.6825 59.417 53.979 59.6174 53.9149Z" fill="#18171C"/>
<path d="M64.3493 53.6177C65.1265 53.2972 65.9358 53.0167 66.681 52.6401C66.8653 52.552 66.7291 52.3036 66.5528 52.3597C65.7515 52.6161 64.9743 52.9767 64.1971 53.2972C63.9887 53.3853 64.141 53.7058 64.3493 53.6177Z" fill="#18171C"/>
<path d="M69.1697 50.612C69.947 50.2915 70.7323 49.9709 71.5015 49.6264C71.6778 49.5463 71.5495 49.2979 71.3732 49.362C70.58 49.6584 69.8028 49.987 69.0256 50.3075C68.8172 50.3876 68.9694 50.7001 69.1697 50.612Z" fill="#18171C"/>
<path d="M80.223 43.4823C80.7519 43.29 81.2807 43.1057 81.8015 42.8974C81.9618 42.8333 81.8817 42.5448 81.7054 42.6009C81.1525 42.7692 80.6157 42.9695 80.0708 43.1538C79.8384 43.2259 79.9987 43.5624 80.223 43.4823Z" fill="#18171C"/>
<path d="M35.1924 52.6888C38.5097 52.3042 41.8349 51.543 44.8717 50.1167C45.0561 50.0286 44.9199 49.7722 44.7355 49.8363C41.5785 50.9741 38.4615 51.9196 35.1362 52.3683C34.9279 52.3924 34.9921 52.7129 35.1924 52.6888Z" fill="#18171C"/>
<path d="M33.4078 53.1942C37.1658 52.6093 40.8596 51.6879 44.4413 50.3898C44.6015 50.3337 44.5134 50.0453 44.3451 50.0933C40.7154 51.2071 37.0696 52.1205 33.3357 52.8176C33.0953 52.8657 33.1674 53.2343 33.4078 53.1942Z" fill="#18171C"/>
<path d="M35.8619 53.5784C38.9388 52.8652 42.0397 52.2162 45.0846 51.3749C45.2769 51.3188 45.2368 51.0143 45.0285 51.0544C41.9275 51.6633 38.8667 52.4726 35.7978 53.2098C35.5654 53.2659 35.6296 53.6345 35.8619 53.5784Z" fill="#18171C"/>
<path d="M36.946 54.1311C40.2312 53.3138 43.5324 52.5526 46.7855 51.6071C46.9698 51.551 46.9298 51.2625 46.7295 51.3026C43.4202 52.0077 40.159 52.9132 36.8818 53.7545C36.6415 53.8106 36.7056 54.1872 36.946 54.1311Z" fill="#18171C"/>
<path d="M38.2032 54.5941C40.4468 54.0092 42.7224 53.4963 44.9259 52.7912C45.0942 52.7351 44.998 52.4627 44.8298 52.4948C42.5782 52.9675 40.3587 53.6406 38.1311 54.2335C37.9068 54.2896 37.9709 54.6502 38.2032 54.5941Z" fill="#18171C"/>
<path d="M38.5567 55.6017C40.7281 55.2331 42.8917 54.6322 44.9429 53.8389C45.1272 53.7668 44.9909 53.5024 44.8146 53.5585C42.7313 54.2316 40.64 54.8005 38.5006 55.2973C38.3083 55.3373 38.3564 55.6338 38.5567 55.6017Z" fill="#18171C"/>
<path d="M43.1592 51.9748C46.196 51.3018 49.1928 50.4604 52.0934 49.3467C52.2697 49.2826 52.1415 49.0262 51.9652 49.0822C49.0486 50.0838 46.1079 50.9813 43.0951 51.6543C42.9028 51.6944 42.9589 52.0149 43.1592 51.9748Z" fill="#18171C"/>
<path d="M46.4597 50.213C50.5782 49.0271 54.7368 47.9454 58.7992 46.5832C58.9755 46.5271 58.8794 46.2307 58.7031 46.2787C54.5605 47.3044 50.482 48.6185 46.3956 49.8204C46.1472 49.8925 46.2113 50.2851 46.4597 50.213Z" fill="#18171C"/>
<path d="M49.3414 49.8521C52.2901 49.3232 55.2708 48.5941 58.0432 47.4563C58.2195 47.3842 58.1313 47.0717 57.939 47.1278C55.0545 47.9851 52.218 48.8585 49.2853 49.5155C49.069 49.5716 49.1251 49.8921 49.3414 49.8521Z" fill="#18171C"/>
<path d="M48.9077 51.0717C52.7618 50.1823 56.5358 48.9884 60.1575 47.3939C60.3338 47.3138 60.2056 47.0574 60.0293 47.1215C56.3675 48.5718 52.6736 49.8218 48.8516 50.7673C48.6673 50.8153 48.7234 51.1118 48.9077 51.0717Z" fill="#18171C"/>
<path d="M50.607 51.3185C53.5237 50.6054 56.3601 49.6679 59.0845 48.4019C59.2607 48.3218 59.1326 48.0574 58.9563 48.1295C56.2079 49.2432 53.4195 50.2288 50.5509 50.974C50.3346 51.0301 50.3907 51.3666 50.607 51.3185Z" fill="#18171C"/>
<path d="M57.5183 48.4823C59.7378 47.697 61.9734 46.9438 64.1769 46.1025C64.3531 46.0384 64.2249 45.782 64.0567 45.8461C61.8211 46.5913 59.6096 47.4086 57.3901 48.2018C57.1978 48.274 57.334 48.5544 57.5183 48.4823Z" fill="#18171C"/>
<path d="M60.0412 46.5349C63.1902 45.1406 66.3953 44.0109 69.6565 42.9291C69.8167 42.8731 69.7286 42.6006 69.5684 42.6407C66.2591 43.5702 63.038 44.8362 59.897 46.2304C59.6967 46.3105 59.8409 46.623 60.0412 46.5349Z" fill="#18171C"/>
<path d="M62.6481 44.8194C65.757 43.6816 68.89 42.6079 71.9669 41.382C72.1432 41.3099 72.015 41.0535 71.8387 41.1176C68.6977 42.1672 65.6048 43.3691 62.5039 44.515C62.2956 44.5871 62.4398 44.8996 62.6481 44.8194Z" fill="#18171C"/>
<path d="M63.9069 44.3714C68.2658 42.5766 72.6648 40.8378 76.9836 38.9468C77.1599 38.8667 77.0317 38.6023 76.8554 38.6744C72.4564 40.3891 68.1216 42.2561 63.7627 44.0669C63.5704 44.1551 63.7146 44.4516 63.9069 44.3714Z" fill="#18171C"/>
<path d="M70.833 42.1984C73.4291 40.9725 76.0493 39.7786 78.6134 38.4725C78.7816 38.3844 78.6614 38.128 78.4852 38.2001C75.857 39.3699 73.2769 40.652 70.6888 41.8939C70.5045 41.9901 70.6407 42.2866 70.833 42.1984Z" fill="#18171C"/>
<path d="M55.9849 48.3379C59.9833 47.16 63.9496 45.8219 67.7476 44.0992C67.9159 44.019 67.7957 43.7706 67.6194 43.8347C63.7573 45.3331 59.8951 46.7914 55.9208 47.9853C55.6965 48.0414 55.7606 48.402 55.9849 48.3379Z" fill="#18171C"/>
<path d="M57.5378 49.0416C60.9913 47.8717 64.4368 46.6458 67.77 45.1634C67.9463 45.0833 67.8181 44.8269 67.6418 44.891C64.2284 46.181 60.839 47.5192 57.3776 48.705C57.1532 48.7852 57.3134 49.1217 57.5378 49.0416Z" fill="#18171C"/>
<path d="M57.5701 49.6426C60.9675 48.4968 64.3649 47.3109 67.7142 46.0129C67.8985 45.9408 67.7623 45.6843 67.586 45.7404C64.1726 46.8542 60.7912 48.0802 57.4339 49.3462C57.2256 49.4183 57.3698 49.7067 57.5701 49.6426Z" fill="#18171C"/>
<path d="M64.6087 45.7976C67.4772 44.828 70.3538 43.7944 73.0701 42.4723C73.2544 42.3842 73.1262 42.1117 72.9339 42.1839C70.0974 43.2816 67.309 44.4434 64.4324 45.429C64.184 45.5091 64.3603 45.8777 64.6087 45.7976Z" fill="#18171C"/>
<path d="M66.7091 44.1806C69.0969 43.2031 71.5087 42.2576 73.8725 41.2239C74.0568 41.1438 73.9205 40.8794 73.7443 40.9435C71.3324 41.873 68.9527 42.8906 66.5649 43.8761C66.3646 43.9563 66.5088 44.2607 66.7091 44.1806Z" fill="#18171C"/>
<path d="M54.3978 51.2717C57.9634 50.0778 61.5371 48.916 65.0707 47.6259C65.2229 47.5698 65.1428 47.2974 64.9826 47.3455C61.3768 48.4753 57.8192 49.7332 54.2535 50.9592C54.0372 51.0313 54.1895 51.3358 54.3978 51.2717Z" fill="#18171C"/>
<path d="M48.9215 52.0701C51.3894 51.4772 53.8653 50.8762 56.3252 50.2512C56.5014 50.2031 56.4534 49.9307 56.2771 49.9708C53.8012 50.5397 51.3333 51.1406 48.8653 51.7336C48.657 51.7896 48.7132 52.1262 48.9215 52.0701Z" fill="#18171C"/>
<path d="M34.9245 55.4532C38.5943 54.7081 42.168 53.7145 45.6615 52.3603C45.8298 52.2962 45.7096 52.0559 45.5413 52.1039C42.0318 53.2738 38.4741 54.3074 34.8604 55.0847C34.628 55.1407 34.6921 55.5013 34.9245 55.4532Z" fill="#18171C"/>
<path d="M36.8669 55.8764C40.1601 55.1232 43.4693 54.2578 46.6103 52.9758C46.7625 52.9117 46.6824 52.6472 46.5222 52.6953C43.293 53.6889 40.096 54.7386 36.8108 55.5398C36.5864 55.5879 36.6425 55.9244 36.8669 55.8764Z" fill="#18171C"/>
<path d="M37.1847 56.2708C40.2455 55.6779 43.2743 54.9407 46.215 53.9071C46.3672 53.851 46.2791 53.5946 46.1269 53.6427C43.1461 54.516 40.1734 55.3333 37.1206 55.9343C36.9043 55.9743 36.9603 56.3109 37.1847 56.2708Z" fill="#18171C"/>
<path d="M38.4688 56.8627C40.9046 56.1896 43.3726 55.5807 45.7844 54.8355C45.9607 54.7794 45.9206 54.507 45.7363 54.547C43.2844 55.148 40.8486 55.8852 38.4127 56.5582C38.2284 56.6063 38.2765 56.9188 38.4688 56.8627Z" fill="#18171C"/>
<path d="M38.715 57.6244C41.5194 57.1276 44.2437 56.3664 46.8479 55.2045C47.0321 55.1244 46.8959 54.852 46.7117 54.9241C44.0755 55.9097 41.4152 56.735 38.6429 57.2638C38.4185 57.3039 38.4826 57.6644 38.715 57.6244Z" fill="#18171C"/>
<path d="M40.1096 58.0178C43.2105 57.497 46.3595 56.6637 49.228 55.3335C49.4123 55.2454 49.2761 54.989 49.0918 55.0531C46.0951 56.0627 43.1384 57.0002 40.0374 57.6412C39.7971 57.6893 39.8612 58.0579 40.1096 58.0178Z" fill="#18171C"/>
<path d="M42.131 59.1005C42.9083 58.9402 43.6855 58.788 44.4547 58.5957C44.631 58.5476 44.5909 58.2832 44.4066 58.3152C43.6214 58.4515 42.8522 58.6277 42.0749 58.796C41.8826 58.8441 41.9307 59.1486 42.131 59.1005Z" fill="#18171C"/>
<path d="M43.3802 59.8126C44.6302 59.8607 45.8882 59.7325 47.0821 59.3479C47.2503 59.2918 47.1542 59.0194 46.9859 59.0514C45.792 59.2758 44.6302 59.444 43.4122 59.46C43.1959 59.4681 43.1478 59.8046 43.3802 59.8126Z" fill="#18171C"/>
<path d="M45.4577 60.4701C45.8664 60.422 46.283 60.3579 46.6676 60.2137C46.8279 60.1496 46.7798 59.8772 46.6036 59.8691C46.1869 59.8531 45.7782 59.9413 45.3776 60.0294C45.0972 60.0855 45.1773 60.5022 45.4577 60.4701Z" fill="#18171C"/>
<path d="M48.107 59.8441C49.3971 59.6117 50.6551 59.2431 51.849 58.7063C52.0172 58.6342 51.897 58.3858 51.7288 58.4499C50.5269 58.9146 49.317 59.2832 48.0509 59.5236C47.8506 59.5636 47.9067 59.8761 48.107 59.8441Z" fill="#18171C"/>
<path d="M47.2906 61.0948C49.5102 60.8864 51.8579 60.3496 53.8771 59.3801C54.0213 59.3079 53.9492 59.0515 53.7889 59.1076C51.6015 59.7887 49.4941 60.4057 47.2345 60.7903C47.0342 60.8143 47.0903 61.1108 47.2906 61.0948Z" fill="#18171C"/>
<path d="M49.8242 61.8652C51.6592 61.8732 53.7345 61.3203 55.321 60.3909C55.4972 60.2867 55.377 60.0303 55.1847 60.1024C53.3819 60.7755 51.7072 61.2162 49.8082 61.5287C49.6239 61.5607 49.6239 61.8652 49.8242 61.8652Z" fill="#18171C"/>
<path d="M80.216 45.0739C79.4068 45.5627 78.6536 46.1155 77.9084 46.7004C77.7722 46.8046 77.9244 47.0449 78.0766 46.9568C78.8859 46.476 79.6792 45.9792 80.4324 45.4023C80.6006 45.2661 80.4083 44.9537 80.216 45.0739Z" fill="#18171C"/>
<path d="M79.2816 46.9912C78.2239 47.5441 77.1582 48.0809 76.1486 48.7059C75.9804 48.8101 76.0925 49.0745 76.2848 48.9864C77.3666 48.4816 78.4002 47.8886 79.4419 47.3197C79.6342 47.2075 79.4899 46.887 79.2816 46.9912Z" fill="#18171C"/>
<path d="M78.5852 48.528C77.864 48.8965 77.1188 49.2331 76.4538 49.6818C76.2935 49.794 76.4698 50.0183 76.6301 49.9542C77.3672 49.6658 78.0563 49.2491 78.7534 48.8805C78.9698 48.7603 78.8015 48.4158 78.5852 48.528Z" fill="#18171C"/>
<path d="M77.4042 50.8624C77.5885 50.8624 77.6125 50.582 77.4282 50.582C77.2439 50.582 77.2199 50.8624 77.4042 50.8624Z" fill="#18171C"/>
<path d="M66.8505 44.5488C68.9018 43.6193 70.977 42.7058 72.9481 41.6081C73.1484 41.4959 73.0123 41.1994 72.7959 41.2876C70.6966 42.1209 68.6774 43.1545 66.6662 44.1561C66.4098 44.2843 66.5941 44.6689 66.8505 44.5488Z" fill="#18171C"/>
<path d="M66.2938 46.0455C67.9845 45.2763 69.6832 44.5071 71.3739 43.7459C71.5181 43.6818 71.414 43.4494 71.2617 43.5215C69.563 44.2827 67.8723 45.0519 66.1736 45.8131C66.0214 45.8772 66.1336 46.1176 66.2938 46.0455Z" fill="#18171C"/>
<path d="M67.3678 45.0334C70.3165 43.7914 73.2972 42.5975 76.1978 41.2514C76.3821 41.1712 76.2459 40.9068 76.0696 40.9709C73.0889 42.1408 70.1642 43.4629 67.2236 44.7289C67.0313 44.817 67.1755 45.1215 67.3678 45.0334Z" fill="#18171C"/>
<path d="M69.193 45.1219C71.4687 44.0001 73.7923 42.9424 76.0199 41.7325C76.2041 41.6364 76.0759 41.3559 75.8836 41.4361C73.568 42.4697 71.3164 43.6716 69.0408 44.8014C68.8325 44.9056 68.9847 45.2261 69.193 45.1219Z" fill="#18171C"/>
<path d="M61.6778 48.6337C62.7354 48.0808 63.7931 47.5359 64.8428 46.983C64.995 46.9029 64.8828 46.6625 64.7306 46.7427C63.6729 47.2875 62.6153 47.8324 61.5576 48.3692C61.3893 48.4574 61.5095 48.7218 61.6778 48.6337Z" fill="#18171C"/>
<path d="M53.3805 52.911C57.7715 51.2123 62.2186 49.5377 66.4813 47.5505C66.6816 47.4544 66.5374 47.1739 66.3371 47.2461C61.8981 48.8246 57.5552 50.7396 53.2283 52.6066C53.02 52.6867 53.1722 52.9912 53.3805 52.911Z" fill="#18171C"/>
<path d="M49.0494 53.9526C50.6759 53.5039 52.3105 53.0712 53.9291 52.5984C54.0974 52.5503 54.0573 52.2699 53.881 52.318C52.2464 52.7427 50.6279 53.1994 49.0013 53.6481C48.809 53.7042 48.8571 54.0087 49.0494 53.9526Z" fill="#18171C"/>
<path d="M55.495 53.3467C57.5142 52.6656 59.5574 52.0326 61.5365 51.2474C61.7048 51.1833 61.6167 50.8868 61.4404 50.9349C59.3811 51.5439 57.3699 52.3131 55.3427 53.0182C55.1184 53.0983 55.2786 53.4188 55.495 53.3467Z" fill="#18171C"/>
<path d="M23.9096 29.8924C27.2589 30.3251 30.7124 29.9485 33.9095 28.8348C34.0617 28.7867 33.9816 28.5223 33.8213 28.5703C30.5361 29.5238 27.3631 29.8123 23.9497 29.5078C23.7013 29.4758 23.6612 29.8604 23.9096 29.8924Z" fill="#18171C"/>
<path d="M27.6363 31.3687C30.3606 31.2084 33.109 30.7276 35.657 29.71C35.8413 29.6379 35.7051 29.3815 35.5288 29.4376C32.9086 30.2709 30.3366 30.8799 27.5802 31.0482C27.3719 31.0642 27.4279 31.3767 27.6363 31.3687Z" fill="#18171C"/>
<path d="M36.4606 28.9607C39.842 27.7668 43.2634 26.645 46.6047 25.3389C46.789 25.2668 46.6528 25.0024 46.4765 25.0585C43.0631 26.1562 39.6897 27.4383 36.3164 28.6482C36.1081 28.7283 36.2523 29.0328 36.4606 28.9607Z" fill="#18171C"/>
<path d="M37.8781 26.5515C39.5928 26.4554 41.2995 26.0067 42.7578 25.0852C42.9181 24.981 42.8059 24.7166 42.6296 24.8048C41.0912 25.582 39.5527 26.0948 37.822 26.207C37.5896 26.223 37.6537 26.5676 37.8781 26.5515Z" fill="#18171C"/>
<path d="M28.9414 27.0536C30.6 26.9254 32.2827 26.6931 33.8612 26.1562C34.0375 26.0921 33.9413 25.7956 33.757 25.8357C32.1305 26.1963 30.544 26.5568 28.8773 26.7011C28.6449 26.7251 28.7171 27.0697 28.9414 27.0536Z" fill="#18171C"/>
<path d="M40.7912 12.6179C45.118 12.0089 49.517 10.7109 53.3631 8.61958C53.5394 8.52342 53.4112 8.259 53.2269 8.33913C49.1244 10.0618 45.102 11.432 40.719 12.2493C40.4867 12.2974 40.5508 12.6499 40.7912 12.6179Z" fill="#18171C"/>
<path d="M44.5544 13.1707C46.9182 12.4175 49.338 11.7525 51.6457 10.847C51.7979 10.7909 51.7178 10.5265 51.5575 10.5666C49.1537 11.1916 46.806 12.065 44.4503 12.8342C44.266 12.9063 44.3621 13.2348 44.5544 13.1707Z" fill="#18171C"/>
<path d="M54.213 9.51084C55.7515 8.90187 57.2979 8.12464 58.5559 7.0269C58.6921 6.90671 58.5399 6.64229 58.3716 6.74645C56.9454 7.61182 55.5752 8.48521 54.0367 9.15026C53.8044 9.25443 53.9726 9.60694 54.213 9.51084Z" fill="#18171C"/>
<path d="M56.5297 6.85332C57.307 6.26839 58.1403 5.84372 59.0137 5.43507C59.206 5.34693 59.0698 5.09053 58.8775 5.14661C57.932 5.4511 57.0746 5.97993 56.2974 6.57287C56.1051 6.7171 56.3455 6.99755 56.5297 6.85332Z" fill="#18171C"/>
<path d="M32.2331 12.584C34.2282 13.6336 36.6961 13.7698 38.7073 12.6641C38.8836 12.5679 38.7634 12.3195 38.5711 12.3836C36.4638 13.1368 34.4606 13.1849 32.3933 12.2795C32.217 12.1994 32.0648 12.4878 32.2331 12.584Z" fill="#18171C"/>
<path d="M32.7891 14.4517C34.4958 14.62 36.2746 14.612 37.9493 14.1793C38.1576 14.1232 38.1015 13.8348 37.8932 13.8588C36.1945 14.0511 34.5358 14.2114 32.8211 14.0992C32.5968 14.0832 32.5567 14.4277 32.7891 14.4517Z" fill="#18171C"/>
<path d="M39.9831 13.8928C41.0408 13.6925 42.1305 13.5563 43.1561 13.2518C43.3565 13.1877 43.3164 12.8992 43.1 12.9233C42.0344 13.0274 40.9687 13.3079 39.919 13.5162C39.6706 13.5643 39.7347 13.9409 39.9831 13.8928Z" fill="#18171C"/>
<path d="M30.0692 13.3883C30.7984 13.5565 31.5195 13.7488 32.2567 13.861C32.433 13.8851 32.4971 13.6126 32.3288 13.5645C31.6157 13.3402 30.8785 13.204 30.1493 13.0357C29.949 12.9876 29.8689 13.3402 30.0692 13.3883Z" fill="#18171C"/>
<path d="M37.0873 11.0523C42.3116 11.1164 47.6321 10.0107 52.2634 7.55082C52.4317 7.46268 52.3115 7.21428 52.1352 7.2864C47.2154 9.33764 42.4559 10.5395 37.1194 10.6837C36.887 10.6837 36.839 11.0523 37.0873 11.0523Z" fill="#18171C"/>
<path d="M53.0996 7.90542C53.8128 7.54484 54.5179 7.19229 55.199 6.78364C55.3672 6.68749 55.247 6.42307 55.0708 6.50319C54.3416 6.83171 53.6445 7.2003 52.9474 7.5769C52.7471 7.69709 52.8913 8.00958 53.0996 7.90542Z" fill="#18171C"/>
<path d="M55.3737 5.79196C56.1349 5.3753 56.9282 4.98267 57.6493 4.50992C57.8016 4.41377 57.6413 4.18942 57.481 4.25352C56.7038 4.59806 55.9586 5.05479 55.2135 5.46344C55.0212 5.58363 55.1734 5.90413 55.3737 5.79196Z" fill="#18171C"/>
<path d="M59.9528 1.56895C59.7766 2.15387 59.3919 2.49041 58.9032 2.81893C58.767 2.90707 58.8871 3.14745 59.0394 3.09937C59.6964 2.91508 60.1451 2.33817 60.3375 1.70516C60.4096 1.46478 60.0249 1.32055 59.9528 1.56895Z" fill="#18171C"/>
<path d="M61.4853 1.43888C60.2033 2.75297 58.7931 3.85872 57.3107 4.93242C57.1745 5.03659 57.3267 5.27697 57.479 5.18883C59.0735 4.27538 60.4838 3.06546 61.7337 1.72734C61.894 1.55907 61.6616 1.2626 61.4853 1.43888Z" fill="#18171C"/>
<path d="M62.8404 1.80896C61.6625 3.02689 60.3645 4.0445 58.9783 5.00603C58.834 5.10218 58.9943 5.35057 59.1465 5.26243C60.6369 4.43712 61.9509 3.29131 63.0888 2.0253C63.2089 1.88909 62.9686 1.67274 62.8404 1.80896Z" fill="#18171C"/>
<path d="M63.8234 2.55122C62.6054 3.52877 61.4115 4.53837 60.2417 5.58002C60.0894 5.71624 60.2898 5.9486 60.45 5.8204C61.6679 4.84285 62.8698 3.84126 64.0397 2.80762C64.1999 2.6634 63.9916 2.415 63.8234 2.55122Z" fill="#18171C"/>
<path d="M47.5874 23.6923C52.0345 22.4103 56.5536 20.2709 60.3517 17.6267C60.4959 17.5225 60.3356 17.2742 60.1834 17.3623C56.0008 19.5978 51.8742 21.5529 47.4833 23.3558C47.2909 23.4279 47.3871 23.7484 47.5874 23.6923Z" fill="#18171C"/>
<path d="M51.4128 23.2591C53.1756 22.5219 54.9464 21.8008 56.6611 20.9434C56.8454 20.8472 56.7172 20.5828 56.5249 20.6549C54.7301 21.32 52.9913 22.1213 51.2526 22.9145C51.0282 23.0187 51.1885 23.3552 51.4128 23.2591Z" fill="#18171C"/>
<path d="M62.6396 17.162C66.7501 15.2549 70.6203 12.5386 73.577 9.0932C73.6971 8.95698 73.4728 8.75666 73.3446 8.88487C70.0594 12.0979 66.6059 14.7501 62.4633 16.7854C62.2069 16.8975 62.3912 17.2741 62.6396 17.162Z" fill="#18171C"/>
<path d="M61.3701 18.21C60.048 18.6827 58.7339 19.1955 57.4679 19.7885C57.2756 19.8766 57.4118 20.149 57.6041 20.0849C58.9342 19.6362 60.2403 19.1074 61.5303 18.5465C61.7547 18.4503 61.5944 18.1298 61.3701 18.21Z" fill="#18171C"/>
<path d="M68.5717 16.3514C64.7256 18.4026 60.8154 20.2936 56.8972 22.1926C56.7289 22.2728 56.8491 22.5372 57.0254 22.457C61.0077 20.6943 64.8778 18.6991 68.7079 16.6318C68.8922 16.5437 68.756 16.2552 68.5717 16.3514Z" fill="#18171C"/>
<path d="M63.9395 20.4209C62.8818 20.8055 61.8241 21.1661 60.7825 21.5908C60.5902 21.6709 60.7344 21.9273 60.9187 21.8712C61.9844 21.5267 63.034 21.1261 64.0917 20.7414C64.3081 20.6613 64.1558 20.3488 63.9395 20.4209Z" fill="#18171C"/>
<path d="M55.4754 22.7356C51.6293 24.3221 47.7511 25.7885 43.873 27.2868C43.6887 27.359 43.8249 27.6234 44.0012 27.5673C47.9434 26.2692 51.8216 24.7148 55.6276 23.0722C55.852 22.976 55.6997 22.6475 55.4754 22.7356Z" fill="#18171C"/>
<path d="M54.2333 24.7714C53.3919 25.0758 52.5426 25.3723 51.7093 25.7169C51.533 25.789 51.6612 26.0374 51.8375 25.9813C52.6868 25.7008 53.5282 25.3643 54.3695 25.0518C54.5458 24.9797 54.4175 24.7073 54.2333 24.7714Z" fill="#18171C"/>
<path d="M49.4292 23.8292C49.0767 24.0135 48.7241 24.1978 48.3876 24.4061C48.2273 24.5103 48.3315 24.7587 48.5158 24.6786C48.8764 24.5183 49.2289 24.334 49.5815 24.1497C49.7818 24.0455 49.6295 23.725 49.4292 23.8292Z" fill="#18171C"/>
<path d="M46.1694 24.0427C45.6646 24.1389 45.1198 24.227 44.647 24.4434C44.4547 24.5315 44.5669 24.7879 44.7512 24.7799C45.264 24.7398 45.7848 24.5395 46.2656 24.3713C46.4579 24.3072 46.3537 24.0027 46.1694 24.0427Z" fill="#18171C"/>
<path d="M67.7265 12.5671C65.8034 14.0895 63.7682 15.2594 61.6128 16.3972C61.4285 16.4933 61.5567 16.7577 61.749 16.6856C64.0246 15.8763 66.172 14.4421 67.9588 12.8315C68.1271 12.6873 67.9108 12.4229 67.7265 12.5671Z" fill="#18171C"/>
<path d="M64.2111 13.5536C60.349 15.8933 56.3427 17.8003 52.2402 19.6673C52.0559 19.7474 52.1921 20.0118 52.3684 19.9477C56.559 18.3692 60.5493 16.2058 64.3473 13.8501C64.5236 13.7379 64.3874 13.4494 64.2111 13.5536Z" fill="#18171C"/>
<path d="M58.5406 15.268C57.7073 15.7648 56.874 16.2616 56.0486 16.7744C55.8964 16.8705 56.0086 17.127 56.1688 17.0308C57.0102 16.55 57.8435 16.0613 58.6768 15.5645C58.8611 15.4603 58.7249 15.1638 58.5406 15.268Z" fill="#18171C"/>
<path d="M51.5877 20.3661C50.0172 20.9671 48.4307 21.6081 46.9804 22.4574C46.8041 22.5616 46.9243 22.834 47.1166 22.7459C48.6551 22.0488 50.1614 21.3036 51.748 20.7026C51.9723 20.6145 51.8121 20.278 51.5877 20.3661Z" fill="#18171C"/>
<path d="M70.9346 13.3458C67.9218 15.2368 64.7087 16.7352 61.6639 18.5541C61.4876 18.6582 61.6078 18.9146 61.8001 18.8425C65.0613 17.5365 68.1222 15.5173 71.0708 13.6343C71.2391 13.5221 71.1029 13.2336 70.9346 13.3458Z" fill="#18171C"/>
<path d="M71.9111 14.2827C71.2381 14.7474 70.565 15.2041 69.924 15.7089C69.7878 15.8131 69.94 16.0615 70.0923 15.9653C70.8054 15.5407 71.4865 15.0519 72.1675 14.5791C72.3679 14.4349 72.1195 14.1384 71.9111 14.2827Z" fill="#18171C"/>
<path d="M23.59 28.8018C25.9297 29.2265 28.4457 29.1143 30.6893 28.305C30.8576 28.2489 30.7614 27.9765 30.5931 28.0085C28.2374 28.5294 26.0179 28.7457 23.6141 28.4653C23.4057 28.4492 23.3817 28.7617 23.59 28.8018Z" fill="#18171C"/>
<path d="M33.4102 27.5456C34.0111 27.4014 34.6201 27.2572 35.2131 27.0969C35.3893 27.0488 35.3413 26.7764 35.165 26.8165C34.556 26.9447 33.9551 27.0969 33.3541 27.2411C33.1698 27.2892 33.2179 27.5937 33.4102 27.5456Z" fill="#18171C"/>
<path d="M26.3107 25.9343C28.3619 25.9584 30.4212 25.718 32.3763 25.101C32.5526 25.0449 32.5205 24.7725 32.3282 24.8126C30.3411 25.2052 28.378 25.5017 26.3427 25.5738C26.1104 25.5818 26.0703 25.9343 26.3107 25.9343Z" fill="#18171C"/>
<path d="M25.6025 27.9058C26.556 27.9619 27.5576 27.8978 28.4551 27.5533C28.6313 27.4892 28.5352 27.2087 28.3589 27.2408C27.4455 27.4251 26.5801 27.5773 25.6346 27.5292C25.3942 27.5212 25.3622 27.8978 25.6025 27.9058Z" fill="#18171C"/>
<path d="M35.3175 26.3674C36.0706 26.135 36.8719 25.9507 37.6011 25.6462C37.7693 25.5741 37.6812 25.3097 37.5049 25.3498C36.7437 25.51 35.9905 25.8065 35.2533 26.0389C35.053 26.095 35.1091 26.4315 35.3175 26.3674Z" fill="#18171C"/>
<path d="M35.4148 28.2898C35.6311 28.2898 35.6712 27.9453 35.4468 27.9453C35.2225 27.9453 35.1904 28.2898 35.4148 28.2898Z" fill="#18171C"/>
<path d="M26.0848 44.541C27.3588 44.8535 28.7209 44.7414 29.9549 44.3247C30.1312 44.2686 30.035 43.9802 29.8587 44.0122C28.6168 44.2526 27.4309 44.2606 26.1729 44.1484C25.9566 44.1324 25.8524 44.485 26.0848 44.541Z" fill="#18171C"/>
<path d="M37.9653 42.3305C41.2425 41.8817 44.4316 41.1526 47.5325 40.0068C47.7008 39.9427 47.5806 39.7023 47.4123 39.7584C44.3034 40.784 41.1544 41.5853 37.9173 42.05C37.733 42.074 37.781 42.3545 37.9653 42.3305Z" fill="#18171C"/>
<path d="M47.832 40.4906C50.2438 39.8656 52.6076 38.9762 54.747 37.6941C54.8912 37.606 54.787 37.3656 54.6268 37.4458C52.4073 38.5996 50.2038 39.5611 47.7759 40.2021C47.6077 40.2502 47.6557 40.5306 47.832 40.4906Z" fill="#18171C"/>
<path d="M47.4117 39.8126C49.5431 39.2357 51.6825 38.6668 53.7818 37.9777C53.9501 37.9216 53.8619 37.6331 53.6857 37.6812C51.5543 38.2101 49.455 38.8591 47.3556 39.4921C47.1553 39.5482 47.2114 39.8687 47.4117 39.8126Z" fill="#18171C"/>
<path d="M54.2907 38.54C57.4157 37.9551 60.5887 36.9054 63.4492 35.5192C63.6255 35.4311 63.4973 35.1746 63.321 35.2387C60.3163 36.3525 57.3195 37.3461 54.2427 38.2515C54.0744 38.3076 54.1064 38.572 54.2907 38.54Z" fill="#18171C"/>
<path d="M55.587 37.5369C58.095 36.375 60.6591 35.5337 63.2872 34.7084C63.4795 34.6443 63.4395 34.3398 63.2311 34.3879C60.5308 34.9728 57.9187 36.0305 55.4508 37.2484C55.2665 37.3366 55.4027 37.617 55.587 37.5369Z" fill="#18171C"/>
<path d="M62.2227 35.7186C63.2483 35.4222 64.282 35.1417 65.2996 34.8212C65.4678 34.7651 65.4278 34.4927 65.2515 34.5408C64.2179 34.8132 63.1922 35.1177 62.1666 35.4062C61.9823 35.4703 62.0304 35.7747 62.2227 35.7186Z" fill="#18171C"/>
<path d="M63.9468 33.9003C65.4372 33.075 66.9837 32.442 68.5862 31.8811C68.7545 31.825 68.6583 31.5526 68.49 31.5846C66.8154 31.9692 65.2449 32.6743 63.7866 33.5637C63.5783 33.6839 63.7305 34.0205 63.9468 33.9003Z" fill="#18171C"/>
<path d="M70.0602 31.5101C70.7253 31.2136 71.3983 30.9171 72.0634 30.6126C72.2237 30.5405 72.1115 30.2921 71.9432 30.3562C71.2701 30.6447 70.6051 30.9412 69.932 31.2376C69.7557 31.3178 69.8839 31.5902 70.0602 31.5101Z" fill="#18171C"/>
<path d="M77.5708 29.5162C79.9746 28.3944 82.2903 26.912 84.0771 24.9329C84.1893 24.8127 83.989 24.6364 83.8688 24.7406C81.8897 26.5274 79.8705 28.1059 77.4506 29.2678C77.2904 29.3399 77.4106 29.5883 77.5708 29.5162Z" fill="#18171C"/>
<path d="M76.5081 29.0117C79.4167 27.9219 82.2692 26.1511 84.2003 23.6752C84.3045 23.539 84.0961 23.3387 83.976 23.4669C81.7164 25.7264 79.3927 27.5614 76.3799 28.7232C76.1796 28.7953 76.3158 29.0758 76.5081 29.0117Z" fill="#18171C"/>
<path d="M77.3723 28.4195C79.5678 27.0573 81.6672 25.4708 83.3979 23.5397C83.5101 23.4115 83.3018 23.2272 83.1736 23.3394C81.2666 25.0701 79.3515 26.7208 77.1881 28.139C77.0278 28.2352 77.204 28.5236 77.3723 28.4195Z" fill="#18171C"/>
<path d="M77.2799 27.2481C79.4994 25.894 81.6949 24.2834 83.3775 22.2723C83.4737 22.1521 83.2894 21.9918 83.1772 22.088C81.2381 23.8427 79.3552 25.5414 77.1437 26.9597C76.9834 27.0719 77.1116 27.3523 77.2799 27.2481Z" fill="#18171C"/>
<path d="M77.401 25.9588C79.2519 24.6287 81.0227 23.0502 82.3609 21.1912C82.473 21.039 82.2487 20.8948 82.1285 21.031C80.6061 22.7537 79.0597 24.3562 77.2088 25.7344C77.0485 25.8466 77.2407 26.071 77.401 25.9588Z" fill="#18171C"/>
<path d="M80.7495 24.1333C81.3825 23.3962 82.1037 22.683 82.6485 21.8818C82.7367 21.7455 82.5604 21.5613 82.4322 21.6814C81.7271 22.3625 81.1342 23.2039 80.5092 23.9571C80.381 24.1093 80.6213 24.2776 80.7495 24.1333Z" fill="#18171C"/>
<path d="M25.5857 42.8733C26.1306 42.8733 26.6835 42.9133 27.2284 42.8492C27.4046 42.8332 27.3806 42.5688 27.2123 42.5528C26.6915 42.4967 26.1466 42.5367 25.6178 42.5447C25.4095 42.5447 25.3694 42.8733 25.5857 42.8733Z" fill="#18171C"/>
<path d="M25.2319 41.9894C27.3312 42.398 29.4546 42.2858 31.4898 41.5967C31.6421 41.5487 31.5619 41.2923 31.4017 41.3323C29.3585 41.8291 27.3473 41.9573 25.264 41.6448C25.0396 41.6128 25.0156 41.9493 25.2319 41.9894Z" fill="#18171C"/>
<path d="M25.2421 41.4037C26.42 41.3716 27.6219 41.3877 28.7998 41.2675C28.976 41.2515 28.96 40.963 28.7837 40.963C27.6059 40.9309 26.404 41.0351 25.2261 41.0912C25.0498 41.0992 25.0658 41.4117 25.2421 41.4037Z" fill="#18171C"/>
<path d="M25.5115 40.3833C26.1125 40.183 26.7214 40.167 27.3464 40.2631C27.5147 40.2871 27.5788 40.0147 27.4105 39.9746C26.7214 39.7984 26.0404 39.8545 25.3753 40.0868C25.167 40.1509 25.3112 40.4474 25.5115 40.3833Z" fill="#18171C"/>
<path d="M32.4273 41.8711C34.4786 41.6147 36.5539 41.4384 38.5811 41.0698C38.7654 41.0378 38.7173 40.7734 38.533 40.7814C36.4738 40.9336 34.4145 41.2782 32.3713 41.5426C32.1549 41.5746 32.211 41.8952 32.4273 41.8711Z" fill="#18171C"/>
<path d="M40.2812 40.828C41.7315 40.5556 43.1898 40.3072 44.6321 39.9947C44.8084 39.9546 44.7603 39.6982 44.584 39.7223C43.1257 39.9546 41.6834 40.2591 40.2331 40.5315C40.0408 40.5716 40.0969 40.8681 40.2812 40.828Z" fill="#18171C"/>
<path d="M49.2271 24.803C50.0443 24.5867 50.8616 24.3783 51.6709 24.1379C51.8392 24.0899 51.7991 23.8254 51.6228 23.8655C50.8055 24.0578 49.9883 24.2902 49.179 24.5065C48.9947 24.5546 49.0428 24.8511 49.2271 24.803Z" fill="#18171C"/>
<path d="M38.8986 24.8854C40.1406 24.7331 41.3986 24.6129 42.6245 24.3645C42.8489 24.3165 42.7848 24.012 42.5684 24.028C41.3184 24.1081 40.0765 24.3165 38.8345 24.4847C38.5701 24.5168 38.6422 24.9174 38.8986 24.8854Z" fill="#18171C"/>
<path d="M26.3925 24.5404C26.9374 24.5323 27.4983 24.5644 28.0352 24.4923C28.2195 24.4682 28.2034 24.1878 28.0191 24.1718C27.4902 24.1317 26.9535 24.1798 26.4246 24.1958C26.2083 24.2038 26.1681 24.5484 26.3925 24.5404Z" fill="#18171C"/>
<path d="M26.1115 23.346C27.057 23.5864 28.1307 23.7467 29.0842 23.4662C29.2525 23.4182 29.2845 23.1297 29.0682 23.1217C28.0826 23.1057 27.1692 23.1618 26.1916 22.9534C25.9753 22.9054 25.8872 23.29 26.1115 23.346Z" fill="#18171C"/>
<path d="M26.0175 22.0158C27.7002 22.2321 29.4469 22.3203 31.1376 22.2962C31.3459 22.2962 31.378 21.9997 31.1697 21.9757C29.487 21.7594 27.7403 21.6552 26.0496 21.6792C25.8333 21.6712 25.7931 21.9837 26.0175 22.0158Z" fill="#18171C"/>
<path d="M26.8506 20.8153C27.099 20.8554 27.3474 20.8955 27.6038 20.8874C27.7801 20.8794 27.8842 20.615 27.6759 20.5589C27.4195 20.4868 27.1551 20.4548 26.8907 20.4387C26.6343 20.4147 26.6102 20.7673 26.8506 20.8153Z" fill="#18171C"/>
<path d="M29.0921 21.0774C29.7973 21.0534 30.5665 21.0934 31.2636 20.9572C31.4479 20.9252 31.4399 20.6527 31.2476 20.6287C30.5425 20.5646 29.7813 20.6768 29.0761 20.7168C28.8758 20.7329 28.8918 21.0854 29.0921 21.0774Z" fill="#18171C"/>
<path d="M27.9967 19.4995C28.7098 19.4915 29.463 19.5556 30.1681 19.4515C30.3444 19.4274 30.3284 19.163 30.1521 19.139C29.455 19.0669 28.7178 19.147 28.0207 19.163C27.8204 19.171 27.7803 19.4995 27.9967 19.4995Z" fill="#18171C"/>
<path d="M28.651 18.2189C28.8272 18.2109 29.0035 18.2029 29.1798 18.1869C29.3481 18.1708 29.332 17.8984 29.1718 17.8984C28.9955 17.8984 28.8192 17.8984 28.6429 17.8984C28.4106 17.8984 28.4186 18.2269 28.651 18.2189Z" fill="#18171C"/>
<path d="M65.7116 4.46269C65.1988 4.88736 64.5899 5.3521 64.1892 5.88093C64.0931 6.00914 64.2533 6.23349 64.4056 6.13734C64.9745 5.78478 65.4793 5.22389 65.952 4.75114C66.1283 4.57486 65.9039 4.30243 65.7116 4.46269Z" fill="#18171C"/>
<path d="M66.8388 4.95343C66.1577 5.34605 65.4205 5.86688 65.0119 6.56398C64.9238 6.70821 65.1 6.90052 65.2442 6.77231C65.8212 6.24348 66.326 5.69861 67.0071 5.29798C67.2154 5.17779 67.0551 4.82523 66.8388 4.95343Z" fill="#18171C"/>
<path d="M67.8429 5.72604C66.9775 6.19077 66.1442 6.80775 65.5673 7.60902C65.4631 7.75325 65.6714 7.94555 65.7996 7.81735C66.4887 7.1523 67.1698 6.53532 67.9951 6.03853C68.1794 5.93437 68.0432 5.62187 67.8429 5.72604Z" fill="#18171C"/>
<path d="M69.2056 5.97233C69.1575 6.0765 69.1415 6.12457 69.1175 6.23675C69.0774 6.42104 69.3338 6.46912 69.4299 6.34893C69.5021 6.25278 69.5261 6.21271 69.5742 6.10054C69.6864 5.87618 69.3178 5.73996 69.2056 5.97233Z" fill="#18171C"/>
<path d="M68.6027 6.88019C66.9841 7.86575 65.2694 8.78721 63.747 9.90904C63.5948 10.0211 63.7631 10.2775 63.9313 10.1894C65.606 9.33208 67.1765 8.21831 68.771 7.21672C68.9713 7.08852 68.8191 6.75199 68.6027 6.88019Z" fill="#18171C"/>
<path d="M70.3501 6.93107C68.9478 8.04484 67.4334 8.9022 65.8709 9.76754C65.6947 9.86374 65.8149 10.1361 66.0072 10.056C67.6498 9.35894 69.1722 8.29323 70.5504 7.17145C70.7106 7.04325 70.5103 6.80287 70.3501 6.93107Z" fill="#18171C"/>
<path d="M70.7649 7.71526C70.3402 8.18801 69.8113 8.65275 69.4828 9.19761C69.3867 9.36584 69.579 9.55014 69.7312 9.42194C70.244 9.02133 70.6607 8.42839 71.0854 7.93961C71.2536 7.75532 70.9331 7.53097 70.7649 7.71526Z" fill="#18171C"/>
<path d="M71.6116 8.63402C71.4032 8.87441 71.1628 9.11479 70.9945 9.39524C70.8983 9.56354 71.0907 9.76384 71.251 9.62764C71.5154 9.41124 71.7157 9.1228 71.9401 8.85838C72.1003 8.66608 71.7718 8.44172 71.6116 8.63402Z" fill="#18171C"/>
<path d="M73.9067 10.5261C73.3137 11.2552 72.6486 11.8321 71.9675 12.4571C71.8233 12.5853 71.9756 12.8417 72.1519 12.7456C73.0013 12.3209 73.7384 11.5517 74.2432 10.7584C74.3875 10.5341 74.075 10.3257 73.9067 10.5261Z" fill="#18171C"/>
<path d="M75.0855 11.3428C74.5807 11.8957 74.0519 12.4405 73.6032 13.0415C73.499 13.1777 73.6993 13.362 73.8275 13.2498C74.3884 12.729 74.8772 12.128 75.39 11.5591C75.5583 11.3829 75.2458 11.1665 75.0855 11.3428Z" fill="#18171C"/>
<path d="M75.9562 12.2907C75.6758 12.6833 75.3873 13.0759 75.155 13.4926C75.0508 13.6769 75.2832 13.8371 75.4194 13.6769C75.7319 13.3083 75.9963 12.8996 76.2767 12.507C76.413 12.3067 76.1005 12.0904 75.9562 12.2907Z" fill="#18171C"/>
<path d="M76.3153 13.1957C75.0973 14.4617 73.7352 15.5194 72.357 16.6011C72.2128 16.7133 72.373 16.9777 72.5333 16.8815C74.0477 15.9921 75.3698 14.7822 76.5717 13.5082C76.756 13.3159 76.4996 13.0114 76.3153 13.1957Z" fill="#18171C"/>
<path d="M77.0961 14.3547C75.9102 15.3323 74.6923 16.2057 73.4343 17.0871C73.274 17.1992 73.4503 17.4396 73.6105 17.3675C74.9967 16.7505 76.3189 15.7569 77.3605 14.6672C77.5368 14.4749 77.3044 14.1784 77.0961 14.3547Z" fill="#18171C"/>
<path d="M78.2957 15.207C77.6948 15.7198 77.0457 16.2166 76.5169 16.8015C76.3807 16.9538 76.6211 17.122 76.7653 17.0259C77.4063 16.5852 77.9672 16.0163 78.5441 15.5035C78.7364 15.3352 78.488 15.0468 78.2957 15.207Z" fill="#18171C"/>
<path d="M78.9802 15.8296C78.7238 16.1581 78.4193 16.4706 78.243 16.8472C78.1629 17.0154 78.3953 17.1597 78.5315 17.0475C78.844 16.7751 79.0684 16.3904 79.3087 16.0539C79.461 15.8456 79.1405 15.6292 78.9802 15.8296Z" fill="#18171C"/>
<path d="M79.7539 16.6313C79.4975 16.7915 79.2491 16.9598 78.9927 17.1281C78.8324 17.2322 79.0087 17.5047 79.177 17.4085C79.4254 17.2723 79.6737 17.1361 79.9221 16.9918C80.1545 16.8636 79.9702 16.4951 79.7539 16.6313Z" fill="#18171C"/>
<path d="M25.6142 37.1443C26.2552 37.4407 27.1366 37.609 27.7936 37.2484C27.9299 37.1763 27.9218 36.9199 27.7375 36.9279C27.0324 36.9439 26.4475 37.0161 25.7584 36.7596C25.51 36.6715 25.3818 37.0401 25.6142 37.1443Z" fill="#18171C"/>
<path d="M24.581 35.6381C27.089 35.8545 29.6851 35.5019 31.9768 34.4522C32.129 34.3801 32.0569 34.0997 31.8806 34.1558C29.4528 34.8929 27.1531 35.3176 24.6131 35.2775C24.3807 35.2775 24.3486 35.6141 24.581 35.6381Z" fill="#18171C"/>
<path d="M25.2555 34.7707C25.7202 34.7386 26.1769 34.7146 26.6336 34.6184C26.8099 34.5784 26.8179 34.2899 26.6176 34.2819C26.1369 34.2739 25.6641 34.338 25.1833 34.3941C24.943 34.4261 25.0151 34.7947 25.2555 34.7707Z" fill="#18171C"/>
<path d="M27.8146 34.4448C28.6399 34.2285 29.4973 34.0602 30.2986 33.7718C30.4668 33.7077 30.3707 33.4433 30.2024 33.4753C29.3771 33.6275 28.5678 33.9 27.7585 34.1243C27.5662 34.1804 27.6143 34.4929 27.8146 34.4448Z" fill="#18171C"/>
<path d="M25.4078 33.8107C26.4094 33.8427 27.443 33.7306 28.3565 33.3139C28.5167 33.2418 28.4366 32.9694 28.2603 33.0174C27.3148 33.2819 26.4254 33.4902 25.4318 33.4661C25.2155 33.4581 25.1834 33.8027 25.4078 33.8107Z" fill="#18171C"/>
<path d="M25.4845 32.7382C25.9733 32.5138 26.446 32.5379 26.9508 32.6821C27.1511 32.7382 27.2312 32.4818 27.055 32.3936C26.5101 32.1132 25.8691 32.1693 25.3242 32.4257C25.1239 32.5218 25.2762 32.8343 25.4845 32.7382Z" fill="#18171C"/>
<path d="M35.023 28.0823C36.0166 27.8499 37.0102 27.6416 37.9877 27.3692C38.164 27.3211 38.1239 27.0486 37.9396 27.0807C36.938 27.273 35.9525 27.5294 34.9669 27.7618C34.7586 27.8099 34.8147 28.1304 35.023 28.0823Z" fill="#18171C"/>
<path d="M36.6631 29.6926C38.2577 29.3161 39.8602 28.9795 41.4307 28.5308C41.615 28.4827 41.5749 28.1943 41.3746 28.2343C39.7721 28.5548 38.1855 28.9875 36.599 29.3802C36.4067 29.4202 36.4628 29.7407 36.6631 29.6926Z" fill="#18171C"/>
<path d="M43.6285 23.9896C44.3096 23.581 45.0307 23.3646 45.7919 23.1803C45.9682 23.1403 45.9762 22.8438 45.7759 22.8438C44.9346 22.8679 44.1573 23.1723 43.4522 23.621C43.2439 23.7573 43.4041 24.1258 43.6285 23.9896Z" fill="#18171C"/>
<path d="M41.9507 22.929C42.4074 22.8809 42.8722 22.8569 43.3289 22.7848C43.4891 22.7607 43.4811 22.4883 43.3209 22.4963C42.8481 22.5124 42.3673 22.5765 41.8946 22.6165C41.6943 22.6325 41.7504 22.945 41.9507 22.929Z" fill="#18171C"/>
<path d="M33.6654 24.7063C34.5308 24.9547 35.4763 24.8345 36.2696 24.4179C36.4619 24.3137 36.3256 24.0493 36.1253 24.1134C35.3321 24.3778 34.5709 24.4419 33.7375 24.3698C33.5533 24.3618 33.4731 24.6502 33.6654 24.7063Z" fill="#18171C"/>
<path d="M35.9047 7.84173C38.5409 6.55969 41.2252 5.31772 43.8453 4.00364C44.0376 3.90749 43.9014 3.65909 43.7091 3.71518C40.9607 4.59658 38.1563 6.01483 35.7445 7.59333C35.6083 7.68948 35.7605 7.91384 35.9047 7.84173Z" fill="#18171C"/>
<path d="M45.4595 3.25728C46.0124 3.25728 46.5573 3.26529 47.1021 3.17715C47.2864 3.1451 47.2784 2.86466 47.0861 2.84062C46.5332 2.79254 45.9884 2.83261 45.4435 2.86466C45.2271 2.88068 45.2432 3.26529 45.4595 3.25728Z" fill="#18171C"/>
<path d="M49.0163 2.58599C50.8432 2.14529 52.622 2.05715 54.4889 2.04113C54.7133 2.04113 54.7614 1.71261 54.521 1.68056C52.6621 1.46421 50.739 1.73664 48.9442 2.22542C48.7278 2.28952 48.7839 2.64208 49.0163 2.58599Z" fill="#18171C"/>
<path d="M33.5883 11.6889C34.5418 11.7049 35.5674 11.8251 36.5129 11.6889C36.7212 11.6569 36.6972 11.3604 36.4969 11.3284C35.5674 11.1841 34.5578 11.2883 33.6203 11.2883C33.3719 11.2963 33.3319 11.6889 33.5883 11.6889Z" fill="#18171C"/>
<path d="M34.5164 10.3001C35.2777 10.3401 36.0469 10.4203 36.8081 10.3802C36.9924 10.3722 36.9603 10.0918 36.7921 10.0677C36.0549 9.96355 35.2857 9.97155 34.5405 9.93945C34.3241 9.93945 34.2841 10.2921 34.5164 10.3001Z" fill="#18171C"/>
<path d="M41.7994 9.46044C43.9708 9.25206 46.2785 8.84341 48.3057 8.01009C48.4659 7.94599 48.3858 7.68157 48.2095 7.71362C46.0381 8.21041 43.9387 8.78733 41.7352 9.12386C41.5189 9.15591 41.583 9.47644 41.7994 9.46044Z" fill="#18171C"/>
<path d="M38.7597 11.9192C39.6812 11.8631 40.6027 11.775 41.5161 11.6308C41.6844 11.6067 41.6764 11.3183 41.5001 11.3263C40.5626 11.3583 39.6251 11.4545 38.6957 11.5827C38.4713 11.6067 38.5434 11.9353 38.7597 11.9192Z" fill="#18171C"/>
<path d="M37.4788 14.5419C38.1519 14.654 38.857 14.614 39.474 14.3255C39.6262 14.2534 39.5541 13.981 39.3778 14.0291C38.7528 14.2133 38.1519 14.3015 37.5029 14.1893C37.2865 14.1573 37.2625 14.5018 37.4788 14.5419Z" fill="#18171C"/>
<path d="M51.7409 11.2324C52.454 11.0481 53.1592 10.8799 53.8643 10.6635C54.0405 10.6074 54.0005 10.335 53.8162 10.3751C53.1031 10.5353 52.398 10.7276 51.6928 10.9119C51.4845 10.968 51.5326 11.2805 51.7409 11.2324Z" fill="#18171C"/>
<path d="M59.1857 7.41858C59.6424 7.21025 60.1313 7.02596 60.556 6.75352C60.7002 6.65737 60.6601 6.35289 60.4518 6.41699C59.955 6.56923 59.4822 6.82564 59.0094 7.04999C58.777 7.16217 58.9453 7.53076 59.1857 7.41858Z" fill="#18171C"/>
<path d="M27.7356 43.9067C29.8189 44.1151 31.8942 43.9949 33.8893 43.3298C34.0576 43.2737 33.9695 42.9853 33.7932 43.0253C31.79 43.4741 29.8269 43.7305 27.7676 43.5943C27.5593 43.5782 27.5353 43.8827 27.7356 43.9067Z" fill="#18171C"/>
<path d="M26.7076 43.4076C29.0553 43.3115 31.443 43.1192 33.7267 42.5263C33.935 42.4702 33.8869 42.1657 33.6706 42.1977C31.3229 42.5022 29.0152 42.8948 26.6515 43.0471C26.4031 43.0551 26.4752 43.4157 26.7076 43.4076Z" fill="#18171C"/>
<path d="M26.6813 42.3206C28.9088 42.0962 31.1684 41.944 33.3719 41.5674C33.5882 41.5273 33.5242 41.2228 33.3158 41.2389C31.0723 41.343 28.8367 41.6715 26.6092 41.9199C26.3528 41.944 26.4249 42.3446 26.6813 42.3206Z" fill="#18171C"/>
<path d="M26.1796 41.1123C28.6395 41.2405 31.1715 41.1764 33.5593 40.5193C33.7676 40.4632 33.7196 40.1668 33.5032 40.1908C31.0593 40.4632 28.6876 40.7597 26.2197 40.6796C25.9392 40.6635 25.8992 41.0962 26.1796 41.1123Z" fill="#18171C"/>
<path d="M25.699 40.5973C27.8064 40.373 29.9858 40.2849 32.0691 39.8762C32.2614 39.8361 32.2614 39.5156 32.0531 39.5236C29.9137 39.5717 27.7503 39.9403 25.6269 40.1727C25.3464 40.2047 25.4186 40.6294 25.699 40.5973Z" fill="#18171C"/>
<path d="M25.785 39.8027C27.6519 39.5543 29.567 39.394 31.4099 38.9934C31.6423 38.9453 31.5701 38.6328 31.3458 38.6408C29.4628 38.753 27.5798 39.1216 25.7128 39.386C25.4484 39.4341 25.5205 39.8427 25.785 39.8027Z" fill="#18171C"/>
<path d="M25.3469 38.5872C27.1017 38.3869 28.9286 38.3068 30.6513 37.9302C30.8276 37.8901 30.8356 37.5937 30.6353 37.6017C28.8485 37.6337 27.0376 37.9703 25.2668 38.1786C25.0024 38.2107 25.0745 38.6193 25.3469 38.5872Z" fill="#18171C"/>
<path d="M26.3242 37.4535C27.7825 37.4375 29.2969 37.3413 30.6911 36.8846C30.8834 36.8205 30.7712 36.532 30.5869 36.5561C29.1687 36.7404 27.7985 36.9968 26.3642 37.0128C26.0838 37.0208 26.0437 37.4535 26.3242 37.4535Z" fill="#18171C"/>
<path d="M26.4734 36.7026C27.7153 36.5824 28.9893 36.4462 30.1832 36.0696C30.3996 36.0055 30.3595 35.685 30.1191 35.7171C28.8772 35.8773 27.6512 36.1417 26.3932 36.2699C26.1128 36.294 26.1929 36.7267 26.4734 36.7026Z" fill="#18171C"/>
<path d="M25.8067 35.8306C27.2811 35.6703 28.8115 35.6062 30.2698 35.3017C30.4541 35.2617 30.4621 34.9492 30.2538 34.9492C28.7554 34.9732 27.233 35.2617 25.7427 35.438C25.4862 35.47 25.5584 35.8626 25.8067 35.8306Z" fill="#18171C"/>
<path d="M25.6906 34.9639C26.8044 34.8197 28.0063 34.7796 29.088 34.4591C29.2723 34.403 29.3044 34.0905 29.072 34.0905C27.9342 34.0745 26.7403 34.371 25.6185 34.5392C25.3301 34.5713 25.4102 35.004 25.6906 34.9639Z" fill="#18171C"/>
<path d="M25.418 34.3486C25.6423 34.3486 25.6824 33.9961 25.4501 33.9961C25.2257 33.9961 25.1856 34.3486 25.418 34.3486Z" fill="#18171C"/>
<path d="M27.475 41.6367C27.6753 41.6367 27.7074 41.3242 27.507 41.3242C27.3067 41.3242 27.2747 41.6367 27.475 41.6367Z" fill="#18171C"/>
<path d="M80.0224 31.8469C82.314 30.9655 84.5656 29.7956 86.7531 28.6738C86.9214 28.5857 86.8012 28.3373 86.6249 28.4094C84.3573 29.3549 82.0096 30.3084 79.8542 31.4943C79.6378 31.6145 79.79 31.935 80.0224 31.8469Z" fill="#18171C"/>
<path d="M89.7089 26.9212C90.3099 26.5927 90.9909 26.3042 91.5198 25.8795C91.672 25.7594 91.5118 25.551 91.3435 25.6071C90.7185 25.8395 90.1256 26.2561 89.5487 26.5927C89.3483 26.7129 89.4926 27.0414 89.7089 26.9212Z" fill="#18171C"/>
<path d="M87.754 34.0414C91.6882 32.4629 95.4862 30.4197 98.8275 27.7915C98.9718 27.6793 98.7876 27.471 98.6433 27.5752C95.1418 30.019 91.576 32.1264 87.6418 33.793C87.4735 33.8571 87.5857 34.1055 87.754 34.0414Z" fill="#18171C"/>
<path d="M80.068 10.0964C84.8596 9.30322 89.6832 8.55002 94.4508 7.66061C94.6511 7.62055 94.595 7.34011 94.3947 7.35613C89.6031 7.74074 84.6753 8.63015 80.0039 9.77594C79.8116 9.82404 79.8597 10.1365 80.068 10.0964Z" fill="#18171C"/>
<path d="M85.271 7.13551C85.4393 7.13551 85.4633 6.87109 85.2951 6.87109C85.1268 6.87109 85.1028 7.13551 85.271 7.13551Z" fill="#18171C"/>
<path d="M96.084 7.84863C98.7843 7.54414 101.356 7.77651 104.025 8.2092C104.217 8.24125 104.289 7.92074 104.097 7.87266C101.461 7.21562 98.7121 7.20761 96.0279 7.56017C95.8516 7.59222 95.8997 7.87266 96.084 7.84863Z" fill="#18171C"/>
<path d="M7.65103 56.6321C14.4698 56.9446 21.7053 56.7523 28.3157 54.9414C28.5241 54.8853 28.476 54.5728 28.2597 54.6129C21.3928 55.8068 14.6621 56.3276 7.68307 56.3036C7.46672 56.3036 7.43469 56.6241 7.65103 56.6321Z" fill="#18171C"/>
<path d="M17.7157 57.8633C18.7093 57.8153 19.7109 57.8153 20.6964 57.671C20.8567 57.647 20.8487 57.3906 20.6884 57.3906C19.6788 57.3906 18.6772 57.5268 17.6756 57.6149C17.5074 57.623 17.5554 57.8713 17.7157 57.8633Z" fill="#18171C"/>
<path d="M3.77051 42.4246C6.85541 40.3734 10.0605 38.3301 12.9451 36.0064C13.0813 35.8943 12.929 35.6379 12.7688 35.734C9.57973 37.6571 6.55895 39.9727 3.5622 42.1762C3.39393 42.3044 3.60225 42.5368 3.77051 42.4246Z" fill="#18171C"/>
<path d="M7.8058 37.8007C8.17439 37.6164 8.53498 37.4321 8.87952 37.1997C9.03978 37.0875 8.8635 36.8632 8.70324 36.9273C8.32665 37.0715 7.9901 37.2638 7.63754 37.4561C7.4212 37.5683 7.58145 37.9128 7.8058 37.8007Z" fill="#18171C"/>
<path d="M11.7061 35.6933C13.4128 34.6516 15.1436 33.626 16.8262 32.5523C17.0265 32.4241 16.8743 32.0796 16.658 32.2078C14.9353 33.2334 13.2526 34.3151 11.5459 35.3728C11.3616 35.493 11.5058 35.8135 11.7061 35.6933Z" fill="#18171C"/>
<path d="M18.4228 32.5218C19.6568 31.8006 21.027 31.1917 22.1648 30.3263C22.333 30.1981 22.1568 29.9417 21.9725 30.0298C20.6904 30.6148 19.5126 31.5362 18.3107 32.2814C18.1584 32.3615 18.2706 32.6099 18.4228 32.5218Z" fill="#18171C"/>
<path d="M12.312 55.4523C20.9737 55.5805 29.988 53.7376 38.4014 51.8146C46.8708 49.8755 55.6767 47.5358 63.4891 43.6737C63.7135 43.5615 63.6093 43.1528 63.3449 43.233C54.9556 45.797 46.7907 48.8579 38.2251 50.861C29.6274 52.8642 20.9497 53.6094 12.288 55.0837C12.0877 55.1158 12.0877 55.4523 12.312 55.4523Z" fill="#18171C"/>
<path d="M59.7887 45.3084C74.2196 40.4607 89.4998 34.2348 101.559 24.7318C101.799 24.5395 101.543 24.1228 101.262 24.275C94.4276 27.9609 87.9293 32.1916 80.9663 35.6611C74.0193 39.1226 66.8719 42.2075 59.5643 44.8356C59.2518 44.9478 59.4762 45.4125 59.7887 45.3084Z" fill="#18171C"/>
</g>
</svg>
