<svg width="224" height="210" viewBox="0 0 224 210" fill="none" xmlns="http://www.w3.org/2000/svg">
<rect width="131" height="35" transform="translate(49 85)" fill="#FF5722"/>
<path d="M71.6236 96.3636H73.7315V103.966C73.7315 104.799 73.5346 105.532 73.1406 106.165C72.7505 106.797 72.2012 107.292 71.4929 107.648C70.7846 108 69.9569 108.176 69.0099 108.176C68.0592 108.176 67.2296 108 66.5213 107.648C65.813 107.292 65.2637 106.797 64.8736 106.165C64.4834 105.532 64.2884 104.799 64.2884 103.966V96.3636H66.3963V103.79C66.3963 104.275 66.5024 104.706 66.7145 105.085C66.9304 105.464 67.2334 105.761 67.6236 105.977C68.0137 106.189 68.4759 106.295 69.0099 106.295C69.544 106.295 70.0062 106.189 70.3963 105.977C70.7902 105.761 71.0933 105.464 71.3054 105.085C71.5175 104.706 71.6236 104.275 71.6236 103.79V96.3636ZM78.1307 96.3636V108H76.0227V96.3636H78.1307ZM85.0724 95.8182L81.3224 109.75H79.5213L83.2713 95.8182H85.0724ZM93.8111 96.3636H95.919V103.966C95.919 104.799 95.7221 105.532 95.3281 106.165C94.938 106.797 94.3887 107.292 93.6804 107.648C92.9721 108 92.1444 108.176 91.1974 108.176C90.2467 108.176 89.4171 108 88.7088 107.648C88.0005 107.292 87.4512 106.797 87.0611 106.165C86.6709 105.532 86.4759 104.799 86.4759 103.966V96.3636H88.5838V103.79C88.5838 104.275 88.6899 104.706 88.902 105.085C89.1179 105.464 89.4209 105.761 89.8111 105.977C90.2012 106.189 90.6634 106.295 91.1974 106.295C91.7315 106.295 92.1937 106.189 92.5838 105.977C92.9777 105.761 93.2808 105.464 93.4929 105.085C93.705 104.706 93.8111 104.275 93.8111 103.79V96.3636ZM99.9716 96.3636L102.534 100.625H102.625L105.199 96.3636H107.602L104.017 102.182L107.659 108H105.216L102.625 103.767H102.534L99.9432 108H97.5114L101.188 102.182L97.5568 96.3636H99.9716ZM117.169 108H113.226V96.3636H117.249C118.404 96.3636 119.396 96.5966 120.226 97.0625C121.059 97.5246 121.699 98.1894 122.146 99.0568C122.593 99.9242 122.817 100.962 122.817 102.17C122.817 103.383 122.591 104.424 122.141 105.295C121.694 106.167 121.048 106.835 120.203 107.301C119.362 107.767 118.351 108 117.169 108ZM115.334 106.176H117.067C117.877 106.176 118.554 106.028 119.095 105.733C119.637 105.434 120.044 104.989 120.317 104.398C120.589 103.803 120.726 103.061 120.726 102.17C120.726 101.28 120.589 100.542 120.317 99.9545C120.044 99.3636 119.641 98.9223 119.107 98.6307C118.576 98.3352 117.917 98.1875 117.129 98.1875H115.334V106.176ZM128.592 108.17C127.717 108.17 126.962 107.989 126.325 107.625C125.693 107.258 125.206 106.739 124.865 106.068C124.524 105.394 124.354 104.6 124.354 103.688C124.354 102.79 124.524 102.002 124.865 101.324C125.21 100.642 125.691 100.112 126.308 99.733C126.926 99.3504 127.651 99.1591 128.484 99.1591C129.022 99.1591 129.53 99.2462 130.007 99.4205C130.488 99.5909 130.912 99.8561 131.28 100.216C131.651 100.576 131.943 101.034 132.155 101.591C132.367 102.144 132.473 102.803 132.473 103.568V104.199H125.32V102.812H130.501C130.498 102.419 130.412 102.068 130.246 101.761C130.079 101.451 129.846 101.206 129.547 101.028C129.251 100.85 128.907 100.761 128.513 100.761C128.092 100.761 127.723 100.864 127.405 101.068C127.087 101.269 126.839 101.534 126.661 101.864C126.486 102.189 126.397 102.547 126.393 102.938V104.148C126.393 104.655 126.486 105.091 126.672 105.455C126.857 105.814 127.117 106.091 127.45 106.284C127.784 106.473 128.174 106.568 128.621 106.568C128.92 106.568 129.191 106.527 129.433 106.443C129.676 106.356 129.886 106.229 130.064 106.062C130.242 105.896 130.376 105.689 130.467 105.443L132.388 105.659C132.267 106.167 132.036 106.61 131.695 106.989C131.357 107.364 130.926 107.655 130.399 107.864C129.873 108.068 129.27 108.17 128.592 108.17ZM141.111 101.58L139.236 101.784C139.183 101.595 139.09 101.417 138.957 101.25C138.829 101.083 138.654 100.949 138.435 100.847C138.215 100.744 137.946 100.693 137.628 100.693C137.2 100.693 136.84 100.786 136.548 100.972C136.26 101.157 136.118 101.398 136.122 101.693C136.118 101.947 136.211 102.153 136.401 102.312C136.594 102.472 136.912 102.602 137.355 102.705L138.844 103.023C139.67 103.201 140.283 103.483 140.685 103.869C141.09 104.256 141.295 104.761 141.298 105.386C141.295 105.936 141.134 106.42 140.815 106.841C140.501 107.258 140.063 107.583 139.503 107.818C138.942 108.053 138.298 108.17 137.571 108.17C136.503 108.17 135.643 107.947 134.991 107.5C134.34 107.049 133.952 106.422 133.827 105.619L135.832 105.426C135.923 105.82 136.116 106.117 136.412 106.318C136.707 106.519 137.092 106.619 137.565 106.619C138.054 106.619 138.446 106.519 138.741 106.318C139.041 106.117 139.19 105.869 139.19 105.574C139.19 105.324 139.094 105.117 138.901 104.955C138.711 104.792 138.416 104.667 138.014 104.58L136.526 104.267C135.688 104.093 135.069 103.799 134.668 103.386C134.266 102.97 134.067 102.443 134.071 101.807C134.067 101.269 134.213 100.803 134.509 100.409C134.808 100.011 135.223 99.7045 135.753 99.4886C136.287 99.2689 136.902 99.1591 137.599 99.1591C138.622 99.1591 139.427 99.3769 140.014 99.8125C140.605 100.248 140.971 100.837 141.111 101.58ZM142.994 108V99.2727H145.051V108H142.994ZM144.028 98.0341C143.703 98.0341 143.422 97.9261 143.188 97.7102C142.953 97.4905 142.835 97.2273 142.835 96.9205C142.835 96.6098 142.953 96.3466 143.188 96.1307C143.422 95.911 143.703 95.8011 144.028 95.8011C144.358 95.8011 144.638 95.911 144.869 96.1307C145.104 96.3466 145.222 96.6098 145.222 96.9205C145.222 97.2273 145.104 97.4905 144.869 97.7102C144.638 97.9261 144.358 98.0341 144.028 98.0341ZM150.962 111.455C150.223 111.455 149.589 111.354 149.058 111.153C148.528 110.956 148.102 110.691 147.78 110.358C147.458 110.025 147.234 109.655 147.109 109.25L148.962 108.801C149.045 108.972 149.166 109.14 149.325 109.307C149.484 109.477 149.698 109.617 149.967 109.727C150.24 109.841 150.583 109.898 150.996 109.898C151.579 109.898 152.062 109.756 152.445 109.472C152.827 109.191 153.018 108.729 153.018 108.085V106.432H152.916C152.81 106.644 152.655 106.862 152.45 107.085C152.25 107.309 151.982 107.496 151.649 107.648C151.32 107.799 150.905 107.875 150.405 107.875C149.734 107.875 149.126 107.718 148.581 107.403C148.039 107.085 147.607 106.612 147.286 105.983C146.967 105.35 146.808 104.559 146.808 103.608C146.808 102.65 146.967 101.841 147.286 101.182C147.607 100.519 148.041 100.017 148.587 99.6761C149.132 99.3314 149.74 99.1591 150.411 99.1591C150.922 99.1591 151.342 99.2462 151.672 99.4205C152.005 99.5909 152.27 99.7973 152.467 100.04C152.664 100.278 152.814 100.504 152.916 100.716H153.03V99.2727H155.058V108.142C155.058 108.888 154.88 109.506 154.524 109.994C154.168 110.483 153.681 110.848 153.064 111.091C152.446 111.333 151.746 111.455 150.962 111.455ZM150.979 106.261C151.414 106.261 151.786 106.155 152.092 105.943C152.399 105.731 152.632 105.426 152.791 105.028C152.95 104.631 153.03 104.153 153.03 103.597C153.03 103.047 152.95 102.566 152.791 102.153C152.636 101.741 152.405 101.42 152.098 101.193C151.795 100.962 151.422 100.847 150.979 100.847C150.52 100.847 150.138 100.966 149.831 101.205C149.524 101.443 149.293 101.771 149.138 102.188C148.982 102.6 148.905 103.07 148.905 103.597C148.905 104.131 148.982 104.598 149.138 105C149.297 105.398 149.53 105.708 149.837 105.932C150.147 106.152 150.528 106.261 150.979 106.261ZM159.223 102.886V108H157.166V99.2727H159.132V100.756H159.234C159.435 100.267 159.755 99.8788 160.195 99.5909C160.638 99.303 161.185 99.1591 161.837 99.1591C162.439 99.1591 162.964 99.2879 163.411 99.5455C163.861 99.803 164.21 100.176 164.456 100.665C164.706 101.153 164.829 101.746 164.825 102.443V108H162.768V102.761C162.768 102.178 162.617 101.722 162.314 101.392C162.015 101.062 161.6 100.898 161.07 100.898C160.71 100.898 160.39 100.977 160.109 101.136C159.833 101.292 159.615 101.517 159.456 101.812C159.301 102.108 159.223 102.466 159.223 102.886Z" fill="white"/>
<g filter="url(#filter0_f_124_1367)">
<ellipse cx="112" cy="105" rx="32" ry="25" fill="#FF5722"/>
</g>
<path d="M45 77C49.4183 77 53 73.4183 53 69C53 64.5817 49.4183 61 45 61C40.5817 61 37 64.5817 37 69C37 73.4183 40.5817 77 45 77Z" fill="#19BCFE"/>
<path fill-rule="evenodd" clip-rule="evenodd" d="M29 93C33.4183 93 37 89.4183 37 85C37 83.7939 37 81.1272 37 77C33.4061 77 30.7394 77 29 77C24.5817 77 21 80.5817 21 85C21 89.4183 24.5817 93 29 93Z" fill="#09CF83"/>
<path fill-rule="evenodd" clip-rule="evenodd" d="M29 77H37V61C33.1394 61 30.4728 61 29 61C24.5817 61 21 64.5817 21 69C21 73.4183 24.5817 77 29 77Z" fill="#A259FF"/>
<path fill-rule="evenodd" clip-rule="evenodd" d="M29 61H37V45C33.1394 45 30.4728 45 29 45C24.5817 45 21 48.5817 21 53C21 57.4183 24.5817 61 29 61Z" fill="#F24E1E"/>
<path fill-rule="evenodd" clip-rule="evenodd" d="M45 61H37V45H45C49.4183 45 53 48.5817 53 53C53 57.4183 49.4183 61 45 61Z" fill="#FF7262"/>
<defs>
<filter id="filter0_f_124_1367" x="0" y="0" width="224" height="210" filterUnits="userSpaceOnUse" color-interpolation-filters="sRGB">
<feFlood flood-opacity="0" result="BackgroundImageFix"/>
<feBlend mode="normal" in="SourceGraphic" in2="BackgroundImageFix" result="shape"/>
<feGaussianBlur stdDeviation="40" result="effect1_foregroundBlur_124_1367"/>
</filter>
</defs>
</svg>
