<svg width="225" height="210" viewBox="0 0 225 210" fill="none" xmlns="http://www.w3.org/2000/svg">
<rect width="115" height="35" transform="translate(50 85)" fill="#1CBA6D"/>
<path d="M65.5696 96.3636H68.1491L71.6037 104.795H71.7401L75.1946 96.3636H77.7741V108H75.7514V100.006H75.6435L72.4276 107.966H70.9162L67.7003 99.9886H67.5923V108H65.5696V96.3636ZM83.7855 108.17C82.9332 108.17 82.1946 107.983 81.5696 107.608C80.9446 107.233 80.4598 106.708 80.1151 106.034C79.7741 105.36 79.6037 104.572 79.6037 103.67C79.6037 102.769 79.7741 101.979 80.1151 101.301C80.4598 100.623 80.9446 100.097 81.5696 99.7216C82.1946 99.3466 82.9332 99.1591 83.7855 99.1591C84.6378 99.1591 85.3764 99.3466 86.0014 99.7216C86.6264 100.097 87.1094 100.623 87.4503 101.301C87.795 101.979 87.9673 102.769 87.9673 103.67C87.9673 104.572 87.795 105.36 87.4503 106.034C87.1094 106.708 86.6264 107.233 86.0014 107.608C85.3764 107.983 84.6378 108.17 83.7855 108.17ZM83.7969 106.523C84.259 106.523 84.6454 106.396 84.956 106.142C85.2666 105.884 85.4976 105.54 85.6491 105.108C85.8045 104.676 85.8821 104.195 85.8821 103.665C85.8821 103.131 85.8045 102.648 85.6491 102.216C85.4976 101.78 85.2666 101.434 84.956 101.176C84.6454 100.919 84.259 100.79 83.7969 100.79C83.3234 100.79 82.9295 100.919 82.6151 101.176C82.3045 101.434 82.0715 101.78 81.9162 102.216C81.7647 102.648 81.6889 103.131 81.6889 103.665C81.6889 104.195 81.7647 104.676 81.9162 105.108C82.0715 105.54 82.3045 105.884 82.6151 106.142C82.9295 106.396 83.3234 106.523 83.7969 106.523ZM89.804 108V96.3636H91.8608V100.716H91.946C92.0521 100.504 92.2017 100.278 92.3949 100.04C92.5881 99.7973 92.8494 99.5909 93.179 99.4205C93.5085 99.2462 93.929 99.1591 94.4403 99.1591C95.1146 99.1591 95.7225 99.3314 96.2642 99.6761C96.8097 100.017 97.2415 100.523 97.5597 101.193C97.8816 101.86 98.0426 102.678 98.0426 103.648C98.0426 104.606 97.8854 105.42 97.571 106.091C97.2566 106.761 96.8286 107.273 96.2869 107.625C95.7453 107.977 95.1316 108.153 94.446 108.153C93.946 108.153 93.5313 108.07 93.2017 107.903C92.8722 107.737 92.607 107.536 92.4062 107.301C92.2093 107.062 92.0559 106.837 91.946 106.625H91.8267V108H89.804ZM91.821 103.636C91.821 104.201 91.9006 104.695 92.0597 105.119C92.2225 105.544 92.4555 105.875 92.7585 106.114C93.0653 106.348 93.4366 106.466 93.8722 106.466C94.3267 106.466 94.7074 106.345 95.0142 106.102C95.321 105.856 95.5521 105.521 95.7074 105.097C95.8665 104.669 95.946 104.182 95.946 103.636C95.946 103.095 95.8684 102.614 95.7131 102.193C95.5578 101.773 95.3267 101.443 95.0199 101.205C94.7131 100.966 94.3305 100.847 93.8722 100.847C93.4328 100.847 93.0597 100.962 92.7528 101.193C92.446 101.424 92.2131 101.748 92.054 102.165C91.8987 102.581 91.821 103.072 91.821 103.636ZM99.7912 108V99.2727H101.848V108H99.7912ZM100.825 98.0341C100.5 98.0341 100.219 97.9261 99.9844 97.7102C99.7495 97.4905 99.6321 97.2273 99.6321 96.9205C99.6321 96.6098 99.7495 96.3466 99.9844 96.1307C100.219 95.911 100.5 95.8011 100.825 95.8011C101.155 95.8011 101.435 95.911 101.666 96.1307C101.901 96.3466 102.018 96.6098 102.018 96.9205C102.018 97.2273 101.901 97.4905 101.666 97.7102C101.435 97.9261 101.155 98.0341 100.825 98.0341ZM106.02 96.3636V108H103.963V96.3636H106.02ZM111.999 108.17C111.124 108.17 110.368 107.989 109.732 107.625C109.099 107.258 108.612 106.739 108.271 106.068C107.93 105.394 107.76 104.6 107.76 103.688C107.76 102.79 107.93 102.002 108.271 101.324C108.616 100.642 109.097 100.112 109.714 99.733C110.332 99.3504 111.057 99.1591 111.891 99.1591C112.429 99.1591 112.936 99.2462 113.413 99.4205C113.894 99.5909 114.319 99.8561 114.686 100.216C115.057 100.576 115.349 101.034 115.561 101.591C115.773 102.144 115.879 102.803 115.879 103.568V104.199H108.726V102.812H113.908C113.904 102.419 113.819 102.068 113.652 101.761C113.485 101.451 113.252 101.206 112.953 101.028C112.658 100.85 112.313 100.761 111.919 100.761C111.499 100.761 111.129 100.864 110.811 101.068C110.493 101.269 110.245 101.534 110.067 101.864C109.893 102.189 109.804 102.547 109.8 102.938V104.148C109.8 104.655 109.893 105.091 110.078 105.455C110.264 105.814 110.523 106.091 110.857 106.284C111.19 106.473 111.58 106.568 112.027 106.568C112.326 106.568 112.597 106.527 112.839 106.443C113.082 106.356 113.292 106.229 113.47 106.062C113.648 105.896 113.783 105.689 113.874 105.443L115.794 105.659C115.673 106.167 115.442 106.61 115.101 106.989C114.764 107.364 114.332 107.655 113.805 107.864C113.279 108.068 112.677 108.17 111.999 108.17ZM125.622 108H121.679V96.3636H125.702C126.857 96.3636 127.849 96.5966 128.679 97.0625C129.512 97.5246 130.152 98.1894 130.599 99.0568C131.046 99.9242 131.27 100.962 131.27 102.17C131.27 103.383 131.045 104.424 130.594 105.295C130.147 106.167 129.501 106.835 128.656 107.301C127.815 107.767 126.804 108 125.622 108ZM123.787 106.176H125.52C126.33 106.176 127.007 106.028 127.548 105.733C128.09 105.434 128.497 104.989 128.77 104.398C129.043 103.803 129.179 103.061 129.179 102.17C129.179 101.28 129.043 100.542 128.77 99.9545C128.497 99.3636 128.094 98.9223 127.56 98.6307C127.029 98.3352 126.37 98.1875 125.582 98.1875H123.787V106.176ZM137.045 108.17C136.17 108.17 135.415 107.989 134.778 107.625C134.146 107.258 133.659 106.739 133.318 106.068C132.977 105.394 132.807 104.6 132.807 103.688C132.807 102.79 132.977 102.002 133.318 101.324C133.663 100.642 134.144 100.112 134.761 99.733C135.379 99.3504 136.104 99.1591 136.938 99.1591C137.475 99.1591 137.983 99.2462 138.46 99.4205C138.941 99.5909 139.366 99.8561 139.733 100.216C140.104 100.576 140.396 101.034 140.608 101.591C140.82 102.144 140.926 102.803 140.926 103.568V104.199H133.773V102.812H138.955C138.951 102.419 138.866 102.068 138.699 101.761C138.532 101.451 138.299 101.206 138 101.028C137.705 100.85 137.36 100.761 136.966 100.761C136.545 100.761 136.176 100.864 135.858 101.068C135.54 101.269 135.292 101.534 135.114 101.864C134.939 102.189 134.85 102.547 134.847 102.938V104.148C134.847 104.655 134.939 105.091 135.125 105.455C135.311 105.814 135.57 106.091 135.903 106.284C136.237 106.473 136.627 106.568 137.074 106.568C137.373 106.568 137.644 106.527 137.886 106.443C138.129 106.356 138.339 106.229 138.517 106.062C138.695 105.896 138.83 105.689 138.92 105.443L140.841 105.659C140.72 106.167 140.489 106.61 140.148 106.989C139.811 107.364 139.379 107.655 138.852 107.864C138.326 108.068 137.723 108.17 137.045 108.17ZM150.212 99.2727L147.104 108H144.831L141.723 99.2727H143.916L145.922 105.756H146.013L148.024 99.2727H150.212Z" fill="white"/>
<g filter="url(#filter0_f_124_1384)">
<ellipse cx="113" cy="105" rx="32" ry="25" fill="#1CBA6D"/>
</g>
<path d="M58.135 63.6155L19.3955 96.8392C16.7744 93.004 15.1158 88.5939 14.5599 83.982C14.0705 80.363 14.4198 76.6799 15.581 73.2174L15.9244 72.2786L7.94332 69.5707C7.67039 69.4815 7.44398 69.2876 7.31376 69.0317C7.18355 68.7758 7.16015 68.4786 7.2487 68.2055C7.29353 68.0716 7.36456 67.948 7.45764 67.8419C7.55072 67.7358 7.664 67.6493 7.79087 67.5875C7.91773 67.5256 8.05564 67.4896 8.19656 67.4816C8.33748 67.4736 8.47859 67.4937 8.61164 67.5408L16.8142 70.311C18.4466 67.1886 20.6779 64.4183 23.3808 62.1581C25.9803 59.873 29.0109 58.1313 32.2939 57.0353L30.79 48.5203C30.7643 48.3796 30.7673 48.2352 30.7987 48.0956C30.8301 47.9561 30.8894 47.8244 30.9729 47.7083C31.0564 47.5922 31.1625 47.4942 31.2848 47.42C31.4071 47.3459 31.543 47.2972 31.6846 47.2768C31.9676 47.2358 32.2554 47.3083 32.4852 47.4784C32.7151 47.6486 32.8684 47.9026 32.9119 48.1852L34.3857 56.5019L35.5804 56.2617C39.219 55.7041 42.9368 55.9839 46.451 57.0799C50.7778 58.3751 54.7668 60.6064 58.135 63.6155ZM39.8271 66.7665C40.1943 67.1946 40.7165 67.4594 41.2788 67.5025C41.8411 67.5456 42.3975 67.3635 42.8256 66.9964C43.2537 66.6292 43.5184 66.1071 43.5615 65.5447C43.6046 64.9824 43.4226 64.426 43.0554 63.9979C42.6883 63.5698 42.1661 63.3051 41.6038 63.262C41.0415 63.2189 40.4851 63.4009 40.057 63.7681C39.6289 64.1352 39.3641 64.6574 39.321 65.2197C39.2779 65.782 39.46 66.3384 39.8271 66.7665ZM22.0715 81.9941C22.4387 82.4222 22.9608 82.6869 23.5232 82.73C24.0855 82.7731 24.6419 82.591 25.07 82.2239C25.4981 81.8568 25.7628 81.3346 25.8059 80.7723C25.849 80.2099 25.667 79.6535 25.2998 79.2254C24.9327 78.7973 24.4105 78.5326 23.8482 78.4895C23.2859 78.4464 22.7294 78.6285 22.3013 78.9956C21.8732 79.3627 21.6085 79.8849 21.5654 80.4472C21.5223 81.0096 21.7044 81.566 22.0715 81.9941Z" fill="#1CBA6D"/>
<defs>
<filter id="filter0_f_124_1384" x="1" y="0" width="224" height="210" filterUnits="userSpaceOnUse" color-interpolation-filters="sRGB">
<feFlood flood-opacity="0" result="BackgroundImageFix"/>
<feBlend mode="normal" in="SourceGraphic" in2="BackgroundImageFix" result="shape"/>
<feGaussianBlur stdDeviation="40" result="effect1_foregroundBlur_124_1384"/>
</filter>
</defs>
</svg>
