<svg width="224" height="210" viewBox="0 0 224 210" fill="none" xmlns="http://www.w3.org/2000/svg">
<rect width="97" height="35" transform="translate(49 85)" fill="#1AACFF"/>
<path d="M66.6982 108L63.4141 96.3636H65.6811L67.7777 104.915H67.8857L70.1243 96.3636H72.1868L74.4311 104.92H74.5334L76.63 96.3636H78.897L75.6129 108H73.5334L71.2038 99.8352H71.1129L68.7777 108H66.6982ZM83.2408 108.17C82.3658 108.17 81.6101 107.989 80.9737 107.625C80.3411 107.258 79.8544 106.739 79.5135 106.068C79.1726 105.394 79.0021 104.6 79.0021 103.688C79.0021 102.79 79.1726 102.002 79.5135 101.324C79.8582 100.642 80.3393 100.112 80.9567 99.733C81.5741 99.3504 82.2995 99.1591 83.1328 99.1591C83.6707 99.1591 84.1783 99.2462 84.6555 99.4205C85.1366 99.5909 85.5608 99.8561 85.9283 100.216C86.2995 100.576 86.5911 101.034 86.8033 101.591C87.0154 102.144 87.1214 102.803 87.1214 103.568V104.199H79.968V102.812H85.1499C85.1461 102.419 85.0608 102.068 84.8942 101.761C84.7275 101.451 84.4946 101.206 84.1953 101.028C83.8999 100.85 83.5552 100.761 83.1612 100.761C82.7408 100.761 82.3714 100.864 82.0533 101.068C81.7351 101.269 81.487 101.534 81.3089 101.864C81.1347 102.189 81.0457 102.547 81.0419 102.938V104.148C81.0419 104.655 81.1347 105.091 81.3203 105.455C81.5059 105.814 81.7654 106.091 82.0987 106.284C82.4321 106.473 82.8222 106.568 83.2692 106.568C83.5684 106.568 83.8393 106.527 84.0817 106.443C84.3241 106.356 84.5343 106.229 84.7124 106.062C84.8904 105.896 85.0249 105.689 85.1158 105.443L87.0362 105.659C86.915 106.167 86.6839 106.61 86.343 106.989C86.0059 107.364 85.5741 107.655 85.0476 107.864C84.5211 108.068 83.9188 108.17 83.2408 108.17ZM88.9524 108V96.3636H91.0092V100.716H91.0945C91.2005 100.504 91.3501 100.278 91.5433 100.04C91.7365 99.7973 91.9979 99.5909 92.3274 99.4205C92.657 99.2462 93.0774 99.1591 93.5888 99.1591C94.263 99.1591 94.871 99.3314 95.4126 99.6761C95.9581 100.017 96.3899 100.523 96.7081 101.193C97.0301 101.86 97.1911 102.678 97.1911 103.648C97.1911 104.606 97.0339 105.42 96.7195 106.091C96.4051 106.761 95.977 107.273 95.4354 107.625C94.8937 107.977 94.2801 108.153 93.5945 108.153C93.0945 108.153 92.6797 108.07 92.3501 107.903C92.0206 107.737 91.7554 107.536 91.5547 107.301C91.3577 107.062 91.2043 106.837 91.0945 106.625H90.9751V108H88.9524ZM90.9695 103.636C90.9695 104.201 91.049 104.695 91.2081 105.119C91.371 105.544 91.6039 105.875 91.907 106.114C92.2138 106.348 92.585 106.466 93.0206 106.466C93.4751 106.466 93.8558 106.345 94.1626 106.102C94.4695 105.856 94.7005 105.521 94.8558 105.097C95.0149 104.669 95.0945 104.182 95.0945 103.636C95.0945 103.095 95.0168 102.614 94.8615 102.193C94.7062 101.773 94.4751 101.443 94.1683 101.205C93.8615 100.966 93.4789 100.847 93.0206 100.847C92.5812 100.847 92.2081 100.962 91.9013 101.193C91.5945 101.424 91.3615 101.748 91.2024 102.165C91.0471 102.581 90.9695 103.072 90.9695 103.636ZM106.942 108H102.999V96.3636H107.022C108.177 96.3636 109.17 96.5966 109.999 97.0625C110.833 97.5246 111.473 98.1894 111.92 99.0568C112.367 99.9242 112.59 100.962 112.59 102.17C112.59 103.383 112.365 104.424 111.914 105.295C111.467 106.167 110.821 106.835 109.977 107.301C109.136 107.767 108.124 108 106.942 108ZM105.107 106.176H106.84C107.651 106.176 108.327 106.028 108.869 105.733C109.41 105.434 109.817 104.989 110.09 104.398C110.363 103.803 110.499 103.061 110.499 102.17C110.499 101.28 110.363 100.542 110.09 99.9545C109.817 99.3636 109.414 98.9223 108.88 98.6307C108.35 98.3352 107.691 98.1875 106.903 98.1875H105.107V106.176ZM118.366 108.17C117.491 108.17 116.735 107.989 116.099 107.625C115.466 107.258 114.979 106.739 114.638 106.068C114.298 105.394 114.127 104.6 114.127 103.688C114.127 102.79 114.298 102.002 114.638 101.324C114.983 100.642 115.464 100.112 116.082 99.733C116.699 99.3504 117.424 99.1591 118.258 99.1591C118.796 99.1591 119.303 99.2462 119.781 99.4205C120.262 99.5909 120.686 99.8561 121.053 100.216C121.424 100.576 121.716 101.034 121.928 101.591C122.14 102.144 122.246 102.803 122.246 103.568V104.199H115.093V102.812H120.275C120.271 102.419 120.186 102.068 120.019 101.761C119.853 101.451 119.62 101.206 119.32 101.028C119.025 100.85 118.68 100.761 118.286 100.761C117.866 100.761 117.496 100.864 117.178 101.068C116.86 101.269 116.612 101.534 116.434 101.864C116.26 102.189 116.171 102.547 116.167 102.938V104.148C116.167 104.655 116.26 105.091 116.445 105.455C116.631 105.814 116.89 106.091 117.224 106.284C117.557 106.473 117.947 106.568 118.394 106.568C118.693 106.568 118.964 106.527 119.207 106.443C119.449 106.356 119.659 106.229 119.837 106.062C120.015 105.896 120.15 105.689 120.241 105.443L122.161 105.659C122.04 106.167 121.809 106.61 121.468 106.989C121.131 107.364 120.699 107.655 120.173 107.864C119.646 108.068 119.044 108.17 118.366 108.17ZM131.532 99.2727L128.424 108H126.151L123.043 99.2727H125.237L127.242 105.756H127.333L129.344 99.2727H131.532Z" fill="white"/>
<g filter="url(#filter0_f_124_1378)">
<ellipse cx="112" cy="105" rx="32" ry="25" fill="#1AACFF"/>
</g>
<path d="M157.564 52.986L149.44 54.9775L152.864 62.6085C153.09 63.1137 153.107 63.6881 152.91 64.2055C152.713 64.7229 152.319 65.1409 151.814 65.3675C151.309 65.5942 150.734 65.6109 150.217 65.4139C149.699 65.217 149.281 64.8226 149.055 64.3175L144.606 54.401C144.48 54.1218 144.418 53.8185 144.423 53.5125C144.428 53.2065 144.5 52.9054 144.635 52.6304C144.769 52.3554 144.962 52.1134 145.2 51.9213C145.439 51.7293 145.716 51.592 146.013 51.5191L156.57 48.9312C156.836 48.8659 157.112 48.8537 157.383 48.8953C157.654 48.9369 157.914 49.0315 158.149 49.1736C158.383 49.3157 158.587 49.5026 158.749 49.7236C158.912 49.9446 159.029 50.1954 159.094 50.4616C159.159 50.7278 159.171 51.0043 159.13 51.2753C159.088 51.5462 158.994 51.8063 158.852 52.0408C158.709 52.2752 158.523 52.4793 158.302 52.6415C158.081 52.8037 157.83 52.9207 157.564 52.986ZM183.427 69.7922L178.978 59.8756C178.866 59.6255 178.706 59.4 178.506 59.2118C178.307 59.0237 178.072 58.8767 177.816 58.7792C177.56 58.6817 177.287 58.6356 177.013 58.6436C176.739 58.6515 176.469 58.7134 176.219 58.8256C175.969 58.9378 175.743 59.0982 175.555 59.2976C175.367 59.497 175.22 59.7314 175.123 59.9876C175.025 60.2438 174.979 60.5167 174.987 60.7907C174.995 61.0647 175.057 61.3345 175.169 61.5846L178.593 69.2157L170.469 71.2072C170.203 71.2724 169.952 71.3895 169.731 71.5517C169.51 71.7139 169.324 71.918 169.181 72.1524C168.894 72.6258 168.807 73.1938 168.939 73.7315C169.071 74.2692 169.411 74.7326 169.884 75.0196C170.119 75.1617 170.379 75.2562 170.65 75.2978C170.921 75.3394 171.197 75.3272 171.463 75.2619L182.02 72.674C182.317 72.6012 182.594 72.4639 182.833 72.2718C183.071 72.0798 183.264 71.8377 183.398 71.5627C183.533 71.2878 183.605 70.9866 183.61 70.6807C183.615 70.3747 183.552 70.0714 183.427 69.7922ZM177.238 49.3349C176.854 48.9367 176.327 48.7075 175.773 48.6977C175.22 48.6879 174.685 48.8983 174.287 49.2827L150.847 71.9067C150.65 72.097 150.492 72.3244 150.382 72.5758C150.273 72.8272 150.214 73.0977 150.209 73.3719C150.204 73.6461 150.253 73.9185 150.354 74.1737C150.454 74.4289 150.604 74.6617 150.794 74.859C150.985 75.0563 151.212 75.2142 151.463 75.3235C151.715 75.4329 151.985 75.4917 152.26 75.4964C152.534 75.5012 152.806 75.4519 153.061 75.3513C153.316 75.2508 153.549 75.101 153.746 74.9104L177.186 52.2864C177.383 52.0961 177.541 51.8687 177.65 51.6174C177.76 51.366 177.818 51.0956 177.823 50.8215C177.828 50.5474 177.779 50.2751 177.679 50.02C177.578 49.765 177.428 49.5322 177.238 49.3349Z" fill="#1AACFF"/>
<defs>
<filter id="filter0_f_124_1378" x="0" y="0" width="224" height="210" filterUnits="userSpaceOnUse" color-interpolation-filters="sRGB">
<feFlood flood-opacity="0" result="BackgroundImageFix"/>
<feBlend mode="normal" in="SourceGraphic" in2="BackgroundImageFix" result="shape"/>
<feGaussianBlur stdDeviation="40" result="effect1_foregroundBlur_124_1378"/>
</filter>
</defs>
</svg>
