<svg width="46" height="148" viewBox="0 0 46 148" fill="none" xmlns="http://www.w3.org/2000/svg">
<path fill-rule="evenodd" clip-rule="evenodd" d="M-74.6021 143.333C-75.1004 143.162 -75.1358 142.605 -74.6792 142.098C-74.0621 141.412 -58.5689 130.342 -52.0027 125.896C-51.3973 125.482 -49.0168 123.818 -47.0741 122.449C-46.7545 122.222 -45.5857 121.389 -44.4755 120.591C-43.3655 119.808 -41.7922 118.671 -40.9766 118.086C-40.1602 117.501 -38.874 116.586 -38.1162 116.034C-37.368 115.492 -36.0055 114.509 -35.1044 113.863C-29.0224 109.503 -28.206 108.854 -31.2059 110.738C-35.1638 113.235 -39.1536 115.673 -42.6134 117.699C-45.6964 119.514 -49.7929 121.844 -50.4477 122.169C-50.7839 122.349 -51.2626 122.622 -51.514 122.806C-51.7661 122.974 -51.9929 123.097 -52.026 123.069C-52.0591 123.041 -52.1685 123.099 -52.2612 123.185C-52.3626 123.282 -52.7825 123.523 -53.2107 123.724C-53.6379 123.926 -53.9992 124.118 -54.0245 124.162C-54.1603 124.345 -54.8646 124.645 -54.9799 124.547C-55.0792 124.464 -55.1042 124.476 -55.0648 124.625C-55.0167 124.83 -55.2777 124.958 -55.4423 124.819C-55.5246 124.751 -55.4825 124.671 -55.2304 124.502C-55.0534 124.387 -54.9193 124.27 -54.9439 124.249C-54.96 124.236 -54.8436 124.169 -54.6587 124.109C-54.4823 124.041 -54.3311 123.938 -54.339 123.883C-54.3298 123.824 -54.2885 123.809 -54.2384 123.852C-54.1884 123.894 -54.1048 123.849 -54.0617 123.753C-54.027 123.65 -53.9519 123.598 -53.9018 123.64C-53.8518 123.682 -53.6839 123.608 -53.5076 123.477C-53.3391 123.354 -53.1464 123.286 -53.0888 123.334C-53.0226 123.389 -52.939 123.344 -52.8533 123.201C-52.6994 122.934 -52.1946 122.55 -52.1714 122.684C-52.1548 122.731 -52.0288 122.655 -51.8771 122.503C-51.7339 122.344 -51.5321 122.232 -51.4319 122.233C-51.3232 122.242 -51.2647 122.224 -51.2978 122.197C-51.3555 122.148 -50.5409 121.645 -49.7515 121.235C-49.5412 121.131 -49.29 120.964 -49.1962 120.86C-49.1033 120.757 -48.9858 120.674 -48.9354 120.683C-48.8851 120.708 -48.5661 120.531 -48.2219 120.325C-47.8861 120.112 -47.4738 119.864 -47.3065 119.774C-47.1393 119.684 -46.9875 119.596 -46.9538 119.576C-46.743 119.422 -45.9629 118.941 -43.1988 117.286C-38.5866 114.513 -32.2183 110.51 -28.5523 108.063C-27.5266 107.389 -26.0477 106.406 -25.2653 105.876C-22.3238 103.926 -15.8906 99.4984 -14.0995 98.1993C-10.3893 95.4929 -3.39191 89.8569 6.10908 81.9204C13.7155 75.5594 16.9 72.8405 26.8018 64.2492C29.0011 62.3354 31.5116 60.1732 32.3624 59.4358C33.2216 58.7057 35.2858 56.9106 36.9553 55.4582C40.2927 52.5538 40.6955 52.25 41.122 52.261C41.9389 52.2883 42.1041 53.1032 41.4596 53.9969C40.4599 55.3833 33.0563 62.1963 24.0134 70.0732C22.8927 71.0446 21.7302 72.0643 21.4092 72.3398C20.6596 72.9961 16.4394 76.5279 14.9655 77.7313C12.3551 79.8606 5.04768 85.5663 1.67358 88.0929C1.32887 88.3471 0.209579 89.189 -0.817223 89.9603C-1.84397 90.7306 -4.55301 92.7276 -6.8324 94.391C-9.11265 96.0554 -11.7038 98.0031 -12.5969 98.7048C-15.1978 100.759 -20.9978 105.241 -23.0254 106.77C-23.4877 107.106 -24.5145 107.878 -25.3063 108.483C-28.3607 110.783 -33.9134 114.861 -40.7021 119.797C-48.0291 125.123 -48.4499 125.43 -51.0236 127.211C-51.8813 127.81 -53.0171 128.605 -53.5465 128.968C-54.0846 129.341 -54.698 129.781 -54.9346 129.946C-55.162 130.118 -55.9108 130.644 -56.5914 131.111C-57.2804 131.571 -58.7609 132.604 -59.8785 133.38C-69.1967 139.905 -68.4736 139.39 -68.6422 139.594C-68.8366 139.811 -68.0396 139.424 -65.7472 138.182C-64.6895 137.619 -63.6989 137.081 -63.5317 136.991C-63.3644 136.902 -63.129 136.769 -62.9946 136.701C-62.6247 136.5 -61.0291 135.58 -59.6689 134.793C-59.0055 134.393 -58.0653 133.848 -57.5867 133.574C-54.6645 131.888 -44.815 125.565 -39.7703 122.148C-39.3247 121.846 -38.6607 121.398 -38.2998 121.157C-35.6936 119.453 -29.8407 115.346 -25.3996 112.117C-22.4972 110.003 -15.5298 104.802 -14.3512 103.862C-14.1152 103.682 -12.7693 102.651 -11.355 101.563C-1.39898 93.9744 6.04348 88.0049 13.1552 81.904C13.6951 81.4487 14.9576 80.3661 15.9864 79.4972C22.0516 74.3812 30.4012 67.2585 32.4994 65.4087C33.056 64.919 34.8336 63.3779 36.4598 61.9721C42.9481 56.354 43.7129 55.8579 44.5883 56.5935C45.0752 57.0026 45.0346 57.6124 44.4753 58.4115C44.0005 59.0852 39.2762 64.3216 36.0587 67.7389C32.3337 71.7028 28.2321 75.8445 23.1019 80.8552C22.1061 81.8334 20.7559 83.1576 20.1069 83.783C17.0442 86.7861 10.575 92.8165 7.40658 95.6311C2.61148 99.8995 -0.565323 102.625 -5.65292 106.847C-7.89352 108.709 -11.8339 111.898 -12.5753 112.447C-12.7351 112.561 -12.828 112.664 -12.7783 112.656C-12.6942 112.645 -8.62267 109.599 -5.14603 106.944C-4.80125 106.69 -3.48729 105.681 -2.2089 104.71C-0.938118 103.732 0.880577 102.339 1.83178 101.588C2.78268 100.853 3.75098 100.1 3.98678 99.9333C5.51838 98.7792 8.91978 96.1096 14.7956 91.4459C19.4088 87.7836 20.285 87.0673 22.5518 85.0956C23.3272 84.4267 26.0404 82.0702 28.585 79.8539C32.993 76.0176 34.8712 74.3792 37.9474 71.6845C38.6892 71.0369 39.4216 70.3825 39.5824 70.2539C39.7338 70.1331 40.2055 69.7214 40.627 69.3502C43.298 67.0247 44.4507 66.1785 44.8757 66.2391C45.1588 66.2786 45.6467 66.6717 45.6853 66.8871C45.7412 67.1648 45.5347 67.6026 45.1468 68.0337C44.7666 68.4571 44.7666 68.4571 45.0833 68.4755C45.3418 68.4948 45.4403 68.5624 45.5964 68.8408C46.0614 69.7262 45.8821 70.0384 43.4683 72.4964C39.1212 76.9116 35.4454 80.2569 29.3885 85.314C25.5552 88.5114 24.6879 89.2673 22.5212 91.2574C21.5937 92.1119 20.2195 93.3645 19.4525 94.0401C18.6856 94.7158 17.826 95.4784 17.5479 95.7394C12.8775 99.9652 4.89028 106.798 -1.02952 111.639C-1.33213 111.88 -2.20835 112.596 -2.97555 113.223C-5.78065 115.518 -13.0117 121.287 -15.0154 122.821C-15.2679 123.021 -16.6824 124.126 -18.172 125.282C-19.654 126.447 -21.1435 127.603 -21.4883 127.857C-21.8331 128.112 -22.5739 128.677 -23.1299 129.118C-23.6859 129.559 -24.3334 130.053 -24.5607 130.225C-24.788 130.397 -25.6124 131.007 -26.3697 131.592C-27.1355 132.169 -29.3901 133.839 -31.3757 135.289C-33.3613 136.739 -34.9767 137.955 -34.9771 137.987C-34.9778 138.053 -27.1864 133 -24.438 131.153C-17.9895 126.805 -14.5755 124.379 -9.64281 120.653C-6.45422 118.234 -6.20086 118.034 -5.71238 117.653C-5.45121 117.444 -4.45859 116.662 -3.49897 115.917C-0.637222 113.686 3.55589 110.346 5.66998 108.608C6.76498 107.714 7.85918 106.818 8.12018 106.626C8.37268 106.427 9.26538 105.69 10.0994 104.99C10.9335 104.288 11.995 103.398 12.4587 103.013C14.0504 101.694 18.1293 98.093 20.5072 95.9182C27.8854 89.1493 33.9758 83.2803 40.2065 76.9165C42.2579 74.8297 42.7042 74.4624 43.2894 74.3763C44.1081 74.2565 44.6467 75.2202 44.1798 75.9499C43.5603 76.9136 35.1522 85.4397 31.9067 88.4041C31.4426 88.8226 31.063 89.1967 31.0711 89.2354C31.0706 89.2837 31.2956 89.3088 31.5705 89.3098C32.1711 89.302 32.5099 89.5553 32.6532 90.1207C32.8361 90.8843 32.6151 91.2429 30.7398 93.2969C29.2281 94.9458 27.6837 96.4691 23.6264 100.271C22.8589 100.995 21.6103 102.206 20.8433 102.963C17.5599 106.226 16.6316 107.146 15.4514 108.216C14.0173 109.536 11.2452 111.941 8.24618 114.486C7.09188 115.463 5.09468 117.166 3.81478 118.269C2.53398 119.37 1.10968 120.583 0.655281 120.975C0.191582 121.362 -0.633919 122.07 -1.19816 122.553C-5.19146 125.945 -11.7473 130.896 -13.0048 131.472C-13.3993 131.653 -13.9991 131.595 -14.3045 131.338C-14.5521 131.13 -14.4929 130.322 -14.2143 130.013C-14.1041 129.89 -13.3805 129.328 -12.6064 128.773C-9.57743 126.599 -6.60611 124.229 -2.30111 120.555C-0.649323 119.153 0.276581 118.366 0.782578 117.949C1.47288 117.375 0.910477 117.71 -0.653824 118.805C-1.53665 119.432 -2.59648 120.174 -3.0084 120.455C-3.42901 120.746 -4.21935 121.302 -4.76543 121.7C-5.32001 122.092 -7.01927 123.304 -8.55833 124.369C-13.3186 127.711 -14.3361 128.424 -19.4151 131.991C-21.0892 133.176 -22.7709 134.352 -23.1578 134.621C-23.9065 135.132 -27.5227 137.702 -30.2898 139.682C-32.7037 141.415 -34.3087 142.409 -34.8435 142.505C-35.4118 142.605 -35.7597 142.33 -35.7447 141.782C-35.747 141.317 -35.4435 140.93 -34.7959 140.566C-34.2336 140.247 -31.6006 138.384 -29.6398 136.93C-28.8067 136.309 -26.9557 134.945 -25.5255 133.886C-24.0953 132.827 -22.9249 131.931 -22.9253 131.898C-22.9163 131.856 -23.2103 132.02 -23.5549 132.26C-23.8995 132.497 -24.7818 133.076 -25.5138 133.55C-26.2535 134.018 -27.8081 135.022 -28.9673 135.763C-30.1267 136.52 -33.32 138.539 -36.0603 140.28C-40.3711 142.993 -42.1775 144.131 -46.1859 146.62C-47.4207 147.38 -48.4532 147.916 -48.8378 147.989C-49.2225 148.062 -49.7029 147.757 -49.8233 147.36C-49.9357 147.018 -49.5529 146.365 -48.9041 145.756C-47.1667 144.147 -42.7994 140.855 -36.6929 136.532C-29.7885 131.66 -25.9428 128.803 -13.2839 119.081C-8.39465 115.336 -0.0509262 108.704 -0.049324 108.572C-0.0411224 108.531 -0.284622 108.688 -0.578522 108.919C-1.22599 109.414 -5.89455 112.751 -8.35883 114.475C-8.82957 114.805 -9.62843 115.356 -10.1243 115.713C-11.3863 116.6 -17.8098 121.002 -18.617 121.528C-18.9779 121.769 -19.8862 122.375 -20.634 122.885C-23.7366 124.98 -32.1481 130.384 -34.1648 131.561C-34.484 131.756 -35.6934 132.472 -36.8531 133.179C-44.9509 138.056 -48.2092 139.921 -48.7261 139.948C-48.9764 139.968 -49.6055 140.282 -50.7228 140.959C-53.8057 142.839 -54.7548 143.347 -55.2461 143.378C-55.822 143.406 -56.0368 143.242 -56.0222 142.725C-56.0183 142.398 -55.941 142.233 -55.5695 141.819C-54.8768 141.049 -52.6959 139.383 -49.4925 137.159C-48.0294 136.145 -43.7238 133.147 -41.7639 131.775C-38.6189 129.567 -21.3647 117.057 -19.0509 115.306C-15.7346 112.813 -14.8683 112.139 -12.2669 110.118C-9.99399 108.349 -7.15735 106.064 -4.94192 104.23C-4.04055 103.486 -2.91167 102.554 -2.41517 102.146C1.14718 99.1997 6.27208 94.7119 11.4898 89.9902C18.9252 83.2378 29.2795 73.0309 35.0749 66.7475C38.0234 63.5502 38.083 63.4343 35.7238 65.478C34.1402 66.8364 30.6861 69.7581 29.0182 71.1441C21.9767 76.958 17.7831 80.4125 14.8269 82.8116C14.3892 83.1692 12.6629 84.5736 10.9943 85.9442C9.31808 87.308 7.71888 88.6023 7.44138 88.8149C7.15528 89.0372 6.75148 89.3571 6.53258 89.536C0.0666809 94.71 -15.8793 106.62 -25.114 113.18C-31.5565 117.747 -39.29 122.897 -47.6773 128.207C-52.0884 131.001 -56.8774 133.94 -57.7168 134.373C-57.8428 134.448 -58.4724 134.811 -59.1107 135.181C-59.7413 135.559 -61.9492 136.822 -64.0145 137.989C-71.1755 142.022 -74.1038 143.504 -74.6021 143.333ZM-11.1196 114.68C-11.2033 114.726 -11.272 114.816 -11.2717 114.866C-11.281 114.925 -11.2052 114.888 -11.1199 114.779C-11.0279 114.674 -11.0273 114.626 -11.1196 114.68ZM-10.8255 114.514C-10.8676 114.594 -10.785 114.565 -10.6406 114.454C-10.3718 114.252 -4.01072 109.614 -2.96023 108.865C-0.352921 106.998 7.35078 100.882 12.4887 96.6054C22.4695 88.2959 23.1434 87.741 26.3037 85.0337C27.1544 84.2962 28.275 83.3412 28.7813 82.9072C32.0504 80.1274 36.3495 76.2176 38.2228 74.3435L38.9831 73.5789L37.8123 74.5745C37.1634 75.1187 35.765 76.3201 34.6861 77.2277C33.6165 78.144 32.2007 79.3619 31.5266 79.9341C30.8526 80.5073 29.8755 81.3511 29.3356 81.8063C28.7957 82.2606 27.567 83.3055 26.6064 84.1319C25.6373 84.9515 24.1214 86.2342 23.2361 86.992C22.3517 87.7497 21.079 88.8255 20.4058 89.3968C19.7317 89.969 18.9227 90.6591 18.6033 90.9346C18.284 91.21 17.6004 91.791 17.0874 92.2172C16.582 92.6502 15.4441 93.6255 14.5588 94.3833C13.6659 95.1343 12.6968 95.953 12.4027 96.2014C12.1 96.4411 11.3587 97.0558 10.7695 97.5497C9.77538 98.38 9.07658 98.9493 6.65028 100.937C5.45499 101.911 0.445679 105.884 -0.724724 106.782C-1.25472 107.194 -1.91953 107.708 -2.18936 107.927C-2.46685 108.139 -2.85418 108.441 -3.07348 108.587C-3.28431 108.741 -3.99039 109.268 -4.63869 109.763C-6.5406 111.233 -9.47752 113.451 -10.1419 113.931C-10.4885 114.187 -10.7913 114.444 -10.8255 114.514ZM10.6538 107.239C10.5701 107.283 10.5022 107.375 10.5017 107.424C10.4924 107.482 10.5674 107.447 10.6535 107.336C10.7455 107.232 10.7461 107.184 10.6538 107.239Z" fill="#808082"/>
<path fill-rule="evenodd" clip-rule="evenodd" d="M-110.312 121.233C-111.053 121.154 -111.236 120.292 -110.661 119.653C-109.883 118.788 -107.917 117.505 -103.811 115.164C-99.5792 112.764 -98.8986 112.363 -95.5473 110.394C-93.8592 109.403 -92.3482 108.529 -92.1877 108.431C-92.0204 108.341 -91.2382 107.893 -90.4403 107.424C-88.3906 106.21 -86.4929 105.099 -85.4097 104.475C-84.0495 103.688 -80.303 101.473 -78.7404 100.51C-77.9837 100.057 -75.8509 98.7647 -74.002 97.6445C-64.7194 92.0307 -54.5529 85.7093 -54.4422 85.4716C-54.4158 85.4116 -55.4148 85.9413 -56.6747 86.6479C-59.8154 88.4147 -65.4977 91.4923 -67.3102 92.4279C-67.5954 92.5681 -69.2485 93.4225 -70.9937 94.3147C-75.7099 96.7533 -79.8206 98.8421 -82.6073 100.23C-85.3923 101.618 -91.2809 104.458 -94.6946 106.059C-96.9255 107.104 -99.2404 108.211 -99.8522 108.522C-101.388 109.295 -102.106 109.286 -102.096 108.501C-102.092 108.208 -102.008 108.081 -101.645 107.726C-101.392 107.493 -101.207 107.302 -101.223 107.304C-101.257 107.309 -101.928 107.67 -102.743 108.107C-104.446 109.017 -107.524 110.424 -108.428 110.704C-109.667 111.081 -110.336 110.504 -109.807 109.528C-109.645 109.219 -109.418 109.064 -108.286 108.497C-104.702 106.674 -101.555 104.963 -99.1106 103.52C-98.5481 103.184 -97.6571 102.662 -97.1456 102.366C-96.1468 101.787 -95.6932 101.525 -92.2323 99.4829C-88.2424 97.11 -79.6543 91.6247 -74.1227 87.8918C-73.3499 87.3699 -72.0712 86.5125 -71.2812 85.9887C-68.3977 84.0894 -63.5815 80.8765 -62.7327 80.3043C-62.262 79.9747 -61.2612 79.2971 -60.5133 78.7868C-59.7646 78.2774 -58.7646 77.6008 -58.2854 77.276C-57.7985 76.96 -56.5954 76.1229 -55.5866 75.4202C-54.5864 74.7262 -53.1811 73.7452 -52.4754 73.2503C-50.8267 72.1107 -47.2444 69.5783 -45.3265 68.2039C-42.7781 66.3857 -42.4161 66.1289 -39.9516 64.3888C-38.6317 63.4527 -37.2607 62.4765 -36.9237 62.231C-36.5789 61.9768 -35.7384 61.3799 -35.0646 60.9057C-34.3917 60.4324 -33.0286 59.4647 -32.0282 58.7548C-30.1355 57.4087 -28.8577 56.4863 -26.4104 54.7487C-25.6027 54.1735 -24.938 53.6763 -24.9377 53.6427C-24.9373 53.6092 -25.3063 53.8108 -25.7525 54.0967C-26.9375 54.8497 -35.6493 60.2162 -37.834 61.5491C-39.7746 62.7399 -41.2281 63.5976 -46.561 66.7554C-48.3077 67.7786 -50.2729 68.9481 -50.9287 69.355C-52.0719 70.0452 -58.0431 73.5731 -59.286 74.2942C-59.6137 74.4807 -60.3529 74.9157 -60.948 75.2559C-62.4092 76.1075 -64.0298 77.0383 -64.8699 77.5206C-66.624 78.52 -74.6093 83.0126 -75.7932 83.6689C-76.5149 84.0691 -77.9257 84.8626 -78.9336 85.4184C-86.1787 89.4606 -94.7893 94.0208 -100.99 97.0761C-101.769 97.4599 -102.718 97.9335 -103.087 98.1181C-103.456 98.3037 -104.287 98.727 -104.925 99.0499C-105.564 99.3717 -106.881 100.046 -107.845 100.539C-109.615 101.46 -110.142 101.595 -110.548 101.254C-110.771 101.066 -110.72 100.366 -110.458 100.075C-110.23 99.8212 -107.331 98.0176 -103.686 95.867C-102.552 95.202 -101.308 94.4654 -100.931 94.2383C-100.553 94.0121 -99.9817 93.6835 -99.654 93.496C-97.6055 92.3796 -93.1214 89.796 -89.7961 87.8396C-88.3684 86.9939 -87.0082 86.2061 -86.7899 86.0766C-86.5632 85.9539 -85.673 85.431 -84.8249 84.9235C-83.9684 84.4228 -82.4984 83.5452 -81.5493 82.973C-77.7115 80.7045 -74.1914 78.5809 -72.4441 77.509C-68.731 75.2182 -62.1336 71.0272 -58.8055 68.8418C-58.2841 68.5035 -56.6283 67.4209 -55.1072 66.4219C-53.5939 65.433 -51.9129 64.3207 -51.3672 63.9556C-50.8294 63.5993 -50.0893 63.0994 -49.7284 62.8587C-49.359 62.6252 -48.4757 62.0305 -47.7606 61.5418C-47.0456 61.0531 -45.802 60.2018 -44.9939 59.6592C-43.5811 58.7011 -40.0155 56.2035 -36.7016 53.8403C-33.6229 51.659 -29.0136 48.2576 -25.7143 45.7498C-23.1306 43.7795 -18.9225 40.5511 -17.7605 39.6466C-12.0786 35.2149 -10.1924 33.6988 -11.1505 34.312C-11.4449 34.5102 -15.288 37.2202 -19.6867 40.3377C-23.3287 42.9201 -23.8667 43.2932 -27.0531 45.4485C-28.8441 46.6666 -30.5254 47.8108 -30.7949 47.9962C-31.7034 48.6188 -36.7301 51.9677 -39.2346 53.6081C-40.0495 54.1434 -41.21 54.9187 -41.8151 55.3167C-43.4038 56.3744 -45.1777 57.5239 -46.5139 58.3804C-49.1104 60.0586 -52.2027 62.0134 -53.0603 62.5315C-53.5641 62.8333 -54.9171 63.6603 -56.0759 64.3693C-65.0316 69.8615 -73.7051 74.8142 -81.6781 78.9869C-92.4118 84.6007 -108.107 92.2829 -109.177 92.4405C-109.395 92.4724 -109.652 92.4376 -109.743 92.3612C-109.982 92.1602 -109.917 91.5716 -109.621 91.242C-109.105 90.6688 -106.248 88.7646 -103.14 86.9388C-102.257 86.4091 -100.653 85.4638 -99.5699 84.824C-98.4942 84.1928 -97.0249 83.3006 -96.3104 82.8609C-95.0333 82.0692 -87.8761 77.7062 -86.4222 76.815C-86.0098 76.5666 -84.8771 75.8871 -83.9022 75.3033C-80.8023 73.4359 -75.1235 69.9272 -70.8385 67.2257C-68.5525 65.7964 -66.5363 64.5217 -66.3431 64.4028C-65.7296 64.027 -60.738 60.8299 -56.9815 58.4116C-54.9652 57.12 -52.9307 55.8101 -52.4775 55.5148C-50.8633 54.4784 -48.3755 52.7919 -41.1786 47.8844C-39.6147 46.8227 -40.429 47.2281 -42.6549 48.64C-47.1505 51.4777 -55.8377 56.8649 -58.602 58.536C-60.2395 59.5188 -63.7255 61.5884 -64.5234 62.0566C-67.6473 63.8527 -71.2162 65.9034 -73.3402 67.1039C-77.3702 69.3927 -79.9745 70.9344 -84.2592 73.5374C-87.9806 75.8059 -92.5074 78.4533 -93.7408 79.099C-94.0347 79.2488 -95.1674 79.8471 -96.2503 80.4386C-106.356 85.8708 -108.528 86.8354 -109.012 86.1153C-109.315 85.6794 -109.277 85.3314 -108.891 84.997C-108.705 84.822 -107.715 84.2856 -106.691 83.7936C-104.771 82.8502 -104.46 82.6994 -100.607 80.6571C-96.8555 78.6611 -96.1245 78.2687 -94.1601 77.1639C-90.2899 74.9892 -88.2567 73.7925 -83.939 71.1509C-82.41 70.2095 -80.7465 69.1975 -80.2427 68.8959C-75.7061 66.1416 -69.3701 62.0459 -64.3242 58.5962C-60.9363 56.2798 -61.0019 56.24 -64.6059 58.4425C-66.0427 59.3313 -67.4792 60.2017 -67.7983 60.3792C-68.1175 60.5736 -69.1174 61.1687 -70.0327 61.7196C-70.9405 62.2768 -72.1742 63.021 -72.7712 63.3785C-73.3673 63.735 -74.1904 64.2313 -74.6028 64.4795C-75.4847 65.0246 -81.0444 68.3053 -82.0362 68.8747C-87.3015 71.8913 -91.6572 74.2691 -97.3388 77.2161C-99.4367 78.3074 -101.678 79.4779 -102.307 79.8065C-104.842 81.1413 -107.099 82.2481 -107.442 82.3389C-107.86 82.4501 -108.516 82.2442 -108.721 81.9407C-108.901 81.6739 -108.717 80.8881 -108.396 80.5305C-107.991 80.0801 -107.402 79.7157 -104.901 78.3702C-102.182 76.9107 -99.9568 75.6947 -99.0242 75.1409C-98.68 74.936 -98.1679 74.6557 -97.9075 74.5117C-97.4455 74.2729 -96.1529 73.5451 -90.8969 70.5864C-86.3962 68.0492 -84.0872 66.7076 -82.1208 65.5047C-81.8178 65.3136 -80.6006 64.5877 -79.4333 63.8859C-78.266 63.1841 -76.4516 62.0857 -75.3842 61.4321C-66.8325 56.1955 -63.3116 54.0062 -63.3113 53.9081C-63.3185 53.8681 -63.7308 54.0996 -64.2511 54.4215C-65.4774 55.1889 -68.3344 56.9466 -70.1653 58.0633C-75.3486 61.2468 -82.225 65.1206 -86.6392 67.3678C-86.9917 67.5495 -87.302 67.7177 -87.3194 67.737C-87.3368 67.7563 -87.7557 67.9796 -88.2512 68.2242C-88.7466 68.4687 -89.6439 68.9355 -90.2394 69.2429C-90.8437 69.5609 -91.951 70.1148 -92.6894 70.483C-94.3161 71.2775 -95.6673 71.957 -97.0107 72.6269C-101.558 74.9099 -102.798 75.369 -103.436 74.9998C-103.917 74.7272 -103.959 74.0651 -103.534 73.4475C-102.889 72.5205 -100.459 70.8184 -92.8455 65.9808C-91.8374 65.3434 -89.7191 63.9716 -87.3571 62.4249C-85.8351 61.4265 -79.6677 57.4534 -77.8017 56.2662C-77.188 55.8736 -76.2894 55.2934 -75.8008 54.977C-75.314 54.6608 -73.8931 53.7417 -72.6491 52.9231C-69.5147 50.8885 -68.1358 49.968 -66.1177 48.595C-65.1592 47.9482 -63.4614 46.7857 -62.3172 46.0136C-61.1903 45.244 -60.1143 44.5147 -59.938 44.3832C-59.7695 44.2605 -57.886 42.9726 -55.7754 41.5283C-53.6657 40.0849 -51.529 38.6132 -51.0246 38.261C-50.5202 37.9088 -48.4429 36.4551 -46.382 35.0181C-42.3363 32.197 -38.1817 29.2219 -38.0713 29.0826C-38.0288 29.0352 -40.3233 30.4572 -43.1542 32.252C-50.4814 36.8688 -54.867 39.6007 -57.4793 41.1675C-66.0469 46.2925 -79.5637 53.8571 -85.6469 56.93C-86.1923 57.197 -87.2919 57.759 -88.0969 58.1705C-90.3625 59.3186 -98.2627 63.0574 -98.9914 63.3195C-100.122 63.7219 -100.837 63.4854 -100.852 62.7288C-100.868 61.9239 -100.235 61.3661 -96.5536 58.9001C-94.5693 57.5648 -89.3082 54.1655 -88.2332 53.5183C-87.3851 53.0109 -83.3024 50.5345 -82.1935 49.8497C-81.782 49.6024 -81.127 49.1954 -80.7146 48.9472C-74.0186 44.8235 -55.2285 32.8294 -51.2597 30.1419C-50.5707 29.6822 -49.3263 28.83 -48.4853 28.2658C-45.5345 26.2583 -39.5805 22.0721 -39.52 21.9569C-39.4944 21.8953 -40.4018 22.4206 -41.5445 23.1431C-42.687 23.8488 -44.0901 24.7168 -44.6534 25.0517C-45.2246 25.397 -46.359 26.0772 -47.1734 26.5638C-47.9965 27.06 -49.7521 28.1096 -51.0788 28.891C-52.4142 29.6819 -54.4302 30.8754 -55.5723 31.5493C-56.7068 32.2294 -58.0335 33.0124 -58.5122 33.2864C-59.3351 33.7658 -60.7791 34.6146 -65.4331 37.3702C-67.6415 38.6815 -70.8752 40.5683 -71.3535 40.8086C-71.5131 40.9049 -72.2522 41.3243 -72.9904 41.7428C-73.7209 42.1677 -76.2478 43.6078 -78.6073 44.9414C-80.9583 46.2821 -83.4688 47.7191 -84.1916 48.1352C-85.0481 48.6356 -85.6346 48.9019 -85.8772 48.9133C-86.3776 48.9215 -86.7981 48.5512 -86.7766 48.1085C-86.7443 47.5409 -86.222 47.0562 -84.2303 45.7441C-84.0457 45.6348 -83.4316 45.2104 -82.877 44.819C-81.254 43.675 -81.2713 43.6943 -76.8989 40.7683C-74.8646 39.4089 -73.3515 38.4368 -69.3519 35.8906C-68.0235 35.0428 -63.7626 32.2721 -62.3259 31.3189C-61.6024 30.8373 -60.569 30.1552 -60.014 29.7964C-59.4761 29.44 -58.2655 28.6255 -57.3407 28.0013C-54.953 26.378 -52.6577 24.8261 -49.8409 22.9195C-45.8974 20.2601 -44.805 19.5123 -44.8042 19.4469C-44.8038 19.415 -46.5669 20.3753 -48.7159 21.5874C-50.8658 22.8006 -53.1148 24.0609 -53.6942 24.3823C-58.0671 26.7623 -59.5611 27.5691 -60.5763 28.0853C-61.2055 28.4139 -62.5569 29.1101 -63.555 29.6238C-64.5617 30.147 -66.3155 31.049 -67.4574 31.6247C-68.5985 32.2163 -70.4367 33.1474 -71.5526 33.711C-72.6601 34.2817 -74.095 35.0061 -74.7403 35.3213C-77.2065 36.5482 -77.8278 36.8683 -77.8617 36.906C-77.8955 36.9436 -78.4574 37.2305 -81.4027 38.6988C-82.242 39.1153 -82.6359 39.247 -83.0693 39.2454C-83.9447 39.2352 -84.2481 38.8158 -84.0203 37.8686C-83.9499 37.5652 -83.8228 37.3907 -83.401 37.0029C-82.4398 36.1279 -80.6152 34.8889 -77.4487 32.9643C-74.9122 31.4338 -73.4841 30.5548 -69.3997 28.0137C-64.1737 24.7661 -63.1821 24.1471 -61.8131 23.3353C-61.1833 22.9578 -60.4604 22.5249 -60.2169 22.3669C-59.9735 22.2087 -58.915 21.5799 -57.8652 20.9607C-55.1351 19.3608 -53.1367 18.1373 -53.1359 18.0718C-53.1347 18.0391 -53.8898 18.362 -54.8123 18.7916C-63.0637 22.598 -64.8844 23.4285 -66.4934 24.1049C-67.1055 24.3665 -68.2119 24.8383 -68.9661 25.1619C-71.1788 26.107 -74.1032 27.2624 -75.402 27.7063C-76.7918 28.172 -77.4855 28.233 -78.023 27.8966C-78.3632 27.6938 -78.3949 27.6164 -78.3884 26.9965L-78.389 26.3199L-77.5951 25.5349C-77.1652 25.1049 -76.3224 24.393 -75.7166 23.9463C-74.5639 23.1001 -71.3955 21.0111 -70.1025 20.2506C-67.6165 18.7929 -65.4336 17.5415 -64.5852 17.0833C-63.0154 16.2403 -62.1176 15.7255 -62.1168 15.6601C-62.1156 15.6272 -62.8782 15.8608 -63.8165 16.1789C-66.9231 17.2304 -67.9911 17.2904 -68.29 16.4123C-68.4676 15.8513 -68.2113 15.3245 -67.4014 14.6342C-66.1468 13.577 -64.2123 12.2491 -59.8426 9.48681C-53.7917 5.66153 -49.3589 3.13367 -45.4421 1.29381C-43.4376 0.354985 -42.5418 0.00296021 -42.3165 0.075356C-42.0009 0.191441 -42.7574 0.711358 -45.4609 2.2337C-50.347 4.99073 -52.5395 6.33242 -57.3825 9.57303C-59.8543 11.2087 -63.479 13.7717 -63.4879 13.8794C-63.4813 13.968 -61.2021 13.1279 -58.8297 12.1509C-55.5449 10.8035 -54.631 10.4497 -52.4781 9.70003C-50.5684 9.0273 -50.3177 8.9753 -49.8849 9.10676C-49.4443 9.22961 -49.3781 9.28519 -49.2237 9.62851C-48.9309 10.3031 -49.3068 11.0108 -50.2815 11.6592C-50.9282 12.0884 -54.2293 14.0168 -55.3708 14.642C-55.8571 14.9094 -56.6548 15.3609 -57.1335 15.6348C-57.6121 15.9088 -59.1315 16.7603 -60.4922 17.5148C-64.3205 19.6271 -66.3523 20.7735 -68.2338 21.8986C-70.4425 23.2267 -72.6114 24.6051 -72.6124 24.6873C-72.6133 24.7696 -70.0486 23.7558 -67.2583 22.5708C-64.8692 21.5587 -53.7064 16.3217 -51.1226 14.9954C-50.1824 14.5146 -49.0751 13.9606 -48.665 13.7613C-48.254 13.5626 -46.8362 12.824 -45.5181 12.1167C-44.1999 11.4095 -41.3973 9.90446 -39.2903 8.77049C-33.742 5.79385 -31.9448 4.77915 -29.5169 3.24047C-28.3234 2.49457 -27.207 1.81614 -27.0221 1.75631C-26.2763 1.49167 -25.4342 2.2162 -25.6846 2.89705C-25.9085 3.50029 -26.4558 3.93166 -28.7657 5.3559C-31.1439 6.82286 -32.5385 7.69625 -35.1937 9.40832C-38.4549 11.5193 -44.2197 15.2037 -47.2276 17.1142C-50.7653 19.3554 -53.1261 20.8031 -60.5437 25.3101C-64.0889 27.462 -66.198 28.7755 -66.2822 28.8691C-66.6801 29.343 -55.489 23.1555 -48.6605 19.1263C-47.8039 18.626 -46.2917 17.7344 -45.3007 17.1641C-39.1459 13.6091 -36.9443 12.2904 -32.4916 9.53185C-24.3245 4.44984 -22.2007 3.26396 -21.459 3.34332C-20.9678 3.39338 -20.736 3.57123 -20.5914 4.0231C-20.4394 4.49817 -20.5439 4.93738 -20.9076 5.34169C-21.0769 5.52998 -22.9101 6.84306 -24.9786 8.27193C-27.047 9.7009 -29.7381 11.5489 -30.9491 12.3952C-32.16 13.2416 -33.6403 14.2583 -34.2455 14.658C-34.843 15.0641 -35.5987 15.5831 -35.9268 15.8023C-36.2464 16.0284 -36.7343 16.3606 -37.0114 16.5413C-37.28 16.7274 -37.7688 17.0605 -38.0884 17.2867C-38.408 17.513 -39.535 18.2826 -40.5773 18.9894C-41.6204 19.6972 -43.3346 20.863 -44.3693 21.5779C-45.4039 22.2928 -46.6733 23.1563 -47.1777 23.5068C-48.3555 24.2997 -56.0397 29.5552 -56.3257 29.7606C-56.4432 29.8433 -56.4937 29.916 -56.4439 29.9086C-56.1523 29.8741 -44.1107 22.3221 -38.0678 18.375C-36.9749 17.6598 -33.3619 15.3513 -30.0424 13.2401C-26.7229 11.1288 -22.9826 8.71211 -21.7219 7.85834C-18.2921 5.54332 -15.6871 3.87213 -15.3432 3.76464C-14.5315 3.50618 -13.77 4.01392 -13.8127 4.80322C-13.8451 5.45207 -14.3593 5.91129 -17.6323 8.29204C-20.7869 10.5908 -23.546 12.6105 -26.5169 14.801C-30.7484 17.9099 -38.9927 23.8842 -41.9108 25.9531C-49.4382 31.276 -54.2644 34.546 -60.5338 38.5993C-61.265 39.0746 -62.9206 40.1404 -64.1896 40.9718C-69.2836 44.2812 -76.435 48.8796 -78.3086 50.0605C-79.3251 50.6907 -80.3753 51.3435 -84.3151 53.757C-88.903 56.5681 -91.4566 58.1672 -91.5831 58.2913C-91.8364 58.5564 -86.7114 56.0339 -83.4709 54.3019C-82.5476 53.8069 -81.5744 53.2894 -81.3055 53.151C-80.8522 52.9219 -79.9201 52.4004 -77.1497 50.8682C-76.5702 50.5468 -75.1429 49.7332 -73.9838 49.0736C-72.8332 48.4069 -71.0445 47.3851 -70.0123 46.802C-63.2526 42.9454 -56.1122 38.5528 -48.5054 33.6102C-47.5047 32.9496 -45.6142 31.717 -44.303 30.8717C-43.0003 30.0193 -41.3274 28.9341 -40.6047 28.4518C-39.8812 27.9703 -38.9151 27.3315 -38.461 27.0352C-38.007 26.7407 -36.6115 25.8019 -35.3584 24.9401C-34.1055 24.095 -32.7601 23.1802 -32.3655 22.9188C-31.9786 22.6491 -31.2047 22.1115 -30.6502 21.7202C-30.0956 21.3287 -29.0099 20.5735 -28.2445 20.0289C-27.4793 19.5009 -26.0584 18.5005 -25.0909 17.8122C-24.1157 17.1303 -22.7699 16.182 -22.097 15.7087C-21.425 15.2347 -20.7427 14.7675 -20.5916 14.664C-20.4405 14.5606 -20.0285 14.2797 -19.6744 14.0317C-19.3211 13.7846 -18.1688 12.9703 -17.109 12.2273C-15.074 10.8025 -12.0198 8.60047 -11.3049 8.0473C-8.70348 6.02573 -8.25968 5.80555 -7.5883 6.1884C-7.30656 6.34209 -7.24967 6.45595 -7.23837 6.87892C-7.21983 7.48757 -7.43266 7.73906 -8.93085 8.97114C-10.101 9.9179 -10.4968 10.2122 -13.7363 12.5889C-14.998 13.5248 -17.1781 15.1904 -18.5675 16.2834C-20.9333 18.1556 -22.1965 19.1411 -25.8481 21.961C-26.6651 22.5946 -27.8433 23.5023 -28.4571 23.9762C-33.4064 27.8019 -42.8891 34.8318 -46.7146 37.5057C-47.6059 38.1259 -49.7084 39.6093 -52.2143 41.3806C-57.807 45.3587 -64.1737 49.8099 -66.4101 51.3129C-67.1251 51.8017 -67.9826 52.3842 -68.2937 52.6176C-68.6133 52.8438 -69.6305 53.5243 -70.5301 54.1206C-71.4376 54.7272 -72.5644 55.48 -73.0436 55.8025C-73.5144 56.1322 -75.1028 57.1732 -76.566 58.1229C-78.0283 59.0715 -80.1794 60.4648 -81.3318 61.2131C-83.7023 62.7526 -84.7865 63.4581 -86.8457 64.8287C-88.417 65.8671 -91.3677 67.7931 -92.9221 68.7799C-93.4598 69.1192 -93.9055 69.4382 -93.9059 69.472C-93.9073 69.586 -88.076 66.6654 -84.5011 64.7535C-78.7012 61.6578 -73.7204 58.7159 -65.4688 53.5068C-55.5368 47.2357 -50.2069 43.679 -41.4264 37.496C-40.1392 36.5814 -38.9869 35.7671 -38.8694 35.6844C-38.7604 35.5947 -38.2725 35.2625 -37.8009 34.9319C-37.3302 34.6022 -35.8754 33.5642 -34.5546 32.6287C-33.2431 31.6854 -31.804 30.6665 -31.3669 30.3577C-27.549 27.6756 -25.7572 26.3938 -22.2491 23.8311C-16.8564 19.8832 -13.6091 17.4962 -12.355 16.5539C-11.7829 16.128 -11.0509 15.5874 -10.7229 15.3683C-10.4032 15.1421 -9.30088 14.3518 -8.28404 13.6236C-5.81137 11.8413 -4.23824 10.7214 -2.76627 9.6808C-1.1519 8.54644 2.701 5.72948 4.01479 4.7373C6.01849 3.20316 7.88429 1.88525 8.19479 1.78183C8.7308 1.58822 9.1633 1.67212 9.4845 2.04019C9.8303 2.42904 9.8582 2.81683 9.6019 3.34361C9.3886 3.7745 9.4725 3.71274 6.3661 6.13515C5.2801 6.98824 2.923 8.85081 1.12189 10.2739L-2.14491 12.8581L-2.13428 13.411C-2.13137 13.8912 -2.18268 14.0294 -2.52119 14.4058C-2.9604 14.8942 -6.16275 17.6815 -7.83877 19.0286C-9.58992 20.4276 -11.9308 22.2884 -12.3845 22.6324C-12.6119 22.804 -13.9751 23.8529 -15.4144 24.9531C-18.7056 27.4998 -21.9125 29.953 -23.334 31.002C-26.9014 33.6471 -30.695 36.3816 -33.4277 38.2759C-36.5397 40.4462 -38.1632 41.6221 -43.6405 45.6972C-51.415 51.4885 -53.7629 53.2283 -56.6227 55.2953C-58.33 56.533 -59.7522 57.5662 -59.7773 57.5942C-59.9459 57.7982 -58.9891 57.2178 -54.8965 54.6344C-44.2922 47.9386 -37.7527 43.6496 -31.0092 38.988C-28.8735 37.5157 -25.6019 35.249 -23.7355 33.9637C-16.8489 29.2242 -13.6109 26.8971 -7.24946 22.1619C-2.25957 18.4516 0.447594 16.6189 1.14899 16.4831C1.34139 16.4465 1.6496 16.4581 1.8323 16.5133C2.115 16.5864 2.18089 16.6571 2.27709 17.0022C2.34139 17.2206 2.346 17.5549 2.2856 17.7346C2.1388 18.2043 2.6852 17.7739 -5.85423 24.0763C-7.03212 24.9506 -9.77502 26.9854 -11.9545 28.6023C-17.5415 32.7513 -17.398 32.6397 -23.7324 37.2654C-29.8406 41.7356 -31.5305 42.9539 -35.7192 45.9191C-37.1835 46.966 -38.7219 48.049 -39.1262 48.3363C-44.9972 52.5262 -56.237 60.0742 -62.3715 63.9443C-62.9843 64.3359 -65.2206 65.7578 -67.3302 67.1203C-75.2887 72.2451 -79.7338 75.0094 -87.9905 79.9998C-88.4107 80.2569 -89.1337 80.689 -89.5867 80.9683C-90.0319 81.238 -90.6704 81.6246 -90.981 81.8092C-91.3087 81.9967 -91.9213 82.3718 -92.3578 82.6318C-93.6013 83.4012 -95.4828 84.5263 -97.8515 85.9181C-99.0523 86.6247 -100.036 87.2346 -100.044 87.2607C-100.045 87.3254 -95.8509 85.3072 -93.3338 84.0401C-82.8374 78.7211 -76.4833 75.2675 -68.7472 70.6957C-66.8322 69.5667 -66.1859 69.1695 -64.1272 67.9129C-63.6233 67.6114 -62.3212 66.8077 -61.2289 66.1413C-58.3892 64.403 -53.9698 61.6333 -51.8849 60.2656C-50.8853 59.6212 -49.8011 58.9157 -49.456 58.7093C-48.5739 58.1473 -44.2358 55.2264 -40.4773 52.6436C-29.6392 45.2191 -27.9737 44.0445 -22.2286 39.8489C-8.33082 29.6831 -5.45347 27.5801 -4.21628 26.6896C-3.45957 26.1545 -1.4739 24.7051 0.199898 23.4716C6.43439 18.8941 7.8112 18.0718 8.84309 18.3271C9.60829 18.5244 9.766 19.3161 9.2383 20.1927C8.9315 20.711 7.05489 22.218 2.97359 25.2242C0.701797 26.8958 -4.17142 30.6702 -8.22086 33.8828C-8.88671 34.4129 -10.1232 35.3854 -10.9575 36.0382C-12.4134 37.1735 -14.1054 38.4901 -17.2706 40.9614C-18.0539 41.574 -19.2324 42.4969 -19.8972 43.0109C-20.5533 43.5153 -21.6226 44.3332 -22.2537 44.8247C-27.5901 48.9368 -33.9346 53.6846 -37.963 56.5692C-42.724 59.9769 -43.9263 60.8137 -50.2495 65.1354C-52.5277 66.7015 -63.1786 73.7887 -63.8258 74.185C-63.9854 74.2816 -65.2292 75.0848 -66.6077 75.9721C-70.8859 78.7452 -73.2635 80.2444 -76.7664 82.366C-78.6319 83.5046 -80.1525 84.4538 -80.1529 84.4876C-80.1538 84.5698 -78.6765 83.7317 -73.142 80.545C-66.7259 76.845 -65.1888 75.9422 -60.3754 73.0415C-58.0398 71.6216 -57.2426 71.1374 -53.1756 68.6137C-52.0917 67.9409 -50.2356 66.7958 -49.0499 66.0587C-47.8652 65.3375 -46.7651 64.6624 -46.614 64.5588C-46.4544 64.4626 -44.9924 63.5458 -43.3366 62.5275C-39.9762 60.4355 -36.4048 58.1733 -31.992 55.3151C-30.3451 54.2572 -28.5801 53.1341 -28.0839 52.8241C-26.58 51.9104 -16.4791 45.4829 -14.1758 43.97C-11.5281 42.2348 -10.6795 41.6787 -9.26714 40.7524C-8.67044 40.3472 -7.2831 39.4338 -6.19103 38.718C-1.54207 35.6617 0.988289 33.9279 4.07649 31.6714C5.58249 30.5781 7.00299 29.6096 7.23789 29.5274C7.94169 29.2614 8.6228 29.5523 8.7568 30.1766C8.8267 30.5658 8.6709 31.1431 8.3914 31.454C8.0954 31.783 4.74709 34.2326 0.709496 37.0926C-1.1909 38.4324 -4.80035 41.0912 -10.4887 45.3364C-12.3312 46.7077 -28.5677 58.5549 -31.1422 60.4008C-32.2697 61.219 -34.7 62.9709 -36.5256 64.2903C-43.7771 69.5319 -45.2735 70.6164 -46.4519 71.4573C-47.1248 71.9309 -48.3023 72.7728 -49.0505 73.3151C-49.8159 73.8602 -50.8924 74.6383 -51.4557 75.0394C-52.0189 75.4405 -53.0453 76.1771 -53.7347 76.671C-54.4249 77.1639 -55.2318 77.739 -55.5263 77.9372C-55.8294 78.145 -57.6707 79.4199 -59.6132 80.7731C-61.5644 82.1359 -63.81 83.6979 -64.625 84.2324C-66.3572 85.4 -67.2474 86.0041 -70.8216 88.4302C-72.293 89.4209 -73.6046 90.2995 -73.7631 90.3798C-74.1995 90.6234 -74.2681 90.7809 -73.832 90.5518C-72.4554 89.8279 -60.5968 82.8986 -57.4225 80.9635C-48.3751 75.4657 -29.9354 63.4752 -23.7784 59.08C-23.4924 58.8746 -20.9947 57.1456 -18.2285 55.2471C-15.4615 53.3478 -13.0148 51.659 -12.7874 51.4873C-12.5601 51.3157 -11.9797 50.9121 -11.5014 50.5889C-9.19748 49.0273 -4.80744 45.9195 -0.533905 42.8121C1.08949 41.6361 2.9653 40.2758 3.6382 39.8007C5.1355 38.7171 7.49129 36.9671 9.05669 35.7746C11.0682 34.2318 16.0261 30.3302 17.9883 28.7612C21.8108 25.6882 23.8485 24.0996 24.0827 23.9999C24.3935 23.8646 25.0095 23.9365 25.2657 24.1517C25.3565 24.228 25.4367 24.5427 25.433 24.8532C25.4265 25.4086 25.4265 25.4086 24.6323 26.2916C23.1784 27.9083 20.1375 30.5162 16.3421 33.3983C14.0784 35.1089 4.2773 42.2661 1.04829 44.5516C0.728691 44.7778 -0.0117035 45.3113 -0.599907 45.7236C-2.73627 47.2446 -4.45251 48.4425 -5.09917 48.8718C-5.46008 49.1124 -6.14233 49.5796 -6.61308 49.9093C-7.08383 50.239 -7.76521 50.7069 -8.12611 50.9475C-8.48701 51.1881 -9.03362 51.5541 -9.32806 51.7523C-9.63119 51.9602 -10.2865 52.3992 -10.807 52.7362C-16.0021 56.191 -17.1794 57.0165 -22.8495 61.0956C-23.6314 61.6587 -24.9272 62.5829 -25.7176 63.1405C-26.4995 63.7035 -27.3159 64.2884 -27.5172 64.4327C-27.8457 64.6854 -31.7561 67.4374 -33.9767 68.9868C-37.0887 71.1577 -43.5545 75.5894 -44.7312 76.3665C-45.4961 76.8624 -47.0259 77.8695 -48.1516 78.607C-50.5811 80.2115 -57.5731 84.6645 -60.2781 86.3173C-66.2182 89.9719 -69.2587 91.8209 -72.6438 93.8275C-73.114 94.1088 -73.61 94.4016 -73.7359 94.478C-74.8784 95.1836 -69.1467 92.196 -65.0082 89.9332C-54.3385 84.0836 -41.277 76.267 -30.6542 69.3879C-26.7292 66.8452 -26.2587 66.5323 -24.6865 65.4928C-23.8715 64.9576 -23.0816 64.4336 -22.9211 64.3362C-21.3251 63.3847 -12.3496 56.9351 -4.97109 51.455C-4.23135 50.9056 -2.55669 49.6729 -1.269 48.7096C0.0263977 47.7528 2.4082 45.9754 4.03989 44.7573C5.67239 43.5382 7.5824 42.1083 8.298 41.5709C9.0136 41.0335 10.1069 40.2203 10.7387 39.7447C13.4817 37.6948 16.03 35.893 16.4996 35.6606C17.3637 35.2479 18.1261 35.609 18.1174 36.4252C18.1082 37.2087 17.6264 37.7444 14.4333 40.4735C12.142 42.4252 5.5513 47.4963 3.5757 48.822C3.3071 49.0081 2.4322 49.6099 1.641 50.1668C-0.764404 51.8412 -7.55816 56.4776 -9.41522 57.7045C-9.98676 58.0817 -11.2223 58.9074 -12.1471 59.5334C-14.1814 60.8928 -17.888 63.2888 -22.3664 66.124C-26.6188 68.8205 -27.4001 69.3347 -29.5446 70.8165C-30.5198 71.4989 -31.8315 72.393 -32.4543 72.8269C-33.0855 73.2542 -33.8585 73.7916 -34.1781 74.0178C-34.4977 74.2449 -35.5737 74.9737 -36.5658 75.6416C-37.5579 76.3095 -39.3153 77.5051 -40.4751 78.2958C-41.6357 79.0864 -43.0562 80.053 -43.6278 80.4299C-44.1993 80.8079 -45.4437 81.6594 -46.4022 82.3061C-48.1007 83.4534 -48.9072 83.9956 -52.3709 86.2825C-53.3034 86.9001 -54.5906 87.7498 -55.2286 88.1692C-58.5412 90.3527 -66.1455 95.1488 -74.8491 100.554C-79.0247 103.134 -83.8133 106.039 -86.1473 107.393C-86.6259 107.668 -87.6162 108.254 -88.3562 108.672C-90.6152 109.99 -92.3705 111.008 -95.1333 112.629C-98.493 114.591 -101.314 116.197 -102.556 116.852C-103.077 117.125 -103.538 117.38 -103.572 117.418C-103.699 117.558 -102.912 117.279 -101.278 116.623C-100.356 116.26 -99.2837 115.826 -98.8809 115.667C-98.479 115.51 -97.44 115.08 -96.5757 114.717C-95.7122 114.353 -94.5561 113.874 -94.0197 113.648C-91.8151 112.729 -88.2532 111.202 -86.8106 110.549C-85.9717 110.164 -85.1004 109.791 -84.8826 109.695C-84.0021 109.345 -76.6223 105.862 -74.3241 104.709C-69.0135 102.062 -61.4425 98.0611 -57.6306 95.8863C-55.3633 94.5901 -53.094 93.1316 -48.9073 90.2648C-48.6128 90.0666 -48.2183 89.8047 -48.0411 89.6723C-47.8641 89.5572 -46.9315 88.9222 -45.973 88.2756C-45.023 87.6222 -43.3667 86.4903 -42.3069 85.747C-41.2385 85.0115 -40.1546 84.2566 -39.8851 84.07C-39.0276 83.4872 -34.6204 80.3768 -33.5778 79.6364C-33.0308 79.2382 -31.8535 78.4127 -30.9706 77.7854C-29.1626 76.5009 -26.042 74.2565 -20.406 70.165C-18.2608 68.6175 -16.41 67.2701 -16.2925 67.188C-16.1751 67.1049 -15.3083 66.4644 -14.3578 65.7618C-13.4072 65.0592 -11.6573 63.7744 -10.4795 62.9001C-9.2844 62.0234 -7.48427 60.6825 -6.47468 59.9143C-5.44792 59.1436 -4.04252 58.081 -3.3269 57.5436C0.426491 54.7413 6.24219 50.2254 17.0431 41.7461C18.7689 40.3919 20.5033 39.028 20.907 38.7233C21.2943 38.4217 22.9104 37.1398 24.4929 35.8802C27.4824 33.4918 29.6619 31.8749 30.2312 31.6111C31.2295 31.1469 32.1511 31.5247 32.1827 32.4086C32.223 33.2016 31.7995 33.7371 29.5399 35.8306C24.6834 40.295 19.7631 44.4924 14.5016 48.6505C13.1034 49.7531 11.7569 50.8313 11.5044 51.0326C10.8981 51.5296 9.06349 52.9569 6.4623 54.9616C5.2762 55.878 4.07969 56.8044 3.81159 57.023C3.5416 57.2588 3.0368 57.6429 2.69199 57.8971C2.34719 58.1513 1.8847 58.5048 1.66499 58.6845C1.45459 58.8704 0.907295 59.3018 0.452698 59.645C-0.00109863 59.989 -0.741905 60.5544 -1.1974 60.8985C-1.65115 61.2425 -2.6953 62.0325 -3.5284 62.6525C-4.3615 63.2724 -5.52219 64.1442 -6.12798 64.5925C-7.45718 65.587 -7.35707 65.5237 -8.87116 66.5779C-9.54405 67.0512 -10.352 67.6432 -10.6631 67.8762C-11.1679 68.2609 -13.9016 70.1708 -15.3298 71.1316C-15.6329 71.3394 -17.2307 72.4384 -18.8948 73.5799C-25.1509 77.8753 -27.0581 79.1434 -32.5713 82.6289C-35.2684 84.3378 -37.3525 85.6397 -40.2506 87.395C-42.2247 88.5907 -43.2331 89.2615 -47.8908 92.4086C-49.8156 93.7106 -52.1367 95.2745 -54.2467 96.6702C-54.9192 97.1119 -56.046 97.8649 -56.7686 98.3452C-57.4922 98.8266 -58.7278 99.653 -59.5091 100.167C-61.1149 101.228 -61.6356 101.581 -62.5691 102.215C-62.93 102.456 -64.0904 103.229 -65.1497 103.923C-66.209 104.618 -67.377 105.385 -67.7388 105.625C-69.0918 106.533 -70.6386 107.528 -71.7311 108.209C-74.5297 109.95 -84.4793 116.339 -84.5722 116.442C-84.8262 116.773 -72.8843 110.557 -67.5538 107.595C-64.0358 105.651 -56.0766 101.121 -53.4473 99.5689C-52.9686 99.2944 -51.5333 98.4554 -50.2568 97.7131C-48.9802 96.9708 -47.1662 95.9047 -46.2163 95.3334C-45.2674 94.7786 -44.2839 94.1852 -44.0244 94.0402C-40.9339 92.2491 -28.0851 84.0884 -22.3272 80.2666C-20.8309 79.2633 -17.8293 77.2326 -17.4422 76.9474C-17.2737 76.8247 -15.9702 75.9074 -14.5571 74.9167C-13.1525 73.9201 -11.9 73.0425 -11.7817 72.9603C-11.6727 72.8704 -11.1848 72.5389 -10.7132 72.2083C-7.63467 70.0432 2.96519 62.2712 4.9521 60.706C5.9369 59.9339 6.3242 59.6323 7.50249 58.7246C8.03249 58.3125 8.90829 57.6285 9.43829 57.2163C11.1045 55.8951 15.3727 52.585 17.7041 50.7992C18.6965 50.0335 18.8902 49.8828 20.2886 48.7634C20.7262 48.4059 21.8458 47.5319 22.7794 46.8151C23.7139 46.099 24.7747 45.2738 25.1533 44.9819C26.1216 44.2282 26.5407 44.0686 27.1559 44.2059C27.6462 44.3214 27.705 44.3537 27.809 44.6886C27.8736 44.875 27.8609 45.2269 27.7914 45.4498C27.6357 45.946 27.3238 46.2447 25.0077 48.1095C23.3315 49.4733 20.0633 52.2528 17.6865 54.3308C13.1692 58.289 4.618 65.5881 1.84779 67.8308C1.4437 68.1671 0.677399 68.7944 0.163498 69.2197C-0.350304 69.645 -1.33551 70.4511 -2.02566 71.0098C-2.71667 71.5675 -3.79348 72.4442 -4.42568 72.9526C-7.70104 75.6116 -14.6884 81.1239 -17.8444 83.5365C-21.3115 86.183 -26.2345 89.883 -29.3897 92.2308C-33.4703 95.2532 -42.1435 101.494 -44.0932 102.807C-44.3703 102.987 -45.1277 103.506 -45.7746 103.951C-46.431 104.407 -47.8179 105.353 -48.8602 106.061C-54.1063 109.638 -57.2004 111.74 -57.646 112.041C-57.9231 112.22 -58.6468 112.719 -59.2772 113.146C-59.8999 113.58 -60.7322 114.135 -61.1268 114.397C-61.5137 114.666 -62.2451 115.157 -62.758 115.502C-66.3401 117.953 -72.249 121.864 -75.1144 123.679C-76.9639 124.848 -79.8126 126.775 -79.8731 126.89C-80.0267 127.207 -70.307 122.01 -65.6803 119.316C-65.2101 119.035 -63.9835 118.316 -62.9589 117.725C-53.6375 112.31 -45.6137 107.387 -42.477 105.157C-41.4085 104.404 -36.0261 100.612 -33.9238 99.1456C-33.2509 98.672 -32.4605 98.1142 -32.1583 97.9074C-31.8723 97.7025 -30.0386 96.4218 -28.0959 95.0512C-22.1075 90.8602 -15.6647 86.1945 -10.7502 82.4878C-10.0943 81.9997 -9.16002 81.2989 -8.67174 80.9345C-8.18343 80.5691 -7.51102 80.0627 -7.17384 79.8007C-6.83754 79.5397 -4.9525 78.1208 -2.98366 76.64C-1.01481 75.1602 1.5261 73.2532 2.6627 72.3939C3.7985 71.5337 5.221 70.4685 5.8268 70.02C6.43259 69.5715 7.4333 68.8302 8.06429 68.3537C8.68649 67.8868 9.7892 67.0645 10.5049 66.5272C11.229 65.9969 12.1882 65.2846 12.642 64.9407C13.1043 64.6039 14.0809 63.8724 14.8302 63.3141C18.3725 60.6818 21.1575 58.6333 28.2997 53.4324C38.7474 45.8459 38.3021 46.1309 39.1527 46.2017C39.661 46.2493 39.8758 46.4128 40.095 46.9274C40.3627 47.5488 40.08 48.1365 38.7789 49.5832C37.621 50.8707 36.6264 51.8158 34.6203 53.5464C33.1631 54.7957 29.6511 57.6857 29.112 58.0748C28.9098 58.2185 27.6887 59.2054 26.4169 60.2651C19.3165 66.1449 8.2378 74.9331 2.3305 79.3735C-0.6903 81.6527 -7.17695 86.3975 -11.4171 89.4354C-13.3437 90.8186 -15.4636 92.4028 -17.8714 94.2741C-24.6304 99.5322 -32.1446 105.113 -38.5275 109.633C-39.9658 110.651 -41.2866 111.587 -41.4551 111.71C-41.6314 111.841 -42.1366 112.193 -42.5737 112.503C-43.0193 112.804 -44.2978 113.711 -45.4078 114.493C-46.5264 115.284 -47.7789 116.162 -48.1831 116.449C-49.4864 117.35 -52.0096 119.124 -52.8338 119.718C-53.8013 120.406 -57.8798 123.249 -59.9741 124.69C-61.5718 125.789 -62.5389 126.445 -64.3126 127.644C-64.9093 128.05 -65.7503 128.613 -66.1622 128.895C-66.5913 129.178 -68.029 130.147 -69.382 131.056C-73.2746 133.674 -73.6871 134.004 -72.085 133.19C-71.6067 132.947 -70.7588 132.521 -70.2219 132.248C-68.0573 131.162 -67.6126 130.943 -66.9662 130.611C-66.605 130.42 -65.9921 130.093 -65.6231 129.891C-65.0858 129.584 -64.9526 129.548 -64.9278 129.7C-64.922 129.853 -64.8887 129.864 -64.7871 129.752C-64.7194 129.676 -64.6844 129.541 -64.7247 129.474C-64.7978 129.28 -64.3972 129.303 -64.3078 129.494C-64.226 129.677 -64.3534 129.802 -64.8228 130.018C-65.0407 130.114 -65.5441 130.385 -65.9642 130.627C-66.3833 130.867 -66.7877 131.09 -66.8624 131.109C-66.9459 131.137 -67.2071 131.282 -67.4506 131.44C-68.5596 132.141 -76.818 136.47 -77.5208 136.72C-77.8812 136.846 -78.2533 136.583 -78.2734 136.171C-78.2937 135.791 -77.7959 135.269 -76.3477 134.142C-73.4013 131.85 -71.4834 130.476 -67.2296 127.582C-65.8842 126.668 -64.4888 125.727 -64.1355 125.48C-62.9749 124.69 -56.6607 120.328 -54.1714 118.592C-52.843 117.663 -51.2702 116.575 -50.682 116.163C-48.1756 114.424 -48.4941 114.553 -51.7969 116.629C-56.5779 119.623 -61.4323 122.522 -66.4292 125.369C-67.5287 125.996 -69.0233 126.851 -69.7624 127.271C-72.7008 128.958 -75.1603 130.274 -75.6209 130.399C-76.508 130.659 -76.8413 129.934 -76.1738 129.191C-75.7086 128.674 -63.3164 119.57 -60.3322 117.559C-59.9455 117.305 -59.5755 117.023 -59.5076 116.931C-59.3644 116.772 -59.5316 116.862 -62.2363 118.417C-69.1552 122.403 -73.5791 124.823 -80.0164 128.143C-81.6868 129.016 -83.2975 129.84 -83.5992 129.998C-85.4625 130.957 -87.7679 131.989 -88.0935 131.996C-88.936 132.031 -89.1603 131.215 -88.5093 130.491C-88.1039 130.041 -85.4032 128.103 -80.3078 124.596C-78.5753 123.396 -76.3228 121.907 -72.2039 119.197C-68.1024 116.506 -65.2275 114.616 -64.8404 114.331C-64.3352 113.979 -55.5088 108.051 -52.6079 106.132C-46.799 102.269 -40.9562 98.2863 -37.0117 95.4794C-36.0779 94.8125 -35.0015 94.0508 -34.6145 93.7811C-33.3199 92.89 -23.8557 85.9616 -20.6579 83.5665C-17.1067 80.9084 -12.9401 77.711 -9.45596 74.9959C-4.33848 70.9982 2.61759 65.3765 2.61939 65.2289C2.61979 65.197 1.8374 65.7274 0.895699 66.4036C-1.4515 68.0782 -6.56416 71.668 -7.37148 72.2093C-7.74088 72.4432 -8.78421 73.1681 -9.69205 73.8061C-12.7869 75.9741 -17.5706 79.1966 -21.2513 81.5802C-26.9668 85.2908 -38.5013 92.4105 -43.5573 95.3392C-44.4139 95.8399 -45.6059 96.5378 -46.2029 96.8954C-46.7991 97.2521 -47.5305 97.6773 -47.8322 97.8359C-48.1254 98.0011 -50.0657 99.0943 -52.1311 100.261C-64.6841 107.384 -74.7396 112.792 -86.4941 118.736C-90.1274 120.584 -91.7553 121.41 -92.5363 121.827C-96.2957 123.831 -97.1823 123.977 -97.1069 122.589C-97.0544 121.692 -96.5919 121.339 -88.7174 116.291C-87.5237 115.528 -85.4987 114.227 -84.2125 113.395C-82.935 112.57 -79.6998 110.488 -77.0269 108.791C-74.3547 107.093 -71.5892 105.325 -70.8918 104.871C-70.1943 104.419 -69.2524 103.807 -68.7994 103.529C-68.3454 103.234 -67.9506 102.956 -67.9251 102.895C-67.8986 102.834 -69.1072 103.402 -70.6176 104.147C-77.3131 107.497 -85.2373 111.083 -94.7673 115.085C-97.9526 116.418 -99.2766 116.971 -100.684 117.537C-101.556 117.895 -103.249 118.583 -104.456 119.07C-107.625 120.372 -110.054 121.268 -110.312 121.233ZM-93.8882 103.341C-93.4683 103.116 -92.772 102.761 -92.3359 102.534C-91.2612 101.985 -91.0681 101.883 -89.1387 100.849C-85.7895 99.0441 -77.7134 94.5621 -74.0264 92.4463C-70.7259 90.5663 -62.52 85.6658 -62.519 85.5837C-62.5098 85.5257 -63.3659 85.9935 -65.3815 87.1534C-67.9931 88.6554 -78.1948 94.4026 -79.5457 95.1314C-86.085 98.6787 -88.2165 99.857 -90.123 100.993C-91.3325 101.709 -92.8531 102.593 -93.4827 102.955C-94.7936 103.702 -95.038 103.943 -93.8882 103.341ZM-68.0835 125.386C-68.0088 125.449 -60.6271 121.142 -57.3084 119.096C-52.4433 116.089 -42.9467 109.915 -37.111 105.958C-36.3875 105.477 -35.0179 104.55 -34.0595 103.903C-33.1095 103.249 -32.1847 102.624 -32.0075 102.492C-31.8305 102.377 -30.889 101.716 -29.9045 101.041C-27.4068 99.3128 -23.0001 96.1695 -20.4 94.2615C-14.7125 90.0821 -7.61842 84.677 -7.62431 84.5224C-7.62306 84.4895 -8.18676 84.8578 -8.88465 85.344C-9.58233 85.8137 -10.5072 86.44 -10.9276 86.7136C-11.3643 86.99 -12.1552 87.5139 -12.693 87.8696C-14.0133 88.7569 -16.4592 90.3798 -16.8121 90.5953C-16.9717 90.692 -18.1732 91.4652 -19.4844 92.31C-20.8041 93.148 -24.7787 95.6814 -28.3243 97.9316C-34.5843 101.91 -36.0806 102.913 -40.8923 106.327C-44.4246 108.835 -45.0387 109.26 -45.9476 109.916C-47.3099 110.883 -48.285 111.565 -54.6009 115.927C-61.4117 120.63 -62.1009 121.107 -64.3891 122.715C-65.2978 123.354 -66.3653 124.091 -66.7522 124.359C-67.1383 124.628 -67.6022 124.964 -67.7864 125.107C-67.9652 125.238 -68.1004 125.371 -68.0835 125.386ZM-81.3393 85.2116C-81.2816 85.2608 -80.6939 84.8964 -80.6921 84.8153C-80.6917 84.7834 -80.8425 84.853 -81.0271 84.9622C-81.2212 85.0811 -81.3639 85.1913 -81.3393 85.2116ZM-63.0279 53.6956C-63.0288 53.7778 -62.1052 53.2508 -61.9697 53.1003C-61.9279 53.0372 -62.1362 53.1248 -62.4476 53.3088C-62.7762 53.4952 -63.0283 53.6629 -63.0279 53.6956ZM-61.768 52.9223C-61.7771 52.9639 -61.693 52.9515 -61.5844 52.8954C-61.2902 52.714 -61.2559 52.6427 -61.5244 52.7475C-61.6587 52.8008 -61.7761 52.8834 -61.768 52.9223ZM-61.0208 52.4625C-60.9631 52.5109 -60.3754 52.1473 -60.3736 52.0658C-60.3724 52.0329 -60.524 52.1038 -60.7086 52.213C-60.9018 52.3302 -61.0454 52.4418 -61.0208 52.4625ZM-60.1721 51.9708C-60.1813 52.0291 -60.1055 51.9928 -60.0202 51.8832C-59.9274 51.7799 -59.9268 51.7313 -60.0191 51.7859C-60.1036 51.83 -60.1715 51.9221 -60.1721 51.9708ZM-7.98612 82.4394C-7.99556 82.5148 -7.30571 82.0538 -6.61574 81.5115C-6.42208 81.3607 -5.44585 80.6629 -4.43703 79.9602C-1.00561 77.5805 4.2587 73.838 6.2532 72.362C6.97729 71.8323 8.62509 70.627 9.92139 69.6701C12.5638 67.7322 12.8491 67.5108 15.1724 65.7502C16.0732 65.055 17.3099 64.1319 17.9072 63.6765C19.6322 62.3876 22.1903 60.4127 23.3276 59.4875C25.1886 57.9994 27.993 55.6215 28.0535 55.5063C28.1219 55.3655 27.011 56.1486 21.5935 60.0925C16.26 63.9597 16.2687 63.9501 10.7311 68.1236C8.84609 69.5425 6.82619 71.063 6.2213 71.5105C5.6231 71.9648 3.9574 73.2377 2.5182 74.3377C1.08739 75.4454 -0.284302 76.4873 -0.511604 76.6584C-0.746605 76.8237 -1.64738 77.5186 -2.523 78.1865C-3.39777 78.8525 -4.9892 80.0742 -6.0498 80.8823C-7.11738 81.7 -7.98487 82.4066 -7.98612 82.4394ZM-41.0576 39.424C-41.1094 39.5296 -41.0924 39.5438 -41.016 39.459C-40.9572 39.41 -40.8137 39.2985 -40.7049 39.2256C-40.5192 39.1003 -40.5192 39.1003 -40.7541 39.1843C-40.8892 39.2367 -41.024 39.337 -41.0576 39.424ZM-40.302 38.905C-40.3537 39.0106 -40.3368 39.0249 -40.2604 38.9399C-40.2016 38.8911 -40.0581 38.7796 -39.9493 38.7066C-39.7645 38.5823 -39.7644 38.5823 -39.9993 38.6645C-40.1327 38.7168 -40.2675 38.8187 -40.302 38.905ZM-39.5784 38.4234C-39.5788 38.4569 -39.4945 38.4278 -39.3857 38.3549C-39.2854 38.2748 -38.2423 37.567 -37.0732 36.7837C-33.8529 34.5891 -31.8766 33.1979 -31.8758 33.1325C-31.8668 33.091 -33.6074 34.2515 -35.7258 35.7045C-37.8453 37.1736 -39.5781 38.3916 -39.5784 38.4234ZM-52.9321 17.9314C-52.9327 17.98 -52.8401 17.9748 -52.7313 17.9018C-52.5641 17.8119 -52.563 17.7958 -52.7225 17.811C-52.8393 17.8281 -52.9316 17.8827 -52.9321 17.9314ZM-31.6834 33.0147C-31.6761 33.0546 -31.5495 32.995 -31.3982 32.8747C-31.2471 32.7713 -31.1197 32.6461 -31.1115 32.6039C-31.1187 32.564 -31.2453 32.6236 -31.3966 32.7438C-31.5478 32.8473 -31.6743 32.9715 -31.6834 33.0147ZM-30.9184 32.5018C-30.9276 32.5601 -30.8518 32.5238 -30.7666 32.4141C-30.6737 32.3109 -30.6731 32.2623 -30.7654 32.3169C-30.8499 32.3611 -30.9178 32.4532 -30.9184 32.5018ZM-39.3001 21.8299C-39.3093 21.8881 -39.2335 21.8519 -39.1483 21.7422C-39.0554 21.639 -39.0548 21.5902 -39.1471 21.6449C-39.2316 21.6891 -39.2995 21.7811 -39.3001 21.8299ZM-10.7531 34.1021C-10.7623 34.1603 -10.6874 34.1251 -10.6013 34.0144C-10.5084 33.9111 -10.5079 33.8624 -10.6002 33.9171C-10.6847 33.963 -10.7525 34.0533 -10.7531 34.1021ZM-10.3323 33.7964C-10.3416 33.8547 -10.2658 33.8185 -10.1805 33.7088C-10.0877 33.6055 -10.0871 33.5568 -10.1794 33.6114C-10.2639 33.6557 -10.3318 33.7477 -10.3323 33.7964Z" fill="#808082"/>
</svg>
